<?xml version="1.0" standalone="no"?>
<!DOCTYPE svg PUBLIC "-//W3C//DTD SVG 20010904//EN"
 "http://www.w3.org/TR/2001/REC-SVG-20010904/DTD/svg10.dtd">
<svg version="1.0" xmlns="http://www.w3.org/2000/svg"
 width="205.000000pt" height="205.000000pt" viewBox="0 0 205.000000 205.000000"
 preserveAspectRatio="xMidYMid meet">

<g transform="translate(0.000000,205.000000) scale(0.100000,-0.100000)"
fill="currentColor" stroke="none">
<path d="M842 1839 c-91 -16 -238 -69 -314 -114 -250 -147 -398 -410 -398
-707 0 -181 36 -313 119 -440 123 -188 331 -309 619 -358 63 -11 139 -20 169
-20 l55 0 -7 32 c-25 129 -30 142 -64 178 -25 26 -56 44 -102 59 -119 39 -193
100 -244 201 -46 90 -53 151 -59 528 l-6 352 80 0 79 0 6 -32 c3 -18 25 -171
49 -339 48 -337 52 -350 119 -371 20 -6 39 -9 42 -6 3 2 -27 193 -65 424 -38
230 -70 425 -70 432 0 8 22 12 75 12 69 0 75 -2 80 -22 3 -13 37 -160 75 -328
38 -168 72 -315 75 -327 3 -13 11 -23 19 -23 21 0 66 50 66 73 0 12 -29 139
-65 283 -36 144 -65 265 -65 268 0 3 38 6 83 6 l84 0 37 -107 c185 -528 190
-547 163 -686 -20 -100 -56 -175 -118 -243 -67 -74 -75 -111 -53 -230 10 -52
22 -94 28 -94 28 1 154 64 230 114 184 122 301 306 341 531 19 109 19 202 1
297 -62 320 -280 549 -611 640 -81 23 -364 33 -453 17z"/>
</g>
</svg>
