<svg xmlns="http://www.w3.org/2000/svg" height="18" width="18" viewBox="0 0 18 18"><title>apartment building</title><g fill="none" stroke="currentColor" class="nc-icon-wrapper"><line x1="9" y1="7.25" x2="9" y2="6.75" stroke-linecap="round" stroke-linejoin="round" stroke="currentColor"></line><line x1="6.25" y1="7.25" x2="6.25" y2="6.75" stroke-linecap="round" stroke-linejoin="round" stroke="currentColor"></line><line x1="11.75" y1="7.25" x2="11.75" y2="6.75" stroke-linecap="round" stroke-linejoin="round" stroke="currentColor"></line><line x1="9" y1="10.5" x2="9" y2="10" stroke-linecap="round" stroke-linejoin="round" stroke="currentColor"></line><line x1="9" y1="16.25" x2="9" y2="13.75" stroke-linecap="round" stroke-linejoin="round" stroke="currentColor"></line><line x1="6.25" y1="10.5" x2="6.25" y2="10" stroke-linecap="round" stroke-linejoin="round" stroke="currentColor"></line><line x1="11.75" y1="10.5" x2="11.75" y2="10" stroke-linecap="round" stroke-linejoin="round" stroke="currentColor"></line><line x1="16.25" y1="16.25" x2="1.75" y2="16.25" stroke-linecap="round" stroke-linejoin="round"></line><path d="M3.25,16.25V4.88c0-.385,.221-.736,.569-.902L8.569,1.706c.273-.13,.59-.13,.863,0l4.75,2.272c.347,.166,.569,.517,.569,.902v11.37" stroke-linecap="round" stroke-linejoin="round"></path></g></svg>