<svg xmlns="http://www.w3.org/2000/svg" height="18" width="18" viewBox="0 0 18 18"><title>archive export</title><g fill="none" stroke="currentColor" class="nc-icon-wrapper"><polyline points="6.5 5.25 9 2.75 11.5 5.25" stroke-linecap="round" stroke-linejoin="round" stroke="currentColor"></polyline><line x1="9" y1="2.75" x2="9" y2="8.25" stroke-linecap="round" stroke-linejoin="round" stroke="currentColor"></line><path d="M12.75,2.75h.5c1.105,0,2,.895,2,2V13.25c0,1.105-.895,2-2,2H4.75c-1.105,0-2-.895-2-2V4.75c0-1.105,.895-2,2-2h.5" stroke-linecap="round" stroke-linejoin="round"></path><path d="M15.25,10.25h-4v1c0,.552-.448,1-1,1h-2.5c-.552,0-1-.448-1-1v-1H2.75" stroke-linecap="round" stroke-linejoin="round"></path></g></svg>