<svg xmlns="http://www.w3.org/2000/svg" height="18" width="18" viewBox="0 0 18 18"><title>armchair</title><g fill="none" stroke="currentColor" class="nc-icon-wrapper"><path d="M3.75,6.25V3.75c0-1.105,.895-2,2-2h6.5c1.105,0,2,.895,2,2v2.5" stroke-linecap="round" stroke-linejoin="round" stroke="currentColor"></path><line x1="5.75" y1="8.75" x2="12.25" y2="8.75" stroke-linecap="round" stroke-linejoin="round" stroke="currentColor"></line><path d="M16.25,8.25c0-1.104-.895-2-2-2s-2,.896-2,2v3H5.75v-3c0-1.104-.895-2-2-2s-2,.896-2,2c0,.738,.405,1.376,1,1.723v2.277c0,1.104,.895,2,2,2H13.25c1.105,0,2-.896,2-2v-2.277c.595-.346,1-.984,1-1.723Z" stroke-linecap="round" stroke-linejoin="round"></path><line x1="5.25" y1="14.25" x2="5.25" y2="16.25" stroke-linecap="round" stroke-linejoin="round"></line><line x1="12.75" y1="14.25" x2="12.75" y2="16.25" stroke-linecap="round" stroke-linejoin="round"></line></g></svg>