<svg xmlns="http://www.w3.org/2000/svg" height="18" width="18" viewBox="0 0 18 18"><title>arrow door out 2</title><g fill="none" stroke="currentColor" class="nc-icon-wrapper"><path d="M2.094,3l4.744,3.45c.259,.188,.412,.489,.412,.809v9.009c0,.409-.464,.645-.794,.404l-4.294-3.123c-.259-.188-.412-.489-.412-.809V3.75c0-.552,.448-1,1-1h6.5c.552,0,1,.448,1,1v2" stroke-linecap="round" stroke-linejoin="round"></path><path d="M10.25,10.75v1.5c0,.552-.448,1-1,1h-2" stroke-linecap="round" stroke-linejoin="round"></path><polyline points="13.5 11 16.25 8.25 13.5 5.5" stroke-linecap="round" stroke-linejoin="round" stroke="currentColor"></polyline><line x1="16.25" y1="8.25" x2="10.25" y2="8.25" stroke-linecap="round" stroke-linejoin="round" stroke="currentColor"></line></g></svg>