<svg xmlns="http://www.w3.org/2000/svg" height="18" width="18" viewBox="0 0 18 18"><title>arrows bold opposite direction</title><g fill="none" stroke="currentColor" class="nc-icon-wrapper"><path d="M9.65,4.75h-3.4s0-2.506,0-2.506c0-.451-.549-.671-.861-.346L.942,6.538c-.247,.258-.247,.665,0,.923l2.308,2.408" stroke-linecap="round" stroke-linejoin="round" stroke="currentColor"></path><path d="M12.611,5.898l4.447,4.64c.247,.258,.247,.665,0,.923l-4.447,4.64c-.312,.325-.861,.105-.861-.346v-2.506s-5,0-5,0c-.552,0-1-.448-1-1v-2.5c0-.552,.448-1,1-1h5s0-2.506,0-2.506c0-.451,.549-.671,.861-.346Z" stroke-linecap="round" stroke-linejoin="round"></path></g></svg>