<svg xmlns="http://www.w3.org/2000/svg" height="18" width="18" viewBox="0 0 18 18"><title>audio description</title><g fill="none" stroke="currentColor" class="nc-icon-wrapper"><path d="M14.25,2.25H3.75c-1.105,0-2,.896-2,2v7c0,1.104,.895,2,2,2h2v3l3.75-3h4.75c1.105,0,2-.896,2-2V4.25c0-1.104-.895-2-2-2Z" stroke-linecap="round" stroke-linejoin="round"></path><path d="M12,10h-1.75V5.25h1.75c.966,0,1.75,.784,1.75,1.75v1.25c0,.966-.784,1.75-1.75,1.75Z" stroke-linecap="round" stroke-linejoin="round" stroke="currentColor"></path><polyline points="8.187 10 6.234 5.25 5.766 5.25 3.813 10" stroke-linecap="round" stroke-linejoin="round" stroke="currentColor"></polyline><line x1="4.527" y1="8.75" x2="7.473" y2="8.75" stroke-linecap="round" stroke-linejoin="round" stroke="currentColor"></line></g></svg>