<svg xmlns="http://www.w3.org/2000/svg" height="18" width="18" viewBox="0 0 18 18"><title>augmented reality 2</title><g fill="none" stroke="currentColor" class="nc-icon-wrapper"><path d="M8.398,.912l-2.55,1.479c-.37,.215-.598,.61-.598,1.038v2.968c0,.428,.228,.823,.598,1.038l2.55,1.479c.372,.216,.832,.216,1.204,0l2.55-1.479c.37-.215,.598-.61,.598-1.038V3.429c0-.428-.228-.823-.598-1.038l-2.55-1.479c-.372-.216-.832-.216-1.204,0Z" stroke-linecap="round" stroke-linejoin="round" stroke="currentColor"></path><polyline points="12.59 2.831 9 4.913 5.41 2.831" stroke-linecap="round" stroke-linejoin="round" stroke="currentColor"></polyline><line x1="9" y1="9.076" x2="9" y2="4.913" stroke-linecap="round" stroke-linejoin="round" stroke="currentColor"></line><line x1="9" y1="16.904" x2="9" y2="13.904" stroke-linecap="round" stroke-linejoin="round"></line><path d="M16.072,10.83l-6.663,2.987c-.26,.117-.558,.117-.818,0L1.927,10.83" stroke-linecap="round" stroke-linejoin="round"></path><path d="M13.384,9.465l2.275,1.02c.36,.161,.591,.518,.591,.913v1.705c0,.394-.231,.751-.591,.913l-6.25,2.802c-.26,.117-.558,.117-.818,0l-6.25-2.802c-.36-.161-.591-.518-.591-.913v-1.705c0-.394,.231-.751,.591-.913l2.275-1.02" stroke-linecap="round" stroke-linejoin="round"></path></g></svg>