<svg xmlns="http://www.w3.org/2000/svg" height="18" width="18" viewBox="0 0 18 18"><title>augmented reality</title><g fill="none" stroke="currentColor" class="nc-icon-wrapper"><path d="M8.398,.912l-2.55,1.479c-.37,.215-.598,.61-.598,1.038v2.968c0,.428,.228,.823,.598,1.038l2.55,1.479c.372,.216,.832,.216,1.204,0l2.55-1.479c.37-.215,.598-.61,.598-1.038V3.429c0-.428-.228-.823-.598-1.038l-2.55-1.479c-.372-.216-.832-.216-1.204,0Z" stroke-linecap="round" stroke-linejoin="round" stroke="currentColor"></path><polyline points="12.59 2.831 9 4.913 5.41 2.831" stroke-linecap="round" stroke-linejoin="round" stroke="currentColor"></polyline><line x1="9" y1="9.076" x2="9" y2="4.913" stroke-linecap="round" stroke-linejoin="round" stroke="currentColor"></line><rect x="1.75" y="13.75" width="14.5" height="2.5" rx="1.25" ry="1.25" stroke-linecap="round" stroke-linejoin="round"></rect><path d="M1.859,14.493l1.421-2.68c.347-.654,1.027-1.063,1.767-1.063" stroke-linecap="round" stroke-linejoin="round"></path><path d="M16.141,14.493l-1.421-2.68c-.347-.654-1.027-1.063-1.767-1.063" stroke-linecap="round" stroke-linejoin="round"></path><line x1="9" y1="9.076" x2="9" y2="11.25" stroke-linecap="round" stroke-linejoin="round" stroke="currentColor"></line></g></svg>