<svg xmlns="http://www.w3.org/2000/svg" height="18" width="18" viewBox="0 0 18 18"><title>automated logistics 2</title><g fill="none" stroke="currentColor" class="nc-icon-wrapper"><rect x="6.25" y="2.75" width="5.5" height="5.5" rx="1" ry="1" stroke-linecap="round" stroke-linejoin="round"></rect><path d="M1.75,2.75h1c.552,0,1,.448,1,1v3.5c0,.552-.448,1-1,1H1.75" stroke-linecap="round" stroke-linejoin="round"></path><path d="M16.25,2.75h-1c-.552,0-1,.448-1,1v3.5c0,.552,.448,1,1,1h1" stroke-linecap="round" stroke-linejoin="round"></path><line x1="9" y1="2.75" x2="9" y2="5" stroke-linecap="round" stroke-linejoin="round"></line><rect x="1.75" y="11.25" width="14.5" height="4" rx="2" ry="2" stroke="currentColor" stroke-linecap="round" stroke-linejoin="round"></rect><circle cx="9" cy="13.25" r=".75" stroke="none" fill="currentColor"></circle><circle cx="5.75" cy="13.25" r=".75" stroke="none" fill="currentColor"></circle><circle cx="12.25" cy="13.25" r=".75" stroke="none" fill="currentColor"></circle></g></svg>