<svg xmlns="http://www.w3.org/2000/svg" height="18" width="18" viewBox="0 0 18 18"><title>automated logistics</title><g fill="none" stroke="currentColor" class="nc-icon-wrapper"><rect x="6.25" y="10.75" width="5.5" height="5.5" rx="1" ry="1" stroke-linecap="round" stroke-linejoin="round"></rect><path d="M1.75,10.75h1c.552,0,1,.448,1,1v3.5c0,.552-.448,1-1,1H1.75" stroke-linecap="round" stroke-linejoin="round"></path><path d="M16.25,10.75h-1c-.552,0-1,.448-1,1v3.5c0,.552,.448,1,1,1h1" stroke-linecap="round" stroke-linejoin="round"></path><line x1="9" y1="10.75" x2="9" y2="13" stroke-linecap="round" stroke-linejoin="round"></line><path d="M11.5,8.25l.394-2.362c.065-.388-.104-.778-.432-.996l-2.462-1.641-2.462,1.641c-.327,.218-.496,.608-.432,.996l.394,2.362" stroke-linecap="round" stroke-linejoin="round" stroke="currentColor"></path><line x1="9" y1=".75" x2="9" y2="3.25" stroke-linecap="round" stroke-linejoin="round" stroke="currentColor"></line></g></svg>