<svg xmlns="http://www.w3.org/2000/svg" height="18" width="18" viewBox="0 0 18 18"><title>axis dotted x</title><g fill="none" stroke="currentColor" class="nc-icon-wrapper"><polyline points="13.763 13.225 16.237 10.75 13.763 8.275" stroke-linecap="round" stroke-linejoin="round"></polyline><line x1="7.25" y1="10.75" x2="16.25" y2="10.75" stroke-linecap="round" stroke-linejoin="round"></line><path d="M6.75,2.5c.414,0,.75-.336,.75-.75s-.336-.75-.75-.75-.75,.336-.75,.75,.336,.75,.75,.75Z" stroke="none" fill="currentColor"></path><path d="M6.75,5.5c.414,0,.75-.336,.75-.75s-.336-.75-.75-.75-.75,.336-.75,.75,.336,.75,.75,.75Z" stroke="none" fill="currentColor"></path><path d="M6.75,8.5c.414,0,.75-.336,.75-.75s-.336-.75-.75-.75-.75,.336-.75,.75,.336,.75,.75,.75Z" stroke="none" fill="currentColor"></path><circle cx="1.25" cy="16.75" r=".75" stroke="none" fill="currentColor"></circle><circle cx="3.25" cy="14.75" r=".75" stroke="none" fill="currentColor"></circle><circle cx="5.25" cy="12.75" r=".75" stroke="none" fill="currentColor"></circle></g></svg>