<svg xmlns="http://www.w3.org/2000/svg" height="18" width="18" viewBox="0 0 18 18"><title>axis dotted z</title><g fill="none" stroke="currentColor" class="nc-icon-wrapper"><polyline points="1.75 12.75 1.75 16.25 5.25 16.25" stroke-linecap="round" stroke-linejoin="round"></polyline><line x1="1.75" y1="16.25" x2="7.25" y2="10.75" stroke-linecap="round" stroke-linejoin="round"></line><path d="M7.25,2.5c.414,0,.75-.336,.75-.75s-.336-.75-.75-.75-.75,.336-.75,.75,.336,.75,.75,.75Z" stroke="none" fill="currentColor"></path><path d="M7.25,5.5c.414,0,.75-.336,.75-.75s-.336-.75-.75-.75-.75,.336-.75,.75,.336,.75,.75,.75Z" stroke="none" fill="currentColor"></path><path d="M7.25,8.5c.414,0,.75-.336,.75-.75s-.336-.75-.75-.75-.75,.336-.75,.75,.336,.75,.75,.75Z" stroke="none" fill="currentColor"></path><circle cx="16.25" cy="10.75" r=".75" stroke="none" fill="currentColor"></circle><circle cx="13.25" cy="10.75" r=".75" stroke="none" fill="currentColor"></circle><circle cx="10.25" cy="10.75" r=".75" stroke="none" fill="currentColor"></circle></g></svg>