<svg xmlns="http://www.w3.org/2000/svg" height="18" width="18" viewBox="0 0 18 18"><title>backpack 2</title><g fill="none" stroke="currentColor" class="nc-icon-wrapper"><path d="M5.75,16.25H2.75c-.828,0-1.5-.672-1.5-1.5v-2c0-.299,.131-.567,.339-.75" stroke-linecap="round" stroke-linejoin="round"></path><path d="M12.25,16.25h3c.828,0,1.5-.672,1.5-1.5v-2c0-.299-.131-.567-.339-.75" stroke-linecap="round" stroke-linejoin="round"></path><path d="M6.75,4.25v-1.25c0-1.243,1.007-2.25,2.25-2.25h0c1.243,0,2.25,1.007,2.25,2.25v1.25" stroke-linecap="round" stroke-linejoin="round" stroke="currentColor"></path><path d="M14.25,11.25v3c0,1.105-.895,2-2,2H5.75c-1.105,0-2-.895-2-2v-3" stroke-linecap="round" stroke-linejoin="round"></path><path d="M2.75,4.25H15.25v5c0,1.104-.896,2-2,2H4.75c-1.104,0-2-.896-2-2V4.25h0Z" stroke-linecap="round" stroke-linejoin="round"></path><line x1="6.75" y1="12.75" x2="6.75" y2="9.75" stroke-linecap="round" stroke-linejoin="round"></line><line x1="11.25" y1="12.75" x2="11.25" y2="9.75" stroke-linecap="round" stroke-linejoin="round"></line><line x1="8" y1="7.25" x2="10" y2="7.25" stroke-linecap="round" stroke-linejoin="round" stroke="currentColor"></line></g></svg>