<svg xmlns="http://www.w3.org/2000/svg" height="18" width="18" viewBox="0 0 18 18"><title>backpack 5</title><g fill="none" stroke="currentColor" class="nc-icon-wrapper"><path d="M6.75,4.25v-1.25c0-1.243,1.007-2.25,2.25-2.25h0c1.243,0,2.25,1.007,2.25,2.25v1.25" stroke-linecap="round" stroke-linejoin="round" stroke="currentColor"></path><rect x="3.75" y="4.25" width="10.5" height="7" rx="2" ry="2" stroke-linecap="round" stroke-linejoin="round"></rect><path d="M14.25,8.75h.5c1.105,0,2,.895,2,2v3.5c0,1.105-.895,2-2,2H3.25c-1.105,0-2-.895-2-2v-3.5c0-1.105,.895-2,2-2h.5" stroke-linecap="round" stroke-linejoin="round"></path><line x1="3.75" y1="16.25" x2="3.75" y2="13" stroke-linecap="round" stroke-linejoin="round"></line><line x1="14.25" y1="16.25" x2="14.25" y2="13" stroke-linecap="round" stroke-linejoin="round"></line><line x1="6.75" y1="12.75" x2="6.75" y2="9.75" stroke-linecap="round" stroke-linejoin="round"></line><line x1="11.25" y1="12.75" x2="11.25" y2="9.75" stroke-linecap="round" stroke-linejoin="round"></line></g></svg>