<svg xmlns="http://www.w3.org/2000/svg" height="18" width="18" viewBox="0 0 18 18"><title>backpack 4</title><g fill="none" stroke="currentColor" class="nc-icon-wrapper"><line x1="5.75" y1="10.75" x2="12.25" y2="10.75" stroke-linecap="round" stroke-linejoin="round" stroke="currentColor"></line><line x1="9.75" y1="10.75" x2="9.75" y2="12.25" stroke-linecap="round" stroke-linejoin="round" stroke="currentColor"></line><path d="M4.339,4.812l-.293-3.521c-.024-.292,.206-.542,.498-.542h1.747c.26,0,.477,.199,.498,.458l.146,1.757" stroke-linecap="round" stroke-linejoin="round" stroke="currentColor"></path><path d="M13.661,4.812l.293-3.521c.024-.292-.206-.542-.498-.542h-1.747c-.26,0-.477,.199-.498,.458l-.146,1.757" stroke-linecap="round" stroke-linejoin="round" stroke="currentColor"></path><path d="M9,2.75h0c3.176,0,5.75,2.574,5.75,5.75v5.75c0,1.105-.895,2-2,2H5.25c-1.105,0-2-.895-2-2v-5.75c0-3.176,2.574-5.75,5.75-5.75Z" stroke-linecap="round" stroke-linejoin="round"></path><path d="M5.75,16.25v-6.25c0-1.795,1.455-3.25,3.25-3.25h0c1.795,0,3.25,1.455,3.25,3.25v6.25" stroke-linecap="round" stroke-linejoin="round"></path></g></svg>