<svg xmlns="http://www.w3.org/2000/svg" height="18" width="18" viewBox="0 0 18 18"><title>backpack 3</title><g fill="none" stroke="currentColor" class="nc-icon-wrapper"><line x1="5.75" y1="10.75" x2="12.25" y2="10.75" stroke-linecap="round" stroke-linejoin="round" stroke="currentColor"></line><line x1="9.75" y1="10.75" x2="9.75" y2="12.25" stroke-linecap="round" stroke-linejoin="round" stroke="currentColor"></line><path d="M6.75,3.707V1.75c0-.552,.448-1,1-1h2.5c.552,0,1,.448,1,1v1.957" stroke-linecap="round" stroke-linejoin="round" stroke="currentColor"></path><path d="M9,3.25h0c3.176,0,5.75,2.574,5.75,5.75v5.25c0,1.105-.895,2-2,2H5.25c-1.105,0-2-.895-2-2v-5.25c0-3.176,2.574-5.75,5.75-5.75Z" stroke-linecap="round" stroke-linejoin="round"></path><path d="M5.75,16.25v-6.25c0-1.795,1.455-3.25,3.25-3.25h0c1.795,0,3.25,1.455,3.25,3.25v6.25" stroke-linecap="round" stroke-linejoin="round"></path></g></svg>