<svg xmlns="http://www.w3.org/2000/svg" height="18" width="18" viewBox="0 0 18 18"><title>bag link</title><g fill="none" stroke="currentColor" class="nc-icon-wrapper"><path d="M6.75,4.75v-1.75c0-1.243,1.007-2.25,2.25-2.25h0c1.243,0,2.25,1.007,2.25,2.25v1.75" stroke-linecap="round" stroke-linejoin="round"></path><path d="M12.75,17.25h-.5c-.828,0-1.5-.672-1.5-1.5v-1c0-.828,.672-1.5,1.5-1.5h.5" stroke-linecap="round" stroke-linejoin="round" stroke="currentColor"></path><path d="M15.25,17.25h.5c.828,0,1.5-.672,1.5-1.5v-1c0-.828-.672-1.5-1.5-1.5h-.5" stroke-linecap="round" stroke-linejoin="round" stroke="currentColor"></path><line x1="13.25" y1="15.25" x2="14.75" y2="15.25" stroke-linecap="round" stroke-linejoin="round" stroke="currentColor"></line><path d="M14.959,10.029l-.3-3.453c-.09-1.033-.955-1.827-1.992-1.827H5.334c-1.037,0-1.903,.793-1.992,1.827l-.652,7.5c-.102,1.168,.82,2.173,1.992,2.173h2.869" stroke-linecap="round" stroke-linejoin="round"></path></g></svg>