<svg xmlns="http://www.w3.org/2000/svg" height="18" width="18" viewBox="0 0 18 18"><title>bag refresh</title><g fill="none" stroke="currentColor" class="nc-icon-wrapper"><path d="M6.75,4.75v-1.75c0-1.243,1.007-2.25,2.25-2.25h0c1.243,0,2.25,1.007,2.25,2.25v1.75" stroke-linecap="round" stroke-linejoin="round"></path><polyline points="14.25 13.75 16.75 13.75 16.75 11.25" stroke-linecap="round" stroke-linejoin="round" stroke="currentColor"></polyline><path d="M16,16.387c-.501,.531-1.212,.863-2,.863-1.519,0-2.75-1.231-2.75-2.75s1.231-2.75,2.75-2.75c1.166,0,2.162,.726,2.563,1.75" stroke-linecap="round" stroke-linejoin="round" stroke="currentColor"></path><path d="M14.898,9.332l-.24-2.755c-.09-1.033-.955-1.827-1.992-1.827H5.334c-1.037,0-1.903,.793-1.992,1.827l-.652,7.5c-.102,1.168,.82,2.173,1.992,2.173h4.391" stroke-linecap="round" stroke-linejoin="round"></path></g></svg>