<svg xmlns="http://www.w3.org/2000/svg" height="18" width="18" viewBox="0 0 18 18"><title>ball soccer</title><g fill="none" stroke="currentColor" class="nc-icon-wrapper"><polyline points="7.464 1.914 9 3.263 10.536 1.914" stroke-linecap="round" stroke-linejoin="round" stroke="currentColor"></polyline><polyline points="1.786 8.272 3.544 7.228 2.735 5.349" stroke-linecap="round" stroke-linejoin="round" stroke="currentColor"></polyline><polyline points="6.078 15.636 5.628 13.641 3.592 13.83" stroke-linecap="round" stroke-linejoin="round" stroke="currentColor"></polyline><polyline points="14.408 13.83 12.372 13.641 11.923 15.636" stroke-linecap="round" stroke-linejoin="round" stroke="currentColor"></polyline><polyline points="15.264 5.349 14.456 7.227 16.214 8.271" stroke-linecap="round" stroke-linejoin="round" stroke="currentColor"></polyline><polygon points="9 5.51 5.675 7.926 6.945 11.75 11.054 11.75 12.324 7.926 9 5.51" stroke-linecap="round" stroke-linejoin="round" stroke="currentColor"></polygon><line x1="9" y1="3.263" x2="9" y2="5.51" stroke-linecap="round" stroke-linejoin="round" stroke="currentColor"></line><line x1="3.544" y1="7.228" x2="5.675" y2="7.926" stroke-linecap="round" stroke-linejoin="round" stroke="currentColor"></line><line x1="12.324" y1="7.926" x2="14.456" y2="7.227" stroke-linecap="round" stroke-linejoin="round" stroke="currentColor"></line><line x1="5.628" y1="13.641" x2="6.945" y2="11.75" stroke-linecap="round" stroke-linejoin="round" stroke="currentColor"></line><line x1="11.054" y1="11.75" x2="12.372" y2="13.641" stroke-linecap="round" stroke-linejoin="round" stroke="currentColor"></line><circle cx="9" cy="9" r="7.25" stroke-linecap="round" stroke-linejoin="round"></circle></g></svg>