<svg xmlns="http://www.w3.org/2000/svg" height="18" width="18" viewBox="0 0 18 18"><title>bank statement</title><g fill="none" stroke="currentColor" class="nc-icon-wrapper"><rect x="1.75" y="2.75" width="14.5" height="12.5" rx="2" ry="2" transform="translate(18) rotate(90)" stroke-linecap="round" stroke-linejoin="round"></rect><line x1="5.75" y1="10.25" x2="12.25" y2="10.25" stroke-linecap="round" stroke-linejoin="round" stroke="currentColor"></line><line x1="5.75" y1="13.25" x2="12.25" y2="13.25" stroke-linecap="round" stroke-linejoin="round" stroke="currentColor"></line><path d="M6.071,5.127l2.75-1.058c.116-.044,.243-.044,.359,0l2.75,1.058c.193,.074,.321,.26,.321,.467v.657c0,.276-.224,.5-.5,.5H6.25c-.276,0-.5-.224-.5-.5v-.657c0-.207,.127-.392,.321-.467Z" stroke-linecap="round" stroke-linejoin="round" stroke="currentColor"></path><line x1="9" y1="6.75" x2="9" y2="10.25" stroke-linecap="round" stroke-linejoin="round" stroke="currentColor"></line><line x1="6.75" y1="6.75" x2="6.75" y2="10.25" stroke-linecap="round" stroke-linejoin="round" stroke="currentColor"></line><line x1="11.25" y1="6.75" x2="11.25" y2="10.25" stroke-linecap="round" stroke-linejoin="round" stroke="currentColor"></line></g></svg>