<svg xmlns="http://www.w3.org/2000/svg" height="18" width="18" viewBox="0 0 18 18"><title>battery alert</title><g fill="none" stroke="currentColor" class="nc-icon-wrapper"><rect x="15.75" y="7.75" width="1.5" height="2.5" stroke-linecap="round" stroke-linejoin="round"></rect><path d="M15.04,13.267c.431-.367,.71-.907,.71-1.517V6.25c0-1.104-.895-2-2-2H3.75c-1.105,0-2,.896-2,2v5.5c0,.61,.279,1.15,.71,1.517" stroke-linecap="round" stroke-linejoin="round"></path><path d="M11.25,15.25h.433c.788,0,1.267-.869,.845-1.535l-2.933-4.631c-.393-.62-1.297-.62-1.69,0l-2.933,4.631c-.422,.666,.057,1.535,.845,1.535h.433" stroke="currentColor" stroke-linecap="round" stroke-linejoin="round"></path><line x1="8.75" y1="11.75" x2="8.75" y2="13.75" stroke="currentColor" stroke-linecap="round" stroke-linejoin="round"></line><circle cx="8.75" cy="16.25" r=".75" stroke="none" fill="currentColor"></circle></g></svg>