<svg xmlns="http://www.w3.org/2000/svg" height="18" width="18" viewBox="0 0 18 18"><title>bell minus</title><g fill="none" stroke="currentColor" class="nc-icon-wrapper"><path d="M10.588,15.185c-.095-.117-.237-.185-.388-.185h-2.399c-.151,0-.293,.068-.388,.185-.095,.117-.132,.271-.101,.418,.173,.822,.868,1.397,1.689,1.397s1.516-.575,1.689-1.397c.031-.147-.006-.301-.101-.418Z" stroke="none" fill="currentColor"></path><path d="M9.68,1.819c-.224-.032-.447-.069-.68-.069-2.623,0-4.75,2.127-4.75,4.75v4.75c0,1.104-.895,2-2,2H15.75c-1.105,0-2-.896-2-2V6.5" stroke-linecap="round" stroke-linejoin="round"></path><line x1="16.25" y1="3.75" x2="11.25" y2="3.75" stroke="currentColor" stroke-linecap="round" stroke-linejoin="round"></line></g></svg>