<svg xmlns="http://www.w3.org/2000/svg" height="18" width="18" viewBox="0 0 18 18"><title>bicycle 3</title><g fill="none" stroke="currentColor" class="nc-icon-wrapper"><circle cx="13.75" cy="11.25" r="3" stroke-linecap="round" stroke-linejoin="round" stroke="currentColor"></circle><path d="M7.25,11.25c0,1.657-1.343,3-3,3s-3-1.343-3-3,1.343-3,3-3c.683,0,1.314,.229,1.818,.613" stroke-linecap="round" stroke-linejoin="round" stroke="currentColor"></path><path d="M4.25,4.75h1.982l2.471,5.804c.14,.33-.102,.696-.46,.696h-2.984c-.414,0-.648-.474-.398-.803l2.435-3.197h4.75" stroke-linecap="round" stroke-linejoin="round"></path><path d="M13.75,11.25L10.344,3.25h3.406c.69,0,1.25,.56,1.25,1.25,0,.605-.429,1.109-1,1.225" stroke-linecap="round" stroke-linejoin="round"></path></g></svg>