<svg xmlns="http://www.w3.org/2000/svg" height="18" width="18" viewBox="0 0 18 18"><title>bike delivery</title><g fill="none" stroke="currentColor" class="nc-icon-wrapper"><path d="M6.75,12.75c0,1.657-1.343,3-3,3s-3-1.343-3-3,1.343-3,3-3c.576,0,1.114,.162,1.571,.444" stroke-linecap="round" stroke-linejoin="round"></path><circle cx="14.25" cy="12.75" r="3" stroke-linecap="round" stroke-linejoin="round"></circle><line x1="8.189" y1="12.617" x2="5.469" y2="6.725" stroke-linecap="round" stroke-linejoin="round"></line><path d="M6.32,8.568l-2.102,3.421c-.205,.333,.035,.762,.426,.762h3.047c.348,0,.67-.18,.852-.477l3.319-5.402" stroke-linecap="round" stroke-linejoin="round"></path><path d="M14.25,12.75L10.594,3.75h3.406c.69,0,1.25,.56,1.25,1.25h0c0,.69-.56,1.25-1.25,1.25" stroke-linecap="round" stroke-linejoin="round"></path><path d="M11.862,6.871c-.64,.425-1.602,.961-2.862,1.316-1.054,.297-1.984,.375-2.68,.38" stroke-linecap="round" stroke-linejoin="round"></path><rect x="1.25" y="1.75" width="5" height="5" rx="1" ry="1" stroke-linecap="round" stroke-linejoin="round" stroke="currentColor"></rect><line x1="3.75" y1="1.75" x2="3.75" y2="3.25" stroke-linecap="round" stroke-linejoin="round" stroke="currentColor"></line></g></svg>