<svg xmlns="http://www.w3.org/2000/svg" height="18" width="18" viewBox="0 0 18 18"><title>binary</title><g fill="none" stroke="currentColor" class="nc-icon-wrapper"><ellipse cx="6.75" cy="12.5" rx="1.5" ry="2.25" stroke-linecap="round" stroke-linejoin="round"></ellipse><path d="M6.75,7.75V3.25s-.516,.907-1.609,1.116" stroke-linecap="round" stroke-linejoin="round"></path><ellipse cx="11.25" cy="5.5" rx="1.5" ry="2.25" stroke-linecap="round" stroke-linejoin="round"></ellipse><path d="M11.75,14.75v-4.5s-.516,.907-1.609,1.116" stroke-linecap="round" stroke-linejoin="round"></path><path d="M3.25,15.75c-.552,0-1-.448-1-1v-4.75c0-.552-.448-1-1-1,.552,0,1-.448,1-1V3.25c0-.552,.448-1,1-1" stroke-linecap="round" stroke-linejoin="round" stroke="currentColor"></path><path d="M14.75,15.75c.552,0,1-.448,1-1v-4.75c0-.552,.448-1,1-1-.552,0-1-.448-1-1V3.25c0-.552-.448-1-1-1" stroke-linecap="round" stroke-linejoin="round" stroke="currentColor"></path></g></svg>