<svg xmlns="http://www.w3.org/2000/svg" height="18" width="18" viewBox="0 0 18 18"><title>blind</title><g fill="none" stroke="currentColor" class="nc-icon-wrapper"><circle cx="7.75" cy="2.5" r="1.5" stroke-linecap="round" stroke-linejoin="round"></circle><path d="M9,16.75l-.453-3.17c-.031-.214-.13-.413-.283-.566l-1.721-1.721c-.188-.188-.293-.442-.293-.707V6.318" stroke-linecap="round" stroke-linejoin="round"></path><line x1="6" y1="13.75" x2="5" y2="16.75" stroke-linecap="round" stroke-linejoin="round"></line><line x1="8.75" y1="10" x2="8.75" y2="6.318" stroke-linecap="round" stroke-linejoin="round"></line><path d="M3,10l1.146-2.064c.068-.123,.162-.23,.274-.314l1.563-1.172c.173-.13,.384-.2,.6-.2h1.824c.222,0,.438,.074,.614,.211l1.878,1.46c.067,.052,.141,.096,.22,.13l1.632,.699" stroke-linecap="round" stroke-linejoin="round"></path><line x1="13.75" y1="10.75" x2="15.75" y2="16" stroke-linecap="round" stroke-linejoin="round" stroke="currentColor"></line></g></svg>