<svg xmlns="http://www.w3.org/2000/svg" height="18" width="18" viewBox="0 0 18 18"><title>bomb 2</title><g fill="none" stroke="currentColor" class="nc-icon-wrapper"><path d="M12.34,4.158l.72-.72c.486-.486,1.274-.486,1.76,0l.88,.88c.417,.417,1.057,.476,1.537,.177" stroke-linecap="round" stroke-linejoin="round" stroke="currentColor"></path><path d="M13.5,5.657c-.256-.435-.643-.993-1.212-1.551-.519-.509-1.033-.864-1.445-1.106l-1.333,1.333c-.759-.37-1.609-.583-2.51-.583C3.824,3.75,1.25,6.324,1.25,9.5s2.574,5.75,5.75,5.75,5.75-2.574,5.75-5.75c0-.901-.213-1.751-.583-2.51,.534-.533,.799-.799,1.333-1.333Z" stroke-linecap="round" stroke-linejoin="round"></path></g></svg>