<svg xmlns="http://www.w3.org/2000/svg" height="18" width="18" viewBox="0 0 18 18"><title>book open 3</title><g fill="none" stroke="currentColor" class="nc-icon-wrapper"><path d="M9,16.25c0-1.105,.895-2,2-2h4.25c.552,0,1-.448,1-1V3.75c0-.552-.448-1-1-1h-4.25c-1.105,0-2,.895-2,2" stroke-linecap="round" stroke-linejoin="round" stroke="currentColor"></path><path d="M9,16.25V4.75c0-1.105-.895-2-2-2H2.75c-.552,0-1,.448-1,1V13.25c0,.552,.448,1,1,1H7c1.105,0,2,.895,2,2Z" stroke-linecap="round" stroke-linejoin="round"></path></g></svg>