<svg xmlns="http://www.w3.org/2000/svg" height="18" width="18" viewBox="0 0 18 18"><title>boolean flatten</title><g fill="none" stroke="currentColor" class="nc-icon-wrapper"><path d="M7.043,7.043c.181-.181,.431-.293,.707-.293h6.5c.552,0,1,.448,1,1v6.5c0,.276-.112,.526-.293,.707" stroke-linecap="round" stroke-linejoin="round" stroke="currentColor"></path><path d="M3.043,3.043c.181-.181,.431-.293,.707-.293h6.5c.552,0,1,.448,1,1v6.5c0,.276-.112,.526-.293,.707" stroke-linecap="round" stroke-linejoin="round" stroke="currentColor"></path><path d="M3.043,3.043c-.181,.181-.293,.431-.293,.707v6.5c0,.552,.448,1,1,1h3v3c0,.552,.448,1,1,1h6.5c.276,0,.526-.112,.707-.293L3.043,3.043Z" stroke-linecap="round" stroke-linejoin="round"></path></g></svg>