<svg xmlns="http://www.w3.org/2000/svg" height="18" width="18" viewBox="0 0 18 18"><title>boolean subtract</title><g fill="none" stroke="currentColor" class="nc-icon-wrapper"><path d="M11.25,6.75h3c.552,0,1,.448,1,1v6.5c0,.552-.448,1-1,1H7.75c-.552,0-1-.448-1-1v-3" stroke-linecap="round" stroke-linejoin="round"></path><path d="M2.75,4v-.25c0-.552,.448-1,1-1h.25" stroke-linecap="round" stroke-linejoin="round" stroke="currentColor"></path><line x1="2.75" y1="7.75" x2="2.75" y2="6.25" stroke-linecap="round" stroke-linejoin="round" stroke="currentColor"></line><path d="M4,11.25h-.25c-.552,0-1-.448-1-1v-.25" stroke-linecap="round" stroke-linejoin="round" stroke="currentColor"></path><path d="M11.25,4v-.25c0-.552-.448-1-1-1h-.25" stroke-linecap="round" stroke-linejoin="round" stroke="currentColor"></path><line x1="11.25" y1="7.75" x2="11.25" y2="6.25" stroke-linecap="round" stroke-linejoin="round" stroke="currentColor"></line><path d="M10,11.25h.25c.552,0,1-.448,1-1v-.25" stroke-linecap="round" stroke-linejoin="round" stroke="currentColor"></path><line x1="6.25" y1="2.75" x2="7.75" y2="2.75" stroke-linecap="round" stroke-linejoin="round" stroke="currentColor"></line><line x1="6.25" y1="11.25" x2="7.75" y2="11.25" stroke-linecap="round" stroke-linejoin="round" stroke="currentColor"></line></g></svg>