<svg xmlns="http://www.w3.org/2000/svg" height="18" width="18" viewBox="0 0 18 18"><title>boolean exclude</title><g fill="none" stroke="currentColor" class="nc-icon-wrapper"><path d="M14.25,6.75h-3V3.75c0-.552-.448-1-1-1H3.75c-.552,0-1,.448-1,1v6.5c0,.552,.448,1,1,1h3v3c0,.552,.448,1,1,1h6.5c.552,0,1-.448,1-1V7.75c0-.552-.448-1-1-1Z" stroke-linecap="round" stroke-linejoin="round"></path><path d="M6.75,8v-.25c0-.552,.448-1,1-1h.25" stroke-linecap="round" stroke-linejoin="round" stroke="currentColor"></path><path d="M6.75,10v.25c0,.552,.448,1,1,1h.25" stroke-linecap="round" stroke-linejoin="round" stroke="currentColor"></path><path d="M11.25,10v.25c0,.552-.448,1-1,1h-.25" stroke-linecap="round" stroke-linejoin="round" stroke="currentColor"></path><path d="M11.25,8v-.25c0-.552-.448-1-1-1h-.25" stroke-linecap="round" stroke-linejoin="round" stroke="currentColor"></path></g></svg>