<svg xmlns="http://www.w3.org/2000/svg" height="18" width="18" viewBox="0 0 18 18"><title>bottle water</title><g fill="none" stroke="currentColor" class="nc-icon-wrapper"><path d="M7,16.75H3.75c-.552,0-1-.448-1-1,0,0,0-3.333,0-5.25,0-2.458,2-3.708,2-6.75v-1.5c0-.552,.448-1,1-1h1.5c.552,0,1,.448,1,1v1.5c0,1.348,.393,2.344,.831,3.25" stroke-linecap="round" stroke-linejoin="round"></path><line x1="8.25" y1="3.75" x2="4.75" y2="3.75" stroke-linecap="round" stroke-linejoin="round"></line><line x1="2.75" y1="10.75" x2="8.821" y2="10.75" stroke-linecap="round" stroke-linejoin="round"></line><line x1="2.75" y1="13.75" x2="9" y2="13.75" stroke-linecap="round" stroke-linejoin="round"></line><path d="M8.75,9.75h6.5l-.434,6.071c-.037,.523-.473,.929-.997,.929h-3.638c-.525,0-.96-.405-.997-.929l-.434-6.071Z" stroke-linecap="round" stroke-linejoin="round" stroke="currentColor"></path><line x1="9.036" y1="13.75" x2="14.935" y2="13.75" stroke-linecap="round" stroke-linejoin="round" stroke="currentColor"></line></g></svg>