<svg xmlns="http://www.w3.org/2000/svg" height="18" width="18" viewBox="0 0 18 18"><title>bottle champagne</title><g fill="none" stroke="currentColor" class="nc-icon-wrapper"><path d="M8.543,7.684c-.313-.744-.543-1.454-.543-1.934V3.75l.5-.5V1.75c0-.552-.448-1-1-1h-1.5c-.552,0-1,.448-1,1v1.5l.5,.5v2c0,.88-.775,2.535-1.415,3.752-.542,1.03-.769,2.194-.658,3.353l.237,2.49c.049,.513,.48,.905,.995,.905h3.091" stroke-linecap="round" stroke-linejoin="round"></path><line x1="5.5" y1="5.75" x2="8" y2="5.75" stroke-linecap="round" stroke-linejoin="round"></line><circle cx="6.75" cy="12.25" r="1.5" fill="currentColor" stroke="none"></circle><path d="M11.25,6.75h3l.589,3.534c.215,1.291-.78,2.466-2.089,2.466h0c-1.309,0-2.304-1.175-2.089-2.466l.589-3.534Z" stroke="currentColor" stroke-linecap="round" stroke-linejoin="round"></path><line x1="15.25" y1="16.25" x2="10.25" y2="16.25" stroke="currentColor" stroke-linecap="round" stroke-linejoin="round"></line><line x1="12.75" y1="12.75" x2="12.75" y2="16.25" stroke="currentColor" stroke-linecap="round" stroke-linejoin="round"></line></g></svg>