<svg xmlns="http://www.w3.org/2000/svg" height="18" width="18" viewBox="0 0 18 18"><title>box pin</title><g fill="none" stroke="currentColor" class="nc-icon-wrapper"><line x1="9" y1="2.25" x2="9" y2="8.25" stroke="currentColor" stroke-linecap="round" stroke-linejoin="round"></line><path d="M3,6.284l1.449-2.922c.338-.681,1.032-1.112,1.792-1.112h5.518c.76,0,1.454,.431,1.792,1.112l1.449,2.923" stroke-linecap="round" stroke-linejoin="round"></path><circle cx="14.5" cy="13.5" r=".75" stroke="none" fill="currentColor"></circle><path d="M15.25,8.326v-1.076c0-1.104-.895-2-2-2H4.75c-1.105,0-2,.896-2,2v6c0,1.104,.895,2,2,2h4.8" stroke-linecap="round" stroke-linejoin="round"></path><path d="M14.5,17.25s-2.75-1.509-2.75-3.75c0-1.519,1.231-2.75,2.75-2.75s2.75,1.231,2.75,2.75c0,2.241-2.75,3.75-2.75,3.75Z" stroke="currentColor" stroke-linecap="round" stroke-linejoin="round"></path></g></svg>