<svg xmlns="http://www.w3.org/2000/svg" height="18" width="18" viewBox="0 0 18 18"><title>box heart</title><g fill="none" stroke="currentColor" class="nc-icon-wrapper"><line x1="9" y1="2.25" x2="9" y2="8.25" stroke-linecap="round" stroke-linejoin="round" stroke="currentColor"></line><path d="M3,6.284l1.449-2.922c.338-.681,1.032-1.112,1.792-1.112h5.518c.76,0,1.454,.431,1.792,1.112l1.449,2.923" stroke-linecap="round" stroke-linejoin="round"></path><path d="M15.25,9.019v-1.769c0-1.104-.895-2-2-2H4.75c-1.105,0-2,.896-2,2v6c0,1.104,.895,2,2,2h3.881" stroke-linecap="round" stroke-linejoin="round"></path><path d="M13.781,17.197c.138,.071,.299,.071,.437,0,.729-.374,3.031-1.73,3.031-3.934,.004-.968-.791-1.757-1.777-1.763-.593,.007-1.144,.301-1.473,.786-.329-.484-.881-.778-1.473-.786-.985,.006-1.78,.794-1.777,1.763,0,2.205,2.303,3.56,3.031,3.934Z" stroke-linecap="round" stroke-linejoin="round" stroke="currentColor"></path></g></svg>