<svg xmlns="http://www.w3.org/2000/svg" height="18" width="18" viewBox="0 0 18 18"><title>box 2 arrow down</title><g fill="none" stroke="currentColor" class="nc-icon-wrapper"><polyline points="5.25 9.25 5.25 6.083 12 3.083" stroke-linecap="round" stroke-linejoin="round"></polyline><path d="M9.406,1.931l6.344,2.819-6.344,2.819c-.259,.115-.554,.115-.812,0L2.25,4.75,8.594,1.931c.259-.115,.554-.115,.812,0Z" stroke-linecap="round" stroke-linejoin="round"></path><line x1="15.75" y1="9.943" x2="15.75" y2="4.75" stroke-linecap="round" stroke-linejoin="round"></line><path d="M2.25,4.75v7.85c0,.395,.233,.753,.594,.914l5.75,2.556c.259,.115,.554,.115,.812,0l.578-.261" stroke-linecap="round" stroke-linejoin="round"></path><line x1="9" y1="7.656" x2="9" y2="16.069" stroke-linecap="round" stroke-linejoin="round"></line><polyline points="17.25 14.75 14.75 17.25 12.25 14.75" stroke-linecap="round" stroke-linejoin="round" stroke="currentColor"></polyline><line x1="14.75" y1="17" x2="14.75" y2="12.25" stroke-linecap="round" stroke-linejoin="round" stroke="currentColor"></line></g></svg>