<svg xmlns="http://www.w3.org/2000/svg" height="18" width="18" viewBox="0 0 18 18"><title>box shield</title><g fill="none" stroke="currentColor" class="nc-icon-wrapper"><line x1="9" y1="2.25" x2="9" y2="8.25" stroke-linecap="round" stroke-linejoin="round" stroke="currentColor"></line><path d="M3,6.284l1.449-2.922c.338-.681,1.032-1.112,1.792-1.112h5.518c.76,0,1.454,.431,1.792,1.112l1.449,2.923" stroke-linecap="round" stroke-linejoin="round"></path><path d="M15.25,8.345v-1.095c0-1.104-.895-2-2-2H4.75c-1.105,0-2,.896-2,2v6c0,1.104,.895,2,2,2h4.536" stroke-linecap="round" stroke-linejoin="round"></path><path d="M14.5,10.75l2.75,1.25v2.94c0,1.54-2.75,2.31-2.75,2.31,0,0-2.75-.77-2.75-2.31v-2.94l2.75-1.25Z" stroke-linecap="round" stroke-linejoin="round" stroke="currentColor"></path></g></svg>