<svg xmlns="http://www.w3.org/2000/svg" height="18" width="18" viewBox="0 0 18 18"><title>box 2 check</title><g fill="none" stroke="currentColor" class="nc-icon-wrapper"><polyline points="4.75 9.25 4.75 6.083 11.5 3.083" stroke-linecap="round" stroke-linejoin="round"></polyline><path d="M8.906,1.931l6.344,2.819-6.344,2.819c-.259,.115-.554,.115-.812,0L1.75,4.75,8.094,1.931c.259-.115,.554-.115,.812,0Z" stroke-linecap="round" stroke-linejoin="round"></path><line x1="15.25" y1="8.25" x2="15.25" y2="4.75" stroke-linecap="round" stroke-linejoin="round"></line><path d="M1.75,4.75v7.85c0,.395,.233,.753,.594,.914l5.75,2.556c.259,.115,.554,.115,.812,0l1.725-.775" stroke-linecap="round" stroke-linejoin="round"></path><line x1="8.5" y1="7.656" x2="8.5" y2="16.069" stroke-linecap="round" stroke-linejoin="round"></line><polyline points="12.244 12.75 13.853 14.25 17.25 9.75" stroke-linecap="round" stroke-linejoin="round" stroke="currentColor"></polyline></g></svg>