<svg xmlns="http://www.w3.org/2000/svg" height="18" width="18" viewBox="0 0 18 18"><title>box alert</title><g fill="none" stroke="currentColor" class="nc-icon-wrapper"><line x1="9" y1="2.25" x2="9" y2="8.25" stroke="currentColor" stroke-linecap="round" stroke-linejoin="round"></line><path d="M3,6.284l1.449-2.922c.338-.681,1.032-1.112,1.792-1.112h5.518c.76,0,1.454,.431,1.792,1.112l1.449,2.923" stroke-linecap="round" stroke-linejoin="round"></path><path d="M14.75,14.56c.307-.352,.5-.806,.5-1.31V7.25c0-1.104-.895-2-2-2H4.75c-1.105,0-2,.896-2,2v6c0,1.104,.895,2,2,2h5" stroke-linecap="round" stroke-linejoin="round"></path><line x1="12.25" y1="15" x2="12.25" y2="12.25" stroke="currentColor" stroke-linecap="round" stroke-linejoin="round"></line><circle cx="12.25" cy="17.25" r=".75" stroke="none" fill="currentColor"></circle></g></svg>