<svg xmlns="http://www.w3.org/2000/svg" width="24" height="24" fill="none" viewBox="0 0 24 24">
  <path stroke="currentColor" stroke-linecap="round" stroke-linejoin="round" d="M9.25 4.75h-.324c-.858 0-1.597.697-1.765 1.665l-.504 2.899c-.07.4-.241.769-.492 1.058L4.75 12l1.415 1.628c.25.29.422.657.492 1.058l.504 2.899c.168.968.907 1.665 1.765 1.665h.324m5.5-14.5h.324c.858 0 1.597.697 1.765 1.665l.504 2.899c.07.4.241.769.492 1.058L19.25 12l-1.415 1.628a2.2 2.2 0 0 0-.492 1.058l-.504 2.899c-.168.968-.907 1.665-1.765 1.665h-.324"/>
</svg>
