<svg xmlns="http://www.w3.org/2000/svg" height="18" width="18" viewBox="0 0 18 18"><title>burger 2</title><g fill="none" stroke="currentColor" class="nc-icon-wrapper"><circle cx="10.75" cy="5" r=".75" fill="currentColor" stroke="none"></circle><circle cx="7.25" cy="5.5" r=".75" fill="currentColor" stroke="none"></circle><path d="M15.352,7c-.365-1.395-1.574-4.25-5.352-4.25h-1c-.304,0-.637,0-1,0-3.778,0-4.987,2.855-5.352,4.25" stroke-linecap="round" stroke-linejoin="round"></path><path d="M15,13.25s-.25,2-3.25,2c-.859,0-4.641,0-5.5,0-3,0-3.25-2-3.25-2" stroke-linecap="round" stroke-linejoin="round"></path><path d="M9.5,9.25l1.61,2.012c.2,.25,.581,.25,.781,0l1.61-2.012h-4Z" stroke="none" fill="currentColor"></path><rect x="1.75" y="9.25" width="14.5" height="3.5" rx="1.75" ry="1.75" stroke="currentColor" stroke-linecap="round" stroke-linejoin="round"></rect></g></svg>