<svg xmlns="http://www.w3.org/2000/svg" height="18" width="18" viewBox="0 0 18 18"><title>bus</title><g fill="none" stroke="currentColor" class="nc-icon-wrapper"><path d="M.75,7.75v-2c0-.552,.448-1,1-1h1.5" stroke="currentColor" stroke-linecap="round" stroke-linejoin="round"></path><path d="M17.25,7.75v-2c0-.552-.448-1-1-1h-1.5" stroke="currentColor" stroke-linecap="round" stroke-linejoin="round"></path><path d="M3.25,14.25v1.5c0,.276,.224,.5,.5,.5h.5c.276,0,.5-.224,.5-.5v-1.5h-1.5Z" stroke-linecap="round" stroke-linejoin="round"></path><path d="M13.25,14.25v1.5c0,.276,.224,.5,.5,.5h.5c.276,0,.5-.224,.5-.5v-1.5h-1.5Z" stroke-linecap="round" stroke-linejoin="round"></path><path d="M3.25,4.5c0-2.5,2.75-2.75,5.75-2.75s5.75,.25,5.75,2.75V14.25H3.25V4.5Z" stroke-linecap="round" stroke-linejoin="round"></path><line x1="3.25" y1="9.25" x2="14.75" y2="9.25" stroke-linecap="round" stroke-linejoin="round"></line><line x1="3.5" y1="4.75" x2="14.5" y2="4.75" stroke-linecap="round" stroke-linejoin="round"></line><circle cx="5.75" cy="11.75" r=".75" stroke="none" fill="currentColor"></circle><circle cx="12.25" cy="11.75" r=".75" stroke="none" fill="currentColor"></circle></g></svg>