<svg xmlns="http://www.w3.org/2000/svg" height="18" width="18" viewBox="0 0 18 18"><title>cake</title><g fill="none" stroke="currentColor" class="nc-icon-wrapper"><line x1="9" y1="7.75" x2="9" y2="4.75" stroke-linecap="round" stroke-linejoin="round" stroke="currentColor"></line><path d="M9,4.75c.838,0,1.517-.681,1.517-1.522,0-1.156-1.517-2.478-1.517-2.478,0,0-1.517,1.322-1.517,2.478,0,.841,.679,1.522,1.517,1.522Z" stroke-linecap="round" stroke-linejoin="round" stroke="currentColor"></path><rect x="2.25" y="7.75" width="13.5" height="7.5" rx="2" ry="2" stroke-linecap="round" stroke-linejoin="round"></rect><path d="M15.75,11c-.992,0-1.259,1-2.25,1s-1.259-1-2.25-1-1.259,1-2.25,1-1.259-1-2.25-1-1.259,1-2.25,1-1.259-1-2.25-1" stroke-linecap="round" stroke-linejoin="round"></path></g></svg>