<svg xmlns="http://www.w3.org/2000/svg" height="18" width="18" viewBox="0 0 18 18"><title>calendar cloud</title><g fill="none" stroke="currentColor" class="nc-icon-wrapper"><line x1="5.75" y1="2.75" x2="5.75" y2=".75" stroke-linecap="round" stroke-linejoin="round"></line><line x1="12.25" y1="2.75" x2="12.25" y2=".75" stroke-linecap="round" stroke-linejoin="round"></line><line x1="2.25" y1="6.25" x2="15.75" y2="6.25" stroke-linecap="round" stroke-linejoin="round"></line><path d="M15.75,9.594V4.75c0-1.104-.895-2-2-2H4.25c-1.105,0-2,.896-2,2V13.25c0,1.104,.895,2,2,2h3.038" stroke-linecap="round" stroke-linejoin="round"></path><path d="M14,11.75c-1.131,0-2.058,.837-2.217,1.925-.196-.108-.418-.175-.658-.175-.759,0-1.375,.616-1.375,1.375s.616,1.375,1.375,1.375h2.875c1.243,0,2.25-1.007,2.25-2.25s-1.007-2.25-2.25-2.25Z" stroke-linecap="round" stroke-linejoin="round" stroke="currentColor"></path></g></svg>