<svg xmlns="http://www.w3.org/2000/svg" height="18" width="18" viewBox="0 0 18 18"><title>calendar pen</title><g fill="none" stroke="currentColor" class="nc-icon-wrapper"><line x1="5.75" y1="2.75" x2="5.75" y2=".75" stroke-linecap="round" stroke-linejoin="round"></line><line x1="12.25" y1="2.75" x2="12.25" y2=".75" stroke-linecap="round" stroke-linejoin="round"></line><line x1="2.25" y1="6.25" x2="15.75" y2="6.25" stroke-linecap="round" stroke-linejoin="round"></line><path d="M15.75,8.275v-3.525c0-1.104-.895-2-2-2H4.25c-1.105,0-2,.896-2,2V13.25c0,1.104,.895,2,2,2h4.546" stroke-linecap="round" stroke-linejoin="round"></path><path d="M13.207,16.401c.143-.049,.273-.131,.38-.238l3.303-3.303c.483-.483,.478-1.261-.005-1.745h0c-.483-.483-1.261-.489-1.745-.005l-3.303,3.303c-.107,.107-.189,.237-.238,.38l-.849,2.457,2.457-.849Z" stroke-linecap="round" stroke-linejoin="round" stroke="currentColor"></path></g></svg>