<svg xmlns="http://www.w3.org/2000/svg" height="18" width="18" viewBox="0 0 18 18"><title>calendar star</title><g fill="none" stroke="currentColor" class="nc-icon-wrapper"><line x1="5.75" y1="2.75" x2="5.75" y2=".75" stroke-linecap="round" stroke-linejoin="round"></line><line x1="12.25" y1="2.75" x2="12.25" y2=".75" stroke-linecap="round" stroke-linejoin="round"></line><line x1="2.25" y1="6.25" x2="15.75" y2="6.25" stroke-linecap="round" stroke-linejoin="round"></line><path d="M15.75,9.303V4.75c0-1.104-.895-2-2-2H4.25c-1.105,0-2,.896-2,2V13.25c0,1.104,.895,2,2,2h4.786l-.032-.031" stroke-linecap="round" stroke-linejoin="round"></path><polygon points="14 11.068 15.004 13.103 17.25 13.429 15.625 15.013 16.009 17.25 14 16.194 11.991 17.25 12.375 15.013 10.75 13.429 12.996 13.103 14 11.068" stroke-linecap="round" stroke-linejoin="round" stroke="currentColor"></polygon></g></svg>