<svg xmlns="http://www.w3.org/2000/svg" height="18" width="18" viewBox="0 0 18 18"><title>calendar attachment</title><g fill="none" stroke="currentColor" class="nc-icon-wrapper"><line x1="5.75" y1="2.75" x2="5.75" y2=".75" stroke-linecap="round" stroke-linejoin="round"></line><line x1="12.25" y1="2.75" x2="12.25" y2=".75" stroke-linecap="round" stroke-linejoin="round"></line><line x1="2.25" y1="6.25" x2="15.75" y2="6.25" stroke-linecap="round" stroke-linejoin="round"></line><path d="M15.75,9.253V4.75c0-1.104-.895-2-2-2H4.25c-1.105,0-2,.896-2,2V13.25c0,1.104,.895,2,2,2h5.551" stroke-linecap="round" stroke-linejoin="round"></path><path d="M14.75,14.25v-2c0-.69-.56-1.25-1.25-1.25h0c-.69,0-1.25,.56-1.25,1.25v2.5c0,1.381,1.119,2.5,2.5,2.5h0c1.381,0,2.5-1.119,2.5-2.5v-2" stroke-linecap="round" stroke-linejoin="round" stroke="currentColor"></path></g></svg>