<svg xmlns="http://www.w3.org/2000/svg" height="18" width="18" viewBox="0 0 18 18"><title>calendar settings</title><g fill="none" stroke="currentColor" class="nc-icon-wrapper"><line x1="5.75" y1="2.75" x2="5.75" y2=".75" stroke-linecap="round" stroke-linejoin="round"></line><line x1="12.25" y1="2.75" x2="12.25" y2=".75" stroke-linecap="round" stroke-linejoin="round"></line><line x1="2.25" y1="6.25" x2="15.75" y2="6.25" stroke-linecap="round" stroke-linejoin="round"></line><line x1="14" y1="10.75" x2="14" y2="12" stroke-linecap="round" stroke-linejoin="round" stroke="currentColor"></line><line x1="16.298" y1="11.702" x2="15.414" y2="12.586" stroke-linecap="round" stroke-linejoin="round" stroke="currentColor"></line><line x1="17.25" y1="14" x2="16" y2="14" stroke-linecap="round" stroke-linejoin="round" stroke="currentColor"></line><line x1="16.298" y1="16.298" x2="15.414" y2="15.414" stroke-linecap="round" stroke-linejoin="round" stroke="currentColor"></line><line x1="14" y1="17.25" x2="14" y2="16" stroke-linecap="round" stroke-linejoin="round" stroke="currentColor"></line><line x1="11.702" y1="16.298" x2="12.586" y2="15.414" stroke-linecap="round" stroke-linejoin="round" stroke="currentColor"></line><line x1="10.75" y1="14" x2="12" y2="14" stroke-linecap="round" stroke-linejoin="round" stroke="currentColor"></line><line x1="11.702" y1="11.702" x2="12.586" y2="12.586" stroke-linecap="round" stroke-linejoin="round" stroke="currentColor"></line><path d="M15.75,8.999V4.75c0-1.104-.895-2-2-2H4.25c-1.105,0-2,.896-2,2V13.25c0,1.104,.895,2,2,2h4.356" stroke-linecap="round" stroke-linejoin="round"></path><circle cx="14" cy="14" r="1.75" stroke-linecap="round" stroke-linejoin="round" stroke="currentColor"></circle></g></svg>