<svg xmlns="http://www.w3.org/2000/svg" height="18" width="18" viewBox="0 0 18 18"><title>calendar dots</title><g fill="none" stroke="currentColor" class="nc-icon-wrapper"><line x1="5.75" y1="2.75" x2="5.75" y2=".75" stroke-linecap="round" stroke-linejoin="round"></line><line x1="12.25" y1="2.75" x2="12.25" y2=".75" stroke-linecap="round" stroke-linejoin="round"></line><line x1="2.25" y1="6.25" x2="15.75" y2="6.25" stroke-linecap="round" stroke-linejoin="round"></line><path d="M13,14c-.551,0-1-.448-1-1s.449-1,1-1,1,.448,1,1-.449,1-1,1Z" stroke="none" fill="currentColor"></path><path d="M10,14c-.551,0-1-.448-1-1s.449-1,1-1,1,.448,1,1-.449,1-1,1Z" stroke="none" fill="currentColor"></path><path d="M15.75,10.269V4.75c0-1.104-.895-2-2-2H4.25c-1.105,0-2,.896-2,2V13.25c0,1.104,.895,2,2,2h4.177" stroke-linecap="round" stroke-linejoin="round"></path><path d="M16,14c-.551,0-1-.448-1-1s.449-1,1-1,1,.448,1,1-.449,1-1,1Z" stroke="none" fill="currentColor"></path></g></svg>