<svg xmlns="http://www.w3.org/2000/svg" height="18" width="18" viewBox="0 0 18 18"><title>calendar user</title><g fill="none" stroke="currentColor" class="nc-icon-wrapper"><line x1="5.75" y1="2.75" x2="5.75" y2=".75" stroke-linecap="round" stroke-linejoin="round"></line><line x1="12.25" y1="2.75" x2="12.25" y2=".75" stroke-linecap="round" stroke-linejoin="round"></line><line x1="2.25" y1="6.25" x2="15.75" y2="6.25" stroke-linecap="round" stroke-linejoin="round"></line><circle cx="14.641" cy="11.75" r="1" stroke="currentColor" stroke-linecap="round" stroke-linejoin="round"></circle><path d="M15.75,8.447v-3.697c0-1.104-.895-2-2-2H4.25c-1.105,0-2,.896-2,2V13.25c0,1.104,.895,2,2,2h5.674" stroke-linecap="round" stroke-linejoin="round"></path><path d="M16.742,17.25c.34,0,.594-.337,.482-.658-.373-1.072-1.383-1.842-2.583-1.842s-2.21,.77-2.583,1.842c-.112,.321,.142,.658,.482,.658h4.202Z" stroke="currentColor" stroke-linecap="round" stroke-linejoin="round"></path></g></svg>