<svg xmlns="http://www.w3.org/2000/svg" height="18" width="18" viewBox="0 0 18 18"><title>calendar heart</title><g fill="none" stroke="currentColor" class="nc-icon-wrapper"><line x1="5.75" y1="2.75" x2="5.75" y2=".75" stroke-linecap="round" stroke-linejoin="round"></line><line x1="12.25" y1="2.75" x2="12.25" y2=".75" stroke-linecap="round" stroke-linejoin="round"></line><line x1="2.25" y1="6.25" x2="15.75" y2="6.25" stroke-linecap="round" stroke-linejoin="round"></line><path d="M15.75,9.032V4.75c0-1.104-.895-2-2-2H4.25c-1.105,0-2,.896-2,2V13.25c0,1.104,.895,2,2,2h4.381" stroke-linecap="round" stroke-linejoin="round"></path><path d="M13.781,17.197c.138,.071,.299,.071,.437,0,.729-.374,3.031-1.73,3.031-3.934,.004-.968-.791-1.757-1.777-1.763-.593,.007-1.144,.301-1.473,.786-.329-.484-.881-.778-1.473-.786-.985,.006-1.78,.794-1.777,1.763,0,2.205,2.303,3.56,3.031,3.934Z" stroke-linecap="round" stroke-linejoin="round" stroke="currentColor"></path></g></svg>