<svg xmlns="http://www.w3.org/2000/svg" height="18" width="18" viewBox="0 0 18 18"><title>camera 2 off</title><g fill="none" stroke="currentColor" class="nc-icon-wrapper"><path d="M7.285,14.25h6.965c1.105,0,2-.895,2-2V5.75c0-.138-.014-.273-.041-.403" stroke-linecap="round" stroke-linejoin="round"></path><path d="M14.25,3.75H3.75c-1.105,0-2,.895-2,2v6.5c0,1.105,.895,2,2,2" stroke-linecap="round" stroke-linejoin="round"></path><circle cx="4.25" cy="6.25" r=".75" stroke="none" fill="currentColor"></circle><line x1="2" y1="16" x2="16" y2="2" stroke="currentColor" stroke-linecap="round" stroke-linejoin="round"></line><path d="M7.62,10.379c-.236-.405-.37-.877-.37-1.379,0-1.519,1.231-2.75,2.75-2.75,.503,0,.974,.135,1.379,.37" stroke="currentColor" stroke-linecap="round" stroke-linejoin="round"></path><path d="M12.742,8.793c.005,.068,.008,.137,.008,.207,0,1.519-1.231,2.75-2.75,2.75-.072,0-.144-.003-.214-.008" stroke="currentColor" stroke-linecap="round" stroke-linejoin="round"></path><line x1="4.25" y1="1.25" x2="6.75" y2="1.25" stroke="currentColor" stroke-linecap="round" stroke-linejoin="round"></line></g></svg>