<svg xmlns="http://www.w3.org/2000/svg" height="18" width="18" viewBox="0 0 18 18"><title>camera 3 off</title><g fill="none" stroke="currentColor" class="nc-icon-wrapper"><path d="M3.336,14.664c-.362-.362-.586-.862-.586-1.414V4.75c0-1.105,.895-2,2-2H13.25c.552,0,1.052,.224,1.414,.586" stroke-linecap="round" stroke-linejoin="round"></path><path d="M15.25,6.285v6.965c0,1.105-.895,2-2,2H6.285" stroke-linecap="round" stroke-linejoin="round"></path><path d="M7.055,10.945c-.498-.498-.805-1.185-.805-1.945,0-1.519,1.231-2.75,2.75-2.75,.759,0,1.447,.308,1.945,.805" stroke="currentColor" stroke-linecap="round" stroke-linejoin="round"></path><path d="M11.579,9.956c-.278,.75-.873,1.345-1.623,1.623" stroke="currentColor" stroke-linecap="round" stroke-linejoin="round"></path><circle cx="5.25" cy="5.25" r=".75" stroke="none" fill="currentColor"></circle><line x1="2" y1="16" x2="16" y2="2" stroke="currentColor" stroke-linecap="round" stroke-linejoin="round"></line></g></svg>