<svg xmlns="http://www.w3.org/2000/svg" height="18" width="18" viewBox="0 0 18 18"><title>car ventilation</title><g fill="none" stroke="currentColor" class="nc-icon-wrapper"><path d="M11.187,7.75c-.882,1.047-1.215,1.992-.998,2.833,.321,1.248,1.675,1.583,1.997,2.833,.217,.842-.116,1.786-.998,2.833" stroke-linecap="round" stroke-linejoin="round" stroke="currentColor"></path><path d="M14.619,12.851c.53,.114,1.072,.241,1.631,.399V3.75c-2.882-.811-5.411-1-7.25-1-2.994,0-5.479,.502-7.25,1V13.25c.681-.191,1.469-.383,2.349-.547" stroke-linecap="round" stroke-linejoin="round"></path><path d="M6.812,7.75c-.882,1.047-1.215,1.992-.998,2.833,.321,1.248,1.675,1.583,1.997,2.833,.217,.842-.116,1.786-.998,2.833" stroke-linecap="round" stroke-linejoin="round" stroke="currentColor"></path></g></svg>