<svg xmlns="http://www.w3.org/2000/svg" height="18" width="18" viewBox="0 0 18 18"><title>car electric</title><g fill="none" stroke="currentColor" class="nc-icon-wrapper"><path d="M1.75,13.25v1.5c0,.276,.224,.5,.5,.5h1c.276,0,.5-.224,.5-.5v-1.5H1.75Z" stroke-linecap="round" stroke-linejoin="round"></path><path d="M14.25,13.25v1.5c0,.276,.224,.5,.5,.5h1c.276,0,.5-.224,.5-.5v-1.5h-2Z" stroke-linecap="round" stroke-linejoin="round"></path><circle cx="4.25" cy="10.25" r=".75" stroke="none" fill="currentColor"></circle><circle cx="13.75" cy="10.25" r=".75" stroke="none" fill="currentColor"></circle><line x1="1.5" y1="7.75" x2="16.5" y2="7.75" stroke-linecap="round" stroke-linejoin="round"></line><line x1="7.5" y1="10.75" x2="10.5" y2="10.75" stroke="currentColor" stroke-linecap="round" stroke-linejoin="round"></line><path d="M5.347,2.856c-.601,.203-1.085,.686-1.275,1.319l-1.072,3.575-.664,.664c-.375,.375-.586,.884-.586,1.414v3.422h14.5v-3.422c0-.531-.211-1.039-.586-1.414l-.664-.664-1.072-3.575c-.181-.603-.634-1.059-1.196-1.278" stroke-linecap="round" stroke-linejoin="round"></path><path d="M10.939,2.761c-.088-.161-.256-.261-.439-.261h-1.102l.526-1.864c.067-.238-.05-.489-.275-.591-.225-.102-.492-.024-.626,.184l-1.942,3c-.099,.154-.107,.35-.02,.511,.088,.161,.256,.261,.439,.261h1.102l-.526,1.864c-.067,.238,.05,.489,.275,.591,.066,.03,.137,.044,.206,.044,.165,0,.325-.082,.42-.228l1.942-3c.099-.154,.107-.35,.02-.511Z" stroke="none" fill="currentColor"></path></g></svg>