<svg xmlns="http://www.w3.org/2000/svg" height="18" width="18" viewBox="0 0 18 18"><title>caret minimize</title><g fill="none" stroke="currentColor" class="nc-icon-wrapper"><path d="M7.25,3.604v3.396c0,.138-.112,.25-.25,.25H3.604c-.223,0-.334-.269-.177-.427l3.396-3.396c.157-.157,.427-.046,.427,.177Z" stroke-linecap="round" stroke-linejoin="round"></path><path d="M14.396,7.25h-3.396c-.138,0-.25-.112-.25-.25V3.604c0-.223,.269-.334,.427-.177l3.396,3.396c.157,.157,.046,.427-.177,.427Z" stroke-linecap="round" stroke-linejoin="round" stroke="currentColor"></path><path d="M10.75,14.396v-3.396c0-.138,.112-.25,.25-.25h3.396c.223,0,.334,.269,.177,.427l-3.396,3.396c-.157,.157-.427,.046-.427-.177Z" stroke-linecap="round" stroke-linejoin="round"></path><path d="M3.604,10.75h3.396c.138,0,.25,.112,.25,.25v3.396c0,.223-.269,.334-.427,.177l-3.396-3.396c-.157-.157-.046-.427,.177-.427Z" stroke-linecap="round" stroke-linejoin="round" stroke="currentColor"></path></g></svg>