<svg xmlns="http://www.w3.org/2000/svg" height="18" width="18" viewBox="0 0 18 18"><title>cart pen</title><g fill="none" stroke="currentColor" class="nc-icon-wrapper"><path d="M1.75,1.75l1.351,.338c.393,.098,.688,.424,.747,.825l1.153,7.838" stroke-linecap="round" stroke-linejoin="round"></path><line x1="6.969" y1="4.75" x2="4.118" y2="4.75" stroke-linecap="round" stroke-linejoin="round"></line><path d="M15.25,13.25H4.5c-.69,0-1.25-.56-1.25-1.25h0c0-.69,.56-1.25,1.25-1.25H13.029c.43,0,.813-.275,.949-.684l1.333-4c.013-.04,.024-.081,.032-.121" stroke-linecap="round" stroke-linejoin="round"></path><circle cx="3.75" cy="15.75" r="1.25" stroke="none" fill="currentColor"></circle><circle cx="14.25" cy="15.75" r="1.25" stroke="none" fill="currentColor"></circle><path d="M11.207,6.401c.143-.049,.273-.131,.38-.238l3.303-3.303c.483-.483,.478-1.261-.005-1.745h0c-.483-.483-1.261-.489-1.745-.005l-3.303,3.303c-.107,.107-.189,.237-.238,.38l-.849,2.457,2.457-.849Z" stroke-linecap="round" stroke-linejoin="round" stroke="currentColor"></path></g></svg>