<svg xmlns="http://www.w3.org/2000/svg" height="18" width="18" viewBox="0 0 18 18"><title>cart user</title><g fill="none" stroke="currentColor" class="nc-icon-wrapper"><path d="M1.75,1.75l1.351,.338c.393,.098,.688,.424,.747,.825l1.153,7.838" stroke-linecap="round" stroke-linejoin="round"></path><line x1="10.181" y1="4.75" x2="4.118" y2="4.75" stroke-linecap="round" stroke-linejoin="round"></line><path d="M15.25,13.25H4.5c-.69,0-1.25-.56-1.25-1.25h0c0-.69,.56-1.25,1.25-1.25H13.029c.43,0,.813-.275,.949-.684l.105-.316" stroke-linecap="round" stroke-linejoin="round"></path><circle cx="3.75" cy="15.75" r="1.25" fill="currentColor" stroke="none"></circle><circle cx="14.25" cy="15.75" r="1.25" fill="currentColor" stroke="none"></circle><circle cx="14.641" cy="1.75" r="1" stroke="currentColor" stroke-linecap="round" stroke-linejoin="round"></circle><path d="M16.742,7.25c.34,0,.594-.337,.482-.658-.373-1.072-1.383-1.842-2.583-1.842s-2.21,.77-2.583,1.842c-.112,.321,.142,.658,.482,.658h4.202Z" stroke="currentColor" stroke-linecap="round" stroke-linejoin="round"></path></g></svg>