<svg xmlns="http://www.w3.org/2000/svg" height="18" width="18" viewBox="0 0 18 18"><title>cart alert</title><g fill="none" stroke="currentColor" class="nc-icon-wrapper"><path d="M1.75,1.75l1.351,.338c.393,.098,.688,.424,.747,.825l1.153,7.838" stroke-linecap="round" stroke-linejoin="round"></path><line x1="7.25" y1="4.75" x2="4.118" y2="4.75" stroke-linecap="round" stroke-linejoin="round"></line><path d="M15.25,13.25H4.5c-.69,0-1.25-.56-1.25-1.25h0c0-.69,.56-1.25,1.25-1.25H13.029c.43,0,.813-.275,.949-.684l1.333-4c.216-.648-.266-1.316-.949-1.316h-2.113" stroke-linecap="round" stroke-linejoin="round"></path><circle cx="3.75" cy="15.75" r="1.25" fill="currentColor" stroke="none"></circle><circle cx="14.25" cy="15.75" r="1.25" fill="currentColor" stroke="none"></circle><line x1="9.75" y1="3.5" x2="9.75" y2=".75" stroke="currentColor" stroke-linecap="round" stroke-linejoin="round"></line><circle cx="9.75" cy="5.75" r=".75" stroke="none" fill="currentColor"></circle></g></svg>