<svg xmlns="http://www.w3.org/2000/svg" height="18" width="18" viewBox="0 0 18 18"><title>chair 5</title><g fill="none" stroke="currentColor" class="nc-icon-wrapper"><line x1="9" y1="12.75" x2="9" y2="17.25" stroke-linecap="round" stroke-linejoin="round" stroke="currentColor"></line><line x1="9" y1="15" x2="5.75" y2="16.75" stroke-linecap="round" stroke-linejoin="round" stroke="currentColor"></line><line x1="9" y1="15" x2="12.25" y2="16.75" stroke-linecap="round" stroke-linejoin="round" stroke="currentColor"></line><path d="M12.75,10.25c-.5-2.938-.429-5.577-.429-5.577-.04-.521-.475-.923-.997-.923h-2.324s-2.324,0-2.324,0c-.523,0-.957,.402-.997,.923,0,0,.071,2.639-.429,5.577" stroke-linecap="round" stroke-linejoin="round"></path><rect x="6.25" y=".75" width="5.5" height="3" rx="1" ry="1" stroke-linecap="round" stroke-linejoin="round"></rect><line x1="2.75" y1="6.75" x2="2.75" y2="8.5" stroke-linecap="round" stroke-linejoin="round" stroke="currentColor"></line><line x1="15.25" y1="6.75" x2="15.25" y2="8.5" stroke-linecap="round" stroke-linejoin="round" stroke="currentColor"></line><path d="M4.5,10.25H13.5c.414,0,.75,.336,.75,.75v.622c0,.363-.256,.679-.615,.739-1.317,.223-2.879,.389-4.635,.389-1.307,0-2.875-.092-4.624-.387-.36-.061-.626-.379-.626-.744v-.619c0-.414,.336-.75,.75-.75Z" stroke-linecap="round" stroke-linejoin="round"></path></g></svg>