<svg xmlns="http://www.w3.org/2000/svg" height="18" width="18" viewBox="0 0 18 18"><title>chat bot</title><g fill="none" stroke="currentColor" class="nc-icon-wrapper"><path d="M15.75,.75h-4.5c-.827,0-1.5,.673-1.5,1.5v2c0,.827,.673,1.5,1.5,1.5h.5v2l2.227-2h1.773c.827,0,1.5-.673,1.5-1.5V2.25c0-.827-.673-1.5-1.5-1.5Z" stroke="currentColor" stroke-linecap="round" stroke-linejoin="round"></path><path d="M15.25,8.25v6c0,1.105-.895,2-2,2H3.75c-1.105,0-2-.895-2-2v-5.5c0-1.105,.895-2,2-2h4.38" stroke-linecap="round" stroke-linejoin="round"></path><circle cx="5.5" cy="11" r="1" fill="currentColor" stroke="none"></circle><circle cx="11.5" cy="11" r="1" fill="currentColor" stroke="none"></circle><path d="M7.5,12h2c.276,0,.5,.224,.5,.5h0c0,.828-.672,1.5-1.5,1.5h0c-.828,0-1.5-.672-1.5-1.5h0c0-.276,.224-.5,.5-.5Z" fill="currentColor" stroke="none"></path><line x1="5.25" y1="3.75" x2="5.25" y2="6.75" stroke-linecap="round" stroke-linejoin="round"></line><circle cx="5.25" cy="2.5" r="1.5" fill="currentColor" stroke="none"></circle></g></svg>