<svg xmlns="http://www.w3.org/2000/svg" height="18" width="18" viewBox="0 0 18 18"><title>chef hat</title><g fill="none" stroke="currentColor" class="nc-icon-wrapper"><line x1="4.75" y1="13.75" x2="13.25" y2="13.75" stroke-linecap="round" stroke-linejoin="round" stroke="currentColor"></line><line x1="7.75" y1="12" x2="7.75" y2="13.75" stroke-linecap="round" stroke-linejoin="round" stroke="currentColor"></line><line x1="10.25" y1="12" x2="10.25" y2="13.75" stroke-linecap="round" stroke-linejoin="round" stroke="currentColor"></line><path d="M5.912,3.983c-.539-.23-1.145-.301-1.792-.168-1.172,.241-2.118,1.218-2.323,2.397-.329,1.894,1.12,3.538,2.953,3.538v5.5c0,.552,.448,1,1,1h6.5c.552,0,1-.448,1-1v-5.5c1.832,0,3.281-1.643,2.954-3.536-.204-1.18-1.15-2.157-2.322-2.399-.648-.134-1.254-.063-1.794,.167" stroke-linecap="round" stroke-linejoin="round"></path><path d="M5.75,5c0-1.795,1.455-3.25,3.25-3.25s3.25,1.455,3.25,3.25" stroke-linecap="round" stroke-linejoin="round"></path></g></svg>