<svg xmlns="http://www.w3.org/2000/svg" height="18" width="18" viewBox="0 0 18 18"><title>circle user sparkle</title><g fill="none" stroke="currentColor" class="nc-icon-wrapper"><path d="M5.154,15.147c.479-1.673,2.019-2.897,3.846-2.897s3.367,1.224,3.846,2.897" stroke="currentColor" stroke-linecap="round" stroke-linejoin="round"></path><circle cx="9" cy="9" r="7.25" stroke-linecap="round" stroke-linejoin="round"></circle><path d="M11.59,7.16l-1.515-.506-.505-1.515c-.164-.49-.975-.49-1.139,0l-.505,1.515-1.515,.506c-.245,.081-.41,.311-.41,.569s.165,.488,.41,.569l1.515,.506,.505,1.515c.082,.245,.312,.41,.57,.41s.487-.165,.57-.41l.505-1.515,1.515-.506c.245-.081,.41-.311,.41-.569s-.165-.487-.41-.569Z" stroke="none" fill="currentColor"></path></g></svg>