<svg xmlns="http://www.w3.org/2000/svg" height="18" width="18" viewBox="0 0 18 18"><title>circle dots vertical</title><g fill="none" stroke="currentColor" class="nc-icon-wrapper"><circle cx="9" cy="9" r="7.25" stroke-linecap="round" stroke-linejoin="round"></circle><path d="M8,9c0-.551,.449-1,1-1s1,.449,1,1-.449,1-1,1-1-.449-1-1Z" stroke="none" fill="currentColor"></path><path d="M8,5.5c0-.551,.449-1,1-1s1,.449,1,1-.449,1-1,1-1-.449-1-1Z" stroke="none" fill="currentColor"></path><path d="M8,12.5c0-.551,.449-1,1-1s1,.449,1,1-.449,1-1,1-1-.449-1-1Z" stroke="none" fill="currentColor"></path></g></svg>