<svg xmlns="http://www.w3.org/2000/svg" height="18" width="18" viewBox="0 0 18 18"><title>circle dotted user</title><g fill="none" stroke="currentColor" class="nc-icon-wrapper"><circle cx="9" cy="7.75" r="2" stroke="currentColor" stroke-linecap="round" stroke-linejoin="round"></circle><path d="M9,16.25c1.407,0,2.716-.407,3.827-1.101-.481-1.67-2.003-2.899-3.827-2.899s-3.347,1.229-3.827,2.899c1.112,.694,2.42,1.101,3.827,1.101Z" stroke="currentColor" stroke-linecap="round" stroke-linejoin="round"></path><circle cx="1.889" cy="10.414" r=".75" fill="currentColor" stroke="none"></circle><circle cx="2.971" cy="4.972" r=".75" fill="currentColor" stroke="none"></circle><circle cx="2.972" cy="13.027" r=".75" fill="currentColor" stroke="none"></circle><circle cx="1.89" cy="7.586" r=".75" fill="currentColor" stroke="none"></circle><circle cx="4.973" cy="2.972" r=".75" fill="currentColor" stroke="none"></circle><circle cx="7.586" cy="1.889" r=".75" fill="currentColor" stroke="none"></circle><circle cx="15.029" cy="13.028" r=".75" fill="currentColor" stroke="none"></circle><circle cx="16.111" cy="7.586" r=".75" fill="currentColor" stroke="none"></circle><circle cx="13.028" cy="2.971" r=".75" fill="currentColor" stroke="none"></circle><circle cx="16.11" cy="10.414" r=".75" fill="currentColor" stroke="none"></circle><circle cx="15.028" cy="4.973" r=".75" fill="currentColor" stroke="none"></circle><circle cx="10.414" cy="1.89" r=".75" fill="currentColor" stroke="none"></circle></g></svg>