<svg xmlns="http://www.w3.org/2000/svg" height="18" width="18" viewBox="0 0 18 18"><title>circle dashed</title><g fill="none" stroke="currentColor" class="nc-icon-wrapper"><path d="M4.987,2.961c.778-.518,1.662-.89,2.612-1.075" stroke-linecap="round" stroke-linejoin="round"></path><path d="M1.879,7.631c.185-.968,.562-1.867,1.091-2.657" stroke-linecap="round" stroke-linejoin="round" stroke="currentColor"></path><path d="M4.987,15.039c.778,.518,1.662,.89,2.612,1.075" stroke-linecap="round" stroke-linejoin="round" stroke="currentColor"></path><path d="M1.879,10.369c.185,.968,.562,1.867,1.091,2.657" stroke-linecap="round" stroke-linejoin="round"></path><path d="M10.401,1.886c.95,.185,1.834,.557,2.612,1.075" stroke-linecap="round" stroke-linejoin="round" stroke="currentColor"></path><path d="M15.03,4.974c.529,.79,.906,1.689,1.091,2.657" stroke-linecap="round" stroke-linejoin="round"></path><path d="M10.401,16.114c.95-.185,1.834-.557,2.612-1.075" stroke-linecap="round" stroke-linejoin="round"></path><path d="M15.03,13.026c.529-.79,.906-1.689,1.091-2.657" stroke-linecap="round" stroke-linejoin="round" stroke="currentColor"></path></g></svg>