<svg xmlns="http://www.w3.org/2000/svg" height="18" width="18" viewBox="0 0 18 18"><title>circle dots</title><g fill="none" stroke="currentColor" class="nc-icon-wrapper"><circle cx="9" cy="9" r="7.25" stroke-linecap="round" stroke-linejoin="round"></circle><path d="M9,10c-.551,0-1-.449-1-1s.449-1,1-1,1,.449,1,1-.449,1-1,1Z" stroke="none" fill="currentColor"></path><path d="M5.5,10c-.551,0-1-.449-1-1s.449-1,1-1,1,.449,1,1-.449,1-1,1Z" stroke="none" fill="currentColor"></path><path d="M12.5,10c-.551,0-1-.449-1-1s.449-1,1-1,1,.449,1,1-.449,1-1,1Z" stroke="none" fill="currentColor"></path></g></svg>