<svg xmlns="http://www.w3.org/2000/svg" height="18" width="18" viewBox="0 0 18 18"><title>circle dollar up</title><g fill="none" stroke="currentColor" class="nc-icon-wrapper"><path d="M13.07,15.001c-1.16,.789-2.561,1.249-4.07,1.249-4.004,0-7.25-3.246-7.25-7.25S4.996,1.75,9,1.75c1.454,0,2.808,.428,3.943,1.165" stroke-linecap="round" stroke-linejoin="round"></path><path d="M10.817,6.951c-.394-.933-1.183-1.144-1.779-1.144-.554,0-2.01,.295-1.875,1.692,.094,.981,1.019,1.346,1.827,1.49s1.981,.452,2.01,1.635c.024,1-.875,1.683-1.962,1.683-1.038,0-1.76-.404-2.038-1.317" stroke-linecap="round" stroke-linejoin="round"></path><line x1="9" y1="4.75" x2="9" y2="5.807" stroke-linecap="round" stroke-linejoin="round"></line><line x1="9" y1="12.307" x2="9" y2="13.25" stroke-linecap="round" stroke-linejoin="round"></line><polyline points="17.25 6.75 15.25 4.75 13.25 6.75" stroke-linecap="round" stroke-linejoin="round" stroke="currentColor"></polyline><line x1="15.25" y1="4.75" x2="15.25" y2="13.25" stroke-linecap="round" stroke-linejoin="round" stroke="currentColor"></line></g></svg>