<svg xmlns="http://www.w3.org/2000/svg" height="18" width="18" viewBox="0 0 18 18"><title>circle info sparkle</title><g fill="none" stroke="currentColor" class="nc-icon-wrapper"><line x1="8.25" y1="12.819" x2="8.25" y2="8.25" stroke-linecap="round" stroke-linejoin="round"></line><path d="M8.25,6.75c-.552,0-1-.449-1-1s.448-1,1-1,1,.449,1,1-.448,1-1,1Z" fill="currentColor" stroke="none"></path><path d="M9.6,1.88c-.438-.083-.888-.13-1.35-.13C4.246,1.75,1,4.996,1,9s3.246,7.25,7.25,7.25,7.25-3.246,7.25-7.25" stroke-linecap="round" stroke-linejoin="round"></path><polygon points="14.25 .75 15.25 2.75 17.25 3.75 15.25 4.75 14.25 6.75 13.25 4.75 11.25 3.75 13.25 2.75 14.25 .75" stroke="currentColor" stroke-linecap="round" stroke-linejoin="round"></polygon></g></svg>