<svg xmlns="http://www.w3.org/2000/svg" height="18" width="18" viewBox="0 0 18 18"><title>clapperboard play</title><g fill="none" stroke="currentColor" class="nc-icon-wrapper"><path d="M10.798,10.47l-2.375-1.386c-.409-.239-.922,.056-.922,.53v2.771c0,.473,.514,.768,.922,.53l2.375-1.386c.406-.237,.406-.823,0-1.06Z" stroke="none" fill="currentColor"></path><path d="M1.75,6.75v6.5c0,1.105,.895,2,2,2H14.25c1.105,0,2-.895,2-2V6.75" stroke-linecap="round" stroke-linejoin="round"></path><path d="M16.25,6.75v-2c0-1.105-.895-2-2-2H3.75c-1.105,0-2,.895-2,2v2h14.5Z" stroke-linecap="round" stroke-linejoin="round"></path><line x1="8" y1="6.75" x2="10" y2="2.75" stroke-linecap="round" stroke-linejoin="round"></line><line x1="4.25" y1="6.75" x2="6.25" y2="2.75" stroke-linecap="round" stroke-linejoin="round"></line><line x1="11.75" y1="6.75" x2="13.75" y2="2.75" stroke-linecap="round" stroke-linejoin="round"></line></g></svg>