<svg xmlns="http://www.w3.org/2000/svg" height="18" width="18" viewBox="0 0 18 18"><title>clipboard user</title><g fill="none" stroke="currentColor" class="nc-icon-wrapper"><path d="M6.25,2.75h-1c-1.105,0-2,.895-2,2V14.25c0,1.105,.895,2,2,2h7.5c1.105,0,2-.895,2-2V4.75c0-1.105-.895-2-2-2h-1" stroke-linecap="round" stroke-linejoin="round"></path><rect x="6.25" y="1.25" width="5.5" height="3" rx="1" ry="1" stroke="currentColor" stroke-linecap="round" stroke-linejoin="round"></rect><circle cx="9" cy="7.75" r="1" stroke="currentColor" stroke-linecap="round" stroke-linejoin="round"></circle><path d="M11.101,13.25c.34,0,.594-.337,.482-.658-.373-1.072-1.383-1.842-2.583-1.842s-2.21,.77-2.583,1.842c-.112,.321,.142,.658,.482,.658h4.202Z" stroke="currentColor" stroke-linecap="round" stroke-linejoin="round"></path></g></svg>