<svg xmlns="http://www.w3.org/2000/svg" height="18" width="18" viewBox="0 0 18 18"><title>closing quotation mark</title><g fill="none" stroke="currentColor" class="nc-icon-wrapper"><path d="M16.25,8.75h-4.5c-.552,0-1-.448-1-1v-3c0-.552,.448-1,1-1h3.5c.552,0,1,.448,1,1v4c0,3.75-1.25,5.625-3.5,6.5" stroke-linecap="round" stroke-linejoin="round" stroke="currentColor"></path><path d="M7.25,8.75H2.75c-.552,0-1-.448-1-1v-3c0-.552,.448-1,1-1h3.5c.552,0,1,.448,1,1v4c0,3.75-1.25,5.625-3.5,6.5" stroke-linecap="round" stroke-linejoin="round"></path></g></svg>