<svg xmlns="http://www.w3.org/2000/svg" height="18" width="18" viewBox="0 0 18 18"><title>cloud snow</title><g fill="none" stroke="currentColor" class="nc-icon-wrapper"><line x1="8.75" y1="11.75" x2="8.75" y2="16.75" stroke-linecap="round" stroke-linejoin="round" stroke="currentColor"></line><line x1="6.585" y1="13" x2="10.915" y2="15.5" stroke-linecap="round" stroke-linejoin="round" stroke="currentColor"></line><line x1="6.585" y1="15.5" x2="10.915" y2="13" stroke-linecap="round" stroke-linejoin="round" stroke="currentColor"></line><path d="M13.163,14.192c1.755-.313,3.087-1.847,3.087-3.692,0-1.736-1.185-3.182-2.786-3.609-.186-2.314-2.102-4.141-4.464-4.141-2.485,0-4.5,2.015-4.5,4.5,0,.35,.049,.686,.124,1.013-1.597,.067-2.874,1.374-2.874,2.987,0,1.441,1.016,2.645,2.371,2.934" stroke-linecap="round" stroke-linejoin="round"></path><path d="M9.705,8c.687-.767,1.684-1.25,2.795-1.25,.333,0,.657,.059,.964,.141" stroke-linecap="round" stroke-linejoin="round"></path></g></svg>