<svg xmlns="http://www.w3.org/2000/svg" height="18" width="18" viewBox="0 0 18 18"><title>cloud nodes</title><g fill="none" stroke="currentColor" class="nc-icon-wrapper"><line x1="9" y1="10.25" x2="9" y2="13.75" stroke-linecap="round" stroke-linejoin="round" stroke="currentColor"></line><path d="M4.56,13.69l1.397-1.397c.188-.188,.293-.442,.293-.707v-1.336" stroke-linecap="round" stroke-linejoin="round" stroke="currentColor"></path><path d="M13.44,13.69l-1.397-1.397c-.188-.188-.293-.442-.293-.707v-1.336" stroke-linecap="round" stroke-linejoin="round" stroke="currentColor"></path><path d="M13.75,5.25c-.276,0-.538,.056-.786,.138-.185-2.037-1.878-3.638-3.964-3.638s-3.778,1.602-3.964,3.638c-.249-.083-.51-.138-.786-.138-1.381,0-2.5,1.119-2.5,2.5s1.119,2.5,2.5,2.5H13.75c1.381,0,2.5-1.119,2.5-2.5s-1.119-2.5-2.5-2.5Z" stroke-linecap="round" stroke-linejoin="round"></path><circle cx="9" cy="15.25" r="1.5" stroke-linecap="round" stroke-linejoin="round" stroke="currentColor"></circle><circle cx="3.5" cy="14.75" r="1.5" stroke-linecap="round" stroke-linejoin="round" stroke="currentColor"></circle><circle cx="14.5" cy="14.75" r="1.5" stroke-linecap="round" stroke-linejoin="round" stroke="currentColor"></circle></g></svg>