<svg xmlns="http://www.w3.org/2000/svg" height="18" width="18" viewBox="0 0 18 18"><title>cloud streaming</title><g fill="none" stroke="currentColor" class="nc-icon-wrapper"><path d="M10.704,6.042l-2.308-1.346c-.397-.232-.896,.055-.896,.515v2.693c0,.46,.499,.747,.896,.515l2.308-1.346c.394-.23,.394-.8,0-1.03Z" stroke="none" fill="currentColor"></path><line x1="11.25" y1="14.25" x2="16.25" y2="14.25" stroke="currentColor" stroke-linecap="round" stroke-linejoin="round"></line><line x1="1.75" y1="14.25" x2="8.75" y2="14.25" stroke="currentColor" stroke-linecap="round" stroke-linejoin="round"></line><path d="M13.75,5.25c-.196,0-.385,.028-.568,.071-.327-2.022-2.067-3.571-4.182-3.571s-3.855,1.549-4.182,3.571c-.183-.043-.372-.071-.568-.071-1.381,0-2.5,1.119-2.5,2.5s1.119,2.5,2.5,2.5H13.75c1.381,0,2.5-1.119,2.5-2.5s-1.119-2.5-2.5-2.5Z" stroke-linecap="round" stroke-linejoin="round"></path><line x1="8.75" y1="16" x2="8.75" y2="12.5" stroke="currentColor" stroke-linecap="round" stroke-linejoin="round"></line></g></svg>