<svg xmlns="http://www.w3.org/2000/svg" height="18" width="18" viewBox="0 0 18 18"><title>coins</title><g fill="none" stroke="currentColor" class="nc-icon-wrapper"><ellipse cx="9.5" cy="3.75" rx="6.25" ry="2" stroke-linecap="round" stroke-linejoin="round"></ellipse><path d="M3.25,3.75v3c0,1.104,2.798,2,6.25,2s6.25-.896,6.25-2V3.75" stroke-linecap="round" stroke-linejoin="round"></path><line x1="9.5" y1="5.75" x2="9.5" y2="8.75" stroke-linecap="round" stroke-linejoin="round"></line><line x1="6.25" y1="5.458" x2="6.25" y2="8.458" stroke-linecap="round" stroke-linejoin="round"></line><line x1="12.75" y1="5.458" x2="12.75" y2="8.458" stroke-linecap="round" stroke-linejoin="round"></line><path d="M2.25,11.25v3c0,1.104,2.798,2,6.25,2s6.25-.896,6.25-2v-3" stroke-linecap="round" stroke-linejoin="round" stroke="currentColor"></path><line x1="8.5" y1="13.25" x2="8.5" y2="16.25" stroke-linecap="round" stroke-linejoin="round" stroke="currentColor"></line><line x1="5.25" y1="12.958" x2="5.25" y2="15.958" stroke-linecap="round" stroke-linejoin="round" stroke="currentColor"></line><line x1="11.75" y1="12.958" x2="11.75" y2="15.958" stroke-linecap="round" stroke-linejoin="round" stroke="currentColor"></line><path d="M3.311,10.135c-.67,.319-1.061,.702-1.061,1.115,0,1.104,2.798,2,6.25,2s6.25-.896,6.25-2c0-.223-.119-.438-.33-.638" stroke-linecap="round" stroke-linejoin="round" stroke="currentColor"></path></g></svg>