<svg xmlns="http://www.w3.org/2000/svg" height="18" width="18" viewBox="0 0 18 18"><title>compass 3</title><g fill="none" stroke="currentColor" class="nc-icon-wrapper"><circle cx="9" cy="9" r="1" fill="currentColor" stroke="none"></circle><path d="M5.201,7.626l1.799-.626,.626-1.799-3.49-2.094c-.295-.177-.673-.13-.916,.113-.244,.243-.29,.621-.113,.916l2.094,3.49Z" fill="currentColor" stroke="none"></path><path d="M10.374,5.201l.626,1.799,1.799,.626,2.094-3.49c.177-.295,.13-.673-.113-.916-.243-.244-.621-.29-.916-.113l-3.49,2.094Z" fill="currentColor" stroke="none"></path><path d="M12.799,10.374l-1.799,.626-.626,1.799,3.49,2.094c.295,.177,.673,.13,.916-.113,.244-.243,.29-.621,.113-.916l-2.094-3.49Z" fill="currentColor" stroke="none"></path><path d="M7.626,12.799l-.626-1.799-1.799-.626-2.094,3.49c-.177,.295-.13,.673,.113,.916,.243,.244,.621,.29,.916,.113l3.49-2.094Z" fill="currentColor" stroke="none"></path><polygon points="11 11 16.75 9 11 7 9 1.25 7 7 1.25 9 7 11 9 16.75 11 11" stroke="currentColor" stroke-linecap="round" stroke-linejoin="round"></polygon></g></svg>