<svg xmlns="http://www.w3.org/2000/svg" height="18" width="18" viewBox="0 0 18 18"><title>connection</title><g fill="none" stroke="currentColor" class="nc-icon-wrapper"><path d="M13,15.047c1.958-1.298,3.25-3.522,3.25-6.047,0-4.004-3.246-7.25-7.25-7.25S1.75,4.996,1.75,9s3.246,7.25,7.25,7.25v-3.146" stroke-linecap="round" stroke-linejoin="round"></path><path d="M6.043,7.75h5.914c.552,0,1,.448,1,1v.396c0,2.185-1.772,3.957-3.957,3.957h0c-2.185,0-3.957-1.772-3.957-3.957v-.396c0-.552,.448-1,1-1Z" stroke-linecap="round" stroke-linejoin="round" stroke="currentColor"></path><line x1="7.232" y1="7.75" x2="7.232" y2="5.55" stroke-linecap="round" stroke-linejoin="round" stroke="currentColor"></line><line x1="10.768" y1="7.75" x2="10.768" y2="5.55" stroke-linecap="round" stroke-linejoin="round" stroke="currentColor"></line></g></svg>