<svg xmlns="http://www.w3.org/2000/svg" height="18" width="18" viewBox="0 0 18 18"><title>construction crane</title><g fill="none" stroke="currentColor" class="nc-icon-wrapper"><rect x="11.75" y="10.75" width="4" height="2.5" rx=".5" ry=".5" stroke-linecap="round" stroke-linejoin="round" stroke="currentColor"></rect><line x1="13.75" y1="10.75" x2="13.75" y2="6.25" stroke-linecap="round" stroke-linejoin="round" stroke="currentColor"></line><line x1="10" y1="16.25" x2="3" y2="16.25" stroke-linecap="round" stroke-linejoin="round"></line><path d="M4.75,16.25V2.25c0-.276,.224-.5,.5-.5h2.5c.276,0,.5,.224,.5,.5v14" stroke-linecap="round" stroke-linejoin="round"></path><path d="M10.75,6.25h4.761c.354,0,.596-.357,.464-.686l-.6-1.5c-.076-.19-.26-.314-.464-.314h-6.661" stroke-linecap="round" stroke-linejoin="round"></path><path d="M4.75,3.75H2.25c-.276,0-.5,.224-.5,.5v1.5c0,.276,.224,.5,.5,.5h6" stroke-linecap="round" stroke-linejoin="round"></path><line x1="4.75" y1="9.25" x2="8.25" y2="9.25" stroke-linecap="round" stroke-linejoin="round"></line><line x1="4.75" y1="12.25" x2="8.25" y2="12.25" stroke-linecap="round" stroke-linejoin="round"></line></g></svg>