<svg xmlns="http://www.w3.org/2000/svg" height="18" width="18" viewBox="0 0 18 18"><title>credit card heart</title><g fill="none" stroke="currentColor" class="nc-icon-wrapper"><line x1="1.75" y1="7.25" x2="16.25" y2="7.25" stroke-linecap="round" stroke-linejoin="round"></line><line x1="4.25" y1="11.25" x2="7.25" y2="11.25" stroke-linecap="round" stroke-linejoin="round"></line><path d="M16.25,9.084v-3.334c0-1.104-.895-2-2-2H3.75c-1.105,0-2,.896-2,2v6.5c0,1.104,.895,2,2,2h4.596" stroke-linecap="round" stroke-linejoin="round"></path><path d="M13.781,17.197c.138,.071,.299,.071,.437,0,.729-.374,3.031-1.73,3.031-3.934,.004-.968-.791-1.757-1.777-1.763-.593,.007-1.144,.301-1.473,.786-.329-.484-.881-.778-1.473-.786-.985,.006-1.78,.794-1.777,1.763,0,2.205,2.303,3.56,3.031,3.934Z" stroke-linecap="round" stroke-linejoin="round" stroke="currentColor"></path></g></svg>