<svg xmlns="http://www.w3.org/2000/svg" height="18" width="18" viewBox="0 0 18 18"><title>credit card signal</title><g fill="none" stroke="currentColor" class="nc-icon-wrapper"><line x1="1.75" y1="7.25" x2="16.25" y2="7.25" stroke-linecap="round" stroke-linejoin="round"></line><line x1="4.25" y1="11.25" x2="7.25" y2="11.25" stroke-linecap="round" stroke-linejoin="round"></line><path d="M16.25,7.25v-1.5c0-1.104-.895-2-2-2H3.75c-1.105,0-2,.896-2,2v6.5c0,1.104,.895,2,2,2h4.676" stroke-linecap="round" stroke-linejoin="round"></path><path d="M10.75,16.25v-.25c0-3.452,2.798-6.25,6.25-6.25h.25" stroke="currentColor" stroke-linecap="round" stroke-linejoin="round"></path><path d="M13.75,16.25v-.25c0-1.792,1.458-3.25,3.25-3.25h.25" stroke="currentColor" stroke-linecap="round" stroke-linejoin="round"></path><path d="M17,17c-.552,0-1-.448-1-1s.448-1,1-1,1,.448,1,1-.448,1-1,1Z" stroke="none" fill="currentColor"></path></g></svg>