<svg xmlns="http://www.w3.org/2000/svg" height="18" width="18" viewBox="0 0 18 18"><title>credit card contactless 2</title><g fill="none" stroke="currentColor" class="nc-icon-wrapper"><path d="M10.768,3.982c-.452-.452-1.077-.732-1.768-.732-.69,0-1.315,.28-1.768,.732" stroke="currentColor" stroke-linecap="round" stroke-linejoin="round"></path><path d="M12.536,2.214c-.905-.905-2.155-1.464-3.536-1.464-1.381,0-2.631,.56-3.536,1.464" stroke="currentColor" stroke-linecap="round" stroke-linejoin="round"></path><circle cx="9" cy="5.75" r=".75" stroke="none" fill="currentColor"></circle><path d="M13.5,4.75h.75c1.105,0,2,.895,2,2v7.5c0,1.105-.895,2-2,2H3.75c-1.105,0-2-.895-2-2V6.75c0-1.105,.895-2,2-2h.75" stroke-linecap="round" stroke-linejoin="round"></path><line x1="1.75" y1="8.75" x2="16.25" y2="8.75" stroke-linecap="round" stroke-linejoin="round"></line><line x1="4.25" y1="13.25" x2="7.25" y2="13.25" stroke-linecap="round" stroke-linejoin="round"></line><line x1="12.75" y1="13.25" x2="13.75" y2="13.25" stroke-linecap="round" stroke-linejoin="round"></line></g></svg>