<svg xmlns="http://www.w3.org/2000/svg" height="18" width="18" viewBox="0 0 18 18"><title>credit card alert</title><g fill="none" stroke="currentColor" class="nc-icon-wrapper"><line x1="1.75" y1="7.25" x2="16.25" y2="7.25" stroke-linecap="round" stroke-linejoin="round"></line><line x1="4.25" y1="11.25" x2="7.25" y2="11.25" stroke-linecap="round" stroke-linejoin="round"></line><path d="M16.25,8.814v-3.064c0-1.104-.895-2-2-2H3.75c-1.105,0-2,.896-2,2v6.5c0,1.104,.895,2,2,2h3.214" stroke-linecap="round" stroke-linejoin="round"></path><path d="M15.75,16.25h.433c.788,0,1.267-.869,.845-1.535l-2.933-4.631c-.393-.62-1.297-.62-1.69,0l-2.933,4.631c-.422,.666,.057,1.535,.845,1.535h.433" stroke="currentColor" stroke-linecap="round" stroke-linejoin="round"></path><line x1="13.25" y1="12.75" x2="13.25" y2="14.75" stroke="currentColor" stroke-linecap="round" stroke-linejoin="round"></line><circle cx="13.25" cy="16.75" r=".75" stroke="none" fill="currentColor"></circle></g></svg>