<svg xmlns="http://www.w3.org/2000/svg" height="18" width="18" viewBox="0 0 18 18"><title>crosshairs 2 slash</title><g fill="none" stroke="currentColor" class="nc-icon-wrapper"><line x1="9" y1="4.25" x2="9" y2="1.75" stroke-linecap="round" stroke-linejoin="round" stroke="currentColor"></line><line x1="13.75" y1="9" x2="16.25" y2="9" stroke-linecap="round" stroke-linejoin="round" stroke="currentColor"></line><line x1="9" y1="13.75" x2="9" y2="16.25" stroke-linecap="round" stroke-linejoin="round" stroke="currentColor"></line><line x1="4.25" y1="9" x2="1.75" y2="9" stroke-linecap="round" stroke-linejoin="round" stroke="currentColor"></line><path d="M3.874,14.127c-1.312-1.312-2.124-3.125-2.124-5.127C1.75,4.996,4.996,1.75,9,1.75c2.002,0,3.815,.811,5.127,2.123" stroke-linecap="round" stroke-linejoin="round"></path><path d="M15.581,5.954c.429,.926,.669,1.958,.669,3.046,0,4.004-3.246,7.25-7.25,7.25-1.088,0-2.12-.24-3.046-.669" stroke-linecap="round" stroke-linejoin="round"></path><line x1="2" y1="16" x2="16" y2="2" stroke-linecap="round" stroke-linejoin="round" stroke="currentColor"></line></g></svg>