<svg xmlns="http://www.w3.org/2000/svg" height="18" width="18" viewBox="0 0 18 18"><title>cube axis</title><g fill="none" stroke="currentColor" class="nc-icon-wrapper"><line x1="9" y1="3.922" x2="9" y2="1.75" stroke-linecap="round" stroke-linejoin="round" stroke="currentColor"></line><line x1="3.99" y1="12.692" x2="1.765" y2="13.991" stroke-linecap="round" stroke-linejoin="round" stroke="currentColor"></line><line x1="14.01" y1="12.692" x2="16.235" y2="13.991" stroke-linecap="round" stroke-linejoin="round" stroke="currentColor"></line><path d="M8.157,4.149l-3.57,2.071c-.518,.301-.837,.854-.837,1.453v4.155c0,.599,.319,1.153,.837,1.453l3.57,2.071c.521,.302,1.165,.302,1.686,0l3.57-2.071c.518-.301,.837-.854,.837-1.453V7.673c0-.599-.319-1.153-.837-1.453l-3.57-2.071c-.521-.302-1.165-.302-1.686,0Z" stroke-linecap="round" stroke-linejoin="round"></path><polyline points="14.026 6.835 9 9.75 3.974 6.835" stroke-linecap="round" stroke-linejoin="round"></polyline><line x1="9" y1="15.578" x2="9" y2="9.75" stroke-linecap="round" stroke-linejoin="round"></line></g></svg>