<svg xmlns="http://www.w3.org/2000/svg" height="18" width="18" viewBox="0 0 18 18"><title>cube floor</title><g fill="none" stroke="currentColor" class="nc-icon-wrapper"><path d="M8.157,1.977l-3.57,2.071c-.518,.301-.837,.854-.837,1.453v4.155c0,.599,.319,1.153,.837,1.453l3.57,2.071c.521,.302,1.165,.302,1.686,0l3.57-2.071c.518-.301,.837-.854,.837-1.453V5.501c0-.599-.319-1.153-.837-1.453l-3.57-2.071c-.521-.302-1.165-.302-1.686,0Z" stroke-linecap="round" stroke-linejoin="round"></path><polyline points="14.026 4.663 9 7.578 3.974 4.663" stroke-linecap="round" stroke-linejoin="round"></polyline><line x1="9" y1="13.406" x2="9" y2="7.578" stroke-linecap="round" stroke-linejoin="round"></line><path d="M15,13.127c.789,.32,1.25,.707,1.25,1.123,0,1.105-3.246,2-7.25,2s-7.25-.895-7.25-2c0-.416,.461-.803,1.25-1.123" stroke-linecap="round" stroke-linejoin="round" stroke="currentColor"></path></g></svg>