<svg xmlns="http://www.w3.org/2000/svg" height="18" width="18" viewBox="0 0 18 18"><title>cube transparent</title><g fill="none" stroke="currentColor" class="nc-icon-wrapper"><path d="M2.746,7.709l.002-1.182c0-.357,.096-.699,.269-.998,.172-.299,.421-.553,.73-.732l1.023-.593" stroke-linecap="round" stroke-linejoin="round"></path><line x1="5.027" y1="6.695" x2="3.017" y2="5.53" stroke-linecap="round" stroke-linejoin="round"></line><path d="M15.254,7.709l-.002-1.182c0-.357-.096-.699-.269-.998-.172-.299-.421-.553-.73-.732l-1.023-.593" stroke-linecap="round" stroke-linejoin="round"></path><line x1="12.973" y1="6.695" x2="14.983" y2="5.53" stroke-linecap="round" stroke-linejoin="round"></line><path d="M2.746,10.291l.002,1.182c0,.357,.096,.699,.269,.998,.172,.299,.421,.553,.73,.732l1.023,.593" stroke-linecap="round" stroke-linejoin="round" stroke="currentColor"></path><line x1="5.027" y1="11.305" x2="3.017" y2="12.47" stroke-linecap="round" stroke-linejoin="round" stroke="currentColor"></line><path d="M15.254,10.291l-.002,1.182c0,.357-.096,.699-.269,.998-.172,.299-.421,.553-.73,.732l-1.023,.593" stroke-linecap="round" stroke-linejoin="round" stroke="currentColor"></path><line x1="12.973" y1="11.305" x2="14.983" y2="12.47" stroke-linecap="round" stroke-linejoin="round" stroke="currentColor"></line><path d="M11,2.91l-.997-.578c-.621-.36-1.386-.36-2.007,0l-.997,.578" stroke-linecap="round" stroke-linejoin="round" stroke="currentColor"></path><polyline points="10.724 8 9 9 7.276 8" stroke-linecap="round" stroke-linejoin="round"></polyline><line x1="9" y1="2.895" x2="9" y2="4.25" stroke-linecap="round" stroke-linejoin="round" stroke="currentColor"></line><path d="M11,15.09l-.997,.578c-.621,.36-1.386,.36-2.007,0l-.997-.578" stroke-linecap="round" stroke-linejoin="round"></path><line x1="9" y1="15.105" x2="9" y2="13.75" stroke-linecap="round" stroke-linejoin="round"></line><line x1="9" y1="9" x2="9" y2="11" stroke-linecap="round" stroke-linejoin="round"></line></g></svg>