<svg xmlns="http://www.w3.org/2000/svg" height="18" width="18" viewBox="0 0 18 18"><title>cubes</title><g fill="none" stroke="currentColor" class="nc-icon-wrapper"><path d="M4.648,8.086l-2.55,1.479c-.37,.215-.598,.61-.598,1.038v2.968c0,.428,.228,.823,.598,1.038l2.55,1.479c.372,.216,.832,.216,1.204,0l2.55-1.479c.37-.215,.598-.61,.598-1.038v-2.968c0-.428-.228-.823-.598-1.038l-2.55-1.479c-.372-.216-.832-.216-1.204,0Z" stroke-linecap="round" stroke-linejoin="round"></path><polyline points="8.84 10.005 5.25 12.087 1.66 10.005" stroke-linecap="round" stroke-linejoin="round"></polyline><line x1="5.25" y1="16.25" x2="5.25" y2="12.087" stroke-linecap="round" stroke-linejoin="round"></line><path d="M12.148,8.086l-2.55,1.479c-.37,.215-.598,.61-.598,1.038v2.968c0,.428,.228,.823,.598,1.038l2.55,1.479c.372,.216,.832,.216,1.204,0l2.55-1.479c.37-.215,.598-.61,.598-1.038v-2.968c0-.428-.228-.823-.598-1.038l-2.55-1.479c-.372-.216-.832-.216-1.204,0Z" stroke-linecap="round" stroke-linejoin="round"></path><polyline points="16.34 10.005 12.75 12.087 9.16 10.005" stroke-linecap="round" stroke-linejoin="round"></polyline><line x1="12.75" y1="16.25" x2="12.75" y2="12.087" stroke-linecap="round" stroke-linejoin="round"></line><path d="M8.398,1.586l-2.55,1.479c-.37,.215-.598,.61-.598,1.038v2.968c0,.428,.228,.823,.598,1.038l2.55,1.479c.372,.216,.832,.216,1.204,0l2.55-1.479c.37-.215,.598-.61,.598-1.038v-2.968c0-.428-.228-.823-.598-1.038l-2.55-1.479c-.372-.216-.832-.216-1.204,0Z" stroke-linecap="round" stroke-linejoin="round" stroke="currentColor"></path><polyline points="12.59 3.505 9 5.587 5.41 3.505" stroke-linecap="round" stroke-linejoin="round" stroke="currentColor"></polyline><line x1="9" y1="9.75" x2="9" y2="5.587" stroke-linecap="round" stroke-linejoin="round" stroke="currentColor"></line></g></svg>