<svg xmlns="http://www.w3.org/2000/svg" height="18" width="18" viewBox="0 0 18 18"><title>database pen</title><g fill="none" stroke="currentColor" class="nc-icon-wrapper"><ellipse cx="9" cy="4.25" rx="6.25" ry="2.25" stroke-linecap="round" stroke-linejoin="round"></ellipse><line x1="15.25" y1="8.327" x2="15.25" y2="4.25" stroke-linecap="round" stroke-linejoin="round"></line><path d="M2.75,4.25V13.75c0,1.187,2.551,2.159,5.787,2.244" stroke-linecap="round" stroke-linejoin="round"></path><path d="M2.75,9c0,1.243,2.798,2.25,6.25,2.25,.96,0,1.869-.078,2.681-.217" stroke-linecap="round" stroke-linejoin="round"></path><path d="M13.207,16.401c.143-.049,.273-.131,.38-.238l3.303-3.303c.483-.483,.478-1.261-.005-1.745h0c-.483-.483-1.261-.489-1.745-.005l-3.303,3.303c-.107,.107-.189,.237-.238,.38l-.849,2.457,2.457-.849Z" stroke-linecap="round" stroke-linejoin="round" stroke="currentColor"></path></g></svg>