<svg xmlns="http://www.w3.org/2000/svg" height="18" width="18" viewBox="0 0 18 18"><title>database cloud</title><g fill="none" stroke="currentColor" class="nc-icon-wrapper"><ellipse cx="9" cy="4.25" rx="6.25" ry="2.25" stroke-linecap="round" stroke-linejoin="round"></ellipse><line x1="15.25" y1="9" x2="15.25" y2="4.25" stroke-linecap="round" stroke-linejoin="round"></line><path d="M2.75,4.25V13.75c0,1.151,2.402,2.101,5.5,2.234" stroke-linecap="round" stroke-linejoin="round"></path><path d="M2.75,9c0,1.243,2.798,2.25,6.25,2.25s6.25-1.007,6.25-2.25" stroke-linecap="round" stroke-linejoin="round"></path><path d="M15,12.75c-1.131,0-2.058,.837-2.217,1.925-.196-.108-.418-.175-.658-.175-.759,0-1.375,.616-1.375,1.375s.616,1.375,1.375,1.375h2.875c1.243,0,2.25-1.007,2.25-2.25s-1.007-2.25-2.25-2.25Z" stroke-linecap="round" stroke-linejoin="round" stroke="currentColor"></path></g></svg>