<svg xmlns="http://www.w3.org/2000/svg" height="18" width="18" viewBox="0 0 18 18"><title>design file plus</title><g fill="none" stroke="currentColor" class="nc-icon-wrapper"><line x1="14.75" y1="11.75" x2="14.75" y2="16.75" stroke="currentColor" stroke-linecap="round" stroke-linejoin="round"></line><line x1="17.25" y1="14.25" x2="12.25" y2="14.25" stroke="currentColor" stroke-linecap="round" stroke-linejoin="round"></line><path d="M10.594,16.25H3.75c-1.105,0-2-.895-2-2V3.75c0-1.105,.895-2,2-2h5.586c.265,0,.52,.105,.707,.293l3.914,3.914c.188,.188,.293,.442,.293,.707v2.586" stroke-linecap="round" stroke-linejoin="round"></path><circle cx="10.5" cy="8" r="2" fill="currentColor" stroke="none"></circle><rect x="5" y="10" width="3.5" height="3.5" rx=".9" ry=".9" fill="currentColor" stroke="none"></rect><path d="M7.402,7.648c.124-.217,.123-.486-.003-.701l-1.33-2.28c-.251-.43-.959-.428-1.208,0l-1.33,2.279c-.126,.216-.128,.484-.003,.702,.124,.217,.357,.352,.607,.352h2.659c.25,0,.483-.135,.607-.352Z" fill="currentColor" stroke="none"></path></g></svg>