<svg xmlns="http://www.w3.org/2000/svg" height="18" width="18" viewBox="0 0 18 18"><title>device mockup</title><g fill="none" stroke="currentColor" class="nc-icon-wrapper"><path d="M1.829,8.709l3.694,1.965c.542,.289,1.194,.284,1.732-.012l8.924-4.906c.432-.237,.428-.859-.007-1.091l-3.694-1.965c-.542-.289-1.194-.284-1.732,.012L1.821,7.618c-.432,.237-.428,.859,.007,1.091Z" stroke-linecap="round" stroke-linejoin="round"></path><path d="M2.462,11.878l-.641,.352c-.432,.237-.428,.859,.007,1.091l3.694,1.965c.542,.289,1.194,.284,1.732-.012l8.924-4.906c.432-.237,.428-.859-.007-1.091l-.614-.327" stroke-linecap="round" stroke-linejoin="round" stroke="currentColor"></path></g></svg>