<svg xmlns="http://www.w3.org/2000/svg" height="18" width="18" viewBox="0 0 18 18"><title>device connection</title><g fill="none" stroke="currentColor" class="nc-icon-wrapper"><path d="M2.75,6v-.25c0-1.105,.895-2,2-2H14.25c1.105,0,2,.895,2,2v4.5c0,1.105-.895,2-2,2h-4.25" stroke-linecap="round" stroke-linejoin="round"></path><path d="M1.5,16c-.551,0-1-.449-1-1s.449-1,1-1,1,.449,1,1-.449,1-1,1Z" stroke="none" fill="currentColor"></path><path d="M1.25,11.75h.25c1.795,0,3.25,1.455,3.25,3.25v.25" stroke="currentColor" stroke-linecap="round" stroke-linejoin="round"></path><path d="M1.25,8.75h.25c3.452,0,6.25,2.798,6.25,6.25v.25" stroke="currentColor" stroke-linecap="round" stroke-linejoin="round"></path></g></svg>