<svg xmlns="http://www.w3.org/2000/svg" height="18" width="18" viewBox="0 0 18 18"><title>diet apple</title><g fill="none" stroke="currentColor" class="nc-icon-wrapper"><path d="M5.923,14.638c1.448,1.095,2.792,.385,3.634,.385,1.081,0,2.992,1.174,4.886-1.817,1.973-3.114,1.489-6.639,.021-7.801-1.595-1.267-3.391-.223-4.909-.223s-3.131-1.107-4.909,.223c-.137,.102-.264,.217-.382,.342" stroke-linecap="round" stroke-linejoin="round"></path><path d="M12,.25h0c.276,0,.5,.224,.5,.5h0c0,1.38-1.12,2.5-2.5,2.5h0c-.276,0-.5-.224-.5-.5h0c0-1.38,1.12-2.5,2.5-2.5Z" stroke="none" fill="currentColor"></path><rect x="1.25" y="8.25" width="10" height="4" rx="1" ry="1" stroke="currentColor" stroke-linecap="round" stroke-linejoin="round"></rect><line x1="8.75" y1="8.25" x2="8.75" y2="9.75" stroke="currentColor" stroke-linecap="round" stroke-linejoin="round"></line><line x1="6.25" y1="8.25" x2="6.25" y2="9.75" stroke="currentColor" stroke-linecap="round" stroke-linejoin="round"></line><line x1="3.75" y1="8.25" x2="3.75" y2="9.75" stroke="currentColor" stroke-linecap="round" stroke-linejoin="round"></line></g></svg>