<svg xmlns="http://www.w3.org/2000/svg" height="18" width="18" viewBox="0 0 18 18"><title>diet calendar</title><g fill="none" stroke="currentColor" class="nc-icon-wrapper"><path d="M15.908,11.624c-.912-.724-1.938-.128-2.805-.128s-1.789-.632-2.805,.128-1.114,2.678,.014,4.457c1.083,1.708,2.175,1.038,2.792,1.038s1.709,.671,2.792-1.038c1.127-1.779,.851-3.794,.012-4.457Z" stroke="currentColor" stroke-linecap="round" stroke-linejoin="round"></path><path d="M14.667,8h0c.184,0,.333,.149,.333,.333h0c0,.92-.747,1.667-1.667,1.667h0c-.184,0-.333-.149-.333-.333h0c0-.92,.747-1.667,1.667-1.667Z" stroke="none" fill="currentColor"></path><path d="M7.25,15.25H3.75c-1.105,0-2-.895-2-2V4.75c0-1.105,.895-2,2-2H13.25c1.105,0,2,.895,2,2v1.5" stroke-linecap="round" stroke-linejoin="round"></path><line x1="5.25" y1="2.75" x2="5.25" y2=".75" stroke-linecap="round" stroke-linejoin="round"></line><line x1="11.75" y1="2.75" x2="11.75" y2=".75" stroke-linecap="round" stroke-linejoin="round"></line><line x1="1.75" y1="6.25" x2="15.25" y2="6.25" stroke-linecap="round" stroke-linejoin="round"></line></g></svg>