<svg xmlns="http://www.w3.org/2000/svg" height="18" width="18" viewBox="0 0 18 18"><title>discount code</title><g fill="none" stroke="currentColor" class="nc-icon-wrapper"><circle cx="7" cy="7" r="1" stroke="none" fill="currentColor"></circle><circle cx="11" cy="11" r="1" stroke="none" fill="currentColor"></circle><line x1="6.75" y1="11.25" x2="11.25" y2="6.75" stroke="currentColor" stroke-linecap="round" stroke-linejoin="round"></line><path d="M14.5,9c0-.967,.784-1.75,1.75-1.75v-1.5c0-1.104-.895-2-2-2H3.75c-1.105,0-2,.896-2,2v1.5c.966,0,1.75,.783,1.75,1.75s-.784,1.75-1.75,1.75v1.5c0,1.104,.895,2,2,2H14.25c1.105,0,2-.896,2-2v-1.5c-.966,0-1.75-.783-1.75-1.75Z" stroke-linecap="round" stroke-linejoin="round"></path></g></svg>