<svg xmlns="http://www.w3.org/2000/svg" height="18" width="18" viewBox="0 0 18 18"><title>dollar value up</title><g fill="none" stroke="currentColor" class="nc-icon-wrapper"><path d="M3.904,10.919c-.573-.92-.904-2.006-.904-3.169,0-3.314,2.686-6,6-6s6,2.686,6,6c0,.249-.015,.495-.045,.737" stroke-linecap="round" stroke-linejoin="round"></path><path d="M10.724,5.806c-.374-.885-1.122-1.086-1.688-1.086-.526,0-1.907,.28-1.779,1.606,.09,.931,.967,1.277,1.734,1.414s1.88,.429,1.907,1.551c.023,.949-.83,1.597-1.861,1.597-.985,0-1.67-.383-1.934-1.25" stroke-linecap="round" stroke-linejoin="round"></path><line x1="9" y1="4" x2="9" y2="4.612" stroke-linecap="round" stroke-linejoin="round"></line><line x1="9" y1="10.888" x2="9" y2="11.5" stroke-linecap="round" stroke-linejoin="round"></line><path d="M2,16.25l2.588-2.588c.254-.254,.626-.353,.973-.257l6.127,1.69c.347,.096,.719-.002,.973-.257l3.588-3.588" stroke-linecap="round" stroke-linejoin="round" stroke="currentColor"></path><polyline points="16.25 14.75 16.25 11.25 12.75 11.25" stroke-linecap="round" stroke-linejoin="round" stroke="currentColor"></polyline></g></svg>