<svg xmlns="http://www.w3.org/2000/svg" height="18" width="18" viewBox="0 0 18 18"><title>drink slash</title><g fill="none" stroke="currentColor" class="nc-icon-wrapper"><path d="M11.141,6.862c-.234-.085-.391-.112-.391-.112V2.25c0-.552-.448-1-1-1h-1.5c-.552,0-1,.448-1,1V6.75s-2.5,.438-2.5,3.25v5.75c0,.552,.448,1,1,1h6.5c.552,0,1-.448,1-1v-5.75c0-.55-.096-1.01-.25-1.393" stroke-linecap="round" stroke-linejoin="round"></path><polyline points="9.25 12 9.25 14.25 4.75 14.25" stroke-linecap="round" stroke-linejoin="round"></polyline><line x1="4.75" y1="9.75" x2="8.25" y2="9.75" stroke-linecap="round" stroke-linejoin="round"></line><line x1="7.25" y1="4.75" x2="10.75" y2="4.75" stroke-linecap="round" stroke-linejoin="round"></line><line x1="2" y1="16" x2="16" y2="2" stroke-linecap="round" stroke-linejoin="round" stroke="currentColor"></line></g></svg>