<svg xmlns="http://www.w3.org/2000/svg" height="18" width="18" viewBox="0 0 18 18"><title>drone</title><g fill="none" stroke="currentColor" class="nc-icon-wrapper"><line x1="4.25" y1="1.75" x2="4.25" y2="5.75" stroke="currentColor" stroke-linecap="round" stroke-linejoin="round"></line><line x1="1.25" y1="2.75" x2="7.25" y2="2.75" stroke="currentColor" stroke-linecap="round" stroke-linejoin="round"></line><line x1="13.75" y1="1.75" x2="13.75" y2="5.75" stroke="currentColor" stroke-linecap="round" stroke-linejoin="round"></line><line x1="10.75" y1="2.75" x2="16.75" y2="2.75" stroke="currentColor" stroke-linecap="round" stroke-linejoin="round"></line><path d="M11.75,12.25l.25-3h2c.966,0,1.75-.783,1.75-1.75s-.784-1.75-1.75-1.75H4c-.966,0-1.75,.783-1.75,1.75s.784,1.75,1.75,1.75h2l.25,3" stroke-linecap="round" stroke-linejoin="round"></path><path d="M15.75,16.25c0-2.209-1.791-4-4-4H6.25c-2.209,0-4,1.791-4,4" stroke-linecap="round" stroke-linejoin="round"></path><circle cx="9" cy="9" r="1" stroke="none" fill="currentColor"></circle></g></svg>