<svg xmlns="http://www.w3.org/2000/svg" height="18" width="18" viewBox="0 0 18 18"><title>dropdown menu</title><g fill="none" stroke="currentColor" class="nc-icon-wrapper"><line x1="5.75" y1="8.25" x2="12.25" y2="8.25" stroke-linecap="round" stroke-linejoin="round" stroke="currentColor"></line><line x1="5.75" y1="5.25" x2="10.25" y2="5.25" stroke-linecap="round" stroke-linejoin="round"></line><line x1="5.75" y1="11.25" x2="8.251" y2="11.25" stroke-linecap="round" stroke-linejoin="round"></line><path d="M11.126,10.768l5.94,2.17c.25,.091,.243,.448-.011,.529l-2.719,.87-.87,2.719c-.081,.254-.438,.261-.529,.011l-2.17-5.94c-.082-.223,.135-.44,.359-.359Z" stroke-linecap="round" stroke-linejoin="round" stroke="currentColor"></path><path d="M15.25,9.613V3.75c0-1.104-.895-2-2-2H4.75c-1.105,0-2,.896-2,2V12.75c0,1.104,.895,2,2,2h4.68" stroke-linecap="round" stroke-linejoin="round"></path></g></svg>