<svg xmlns="http://www.w3.org/2000/svg" height="18" width="18" viewBox="0 0 18 18"><title>dropdown list 2</title><g fill="none" stroke="currentColor" class="nc-icon-wrapper"><line x1="3.75" y1="12.25" x2="14.25" y2="12.25" stroke="currentColor" stroke-linecap="round" stroke-linejoin="round"></line><line x1="3.75" y1="15.25" x2="14.25" y2="15.25" stroke="currentColor" stroke-linecap="round" stroke-linejoin="round"></line><path d="M14,5h-2.5c-.158,0-.302,.089-.373,.23-.07,.141-.055,.31,.039,.436l1.25,1.667c.079,.105,.202,.167,.333,.167s.255-.062,.333-.167l1.25-1.667c.095-.126,.11-.295,.039-.436-.071-.141-.215-.23-.373-.23Z" stroke="none" fill="currentColor"></path><line x1="9.25" y1="2.75" x2="9.25" y2="9.25" stroke-linecap="round" stroke-linejoin="round"></line><rect x="1.75" y="2.75" width="14.5" height="6.5" rx="2" ry="2" stroke-linecap="round" stroke-linejoin="round"></rect></g></svg>