<svg xmlns="http://www.w3.org/2000/svg" height="18" width="18" viewBox="0 0 18 18"><title>dropdown list</title><g fill="none" stroke="currentColor" class="nc-icon-wrapper"><line x1="5.25" y1="8.25" x2="11.75" y2="8.25" stroke-linecap="round" stroke-linejoin="round" stroke="currentColor"></line><line x1="5.25" y1="13.75" x2="9.064" y2="13.75" stroke-linecap="round" stroke-linejoin="round"></line><line x1="5.25" y1="2.75" x2="11.75" y2="2.75" stroke-linecap="round" stroke-linejoin="round"></line><path d="M14.75,9.25v-2c0-.828-.672-1.5-1.5-1.5H3.75c-.828,0-1.5,.672-1.5,1.5v2c0,.828,.672,1.5,1.5,1.5h4.5" stroke-linecap="round" stroke-linejoin="round"></path><path d="M11.126,10.768l5.94,2.17c.25,.091,.243,.448-.011,.529l-2.719,.87-.87,2.719c-.081,.254-.438,.261-.529,.011l-2.17-5.94c-.082-.223,.135-.44,.359-.359Z" stroke-linecap="round" stroke-linejoin="round" stroke="currentColor"></path></g></svg>