<svg xmlns="http://www.w3.org/2000/svg" height="18" width="18" viewBox="0 0 18 18"><title>earphones</title><g fill="none" stroke="currentColor" class="nc-icon-wrapper"><path d="M5.25,8.75c-.675,0-1.287-.374-1.737-.983" stroke-linecap="round" stroke-linejoin="round"></path><path d="M5.25,1.75c-.55,0-.979,.221-.979,.221-.926,.408-3.021,1.675-3.021,6.279v7c0,.552,.448,1,1,1h1c.552,0,1-.448,1-1v-6.795c.307,.188,.644,.295,1,.295,1.381,0,2.5-1.567,2.5-3.5s-1.119-3.5-2.5-3.5Z" stroke-linecap="round" stroke-linejoin="round"></path><line x1="5.25" y1="4.75" x2="5.25" y2="5.75" stroke-linecap="round" stroke-linejoin="round"></line><path d="M12.75,8.75c.675,0,1.287-.374,1.737-.983" stroke-linecap="round" stroke-linejoin="round" stroke="currentColor"></path><path d="M12.75,1.75c.55,0,.979,.221,.979,.221,.926,.408,3.021,1.675,3.021,6.279v7c0,.552-.448,1-1,1h-1c-.552,0-1-.448-1-1v-6.795c-.307,.188-.644,.295-1,.295-1.381,0-2.5-1.567-2.5-3.5s1.119-3.5,2.5-3.5Z" stroke-linecap="round" stroke-linejoin="round" stroke="currentColor"></path><line x1="12.75" y1="4.75" x2="12.75" y2="5.75" stroke-linecap="round" stroke-linejoin="round" stroke="currentColor"></line></g></svg>