<svg xmlns="http://www.w3.org/2000/svg" height="18" width="18" viewBox="0 0 18 18"><title>engine</title><g fill="none" stroke="currentColor" class="nc-icon-wrapper"><line x1="17.25" y1="8.75" x2="17.25" y2="13.25" stroke-linecap="round" stroke-linejoin="round"></line><path d="M13.25,7.75h-1.5l-1.2-1.6c-.189-.252-.485-.4-.8-.4H5.75c-.315,0-.611,.148-.8,.4l-1.2,1.6h-1c-.552,0-1,.448-1,1v2.5c0,.552,.448,1,1,1h1l1.2,1.6c.189,.252,.485,.4,.8,.4h7.5c.552,0,1-.448,1-1v-4.5c0-.552-.448-1-1-1Z" stroke-linecap="round" stroke-linejoin="round"></path><line x1="5.25" y1="1.75" x2="10.25" y2="1.75" stroke-linecap="round" stroke-linejoin="round" stroke="currentColor"></line><line x1="14.25" y1="11" x2="17.25" y2="11" stroke-linecap="round" stroke-linejoin="round"></line><line x1="7.75" y1="1.75" x2="7.75" y2="3.25" stroke-linecap="round" stroke-linejoin="round" stroke="currentColor"></line></g></svg>