<svg xmlns="http://www.w3.org/2000/svg" height="18" width="18" viewBox="0 0 18 18"><title>envelope pen</title><g fill="none" stroke="currentColor" class="nc-icon-wrapper"><path d="M1.75,5.75l6.767,3.733c.301,.166,.665,.166,.966,0l6.767-3.733" stroke-linecap="round" stroke-linejoin="round"></path><path d="M16.25,8.274v-3.024c0-1.104-.895-2-2-2H3.75c-1.105,0-2,.896-2,2v7.5c0,1.104,.895,2,2,2h5.219" stroke-linecap="round" stroke-linejoin="round"></path><path d="M13.207,16.401c.143-.049,.273-.131,.38-.238l3.303-3.303c.483-.483,.478-1.261-.005-1.745h0c-.483-.483-1.261-.489-1.745-.005l-3.303,3.303c-.107,.107-.189,.237-.238,.38l-.849,2.457,2.457-.849Z" stroke-linecap="round" stroke-linejoin="round" stroke="currentColor"></path></g></svg>