<svg xmlns="http://www.w3.org/2000/svg" height="18" width="18" viewBox="0 0 18 18"><title>escalator down</title><g fill="none" stroke="currentColor" class="nc-icon-wrapper"><circle cx="6.5" cy="2.5" r="1.75" stroke-linecap="round" stroke-linejoin="round" stroke="currentColor"></circle><path d="M4.75,11.75v-3.25c0-.966,.784-1.75,1.75-1.75h0c.966,0,1.75,.784,1.75,1.75v.45" stroke-linecap="round" stroke-linejoin="round" stroke="currentColor"></path><path d="M4.462,16.25h-1.462c-1.243,0-2.25-1.007-2.25-2.25H.75c0-1.243,1.007-2.25,2.25-2.25h2.25s6.924-6.462,6.924-6.462c.37-.346,.858-.538,1.365-.538h1.462c1.243,0,2.25,1.007,2.25,2.25h0c0,1.243-1.007,2.25-2.25,2.25h-2.25s-6.924,6.462-6.924,6.462c-.37,.346-.858,.538-1.365,.538Z" stroke-linecap="round" stroke-linejoin="round"></path><polyline points="16.25 16.26 12.74 16.26 12.74 12.75" stroke-linecap="round" stroke-linejoin="round" stroke="currentColor"></polyline><line x1="12.74" y1="16.26" x2="16.24" y2="12.76" stroke-linecap="round" stroke-linejoin="round" stroke="currentColor"></line></g></svg>