<svg xmlns="http://www.w3.org/2000/svg" height="18" width="18" viewBox="0 0 18 18"><title>eye dashed</title><g fill="none" stroke="currentColor" class="nc-icon-wrapper"><path d="M3.848,5.806c.45-.405,.966-.79,1.55-1.116" stroke-linecap="round" stroke-linejoin="round"></path><path d="M10.346,3.871c-.425-.078-.874-.121-1.346-.121s-.92,.043-1.346,.121" stroke-linecap="round" stroke-linejoin="round"></path><path d="M14.152,5.806c-.45-.405-.966-.79-1.55-1.116" stroke-linecap="round" stroke-linejoin="round"></path><path d="M3.848,12.194c.45,.405,.966,.79,1.55,1.116" stroke-linecap="round" stroke-linejoin="round"></path><path d="M2.264,10.392c-.062-.089-.121-.176-.176-.259-.225-.341-.338-.737-.338-1.132,0-.395,.113-.791,.338-1.132,.055-.084,.114-.17,.176-.259" stroke-linecap="round" stroke-linejoin="round"></path><path d="M10.346,14.129c-.425,.078-.874,.121-1.346,.121-.472,0-.92-.043-1.346-.121" stroke-linecap="round" stroke-linejoin="round"></path><path d="M14.152,12.194c-.45,.405-.966,.79-1.55,1.116" stroke-linecap="round" stroke-linejoin="round"></path><path d="M15.736,10.392c.062-.089,.121-.176,.176-.259,.225-.341,.338-.737,.338-1.132,0-.395-.113-.791-.338-1.132-.055-.084-.114-.17-.176-.259" stroke-linecap="round" stroke-linejoin="round"></path><circle cx="9" cy="9" r="2.75" stroke-linecap="round" stroke-linejoin="round" stroke="currentColor"></circle></g></svg>