<svg xmlns="http://www.w3.org/2000/svg" height="18" width="18" viewBox="0 0 18 18"><title>face nauseated</title><g fill="none" stroke="currentColor" class="nc-icon-wrapper"><circle cx="9" cy="9" r="7.25" stroke-linecap="round" stroke-linejoin="round"></circle><path d="M7.485,7.75c-.126,.119-.554,.496-1.228,.559-.636,.06-1.105-.195-1.258-.286" stroke-linecap="round" stroke-linejoin="round" stroke="currentColor"></path><path d="M10.515,7.75c.126,.119,.554,.496,1.228,.559,.636,.06,1.105-.195,1.258-.286" stroke-linecap="round" stroke-linejoin="round" stroke="currentColor"></path><path d="M6,12.896c.441-.193,.75-.633,.75-1.146,0-.605-.429-1.109-1-1.225" stroke-linecap="round" stroke-linejoin="round" stroke="currentColor"></path><path d="M12,12.896c-.441-.193-.75-.633-.75-1.146,0-.605,.429-1.109,1-1.225" stroke-linecap="round" stroke-linejoin="round" stroke="currentColor"></path><path d="M6.742,11.616c.897-.219,1.679-.272,2.258-.272s1.361,.053,2.258,.272" stroke-linecap="round" stroke-linejoin="round" stroke="currentColor"></path></g></svg>