<svg xmlns="http://www.w3.org/2000/svg" height="18" width="18" viewBox="0 0 18 18"><title>face pouting</title><g fill="none" stroke="currentColor" class="nc-icon-wrapper"><path d="M6.103,13.243c.154,.154,.366,.221,.583,.189h0c1.532-.239,3.112-.238,4.638,.001,.214,.032,.421-.035,.572-.185,.154-.153,.227-.376,.193-.598-.23-1.511-1.558-2.651-3.089-2.651s-2.86,1.141-3.089,2.654c-.033,.216,.039,.436,.192,.589Z" stroke="none" fill="currentColor"></path><circle cx="9" cy="9" r="7.25" stroke-linecap="round" stroke-linejoin="round"></circle><circle cx="6" cy="8.5" r="1" stroke="none" fill="currentColor"></circle><circle cx="12" cy="8.5" r="1" stroke="none" fill="currentColor"></circle><line x1="4.5" y1="7" x2="7.25" y2="8" stroke="currentColor" stroke-linecap="round" stroke-linejoin="round"></line><line x1="13.5" y1="7" x2="10.75" y2="8" stroke="currentColor" stroke-linecap="round" stroke-linejoin="round"></line></g></svg>