<svg xmlns="http://www.w3.org/2000/svg" height="18" width="18" viewBox="0 0 18 18"><title>face tongue wink</title><g fill="none" stroke="currentColor" class="nc-icon-wrapper"><circle cx="9" cy="9" r="7.25" stroke-linecap="round" stroke-linejoin="round"></circle><path d="M6,10.75c.769,.768,1.83,1.243,3,1.243s2.231-.475,3-1.243" stroke="currentColor" stroke-linecap="round" stroke-linejoin="round"></path><circle cx="6" cy="8" r="1" stroke="none" fill="currentColor"></circle><path d="M10,8.25c.138-.105,.604-.432,1.281-.422,.639,.01,1.077,.314,1.219,.422" stroke="currentColor" stroke-linecap="round" stroke-linejoin="round"></path><path d="M8.756,11.986c-.002,.162,.017,.326,.071,.488l.25,.75c.209,.629,.795,1.026,1.423,1.026,.157,0,.317-.025,.475-.078,.786-.262,1.21-1.111,.948-1.897l-.25-.75c-.043-.131-.099-.239-.172-.348-.702,.512-1.567,.815-2.5,.815-.1,0-.244-.007-.244-.007" stroke="none" fill="currentColor"></path></g></svg>