<svg xmlns="http://www.w3.org/2000/svg" height="18" width="18" viewBox="0 0 18 18"><title>face sleeping</title><g fill="none" stroke="currentColor" class="nc-icon-wrapper"><circle cx="9.5" cy="12" r="1" stroke="none" fill="currentColor"></circle><path d="M6.985,8c-.126,.119-.554,.496-1.228,.559-.636,.06-1.105-.195-1.258-.286" stroke="currentColor" stroke-linecap="round" stroke-linejoin="round"></path><path d="M10.015,8c.126,.119,.554,.496,1.228,.559,.636,.06,1.105-.195,1.258-.286" stroke="currentColor" stroke-linecap="round" stroke-linejoin="round"></path><polyline points="13.75 .75 17.25 .75 13.75 4.75 17.25 4.75" stroke="currentColor" stroke-linecap="round" stroke-linejoin="round"></polyline><path d="M12.173,2.757c-1.078-.636-2.331-1.007-3.673-1.007C4.496,1.75,1.25,4.996,1.25,9s3.246,7.25,7.25,7.25,7.25-3.246,7.25-7.25c0-.604-.082-1.188-.222-1.75" stroke-linecap="round" stroke-linejoin="round"></path></g></svg>