<svg xmlns="http://www.w3.org/2000/svg" height="18" width="18" viewBox="0 0 18 18"><title>face sun</title><g fill="none" stroke="currentColor" class="nc-icon-wrapper"><circle cx="6" cy="9" r="1" stroke="none" fill="currentColor"></circle><circle cx="12" cy="9" r="1" stroke="none" fill="currentColor"></circle><path d="M8,10h2c.276,0,.5,.224,.5,.5h0c0,.828-.672,1.5-1.5,1.5h0c-.828,0-1.5-.672-1.5-1.5h0c0-.276,.224-.5,.5-.5Z" stroke="none" fill="currentColor"></path><circle cx="9" cy="9" r="6.25" stroke-linecap="round" stroke-linejoin="round"></circle><line x1="9" y1="2.75" x2="9" y2=".75" stroke-linecap="round" stroke-linejoin="round"></line><line x1="13.419" y1="4.581" x2="15.5" y2="2.5" stroke-linecap="round" stroke-linejoin="round"></line><line x1="13.419" y1="13.419" x2="15.5" y2="15.5" stroke-linecap="round" stroke-linejoin="round"></line><line x1="4.581" y1="13.419" x2="2.5" y2="15.5" stroke-linecap="round" stroke-linejoin="round"></line><line x1="4.581" y1="4.581" x2="2.5" y2="2.5" stroke-linecap="round" stroke-linejoin="round"></line><line x1="15.25" y1="9" x2="17.25" y2="9" stroke-linecap="round" stroke-linejoin="round"></line><line x1="9" y1="15.25" x2="9" y2="17.25" stroke-linecap="round" stroke-linejoin="round"></line><line x1="2.75" y1="9" x2=".75" y2="9" stroke-linecap="round" stroke-linejoin="round"></line></g></svg>