<svg xmlns="http://www.w3.org/2000/svg" height="18" width="18" viewBox="0 0 18 18"><title>face enraged</title><g fill="none" stroke="currentColor" class="nc-icon-wrapper"><circle cx="9" cy="9" r="7.25" stroke-linecap="round" stroke-linejoin="round"></circle><path d="M6.75,13c.472-.746,1.304-1.242,2.25-1.242s1.778,.496,2.25,1.242" stroke="currentColor" stroke-linecap="round" stroke-linejoin="round"></path><path d="M5.5,9.732c.769,.444,1.711,.319,2.337-.244,.241-.217,.17-.618-.111-.78l-2.452-1.416c-.281-.162-.664-.024-.731,.294-.175,.824,.188,1.702,.957,2.146Z" stroke="none" fill="currentColor"></path><path d="M12.5,9.732c-.769,.444-1.711,.319-2.337-.244-.241-.217-.17-.618,.111-.78l2.452-1.416c.281-.162,.664-.024,.731,.294,.175,.824-.188,1.702-.957,2.146Z" stroke="none" fill="currentColor"></path></g></svg>