<svg xmlns="http://www.w3.org/2000/svg" height="18" width="18" viewBox="0 0 18 18"><title>fan</title><g fill="none" stroke="currentColor" class="nc-icon-wrapper"><circle cx="9" cy="9.25" r="1.5" stroke-linecap="round" stroke-linejoin="round"></circle><line x1="7.25" y1="16.25" x2="7.25" y2="13.24" stroke-linecap="round" stroke-linejoin="round"></line><line x1="10.75" y1="13.24" x2="10.75" y2="16.25" stroke-linecap="round" stroke-linejoin="round"></line><path d="M15.25,9.25c-.369,.617-.945,1.431-1.812,2.229-.992,.914-1.984,1.455-2.687,1.771h-1.75c-.583,0-1.167,0-1.75,0-.704-.316-1.695-.857-2.688-1.771-.867-.798-1.444-1.613-1.812-2.229" stroke-linecap="round" stroke-linejoin="round"></path><path d="M16.25,6.746c-3.013-1.3-5.698-1.497-7.25-1.497s-4.237,.198-7.25,1.497V3.247c3.013-1.3,5.698-1.497,7.25-1.497s4.237,.198,7.25,1.497v3.499Z" stroke-linecap="round" stroke-linejoin="round" stroke="currentColor"></path></g></svg>