<svg xmlns="http://www.w3.org/2000/svg" height="18" width="18" viewBox="0 0 18 18"><title>feather 2 sparkle</title><g fill="none" stroke="currentColor" class="nc-icon-wrapper"><path d="M4.493,3.492l-.946-.315-.316-.947c-.102-.306-.609-.306-.711,0l-.316,.947-.946,.315c-.153,.051-.257,.194-.257,.356s.104,.305,.257,.356l.946,.315,.316,.947c.051,.153,.194,.256,.355,.256s.305-.104,.355-.256l.316-.947,.946-.315c.153-.051,.257-.194,.257-.356s-.104-.305-.257-.356Z" stroke="none" fill="currentColor"></path><path d="M17.658,12.99l-1.263-.421-.421-1.263c-.137-.408-.812-.408-.949,0l-.421,1.263-1.263,.421c-.204,.068-.342,.259-.342,.474s.138,.406,.342,.474l1.263,.421,.421,1.263c.068,.204,.26,.342,.475,.342s.406-.138,.475-.342l.421-1.263,1.263-.421c.204-.068,.342-.259,.342-.474s-.138-.406-.342-.474Z" stroke="none" fill="currentColor"></path><circle cx="6.75" cy="1.75" r=".75" stroke="none" fill="currentColor"></circle><path d="M4.25,13.75v-4.268c0-.53,.211-1.039,.586-1.414L9.72,3.184c1.407-1.407,3.689-1.407,5.096,0h0c1.407,1.407,1.407,3.689,0,5.096l-4.884,4.884c-.375,.375-.884,.586-1.414,.586h-.733" stroke-linecap="round" stroke-linejoin="round"></path><line x1="2" y1="16" x2="8.75" y2="9.25" stroke="currentColor" stroke-linecap="round" stroke-linejoin="round"></line></g></svg>