<svg xmlns="http://www.w3.org/2000/svg" height="18" width="18" viewBox="0 0 18 18"><title>file tree</title><g fill="none" stroke="currentColor" class="nc-icon-wrapper"><path d="M14.25,3.25v3.5c0,.552-.448,1-1,1h-2.5c-.552,0-1-.448-1-1V2.75c0-.552,.448-1,1-1h2l1.5,1.5Z" stroke-linecap="round" stroke-linejoin="round"></path><polyline points="12.75 1.75 12.75 3.25 14.25 3.25" stroke-linecap="round" stroke-linejoin="round"></polyline><path d="M14.25,11.75v3.5c0,.552-.448,1-1,1h-2.5c-.552,0-1-.448-1-1v-4c0-.552,.448-1,1-1h2l1.5,1.5Z" stroke-linecap="round" stroke-linejoin="round"></path><polyline points="12.75 10.25 12.75 11.75 14.25 11.75" stroke-linecap="round" stroke-linejoin="round"></polyline><path d="M7.25,4.75h-2c-.828,0-1.5-.672-1.5-1.5V1" stroke-linecap="round" stroke-linejoin="round" stroke="currentColor"></path><path d="M7.25,13.25h-2c-.828,0-1.5-.672-1.5-1.5V3" stroke-linecap="round" stroke-linejoin="round" stroke="currentColor"></path></g></svg>