<svg xmlns="http://www.w3.org/2000/svg" height="18" width="18" viewBox="0 0 18 18"><title>file pen</title><g fill="none" stroke="currentColor" class="nc-icon-wrapper"><line x1="5.75" y1="6.75" x2="7.75" y2="6.75" stroke-linecap="round" stroke-linejoin="round" stroke="currentColor"></line><line x1="5.75" y1="9.75" x2="10.25" y2="9.75" stroke-linecap="round" stroke-linejoin="round" stroke="currentColor"></line><path d="M15.16,6.25h-3.41c-.552,0-1-.448-1-1V1.852" stroke-linecap="round" stroke-linejoin="round"></path><path d="M15.25,8.329v-1.665c0-.265-.105-.52-.293-.707l-3.914-3.914c-.188-.188-.442-.293-.707-.293H4.75c-1.105,0-2,.896-2,2V14.25c0,1.104,.895,2,2,2h3.701" stroke-linecap="round" stroke-linejoin="round"></path><path d="M13.207,16.401c.143-.049,.273-.131,.38-.238l3.303-3.303c.483-.483,.478-1.261-.005-1.745h0c-.483-.483-1.261-.489-1.745-.005l-3.303,3.303c-.107,.107-.189,.237-.238,.38l-.849,2.457,2.457-.849Z" stroke-linecap="round" stroke-linejoin="round" stroke="currentColor"></path></g></svg>