<svg xmlns="http://www.w3.org/2000/svg" height="18" width="18" viewBox="0 0 18 18"><title>file replace</title><g fill="none" stroke="currentColor" class="nc-icon-wrapper"><path d="M6.25,10.75H3.25c-.552,0-1-.448-1-1V2.75c0-.552,.448-1,1-1H7.25l2,2v1" stroke-linecap="round" stroke-linejoin="round"></path><polyline points="6.75 1.75 6.75 3.75 8.75 3.75" stroke-linecap="round" stroke-linejoin="round"></polyline><path d="M15.75,9.25v6c0,.552-.448,1-1,1h-5c-.552,0-1-.448-1-1v-7c0-.552,.448-1,1-1h4l2,2Z" stroke-linecap="round" stroke-linejoin="round"></path><polyline points="13.75 7.25 13.75 9.25 15.75 9.25" stroke-linecap="round" stroke-linejoin="round"></polyline><path d="M6.25,16.25c-1.657,0-3-1.343-3-3" stroke-linecap="round" stroke-linejoin="round" stroke="currentColor"></path><path d="M11.75,1.75c1.657,0,3,1.343,3,3" stroke-linecap="round" stroke-linejoin="round" stroke="currentColor"></path></g></svg>