<svg xmlns="http://www.w3.org/2000/svg" height="18" width="18" viewBox="0 0 18 18"><title>file star</title><g fill="none" stroke="currentColor" class="nc-icon-wrapper"><line x1="5.75" y1="6.75" x2="7.75" y2="6.75" stroke-linecap="round" stroke-linejoin="round" stroke="currentColor"></line><line x1="5.75" y1="9.75" x2="10.25" y2="9.75" stroke-linecap="round" stroke-linejoin="round" stroke="currentColor"></line><path d="M15.16,6.25h-3.41c-.552,0-1-.448-1-1V1.852" stroke-linecap="round" stroke-linejoin="round"></path><path d="M15.25,8.914v-2.25c0-.265-.105-.52-.293-.707l-3.914-3.914c-.188-.188-.442-.293-.707-.293H4.75c-1.105,0-2,.896-2,2V14.25c0,1.104,.895,2,2,2h4.876" stroke-linecap="round" stroke-linejoin="round"></path><polygon points="14 11.068 15.004 13.103 17.25 13.429 15.625 15.013 16.009 17.25 14 16.194 11.991 17.25 12.375 15.013 10.75 13.429 12.996 13.103 14 11.068" stroke-linecap="round" stroke-linejoin="round" stroke="currentColor"></polygon></g></svg>