<svg xmlns="http://www.w3.org/2000/svg" height="18" width="18" viewBox="0 0 18 18"><title>file cloud</title><g fill="none" stroke="currentColor" class="nc-icon-wrapper"><line x1="5.75" y1="6.75" x2="7.75" y2="6.75" stroke-linecap="round" stroke-linejoin="round" stroke="currentColor"></line><line x1="5.75" y1="9.75" x2="10.25" y2="9.75" stroke-linecap="round" stroke-linejoin="round" stroke="currentColor"></line><path d="M15.16,6.25h-3.41c-.552,0-1-.448-1-1V1.852" stroke-linecap="round" stroke-linejoin="round"></path><path d="M15.25,10.275v-3.611c0-.265-.105-.52-.293-.707l-3.914-3.914c-.188-.188-.442-.293-.707-.293H4.75c-1.105,0-2,.896-2,2V14.25c0,1.104,.895,2,2,2h3.538" stroke-linecap="round" stroke-linejoin="round"></path><path d="M15,12.75c-1.131,0-2.058,.837-2.217,1.925-.196-.108-.418-.175-.658-.175-.759,0-1.375,.616-1.375,1.375s.616,1.375,1.375,1.375h2.875c1.243,0,2.25-1.007,2.25-2.25s-1.007-2.25-2.25-2.25Z" stroke-linecap="round" stroke-linejoin="round" stroke="currentColor"></path></g></svg>