<svg xmlns="http://www.w3.org/2000/svg" height="18" width="18" viewBox="0 0 18 18"><title>file user</title><g fill="none" stroke="currentColor" class="nc-icon-wrapper"><line x1="5.75" y1="6.75" x2="7.75" y2="6.75" stroke="currentColor" stroke-linecap="round" stroke-linejoin="round"></line><line x1="5.75" y1="9.75" x2="10.25" y2="9.75" stroke="currentColor" stroke-linecap="round" stroke-linejoin="round"></line><path d="M15.16,6.25h-3.41c-.552,0-1-.448-1-1V1.852" stroke-linecap="round" stroke-linejoin="round"></path><circle cx="14.641" cy="11.75" r="1" stroke="currentColor" stroke-linecap="round" stroke-linejoin="round"></circle><path d="M15.25,8.312v-1.647c0-.265-.105-.52-.293-.707l-3.914-3.914c-.188-.188-.442-.293-.707-.293H4.75c-1.105,0-2,.896-2,2V14.25c0,1.104,.895,2,2,2h4.843" stroke-linecap="round" stroke-linejoin="round"></path><path d="M16.742,17.25c.34,0,.594-.337,.482-.658-.373-1.072-1.383-1.842-2.583-1.842s-2.21,.77-2.583,1.842c-.112,.321,.142,.658,.482,.658h4.202Z" stroke="currentColor" stroke-linecap="round" stroke-linejoin="round"></path></g></svg>