<svg xmlns="http://www.w3.org/2000/svg" height="18" width="18" viewBox="0 0 18 18"><title>file alert</title><g fill="none" stroke="currentColor" class="nc-icon-wrapper"><line x1="5.75" y1="6.75" x2="7.75" y2="6.75" stroke="currentColor" stroke-linecap="round" stroke-linejoin="round"></line><line x1="5.75" y1="9.75" x2="10.25" y2="9.75" stroke="currentColor" stroke-linecap="round" stroke-linejoin="round"></line><path d="M15.16,6.25h-3.41c-.552,0-1-.448-1-1V1.852" stroke-linecap="round" stroke-linejoin="round"></path><path d="M14.25,15.973c.595-.346,1-.984,1-1.723V6.664c0-.265-.105-.52-.293-.707l-3.914-3.914c-.188-.188-.442-.293-.707-.293H4.75c-1.105,0-2,.896-2,2V14.25c0,1.104,.895,2,2,2h4.5" stroke-linecap="round" stroke-linejoin="round"></path><line x1="11.75" y1="15" x2="11.75" y2="12.25" stroke="currentColor" stroke-linecap="round" stroke-linejoin="round"></line><circle cx="11.75" cy="17.25" r=".75" stroke="none" fill="currentColor"></circle></g></svg>