<svg xmlns="http://www.w3.org/2000/svg" height="18" width="18" viewBox="0 0 18 18"><title>file music</title><g fill="none" stroke="currentColor" class="nc-icon-wrapper"><line x1="5.75" y1="6.75" x2="7.75" y2="6.75" stroke-linecap="round" stroke-linejoin="round" stroke="currentColor"></line><line x1="5.75" y1="9.75" x2="10.25" y2="9.75" stroke-linecap="round" stroke-linejoin="round" stroke="currentColor"></line><path d="M15.16,6.25h-3.41c-.552,0-1-.448-1-1V1.852" stroke-linecap="round" stroke-linejoin="round"></path><circle cx="13.25" cy="15.75" r="1.5" stroke-linecap="round" stroke-linejoin="round" stroke="currentColor"></circle><path d="M15.25,8.301v-1.637c0-.265-.105-.52-.293-.707l-3.914-3.914c-.188-.188-.442-.293-.707-.293H4.75c-1.105,0-2,.896-2,2V14.25c0,1.104,.895,2,2,2h4.551" stroke-linecap="round" stroke-linejoin="round"></path><path d="M14.75,15.75v-5c.317,.323,.73,.692,1.25,1.047,.45,.307,.879,.535,1.25,.703" stroke-linecap="round" stroke-linejoin="round" stroke="currentColor"></path></g></svg>