<svg xmlns="http://www.w3.org/2000/svg" height="18" width="18" viewBox="0 0 18 18"><title>file play</title><g fill="none" stroke="currentColor" class="nc-icon-wrapper"><line x1="5.75" y1="6.75" x2="7.75" y2="6.75" stroke-linecap="round" stroke-linejoin="round" stroke="currentColor"></line><line x1="5.75" y1="9.75" x2="10.25" y2="9.75" stroke-linecap="round" stroke-linejoin="round" stroke="currentColor"></line><path d="M15.16,6.25h-3.41c-.552,0-1-.448-1-1V1.852" stroke-linecap="round" stroke-linejoin="round"></path><path d="M15.25,10.019v-3.355c0-.265-.105-.52-.293-.707l-3.914-3.914c-.188-.188-.442-.293-.707-.293H4.75c-1.105,0-2,.896-2,2V14.25c0,1.104,.895,2,2,2h4.5" stroke-linecap="round" stroke-linejoin="round"></path><path d="M12.539,11.323l4.204,2.477c.343,.202,.343,.697,0,.899l-4.204,2.477c-.349,.206-.789-.045-.789-.449v-4.955c0-.404,.441-.655,.789-.449Z" stroke-linecap="round" stroke-linejoin="round" stroke="currentColor"></path></g></svg>