<svg xmlns="http://www.w3.org/2000/svg" height="18" width="18" viewBox="0 0 18 18"><title>file zip 2</title><g fill="none" stroke="currentColor" class="nc-icon-wrapper"><path d="M2.75,14.25V3.75c0-1.105,.895-2,2-2h5.586c.265,0,.52,.105,.707,.293l3.914,3.914c.188,.188,.293,.442,.293,.707v7.586c0,1.105-.895,2-2,2H4.75c-1.105,0-2-.895-2-2Z" stroke-linecap="round" stroke-linejoin="round"></path><path d="M15.16,6.25h-3.41c-.552,0-1-.448-1-1V1.852" stroke-linecap="round" stroke-linejoin="round"></path><line x1="5.25" y1="10.25" x2="7" y2="10.25" stroke-linejoin="round" stroke="currentColor"></line><line x1="7" y1="11.75" x2="8.75" y2="11.75" stroke-linejoin="round" stroke="currentColor"></line><line x1="5.25" y1="13.25" x2="7" y2="13.25" stroke-linejoin="round" stroke="currentColor"></line><line x1="7" y1="14.75" x2="8.75" y2="14.75" stroke-linejoin="round" stroke="currentColor"></line></g></svg>