<svg xmlns="http://www.w3.org/2000/svg" height="18" width="18" viewBox="0 0 18 18"><title>file settings</title><g fill="none" stroke="currentColor" class="nc-icon-wrapper"><line x1="5.75" y1="6.75" x2="7.75" y2="6.75" stroke-linecap="round" stroke-linejoin="round" stroke="currentColor"></line><line x1="5.75" y1="9.75" x2="9.75" y2="9.75" stroke-linecap="round" stroke-linejoin="round" stroke="currentColor"></line><path d="M15.16,6.25h-3.41c-.552,0-1-.448-1-1V1.852" stroke-linecap="round" stroke-linejoin="round"></path><line x1="13.75" y1="10.5" x2="13.75" y2="11.75" stroke-linecap="round" stroke-linejoin="round" stroke="currentColor"></line><line x1="16.048" y1="11.452" x2="15.164" y2="12.336" stroke-linecap="round" stroke-linejoin="round" stroke="currentColor"></line><line x1="17" y1="13.75" x2="15.75" y2="13.75" stroke-linecap="round" stroke-linejoin="round" stroke="currentColor"></line><line x1="16.048" y1="16.048" x2="15.164" y2="15.164" stroke-linecap="round" stroke-linejoin="round" stroke="currentColor"></line><line x1="13.75" y1="17" x2="13.75" y2="15.75" stroke-linecap="round" stroke-linejoin="round" stroke="currentColor"></line><line x1="11.452" y1="16.048" x2="12.336" y2="15.164" stroke-linecap="round" stroke-linejoin="round" stroke="currentColor"></line><line x1="10.5" y1="13.75" x2="11.75" y2="13.75" stroke-linecap="round" stroke-linejoin="round" stroke="currentColor"></line><line x1="11.452" y1="11.452" x2="12.336" y2="12.336" stroke-linecap="round" stroke-linejoin="round" stroke="currentColor"></line><path d="M15.25,8.422v-1.758c0-.265-.105-.52-.293-.707l-3.914-3.914c-.188-.188-.442-.293-.707-.293H4.75c-1.105,0-2,.896-2,2V14.25c0,1.104,.895,2,2,2h4.227" stroke-linecap="round" stroke-linejoin="round"></path><circle cx="13.75" cy="13.75" r="1.75" stroke-linecap="round" stroke-linejoin="round" stroke="currentColor"></circle></g></svg>