<svg xmlns="http://www.w3.org/2000/svg" height="18" width="18" viewBox="0 0 18 18"><title>file heart</title><g fill="none" stroke="currentColor" class="nc-icon-wrapper"><line x1="5.75" y1="6.75" x2="7.75" y2="6.75" stroke-linecap="round" stroke-linejoin="round" stroke="currentColor"></line><line x1="5.75" y1="9.75" x2="10.25" y2="9.75" stroke-linecap="round" stroke-linejoin="round" stroke="currentColor"></line><path d="M15.16,6.25h-3.41c-.552,0-1-.448-1-1V1.852" stroke-linecap="round" stroke-linejoin="round"></path><path d="M15.25,9.019v-2.355c0-.265-.105-.52-.293-.707l-3.914-3.914c-.188-.188-.442-.293-.707-.293H4.75c-1.105,0-2,.896-2,2V14.25c0,1.104,.895,2,2,2h4.37" stroke-linecap="round" stroke-linejoin="round"></path><path d="M13.781,17.197c.138,.071,.299,.071,.437,0,.729-.374,3.031-1.73,3.031-3.934,.004-.968-.791-1.757-1.777-1.763-.593,.007-1.144,.301-1.473,.786-.329-.484-.881-.778-1.473-.786-.985,.006-1.78,.794-1.777,1.763,0,2.205,2.303,3.56,3.031,3.934Z" stroke-linecap="round" stroke-linejoin="round" stroke="currentColor"></path></g></svg>