<svg xmlns="http://www.w3.org/2000/svg" height="18" width="18" viewBox="0 0 18 18"><title>file link</title><g fill="none" stroke="currentColor" class="nc-icon-wrapper"><line x1="5.75" y1="6.75" x2="7.75" y2="6.75" stroke-linecap="round" stroke-linejoin="round" stroke="currentColor"></line><line x1="5.75" y1="9.75" x2="10.25" y2="9.75" stroke-linecap="round" stroke-linejoin="round" stroke="currentColor"></line><path d="M15.16,6.25h-3.41c-.552,0-1-.448-1-1V1.852" stroke-linecap="round" stroke-linejoin="round"></path><path d="M12.75,17.25h-.5c-.828,0-1.5-.672-1.5-1.5v-1c0-.828,.672-1.5,1.5-1.5h.5" stroke-linecap="round" stroke-linejoin="round" stroke="currentColor"></path><path d="M15.25,10.75V6.664c0-.265-.105-.52-.293-.707l-3.914-3.914c-.188-.188-.442-.293-.707-.293H4.75c-1.105,0-2,.896-2,2V14.25c0,1.104,.895,2,2,2h3.551" stroke-linecap="round" stroke-linejoin="round"></path><path d="M15.25,17.25h.5c.828,0,1.5-.672,1.5-1.5v-1c0-.828-.672-1.5-1.5-1.5h-.5" stroke-linecap="round" stroke-linejoin="round" stroke="currentColor"></path><line x1="13.25" y1="15.25" x2="14.75" y2="15.25" stroke-linecap="round" stroke-linejoin="round" stroke="currentColor"></line></g></svg>