<svg xmlns="http://www.w3.org/2000/svg" height="18" width="18" viewBox="0 0 18 18"><title>filter 3</title><g fill="none" stroke="currentColor" class="nc-icon-wrapper"><polygon points="10.25 15.75 7.75 17.25 7.75 12.25 3.75 6.75 14.25 6.75 10.25 12.25 10.25 15.75" stroke-linecap="round" stroke-linejoin="round"></polygon><path d="M9,2c.552,0,1-.449,1-1s-.448-1-1-1-1,.449-1,1,.448,1,1,1Z" stroke="none" fill="currentColor"></path><path d="M5.5,2c.552,0,1-.449,1-1s-.448-1-1-1-1,.449-1,1,.448,1,1,1Z" stroke="none" fill="currentColor"></path><path d="M12.5,2c.552,0,1-.449,1-1s-.448-1-1-1-1,.449-1,1,.448,1,1,1Z" stroke="none" fill="currentColor"></path><path d="M10.75,4.5c.552,0,1-.449,1-1s-.448-1-1-1-1,.449-1,1,.448,1,1,1Z" stroke="none" fill="currentColor"></path><path d="M7.25,4.5c.552,0,1-.449,1-1s-.448-1-1-1-1,.449-1,1,.448,1,1,1Z" stroke="none" fill="currentColor"></path></g></svg>