<svg xmlns="http://www.w3.org/2000/svg" height="18" width="18" viewBox="0 0 18 18"><title>fireworks</title><g fill="none" stroke="currentColor" class="nc-icon-wrapper"><circle cx="2" cy="6" r="1" stroke="none" fill="currentColor"></circle><circle cx="16" cy="6" r="1" stroke="none" fill="currentColor"></circle><path d="M13.25,6.75s-4.25,1.727-4.25,9.5c0-7.773-4.25-9.5-4.25-9.5" stroke="currentColor" stroke-linecap="round" stroke-linejoin="round"></path><path d="M11.158,2.99l-1.263-.421-.421-1.263c-.137-.408-.812-.408-.949,0l-.421,1.263-1.263,.421c-.204,.068-.342,.259-.342,.474s.138,.406,.342,.474l1.263,.421,.421,1.263c.068,.204,.26,.342,.475,.342s.406-.138,.475-.342l.421-1.263,1.263-.421c.204-.068,.342-.259,.342-.474s-.138-.406-.342-.474Z" fill="currentColor" stroke="none"></path><path d="M5.658,12.026l-1.263-.421-.421-1.263c-.137-.408-.812-.408-.949,0l-.421,1.263-1.263,.421c-.204,.068-.342,.259-.342,.474s.138,.406,.342,.474l1.263,.421,.421,1.263c.068,.204,.26,.342,.475,.342s.406-.138,.475-.342l.421-1.263,1.263-.421c.204-.068,.342-.259,.342-.474s-.138-.406-.342-.474Z" fill="currentColor" stroke="none"></path><path d="M12.342,12.026l1.263-.421,.421-1.263c.137-.408,.813-.408,.949,0l.421,1.263,1.263,.421c.204,.068,.342,.259,.342,.474s-.138,.406-.342,.474l-1.263,.421-.421,1.263c-.068,.204-.26,.342-.475,.342s-.406-.138-.475-.342l-.421-1.263-1.263-.421c-.204-.068-.342-.259-.342-.474s.138-.406,.342-.474Z" fill="currentColor" stroke="none"></path></g></svg>