<svg xmlns="http://www.w3.org/2000/svg" height="18" width="18" viewBox="0 0 18 18"><title>flame slash</title><g fill="none" stroke="currentColor" class="nc-icon-wrapper"><path d="M9,16.25c1.519,0,2.75-1.235,2.75-2.759,0-.893-.499-1.84-1.072-2.634" stroke-linecap="round" stroke-linejoin="round" stroke="currentColor"></path><path d="M6.108,15.427c.84,.522,1.831,.823,2.892,.823,3.038,0,5.5-2.47,5.5-5.517,0-.972-.296-1.977-.751-2.947" stroke-linecap="round" stroke-linejoin="round"></path><path d="M12.43,5.57c-1.559-2.19-3.43-3.82-3.43-3.82,0,0-5.5,4.792-5.5,8.983,0,1.076,.307,2.08,.838,2.929" stroke-linecap="round" stroke-linejoin="round"></path><line x1="2" y1="16" x2="16" y2="2" stroke-linecap="round" stroke-linejoin="round" stroke="currentColor"></line></g></svg>