<svg xmlns="http://www.w3.org/2000/svg" height="18" width="18" viewBox="0 0 18 18"><title>flip horizontal</title><g fill="none" stroke="currentColor" class="nc-icon-wrapper"><circle cx="9" cy="9" r=".75" stroke="none" fill="currentColor"></circle><circle cx="9" cy="2.75" r=".75" stroke="none" fill="currentColor"></circle><circle cx="9" cy="5.875" r=".75" stroke="none" fill="currentColor"></circle><circle cx="9" cy="12.125" r=".75" stroke="none" fill="currentColor"></circle><circle cx="9" cy="15.25" r=".75" stroke="none" fill="currentColor"></circle><path d="M2.583,5.496l3.5,3.132c.222,.199,.222,.546,0,.745l-3.5,3.132c-.322,.288-.833,.06-.833-.373V5.868c0-.432,.511-.661,.833-.373Z" stroke-linecap="round" stroke-linejoin="round"></path><path d="M15.417,5.496l-3.5,3.132c-.222,.199-.222,.546,0,.745l3.5,3.132c.322,.288,.833,.06,.833-.373V5.868c0-.432-.511-.661-.833-.373Z" stroke-linecap="round" stroke-linejoin="round"></path></g></svg>