<svg xmlns="http://www.w3.org/2000/svg" height="18" width="18" viewBox="0 0 18 18"><title>flip vertical</title><g fill="none" stroke="currentColor" class="nc-icon-wrapper"><circle cx="9" cy="9" r=".75" stroke="none" fill="currentColor"></circle><circle cx="15.25" cy="9" r=".75" stroke="none" fill="currentColor"></circle><circle cx="12.125" cy="9" r=".75" stroke="none" fill="currentColor"></circle><circle cx="5.875" cy="9" r=".75" stroke="none" fill="currentColor"></circle><circle cx="2.75" cy="9" r=".75" stroke="none" fill="currentColor"></circle><path d="M12.504,2.583l-3.132,3.5c-.199,.222-.546,.222-.745,0l-3.132-3.5c-.288-.322-.06-.833,.373-.833h6.263c.432,0,.661,.511,.373,.833Z" stroke-linecap="round" stroke-linejoin="round"></path><path d="M12.504,15.417l-3.132-3.5c-.199-.222-.546-.222-.745,0l-3.132,3.5c-.288,.322-.06,.833,.373,.833h6.263c.432,0,.661-.511,.373-.833Z" stroke-linecap="round" stroke-linejoin="round"></path></g></svg>