<svg xmlns="http://www.w3.org/2000/svg" height="18" width="18" viewBox="0 0 18 18"><title>floppy disk</title><g fill="none" stroke="currentColor" class="nc-icon-wrapper"><path d="M10.75,2.25v3c0,.552-.448,1-1,1h-3.5c-.552,0-1-.448-1-1V2.25" stroke-linecap="round" stroke-linejoin="round" stroke="currentColor"></path><path d="M5.25,15.75v-5c0-.552,.448-1,1-1h5.5c.552,0,1,.448,1,1v5" stroke-linecap="round" stroke-linejoin="round" stroke="currentColor"></path><path d="M13.59,15.75H4.41c-1.193,0-2.16-.967-2.16-2.16V4.41c0-1.193,.967-2.16,2.16-2.16h7.426c.265,0,.52,.105,.707,.293l2.914,2.914c.188,.188,.293,.442,.293,.707v7.426c0,1.193-.967,2.16-2.16,2.16Z" stroke-linecap="round" stroke-linejoin="round"></path></g></svg>