<svg xmlns="http://www.w3.org/2000/svg" height="18" width="18" viewBox="0 0 18 18"><title>flower</title><g fill="none" stroke="currentColor" class="nc-icon-wrapper"><circle cx="9" cy="9" r="1.75" stroke-linecap="round" stroke-linejoin="round" stroke="currentColor"></circle><path d="M16.25,9c0-.836-1.196-1.546-2.867-1.816,.991-1.372,1.334-2.72,.743-3.311-.591-.591-1.939-.247-3.311,.743-.27-1.671-.98-2.867-1.816-2.867s-1.546,1.196-1.816,2.867c-1.372-.991-2.72-1.334-3.311-.743-.591,.591-.247,1.939,.743,3.311-1.671,.27-2.867,.98-2.867,1.816s1.196,1.546,2.867,1.816c-.991,1.372-1.334,2.72-.743,3.311,.591,.591,1.939,.247,3.311-.743,.27,1.671,.98,2.867,1.816,2.867s1.546-1.196,1.816-2.867c1.372,.991,2.72,1.334,3.311,.743,.591-.591,.247-1.939-.743-3.311,1.671-.27,2.867-.98,2.867-1.816Z" stroke-linecap="round" stroke-linejoin="round"></path></g></svg>