<svg xmlns="http://www.w3.org/2000/svg" height="18" width="18" viewBox="0 0 18 18"><title>folder 3</title><g fill="none" stroke="currentColor" class="nc-icon-wrapper"><path d="M14.75,5.75c0-.552-.448-1-1-1H7.75l-.956-1.53c-.183-.292-.503-.47-.848-.47H3.25c-.552,0-1,.448-1,1V13.5c0,.966,.784,1.75,1.75,1.75" stroke-linecap="round" stroke-linejoin="round" stroke="currentColor"></path><path d="M4,15.25c.966,0,1.75-.784,1.75-1.75v-4.25c0-.552,.448-1,1-1H14.75c.552,0,1,.448,1,1v4c0,1.105-.895,2-2,2H4Z" stroke-linecap="round" stroke-linejoin="round"></path></g></svg>