<svg xmlns="http://www.w3.org/2000/svg" height="18" width="18" viewBox="0 0 18 18"><title>folder lock</title><g fill="none" stroke="currentColor" class="nc-icon-wrapper"><path d="M2.25,8.75V4.75c0-1.105,.895-2,2-2h1.951c.607,0,1.18,.275,1.56,.748l.603,.752h5.386c1.105,0,2,.895,2,2v2.287" stroke-linecap="round" stroke-linejoin="round"></path><rect x="11.25" y="13.75" width="6" height="3.5" rx="1" ry="1" stroke-linecap="round" stroke-linejoin="round" stroke="currentColor"></rect><path d="M15.729,8.537c-.108-1.003-.947-1.787-1.979-1.787H4.25c-1.105,0-2,.896-2,2v4.5c0,1.104,.895,2,2,2h4.5" stroke-linecap="round" stroke-linejoin="round"></path><path d="M12.75,13.75v-1.5c0-.828,.672-1.5,1.5-1.5h0c.828,0,1.5,.672,1.5,1.5v1.5" stroke-linecap="round" stroke-linejoin="round" stroke="currentColor"></path></g></svg>