<svg xmlns="http://www.w3.org/2000/svg" height="18" width="18" viewBox="0 0 18 18"><title>folder clock</title><g fill="none" stroke="currentColor" class="nc-icon-wrapper"><path d="M2.25,8.75V4.75c0-1.105,.895-2,2-2h1.951c.607,0,1.18,.275,1.56,.748l.603,.752h5.386c1.105,0,2,.895,2,2v2.266" stroke-linecap="round" stroke-linejoin="round"></path><path d="M15.726,8.516c-.117-.993-.952-1.766-1.976-1.766H4.25c-1.105,0-2,.896-2,2v4.5c0,1.104,.895,2,2,2h4.141" stroke-linecap="round" stroke-linejoin="round"></path><circle cx="14" cy="14" r="3.25" stroke-linecap="round" stroke-linejoin="round" stroke="currentColor"></circle><polyline points="15.156 14.476 14 14 14 12.75" stroke-linecap="round" stroke-linejoin="round" stroke="currentColor"></polyline></g></svg>