<svg xmlns="http://www.w3.org/2000/svg" height="18" width="18" viewBox="0 0 18 18"><title>folder settings</title><g fill="none" stroke="currentColor" class="nc-icon-wrapper"><path d="M2.25,8.75V4.75c0-1.105,.895-2,2-2h1.951c.607,0,1.18,.275,1.56,.748l.603,.752h5.386c1.105,0,2,.895,2,2v2.5" stroke-linecap="round" stroke-linejoin="round"></path><line x1="13.75" y1="10.5" x2="13.75" y2="11.75" stroke-linecap="round" stroke-linejoin="round" stroke="currentColor"></line><line x1="16.048" y1="11.452" x2="15.164" y2="12.336" stroke-linecap="round" stroke-linejoin="round" stroke="currentColor"></line><line x1="17" y1="13.75" x2="15.75" y2="13.75" stroke-linecap="round" stroke-linejoin="round" stroke="currentColor"></line><line x1="16.048" y1="16.048" x2="15.164" y2="15.164" stroke-linecap="round" stroke-linejoin="round" stroke="currentColor"></line><line x1="13.75" y1="17" x2="13.75" y2="15.75" stroke-linecap="round" stroke-linejoin="round" stroke="currentColor"></line><line x1="11.452" y1="16.048" x2="12.336" y2="15.164" stroke-linecap="round" stroke-linejoin="round" stroke="currentColor"></line><line x1="10.5" y1="13.75" x2="11.75" y2="13.75" stroke-linecap="round" stroke-linejoin="round" stroke="currentColor"></line><line x1="11.452" y1="11.452" x2="12.336" y2="12.336" stroke-linecap="round" stroke-linejoin="round" stroke="currentColor"></line><path d="M15.75,8.75c0-1.104-.895-2-2-2H4.25c-1.105,0-2,.896-2,2v4.5c0,1.104,.895,2,2,2h4.271" stroke-linecap="round" stroke-linejoin="round"></path><circle cx="13.75" cy="13.75" r="1.75" stroke-linecap="round" stroke-linejoin="round" stroke="currentColor"></circle></g></svg>