<svg xmlns="http://www.w3.org/2000/svg" height="18" width="18" viewBox="0 0 18 18"><title>folder tree</title><g fill="none" stroke="currentColor" class="nc-icon-wrapper"><path d="M12.123,2.75h2.127c.552,0,1,.448,1,1v2.5c0,.552-.448,1-1,1h-4.5c-.552,0-1-.448-1-1V2.75c0-.552,.448-1,1-1h1.046c.289,0,.563,.125,.753,.342l.575,.658Z" stroke-linecap="round" stroke-linejoin="round"></path><path d="M12.123,11.75h2.127c.552,0,1,.448,1,1v2.5c0,.552-.448,1-1,1h-4.5c-.552,0-1-.448-1-1v-3.5c0-.552,.448-1,1-1h1.046c.289,0,.563,.125,.753,.342l.575,.658Z" stroke-linecap="round" stroke-linejoin="round"></path><path d="M6.25,4.75h-2c-.828,0-1.5-.672-1.5-1.5V1" stroke-linecap="round" stroke-linejoin="round" stroke="currentColor"></path><path d="M6.25,13.75h-2c-.828,0-1.5-.672-1.5-1.5V3" stroke-linecap="round" stroke-linejoin="round" stroke="currentColor"></path></g></svg>