<svg xmlns="http://www.w3.org/2000/svg" height="18" width="18" viewBox="0 0 18 18"><title>folders</title><g fill="none" stroke="currentColor" class="nc-icon-wrapper"><path d="M11.124,9.75h3.626c.828,0,1.5,.672,1.5,1.5v3.5c0,.828-.672,1.5-1.5,1.5H7.25c-.828,0-1.5-.672-1.5-1.5v-5.5c0-.828,.672-1.5,1.5-1.5h1.351c.415,0,.811,.172,1.095,.475l1.429,1.525Z" stroke-linecap="round" stroke-linejoin="round"></path><path d="M3.25,10.25h0c-.828,0-1.5-.672-1.5-1.5V3.25c0-.828,.672-1.5,1.5-1.5h1.351c.415,0,.811,.172,1.095,.475l1.429,1.525h3.626c.828,0,1.5,.672,1.5,1.5v2" stroke-linecap="round" stroke-linejoin="round" stroke="currentColor"></path></g></svg>