<svg xmlns="http://www.w3.org/2000/svg" height="18" width="18" viewBox="0 0 18 18"><title>folder clip</title><g fill="none" stroke="currentColor" class="nc-icon-wrapper"><path d="M2.25,8.75V4.75c0-1.105,.895-2,2-2h1.951c.607,0,1.18,.275,1.56,.748l.603,.752h5.386c1.105,0,2,.895,2,2v2.844" stroke-linecap="round" stroke-linejoin="round"></path><path d="M15.75,9.253v-.503c0-1.104-.895-2-2-2H4.25c-1.105,0-2,.896-2,2v4.5c0,1.104,.895,2,2,2h5.551" stroke-linecap="round" stroke-linejoin="round"></path><path d="M14.75,14.25v-2c0-.69-.56-1.25-1.25-1.25h0c-.69,0-1.25,.56-1.25,1.25v2.5c0,1.381,1.119,2.5,2.5,2.5h0c1.381,0,2.5-1.119,2.5-2.5v-2" stroke-linecap="round" stroke-linejoin="round" stroke="currentColor"></path></g></svg>