<svg xmlns="http://www.w3.org/2000/svg" height="18" width="18" viewBox="0 0 18 18"><title>folder download</title><g fill="none" stroke="currentColor" class="nc-icon-wrapper"><path d="M2.25,8.75V4.75c0-1.105,.895-2,2-2h1.951c.607,0,1.18,.275,1.56,.748l.603,.752h5.386c1.105,0,2,.895,2,2v2.844" stroke-linecap="round" stroke-linejoin="round"></path><polyline points="17.25 14.75 14.75 17.25 12.25 14.75" stroke-linecap="round" stroke-linejoin="round" stroke="currentColor"></polyline><path d="M15.75,9.961v-1.211c0-1.104-.895-2-2-2H4.25c-1.105,0-2,.896-2,2v4.5c0,1.104,.895,2,2,2h5.552" stroke-linecap="round" stroke-linejoin="round"></path><line x1="14.75" y1="17" x2="14.75" y2="12.25" stroke-linecap="round" stroke-linejoin="round" stroke="currentColor"></line></g></svg>