<svg xmlns="http://www.w3.org/2000/svg" height="18" width="18" viewBox="0 0 18 18"><title>folder user</title><g fill="none" stroke="currentColor" class="nc-icon-wrapper"><path d="M2.25,8.75V4.75c0-1.105,.895-2,2-2h1.951c.607,0,1.18,.275,1.56,.748l.603,.752h5.386c1.105,0,2,.895,2,2v2.188" stroke-linecap="round" stroke-linejoin="round"></path><circle cx="14.641" cy="11.75" r="1" stroke="currentColor" stroke-linecap="round" stroke-linejoin="round"></circle><path d="M15.719,8.438c-.151-.955-.971-1.688-1.969-1.688H4.25c-1.105,0-2,.896-2,2v4.5c0,1.104,.895,2,2,2h5.674" stroke-linecap="round" stroke-linejoin="round"></path><path d="M16.742,17.25c.34,0,.594-.337,.482-.658-.373-1.072-1.383-1.842-2.583-1.842s-2.21,.77-2.583,1.842c-.112,.321,.142,.658,.482,.658h4.202Z" stroke="currentColor" stroke-linecap="round" stroke-linejoin="round"></path></g></svg>