<svg xmlns="http://www.w3.org/2000/svg" height="18" width="18" viewBox="0 0 18 18"><title>folder dots</title><g fill="none" stroke="currentColor" class="nc-icon-wrapper"><path d="M2.25,8.75V4.75c0-1.105,.895-2,2-2h1.951c.607,0,1.18,.275,1.56,.748l.603,.752h5.386c1.105,0,2,.895,2,2v2.844" stroke-linecap="round" stroke-linejoin="round"></path><path d="M14,16c-.551,0-1-.448-1-1s.449-1,1-1,1,.448,1,1-.449,1-1,1Z" stroke="none" fill="currentColor"></path><path d="M11,16c-.551,0-1-.448-1-1s.449-1,1-1,1,.448,1,1-.449,1-1,1Z" stroke="none" fill="currentColor"></path><path d="M15.75,12.56v-3.81c0-1.104-.895-2-2-2H4.25c-1.105,0-2,.896-2,2v4.5c0,1.104,.895,2,2,2h4.025" stroke-linecap="round" stroke-linejoin="round"></path><path d="M17,16c-.551,0-1-.448-1-1s.449-1,1-1,1,.448,1,1-.449,1-1,1Z" stroke="none" fill="currentColor"></path></g></svg>