<svg xmlns="http://www.w3.org/2000/svg" height="18" width="18" viewBox="0 0 18 18"><title>folder alert</title><g fill="none" stroke="currentColor" class="nc-icon-wrapper"><path d="M2.25,8.75V4.75c0-1.105,.895-2,2-2h1.951c.607,0,1.18,.275,1.56,.748l.603,.752h5.386c1.105,0,2,.895,2,2v2.164" stroke-linecap="round" stroke-linejoin="round"></path><path d="M15.716,8.414c-.16-.944-.977-1.664-1.966-1.664H4.25c-1.105,0-2,.896-2,2v4.5c0,1.104,.895,2,2,2h2.322" stroke-linecap="round" stroke-linejoin="round"></path><path d="M15.5,16.25h.433c.788,0,1.267-.869,.845-1.535l-2.933-4.631c-.393-.62-1.297-.62-1.69,0l-2.933,4.631c-.422,.666,.057,1.535,.845,1.535h.433" stroke="currentColor" stroke-linecap="round" stroke-linejoin="round"></path><line x1="13" y1="12.75" x2="13" y2="14.75" stroke="currentColor" stroke-linecap="round" stroke-linejoin="round"></line><circle cx="13" cy="16.75" r=".75" stroke="none" fill="currentColor"></circle></g></svg>