<svg xmlns="http://www.w3.org/2000/svg" height="18" width="18" viewBox="0 0 18 18"><title>folder shield</title><g fill="none" stroke="currentColor" class="nc-icon-wrapper"><path d="M2.25,8.75V4.75c0-1.105,.895-2,2-2h1.951c.607,0,1.18,.275,1.56,.748l.603,.752h5.386c1.105,0,2,.895,2,2v2.313" stroke-linecap="round" stroke-linejoin="round"></path><path d="M15.731,8.563c-.095-1.016-.94-1.813-1.981-1.813H4.25c-1.105,0-2,.896-2,2v4.5c0,1.104,.895,2,2,2h5.036" stroke-linecap="round" stroke-linejoin="round"></path><path d="M14.5,10.75l2.75,1.25v2.94c0,1.54-2.75,2.31-2.75,2.31,0,0-2.75-.77-2.75-2.31v-2.94l2.75-1.25Z" stroke-linecap="round" stroke-linejoin="round" stroke="currentColor"></path></g></svg>