<svg xmlns="http://www.w3.org/2000/svg" height="18" width="18" viewBox="0 0 18 18"><title>food delivery box</title><g fill="none" stroke="currentColor" class="nc-icon-wrapper"><rect x="1.75" y="12.25" width="14.5" height="3" stroke-linecap="round" stroke-linejoin="round"></rect><polyline points="16.25 12.25 14.25 8.75 3.75 8.75 1.75 12.25" stroke-linecap="round" stroke-linejoin="round"></polyline><path d="M9,.75c-.022,.631-.166,1.383-.672,2-.347,.424-.636,.504-.969,.922-.325,.408-.618,1.045-.609,2.078" stroke="currentColor" stroke-linecap="round" stroke-linejoin="round"></path><path d="M11.75,2.75c-.015,.379-.111,.83-.448,1.2-.232,.254-.424,.302-.646,.553-.217,.245-.412,.627-.406,1.247" stroke="currentColor" stroke-linecap="round" stroke-linejoin="round"></path><path d="M9,14c.966,0,1.75-.783,1.75-1.75h-3.5c0,.967,.784,1.75,1.75,1.75Z" fill="currentColor" stroke="none"></path></g></svg>