<svg xmlns="http://www.w3.org/2000/svg" height="18" width="18" viewBox="0 0 18 18"><title>food delivery bag</title><g fill="none" stroke="currentColor" class="nc-icon-wrapper"><path d="M6.75,4.75v-1.75c0-1.243,1.007-2.25,2.25-2.25h0c1.243,0,2.25,1.007,2.25,2.25v1.75" stroke-linecap="round" stroke-linejoin="round"></path><path d="M5.334,4.75h7.333c1.037,0,1.903,.793,1.992,1.827l.652,7.5c.102,1.169-.82,2.173-1.992,2.173H4.681c-1.173,0-2.094-1.005-1.992-2.173l.652-7.5c.09-1.034,.955-1.827,1.992-1.827Z" stroke-linecap="round" stroke-linejoin="round"></path><line x1="6.75" y1="10.75" x2="6.75" y2="13.5" stroke-linecap="round" stroke-linejoin="round" stroke="currentColor"></line><path d="M11.75,13.5V7.75c-.164,.265-.331,.578-.479,.938-.327,.792-.442,1.518-.479,2.063l.958,1.008" stroke-linecap="round" stroke-linejoin="round" stroke="currentColor"></path><ellipse cx="6.75" cy="9.125" rx="1.25" ry="1.625" stroke-linecap="round" stroke-linejoin="round" stroke="currentColor"></ellipse></g></svg>