<svg xmlns="http://www.w3.org/2000/svg" height="18" width="18" viewBox="0 0 18 18"><title>food delivery time</title><g fill="none" stroke="currentColor" class="nc-icon-wrapper"><path d="M10.25,16.25V6.75c-.335,.611-.7,1.396-.991,2.344-.312,1.016-.45,1.928-.509,2.656l1.5,1.508" stroke-linecap="round" stroke-linejoin="round" stroke="currentColor"></path><path d="M5.75,12.155c-2.421-.467-4.25-2.597-4.25-5.155C1.5,4.101,3.851,1.75,6.75,1.75c1.917,0,3.595,1.028,4.511,2.563" stroke-linecap="round" stroke-linejoin="round"></path><polyline points="6.75 4 6.75 7 4.25 8.5" stroke-linecap="round" stroke-linejoin="round"></polyline><line x1="14.75" y1="6.75" x2="14.75" y2="8.75" stroke-linecap="round" stroke-linejoin="round" stroke="currentColor"></line><path d="M16.75,6.75l.125,2.253c.068,1.22-.903,2.247-2.125,2.247h0c-1.222,0-2.193-1.026-2.125-2.247l.125-2.253" stroke-linecap="round" stroke-linejoin="round" stroke="currentColor"></path><line x1="14.75" y1="11.25" x2="14.75" y2="16.25" stroke-linecap="round" stroke-linejoin="round" stroke="currentColor"></line></g></svg>