<svg xmlns="http://www.w3.org/2000/svg" height="18" width="18" viewBox="0 0 18 18"><title>framework</title><g fill="none" stroke="currentColor" class="nc-icon-wrapper"><line x1="5.75" y1="7.115" x2="3.017" y2="5.53" stroke-linecap="round" stroke-linejoin="round"></line><line x1="14.983" y1="5.53" x2="12.25" y2="7.115" stroke-linecap="round" stroke-linejoin="round"></line><line x1="9" y1="15.938" x2="9" y2="12.77" stroke-linecap="round" stroke-linejoin="round"></line><path d="M7.997,2.332L3.747,4.797c-.617,.358-.997,1.017-.997,1.73v4.946c0,.713,.38,1.372,.997,1.73l4.25,2.465c.621,.36,1.386,.36,2.007,0l4.25-2.465c.617-.358,.997-1.017,.997-1.73V6.527c0-.713-.38-1.372-.997-1.73l-4.25-2.465c-.621-.36-1.386-.36-2.007,0Z" stroke-linecap="round" stroke-linejoin="round"></path><polygon points="9 5.23 5.75 7.115 5.75 10.885 9 12.77 12.25 10.885 12.25 7.115 9 5.23" stroke-linecap="round" stroke-linejoin="round" stroke="currentColor"></polygon><polyline points="5.75 10.885 9 9 12.25 10.885" stroke-linecap="round" stroke-linejoin="round" stroke="currentColor"></polyline><line x1="9" y1="5.23" x2="9" y2="9" stroke-linecap="round" stroke-linejoin="round" stroke="currentColor"></line></g></svg>