<svg xmlns="http://www.w3.org/2000/svg" height="18" width="18" viewBox="0 0 18 18"><title>gamepad 3</title><g fill="none" stroke="currentColor" class="nc-icon-wrapper"><circle cx="10.75" cy="7.25" r=".75" stroke="none" fill="currentColor"></circle><circle cx="13.75" cy="7.25" r=".75" stroke="none" fill="currentColor"></circle><circle cx="12.25" cy="6" r=".75" stroke="none" fill="currentColor"></circle><circle cx="12.25" cy="8.5" r=".75" stroke="none" fill="currentColor"></circle><line x1="5.75" y1="6" x2="5.75" y2="8.5" stroke="currentColor" stroke-linecap="round" stroke-linejoin="round"></line><line x1="7" y1="7.25" x2="4.5" y2="7.25" stroke="currentColor" stroke-linecap="round" stroke-linejoin="round"></line><line x1="6.23" y1="11.75" x2="11.769" y2="11.75" stroke-linecap="round" stroke-linejoin="round"></line><circle cx="5.75" cy="11.5" r="1.5" fill="currentColor" stroke="none"></circle><circle cx="12.25" cy="11.5" r="1.5" fill="currentColor" stroke="none"></circle><path d="M14.173,13.435c.267,.517,.819,.862,1.452,.81,.802-.065,1.381-.805,1.375-1.609-.008-1.185-.168-2.627-.458-4.261-.671-3.787-2.118-5.625-4.042-5.625-.885,0-1.672,.39-2.221,1h-1.279s-1.279,0-1.279,0c-.549-.61-1.336-1-2.221-1-1.924,0-3.371,1.838-4.042,5.625-.289,1.634-.45,3.075-.458,4.261-.005,.804,.574,1.544,1.375,1.609,.633,.052,1.185-.294,1.452-.81" stroke-linecap="round" stroke-linejoin="round"></path></g></svg>