<svg xmlns="http://www.w3.org/2000/svg" height="18" width="18" viewBox="0 0 18 18"><title>gaming blocks</title><g fill="none" stroke="currentColor" class="nc-icon-wrapper"><path d="M4.75,1.25h3.25c.552,0,1,.448,1,1V6.25H3.75V2.25c0-.552,.448-1,1-1Z" stroke-linecap="round" stroke-linejoin="round" stroke="currentColor"></path><path d="M9,11.75h5.25v4c0,.552-.448,1-1,1h-3.25c-.552,0-1-.448-1-1v-4h0Z" stroke-linecap="round" stroke-linejoin="round" stroke="currentColor"></path><path d="M3.75,6.25h5.25v5.5H4.75c-.552,0-1-.448-1-1V6.25h0Z" stroke-linecap="round" stroke-linejoin="round"></path><path d="M9,6.25h4.25c.552,0,1,.448,1,1v4.5h-5.25V6.25h0Z" stroke-linecap="round" stroke-linejoin="round"></path></g></svg>