<svg xmlns="http://www.w3.org/2000/svg" height="18" width="18" viewBox="0 0 18 18"><title>gauge</title><g fill="none" stroke="currentColor" class="nc-icon-wrapper"><path d="M8,5.356c.323-.069,.657-.106,1-.106,2.619,0,4.75,2.131,4.75,4.75,0,.942-.275,1.82-.75,2.559" stroke="currentColor" stroke-linecap="round" stroke-linejoin="round"></path><path d="M5,12.559c-.475-.739-.75-1.618-.75-2.559,0-.343,.037-.678,.106-1" stroke="currentColor" stroke-linecap="round" stroke-linejoin="round"></path><path d="M4.009,15.25H13.991c1.389-1.321,2.259-3.182,2.259-5.25,0-4.004-3.246-7.25-7.25-7.25S1.75,5.996,1.75,10c0,2.068,.87,3.929,2.259,5.25Z" stroke-linecap="round" stroke-linejoin="round"></path><circle cx="9" cy="10" r="1" stroke="currentColor" stroke-linecap="round" stroke-linejoin="round"></circle><line x1="9" y1="10" x2="5.644" y2="6.644" stroke="currentColor" stroke-linecap="round" stroke-linejoin="round"></line></g></svg>