<svg xmlns="http://www.w3.org/2000/svg" height="18" width="18" viewBox="0 0 18 18"><title>gears</title><g fill="none" stroke="currentColor" class="nc-icon-wrapper"><circle cx="5.999" cy="12" r="1.5" stroke-linecap="round" stroke-linejoin="round"></circle><path d="M10.017,5.551c.28-.19,.618-.301,.982-.301,.966,0,1.75,.784,1.75,1.75,0,.361-.109,.696-.297,.975" stroke-linecap="round" stroke-linejoin="round" stroke="currentColor"></path><path d="M13.734,11.445l.318,.254c.343,.274,.837,.247,1.148-.064l.433-.433c.311-.311,.338-.805,.064-1.148l-.593-.741,.433-1.046,.943-.105c.437-.049,.767-.418,.767-.857v-.612c0-.439-.33-.808-.767-.857l-.943-.105-.433-1.046,.593-.741c.274-.343,.247-.837-.064-1.148l-.433-.433c-.311-.311-.805-.338-1.148-.064l-.741,.593-1.047-.433-.105-.943c-.049-.437-.418-.767-.857-.767h-.612c-.439,0-.808,.33-.857,.767l-.105,.943-1.046,.433-.741-.593c-.343-.274-.837-.247-1.148,.064l-.433,.433c-.311,.311-.338,.805-.064,1.148l.255,.319" stroke-linecap="round" stroke-linejoin="round" stroke="currentColor"></path><path d="M11.249,12.257v-.514c0-.369-.277-.679-.644-.72l-.792-.088-.364-.879,.498-.622c.23-.288,.207-.703-.053-.964l-.364-.364c-.261-.261-.676-.284-.964-.053l-.622,.498-.879-.364-.088-.792c-.041-.367-.351-.644-.72-.644h-.514c-.369,0-.679,.277-.72,.644l-.088,.792-.879,.364-.622-.498c-.288-.23-.703-.207-.964,.053l-.364,.364c-.261,.261-.284,.676-.053,.964l.498,.622-.364,.879-.792,.088c-.367,.041-.644,.351-.644,.72v.514c0,.369,.277,.679,.644,.72l.792,.088,.364,.879-.498,.622c-.231,.288-.207,.704,.053,.964l.363,.363c.261,.261,.676,.284,.964,.053l.622-.498,.879,.364,.088,.792c.041,.367,.351,.644,.72,.644h.514c.369,0,.679-.277,.72-.644l.088-.792,.879-.364,.622,.498c.288,.23,.703,.207,.964-.053l.363-.363c.261-.261,.284-.676,.053-.964l-.498-.622,.364-.879,.792-.088c.367-.041,.644-.351,.644-.72Z" stroke-linecap="round" stroke-linejoin="round"></path></g></svg>