<svg xmlns="http://www.w3.org/2000/svg" height="18" width="18" viewBox="0 0 18 18"><title>gear nodes</title><g fill="none" stroke="currentColor" class="nc-icon-wrapper"><circle cx="9" cy="2.75" r="1.5" stroke-linecap="round" stroke-linejoin="round" stroke="currentColor"></circle><circle cx="3.25" cy="3.75" r="1.5" stroke-linecap="round" stroke-linejoin="round" stroke="currentColor"></circle><path d="M4.999,8.564l-.789-.48c-.596-.363-.96-1.01-.96-1.708v-1.126" stroke-linecap="round" stroke-linejoin="round" stroke="currentColor"></path><circle cx="14.75" cy="3.75" r="1.5" stroke-linecap="round" stroke-linejoin="round" stroke="currentColor"></circle><path d="M13.001,8.564l.789-.48c.596-.363,.96-1.01,.96-1.708v-1.126" stroke-linecap="round" stroke-linejoin="round" stroke="currentColor"></path><line x1="9" y1="7" x2="9" y2="4.25" stroke-linecap="round" stroke-linejoin="round" stroke="currentColor"></line><line x1="9" y1="9.75" x2="9" y2="11.5" stroke-linecap="round" stroke-linejoin="round"></line><line x1="11.652" y1="10.848" x2="10.414" y2="12.086" stroke-linecap="round" stroke-linejoin="round"></line><line x1="12.75" y1="13.5" x2="11" y2="13.5" stroke-linecap="round" stroke-linejoin="round"></line><line x1="11.652" y1="16.152" x2="10.414" y2="14.914" stroke-linecap="round" stroke-linejoin="round"></line><line x1="9" y1="17.25" x2="9" y2="15.5" stroke-linecap="round" stroke-linejoin="round"></line><line x1="6.348" y1="16.152" x2="7.586" y2="14.914" stroke-linecap="round" stroke-linejoin="round"></line><line x1="5.25" y1="13.5" x2="7" y2="13.5" stroke-linecap="round" stroke-linejoin="round"></line><line x1="6.348" y1="10.848" x2="7.586" y2="12.086" stroke-linecap="round" stroke-linejoin="round"></line><circle cx="9" cy="13.5" r="2" stroke-linecap="round" stroke-linejoin="round"></circle></g></svg>