<svg xmlns="http://www.w3.org/2000/svg" height="18" width="18" viewBox="0 0 18 18"><title>gear arrow right</title><g fill="none" stroke="currentColor" class="nc-icon-wrapper"><circle cx="9" cy="9" r="2.25" stroke-linecap="round" stroke-linejoin="round"></circle><polyline points="14.25 12.25 16.75 14.75 14.25 17.25" stroke-linecap="round" stroke-linejoin="round" stroke="currentColor"></polyline><line x1="16.5" y1="14.75" x2="11.75" y2="14.75" stroke-linecap="round" stroke-linejoin="round" stroke="currentColor"></line><path d="M15.718,10.238c.318-.169,.532-.503,.532-.883v-.71c0-.51-.383-.938-.89-.994l-1.094-.122c-.226-.546-.277-.668-.503-1.214l.688-.859c.318-.397,.286-.971-.074-1.332l-.502-.502c-.36-.36-.934-.392-1.332-.074l-.859,.688c-.546-.226-.668-.277-1.214-.503l-.122-1.094c-.056-.506-.484-.89-.994-.89h-.71c-.51,0-.938,.383-.994,.89l-.122,1.094c-.546,.226-.668,.276-1.214,.503l-.859-.688c-.398-.318-.971-.287-1.332,.074l-.502,.502c-.36,.36-.392,.934-.074,1.332l.688,.859c-.226,.546-.277,.668-.503,1.214l-1.094,.122c-.506,.056-.89,.484-.89,.994v.71c0,.509,.383,.938,.89,.994l1.094,.122c.226,.546,.277,.668,.503,1.214l-.687,.859c-.318,.397-.287,.971,.074,1.332l.502,.502c.36,.36,.934,.392,1.332,.074l.859-.688c.546,.226,.668,.277,1.214,.503l.122,1.094c.056,.506,.484,.89,.994,.89h.71c.124,0,.242-.024,.352-.066" stroke-linecap="round" stroke-linejoin="round"></path></g></svg>