<svg xmlns="http://www.w3.org/2000/svg" height="18" width="18" viewBox="0 0 18 18"><title>globe search</title><g fill="none" stroke="currentColor" class="nc-icon-wrapper"><path d="M9.795,16.207c-.261,.029-.527,.043-.795,.043-4.004,0-7.25-3.246-7.25-7.25S4.996,1.75,9,1.75s7.25,3.246,7.25,7.25c0,.269-.015,.534-.043,.795" stroke-linecap="round" stroke-linejoin="round"></path><path d="M16.25,9c0-1.657-3.246-3-7.25-3S1.75,7.343,1.75,9c0,1.657,3.246,3,7.25,3,.234,0,.464-.005,.692-.014" stroke-linecap="round" stroke-linejoin="round"></path><path d="M11.986,9.699c.009-.23,.014-.463,.014-.699,0-4.004-1.343-7.25-3-7.25-1.657,0-3,3.246-3,7.25s1.343,7.25,3,7.25" stroke-linecap="round" stroke-linejoin="round"></path><circle cx="14" cy="14" r="2.25" stroke-linecap="round" stroke-linejoin="round" stroke="currentColor"></circle><line x1="15.59" y1="15.59" x2="17.25" y2="17.25" stroke-linecap="round" stroke-linejoin="round" stroke="currentColor"></line></g></svg>