<svg xmlns="http://www.w3.org/2000/svg" height="18" width="18" viewBox="0 0 18 18"><title>gradient</title><g fill="none" stroke="currentColor" class="nc-icon-wrapper"><path d="M6,6V3.75H2.75c-.552,0-1,.448-1,1v2.5c0,.552,.448,1,1,1h5.25v-2.25h-2Z" fill="currentColor" stroke="none"></path><path d="M.75,12.75l1.75-2,1.75,2v1.5c0,.552-.448,1-1,1H1.75c-.552,0-1-.448-1-1v-1.5Z" stroke="currentColor" stroke-linecap="round" stroke-linejoin="round"></path><path d="M13.75,12.75l1.75-2,1.75,2v1.5c0,.552-.448,1-1,1h-1.5c-.552,0-1-.448-1-1v-1.5Z" stroke="currentColor" stroke-linecap="round" stroke-linejoin="round"></path><rect x="8" y="3.75" width="2" height="2.25" fill="currentColor" stroke="none"></rect><rect x="10" y="6" width="2" height="2.25" fill="currentColor" stroke="none"></rect><rect x="1.75" y="3.75" width="14.5" height="4.5" rx="1" ry="1" stroke-linecap="round" stroke-linejoin="round"></rect></g></svg>