<svg xmlns="http://www.w3.org/2000/svg" height="18" width="18" viewBox="0 0 18 18"><title>grid obj snap to top left</title><g fill="none" stroke="currentColor" class="nc-icon-wrapper"><rect x="2.25" y="2.25" width="5" height="5" rx="1" ry="1" stroke-linecap="round" stroke-linejoin="round" stroke="currentColor"></rect><path d="M2.25,12v-.25c0-.552,.448-1,1-1h.25" stroke-linecap="round" stroke-linejoin="round"></path><path d="M3.5,15.75h-.25c-.552,0-1-.448-1-1v-.25" stroke-linecap="round" stroke-linejoin="round"></path><path d="M7.25,14.5v.25c0,.552-.448,1-1,1h-.25" stroke-linecap="round" stroke-linejoin="round"></path><path d="M6,10.75h.25c.552,0,1,.448,1,1v.25" stroke-linecap="round" stroke-linejoin="round"></path><path d="M10.75,12v-.25c0-.552,.448-1,1-1h.25" stroke-linecap="round" stroke-linejoin="round"></path><path d="M12,15.75h-.25c-.552,0-1-.448-1-1v-.25" stroke-linecap="round" stroke-linejoin="round"></path><path d="M15.75,14.5v.25c0,.552-.448,1-1,1h-.25" stroke-linecap="round" stroke-linejoin="round"></path><path d="M14.5,10.75h.25c.552,0,1,.448,1,1v.25" stroke-linecap="round" stroke-linejoin="round"></path><path d="M10.75,3.5v-.25c0-.552,.448-1,1-1h.25" stroke-linecap="round" stroke-linejoin="round"></path><path d="M12,7.25h-.25c-.552,0-1-.448-1-1v-.25" stroke-linecap="round" stroke-linejoin="round"></path><path d="M15.75,6v.25c0,.552-.448,1-1,1h-.25" stroke-linecap="round" stroke-linejoin="round"></path><path d="M14.5,2.25h.25c.552,0,1,.448,1,1v.25" stroke-linecap="round" stroke-linejoin="round"></path></g></svg>