<svg xmlns="http://www.w3.org/2000/svg" height="18" width="18" viewBox="0 0 18 18"><title>ground plane detection</title><g fill="none" stroke="currentColor" class="nc-icon-wrapper"><path d="M15.235,10l1.467,.88c.731,.439,.731,1.498,0,1.936l-7.121,4.273c-.358,.215-.804,.215-1.162,0L1.298,12.817c-.731-.439-.731-1.498,0-1.936l1.467-.88" stroke-linecap="round" stroke-linejoin="round"></path><path d="M8.398,4.999l-2.55,1.479c-.37,.215-.598,.61-.598,1.038v2.968c0,.428,.228,.823,.598,1.038l2.55,1.479c.372,.216,.832,.216,1.204,0l2.55-1.479c.37-.215,.598-.61,.598-1.038v-2.968c0-.428-.228-.823-.598-1.038l-2.55-1.479c-.372-.216-.832-.216-1.204,0Z" stroke-linecap="round" stroke-linejoin="round" stroke="currentColor"></path><polyline points="12.59 6.918 9 9 5.41 6.918" stroke-linecap="round" stroke-linejoin="round" stroke="currentColor"></polyline><line x1="9" y1="13.163" x2="9" y2="9" stroke-linecap="round" stroke-linejoin="round" stroke="currentColor"></line><line x1="9" y1=".75" x2="9" y2="2.25" stroke-linecap="round" stroke-linejoin="round"></line><line x1="5.75" y1="2.25" x2="5.75" y2="3.75" stroke-linecap="round" stroke-linejoin="round"></line><line x1="12.25" y1="2.25" x2="12.25" y2="3.75" stroke-linecap="round" stroke-linejoin="round"></line></g></svg>