<svg xmlns="http://www.w3.org/2000/svg" height="18" width="18" viewBox="0 0 18 18"><title>hand 2 shield</title><g fill="none" stroke="currentColor" class="nc-icon-wrapper"><path d="M10.75,7.75V2.5c0-.69-.564-1.25-1.25-1.25s-1.25,.56-1.25,1.25V7.75" stroke-linecap="round" stroke-linejoin="round"></path><path d="M13.25,7.75V3.75c0-.69-.564-1.25-1.25-1.25s-1.25,.56-1.25,1.25V7.75" stroke-linecap="round" stroke-linejoin="round"></path><path d="M15.751,8.8v-3.55c0-.69-.564-1.25-1.25-1.25s-1.25,.56-1.25,1.25v2.5" stroke-linecap="round" stroke-linejoin="round"></path><path d="M8.25,7.75V3.75c0-.69-.564-1.25-1.25-1.25s-1.25,.56-1.25,1.25v7.465l-1.768-2.252c-.426-.543-1.215-.635-1.755-.211-.54,.424-.604,1.131-.211,1.755l1.96,3.014c1.107,1.702,2.999,2.729,5.029,2.73" stroke-linecap="round" stroke-linejoin="round"></path><path d="M14,10.75l2.75,1.25v2.94c0,1.54-2.75,2.31-2.75,2.31,0,0-2.75-.77-2.75-2.31v-2.94l2.75-1.25Z" stroke-linecap="round" stroke-linejoin="round" stroke="currentColor"></path></g></svg>