<svg xmlns="http://www.w3.org/2000/svg" height="18" width="18" viewBox="0 0 18 18"><title>hand 2 ban</title><g fill="none" stroke="currentColor" class="nc-icon-wrapper"><path d="M10.75,7.75V2.5c0-.69-.564-1.25-1.25-1.25s-1.25,.56-1.25,1.25V7.75" stroke-linecap="round" stroke-linejoin="round"></path><path d="M13.25,7.75V3.75c0-.69-.564-1.25-1.25-1.25s-1.25,.56-1.25,1.25V7.75" stroke-linecap="round" stroke-linejoin="round"></path><path d="M15.751,8.525v-3.275c0-.69-.564-1.25-1.25-1.25s-1.25,.56-1.25,1.25v2.5" stroke-linecap="round" stroke-linejoin="round"></path><path d="M8.25,7.75V3.75c0-.69-.564-1.25-1.25-1.25s-1.25,.56-1.25,1.25v7.465l-1.768-2.252c-.426-.543-1.215-.635-1.755-.211-.54,.424-.604,1.131-.211,1.755l1.96,3.014c1.051,1.616,2.812,2.613,4.725,2.71" stroke-linecap="round" stroke-linejoin="round"></path><circle cx="14" cy="14" r="3.25" stroke-linecap="round" stroke-linejoin="round" stroke="currentColor"></circle><line x1="11.702" y1="16.298" x2="16.292" y2="11.708" stroke-linecap="round" stroke-linejoin="round" stroke="currentColor"></line></g></svg>