<svg xmlns="http://www.w3.org/2000/svg" height="18" width="18" viewBox="0 0 18 18"><title>headphones</title><g fill="none" stroke="currentColor" class="nc-icon-wrapper"><path d="M13,14.25h1.137c.941,0,1.755-.656,1.955-1.576l.335-1.545c.193-.89-.24-1.799-1.053-2.209l-1.123-.567" stroke-linecap="round" stroke-linejoin="round" stroke="currentColor"></path><path d="M5,14.25h-1.137c-.941,0-1.755-.656-1.955-1.576l-.335-1.545c-.193-.89,.24-1.799,1.053-2.209l1.123-.567" stroke-linecap="round" stroke-linejoin="round" stroke="currentColor"></path><path d="M13,14.25l1.084-5c.099-.403,.166-.817,.166-1.25,0-2.899-2.351-5.25-5.25-5.25S3.75,5.101,3.75,8c0,.433,.067,.847,.166,1.25l1.084,5" stroke-linecap="round" stroke-linejoin="round"></path></g></svg>