<svg xmlns="http://www.w3.org/2000/svg" height="18" width="18" viewBox="0 0 18 18"><title>heart slash</title><g fill="none" stroke="currentColor" class="nc-icon-wrapper"><path d="M7.53,14.438c.305,.287,.578,.536,.805,.737,.38,.338,.946,.342,1.326,.003,1.7-1.512,6.089-5.708,6.089-8.707,0-.159-.009-.317-.028-.471" stroke-linecap="round" stroke-linejoin="round"></path><path d="M14.405,3.595c-.638-.531-1.449-.84-2.345-.845-1.231,.016-2.376,.636-3.06,1.659-.684-1.023-1.829-1.643-3.06-1.659-2.047,.012-3.697,1.677-3.69,3.721,0,1.837,1.646,4.123,3.313,5.966" stroke-linecap="round" stroke-linejoin="round"></path><line x1="2" y1="16" x2="16" y2="2" stroke-linecap="round" stroke-linejoin="round" stroke="currentColor"></line></g></svg>