<svg xmlns="http://www.w3.org/2000/svg" height="18" width="18" viewBox="0 0 18 18"><title>heart plus</title><g fill="none" stroke="currentColor" class="nc-icon-wrapper"><line x1="14" y1="10.25" x2="14" y2="15.25" stroke-linecap="round" stroke-linejoin="round" stroke="currentColor"></line><line x1="16.5" y1="12.75" x2="11.5" y2="12.75" stroke-linecap="round" stroke-linejoin="round" stroke="currentColor"></line><path d="M15.742,8.463c.161-.584,.258-1.201,.258-1.854,.008-2.12-1.704-3.846-3.826-3.859-1.277,.016-2.464,.66-3.174,1.72-.709-1.061-1.896-1.704-3.173-1.72-2.123,.013-3.834,1.739-3.826,3.859,0,4.826,4.959,7.794,6.529,8.613,.297,.155,.644,.155,.941,0,.183-.095,.415-.223,.676-.375" stroke-linecap="round" stroke-linejoin="round"></path></g></svg>