<svg xmlns="http://www.w3.org/2000/svg" height="18" width="18" viewBox="0 0 18 18"><title>heart user</title><g fill="none" stroke="currentColor" class="nc-icon-wrapper"><circle cx="13.25" cy="11.75" r="1" stroke="currentColor" stroke-linecap="round" stroke-linejoin="round"></circle><path d="M15.534,9.12c.292-.771,.466-1.608,.466-2.511,.008-2.12-1.704-3.846-3.827-3.859-1.277,.016-2.464,.66-3.173,1.72-.71-1.061-1.896-1.704-3.173-1.72-2.123,.013-3.834,1.739-3.827,3.859,0,4.826,4.959,7.794,6.529,8.613,.004,.002,.009,.003,.014,.005" stroke-linecap="round" stroke-linejoin="round"></path><path d="M15.351,17.25c.34,0,.594-.337,.482-.658-.373-1.072-1.383-1.842-2.583-1.842s-2.21,.77-2.583,1.842c-.112,.321,.142,.658,.482,.658h4.202Z" stroke="currentColor" stroke-linecap="round" stroke-linejoin="round"></path></g></svg>