<svg xmlns="http://www.w3.org/2000/svg" height="18" width="18" viewBox="0 0 18 18"><title>heart 2 lock</title><g fill="none" stroke="currentColor" class="nc-icon-wrapper"><rect x="10.25" y="13.75" width="6" height="3.5" rx="1" ry="1" stroke-linecap="round" stroke-linejoin="round" stroke="currentColor"></rect><path d="M15.448,8.926c.703-.909,.995-2.127,.668-3.37-.181-.688-.575-1.32-1.11-1.79-2.005-1.758-4.933-1.05-6.007,1.162-.171-.353-.396-.677-.666-.962-1.452-1.528-3.867-1.591-5.395-.139-1.528,1.451-1.591,3.867-.139,5.395l4.974,5.168" stroke-linecap="round" stroke-linejoin="round"></path><path d="M11.75,13.75v-1.5c0-.828,.672-1.5,1.5-1.5h0c.828,0,1.5,.672,1.5,1.5v1.5" stroke-linecap="round" stroke-linejoin="round" stroke="currentColor"></path></g></svg>