<svg xmlns="http://www.w3.org/2000/svg" height="18" width="18" viewBox="0 0 18 18"><title>heart lock</title><g fill="none" stroke="currentColor" class="nc-icon-wrapper"><rect x="10.25" y="13.75" width="6" height="3.5" rx="1" ry="1" stroke-linecap="round" stroke-linejoin="round" stroke="currentColor"></rect><path d="M11.75,13.75v-1.5c0-.828,.672-1.5,1.5-1.5h0c.828,0,1.5,.672,1.5,1.5v1.5" stroke-linecap="round" stroke-linejoin="round" stroke="currentColor"></path><path d="M15.566,9.017c.27-.743,.434-1.544,.434-2.408,.008-2.12-1.704-3.846-3.827-3.859-1.277,.016-2.464,.66-3.173,1.72-.71-1.061-1.896-1.704-3.173-1.72-2.123,.013-3.834,1.739-3.827,3.859,0,4.191,3.737,6.979,5.75,8.177" stroke-linecap="round" stroke-linejoin="round"></path></g></svg>