<svg xmlns="http://www.w3.org/2000/svg" height="18" width="18" viewBox="0 0 18 18"><title>hexagon image</title><g fill="none" stroke="currentColor" class="nc-icon-wrapper"><path d="M4.687,14.064l5.149-5.15c.781-.781,2.047-.781,2.828,0l2.301,2.301" stroke="currentColor" stroke-linecap="round" stroke-linejoin="round"></path><path d="M6.527,15.25h4.946c.713,0,1.372-.38,1.73-.997l2.465-4.25c.36-.621,.36-1.386,0-2.007l-2.465-4.25c-.358-.617-1.017-.997-1.73-.997H6.527c-.713,0-1.372,.38-1.73,.997L2.332,7.997c-.36,.621-.36,1.386,0,2.007l2.465,4.25c.358,.617,1.017,.997,1.73,.997Z" stroke-linecap="round" stroke-linejoin="round"></path><circle cx="6.75" cy="7.25" r="1.25" stroke="none" fill="currentColor"></circle></g></svg>