<svg xmlns="http://www.w3.org/2000/svg" height="18" width="18" viewBox="0 0 18 18"><title>highlighter 2</title><g fill="none" stroke="currentColor" class="nc-icon-wrapper"><path d="M7.352,2.991c.179,.643,.344,1.537,.287,2.6-.03,.556-.115,1.052-.218,1.476-.075,.305,.076,.619,.365,.742l1.388,.593,1.388,.593c.289,.123,.62,.016,.789-.249,.234-.368,.534-.772,.915-1.178,.725-.772,1.481-1.271,2.068-1.586" stroke-linecap="round" stroke-linejoin="round"></path><path d="M8,1.247l-.641,1.109c-.193,.33-.052,.755,.3,.905l3.138,1.34,3.138,1.34c.352,.15,.755-.042,.861-.409l.37-1.296" stroke-linecap="round" stroke-linejoin="round"></path><path d="M4.25,10.75h-1c-.828,0-1.5,.672-1.5,1.5h0c0,.828,.672,1.5,1.5,1.5H14.75c.828,0,1.5,.672,1.5,1.5h0c0,.828-.672,1.5-1.5,1.5h-2" stroke="currentColor" stroke-linecap="round" stroke-linejoin="round"></path><polygon points="10.252 8.861 9.494 10.75 6.788 10.75 8.027 7.911 10.252 8.861" stroke-linecap="round" stroke-linejoin="round"></polygon></g></svg>