<svg xmlns="http://www.w3.org/2000/svg" height="18" width="18" viewBox="0 0 18 18"><title>hourglass end</title><g fill="none" stroke="currentColor" class="nc-icon-wrapper"><path d="M4.75,2.25c0,3.86,.557,5.456,2.46,6.75-1.903,1.294-2.46,2.89-2.46,6.75" stroke-linecap="round" stroke-linejoin="round"></path><path d="M13.25,2.25c0,3.86-.557,5.456-2.46,6.75,1.903,1.294,2.46,2.89,2.46,6.75" stroke-linecap="round" stroke-linejoin="round"></path><path d="M9,10.506c-.741,0-1.79,.529-2.109,2.923-.024,.167,.022,.289,.117,.398,.095,.11,.233,.173,.378,.173h3.229c.145,0,.283-.062,.378-.173,.095-.109,.141-.231,.117-.398-.319-2.394-1.368-2.923-2.109-2.923Z" stroke="none" fill="currentColor"></path><line x1="3.75" y1="2.25" x2="14.25" y2="2.25" stroke-linecap="round" stroke-linejoin="round"></line><line x1="3.75" y1="15.75" x2="14.25" y2="15.75" stroke-linecap="round" stroke-linejoin="round"></line></g></svg>