<svg xmlns="http://www.w3.org/2000/svg" height="18" width="18" viewBox="0 0 18 18"><title>hours 24</title><g fill="none" stroke="currentColor" class="nc-icon-wrapper"><path d="M15.548,5.887c1.719,3.616,.181,7.941-3.435,9.661s-7.941,.181-9.661-3.435c-1.719-3.616-.181-7.941,3.435-9.661,2.737-1.301,5.88-.736,7.992,1.183" stroke-linecap="round" stroke-linejoin="round"></path><polyline points="12.985 .8 13.881 3.635 11.047 4.531" stroke-linecap="round" stroke-linejoin="round"></polyline><path d="M4.702,7.905c.212-.754,.942-1.166,1.732-1.154,.789,.012,1.531,.365,1.578,1.154s-.789,1.319-1.655,1.673c-.866,.353-1.584,.683-1.655,1.673h3.312" stroke-linecap="round" stroke-linejoin="round" stroke="currentColor"></path><polyline points="13.606 10.25 10.009 10.25 10.009 9.917 12.75 6.75 12.75 11.25" stroke-linecap="round" stroke-linejoin="round" stroke="currentColor"></polyline></g></svg>