<svg xmlns="http://www.w3.org/2000/svg" height="18" width="18" viewBox="0 0 18 18"><title>house user</title><g fill="none" stroke="currentColor" class="nc-icon-wrapper"><path d="M3.145,6.2l5.25-3.99c.358-.272,.853-.272,1.21,0l5.25,3.99c.249,.189,.395,.484,.395,.796v7.254c0,1.105-.895,2-2,2H4.75c-1.105,0-2-.895-2-2V6.996c0-.313,.146-.607,.395-.796Z" stroke-linecap="round" stroke-linejoin="round"></path><circle cx="9" cy="7.75" r="1" stroke="currentColor" stroke-linecap="round" stroke-linejoin="round"></circle><path d="M11.101,13.25c.34,0,.594-.337,.482-.658-.373-1.072-1.383-1.842-2.583-1.842s-2.21,.77-2.583,1.842c-.112,.321,.142,.658,.482,.658h4.202Z" stroke="currentColor" stroke-linecap="round" stroke-linejoin="round"></path></g></svg>