<svg xmlns="http://www.w3.org/2000/svg" height="18" width="18" viewBox="0 0 18 18"><title>house pin</title><g fill="none" stroke="currentColor" class="nc-icon-wrapper"><circle cx="14.5" cy="13.5" r=".75" stroke="none" fill="currentColor"></circle><path d="M15.25,8.326v-1.33c0-.312-.146-.607-.395-.796l-5.25-3.99c-.358-.272-.853-.272-1.21,0L3.145,6.2c-.249,.189-.395,.484-.395,.796v7.254c0,1.104,.895,2,2,2h5.254" stroke-linecap="round" stroke-linejoin="round"></path><path d="M14.5,17.25s-2.75-1.509-2.75-3.75c0-1.519,1.231-2.75,2.75-2.75s2.75,1.231,2.75,2.75c0,2.241-2.75,3.75-2.75,3.75Z" stroke="currentColor" stroke-linecap="round" stroke-linejoin="round"></path></g></svg>