<svg xmlns="http://www.w3.org/2000/svg" height="18" width="18" viewBox="0 0 18 18"><title>house heart</title><g fill="none" stroke="currentColor" class="nc-icon-wrapper"><path d="M15.25,9.019v-2.023c0-.312-.146-.607-.395-.796l-5.25-3.99c-.358-.272-.853-.272-1.21,0L3.145,6.2c-.249,.189-.395,.484-.395,.796v7.254c0,1.104,.895,2,2,2h4.37" stroke-linecap="round" stroke-linejoin="round"></path><path d="M13.781,17.197c.138,.071,.299,.071,.437,0,.729-.374,3.031-1.73,3.031-3.934,.004-.968-.791-1.757-1.777-1.763-.593,.007-1.144,.301-1.473,.786-.329-.484-.881-.778-1.473-.786-.985,.006-1.78,.794-1.777,1.763,0,2.205,2.303,3.56,3.031,3.934Z" stroke-linecap="round" stroke-linejoin="round" stroke="currentColor"></path></g></svg>