<svg xmlns="http://www.w3.org/2000/svg" height="18" width="18" viewBox="0 0 18 18"><title>house dots</title><g fill="none" stroke="currentColor" class="nc-icon-wrapper"><path d="M13,16c-.551,0-1-.448-1-1s.449-1,1-1,1,.448,1,1-.449,1-1,1Z" stroke="none" fill="currentColor"></path><path d="M10,16c-.551,0-1-.448-1-1s.449-1,1-1,1,.448,1,1-.449,1-1,1Z" stroke="none" fill="currentColor"></path><path d="M15.25,12.369V6.996c0-.312-.146-.607-.395-.796l-5.25-3.99c-.358-.272-.853-.272-1.21,0L3.145,6.2c-.249,.189-.395,.484-.395,.796v7.254c0,1.104,.895,2,2,2h2.826" stroke-linecap="round" stroke-linejoin="round"></path><path d="M16,16c-.551,0-1-.448-1-1s.449-1,1-1,1,.448,1,1-.449,1-1,1Z" stroke="none" fill="currentColor"></path></g></svg>