<svg xmlns="http://www.w3.org/2000/svg" height="18" width="18" viewBox="0 0 18 18"><title>house cloud</title><g fill="none" stroke="currentColor" class="nc-icon-wrapper"><path d="M15.25,10.275v-3.279c0-.312-.146-.607-.395-.796l-5.25-3.99c-.358-.272-.853-.272-1.21,0L3.145,6.2c-.249,.189-.395,.484-.395,.796v7.254c0,1.104,.895,2,2,2h3.538" stroke-linecap="round" stroke-linejoin="round"></path><path d="M15,12.75c-1.131,0-2.058,.837-2.217,1.925-.196-.108-.418-.175-.658-.175-.759,0-1.375,.616-1.375,1.375s.616,1.375,1.375,1.375h2.875c1.243,0,2.25-1.007,2.25-2.25s-1.007-2.25-2.25-2.25Z" stroke-linecap="round" stroke-linejoin="round" stroke="currentColor"></path></g></svg>