<svg xmlns="http://www.w3.org/2000/svg" height="18" width="18" viewBox="0 0 18 18"><title>humidity</title><g fill="none" stroke="currentColor" class="nc-icon-wrapper"><path d="M2,9.75c1.521,0,2-1.5,3.5-1.5s2.021,1.5,3.5,1.5c1.542,0,2.042-1.5,3.5-1.5s2.021,1.5,3.5,1.5" stroke-linecap="round" stroke-linejoin="round" stroke="currentColor"></path><path d="M2,5.75c1.521,0,2-1.5,3.5-1.5s2.021,1.5,3.5,1.5c1.542,0,2.042-1.5,3.5-1.5s2.021,1.5,3.5,1.5" stroke-linecap="round" stroke-linejoin="round"></path><path d="M2,13.75c1.521,0,2-1.5,3.5-1.5s2.021,1.5,3.5,1.5c1.542,0,2.042-1.5,3.5-1.5s2.021,1.5,3.5,1.5" stroke-linecap="round" stroke-linejoin="round"></path></g></svg>