<svg xmlns="http://www.w3.org/2000/svg" height="18" width="18" viewBox="0 0 18 18"><title>input field</title><g fill="none" stroke="currentColor" class="nc-icon-wrapper"><path d="M11.25,13.25H3.75c-1.105,0-2-.895-2-2V6.75c0-1.105,.895-2,2-2h7.5" stroke-linecap="round" stroke-linejoin="round"></path><path d="M14,4.75h.25c1.105,0,2,.895,2,2v4.5c0,1.105-.895,2-2,2h-.25" stroke-linecap="round" stroke-linejoin="round"></path><line x1="11.25" y1="3.75" x2="11.25" y2="14.25" stroke-linecap="round" stroke-linejoin="round" stroke="currentColor"></line><path d="M9.25,1.75c1.105,0,2,.895,2,2" stroke-linecap="round" stroke-linejoin="round" stroke="currentColor"></path><path d="M13.25,1.75c-1.105,0-2,.895-2,2" stroke-linecap="round" stroke-linejoin="round" stroke="currentColor"></path><path d="M9.25,16.25c1.105,0,2-.895,2-2" stroke-linecap="round" stroke-linejoin="round" stroke="currentColor"></path><path d="M13.25,16.25c-1.105,0-2-.895-2-2" stroke-linecap="round" stroke-linejoin="round" stroke="currentColor"></path><line x1="9.75" y1="9.75" x2="12.75" y2="9.75" stroke-linecap="round" stroke-linejoin="round" stroke="currentColor"></line></g></svg>