<svg xmlns="http://www.w3.org/2000/svg" height="18" width="18" viewBox="0 0 18 18"><title>install 2</title><g fill="none" stroke="currentColor" class="nc-icon-wrapper"><path d="M12,2.75h2.25c1.105,0,2,.895,2,2v6.5c0,1.105-.895,2-2,2H3.75c-1.105,0-2-.895-2-2V4.75c0-1.105,.895-2,2-2h2.25" stroke-linecap="round" stroke-linejoin="round"></path><path d="M5.75,16.25c.758-.239,1.878-.5,3.25-.5,.795,0,1.941,.088,3.25,.5" stroke-linecap="round" stroke-linejoin="round"></path><line x1="9" y1="13.25" x2="9" y2="15.75" stroke-linecap="round" stroke-linejoin="round"></line><polyline points="11.5 6.75 9 9.25 6.5 6.75" stroke-linecap="round" stroke-linejoin="round" stroke="currentColor"></polyline><line x1="9" y1="9.25" x2="9" y2=".75" stroke-linecap="round" stroke-linejoin="round" stroke="currentColor"></line></g></svg>