<svg xmlns="http://www.w3.org/2000/svg" height="18" width="18" viewBox="0 0 18 18"><title>investment</title><g fill="none" stroke="currentColor" class="nc-icon-wrapper"><circle cx="9" cy="3.75" r="3" stroke-linecap="round" stroke-linejoin="round" stroke="currentColor"></circle><line x1="9" y1="3" x2="9" y2="4.5" stroke-linecap="round" stroke-linejoin="round" stroke="currentColor"></line><path d="M5,13.25H13l-.716,2.864c-.167,.668-.767,1.136-1.455,1.136h-3.658c-.688,0-1.288-.468-1.455-1.136l-.716-2.864Z" stroke-linecap="round" stroke-linejoin="round"></path><path d="M8.103,10.01c-.133,.085-1.995,1.242-3.978,.334-1.486-.68-2.022-2.053-2.125-2.336,.156-.051,3.018-.924,5.219,.992,1.625,1.415,1.762,3.371,1.781,3.75v.5" stroke-linecap="round" stroke-linejoin="round"></path><path d="M9.897,10.01c.133,.085,1.995,1.242,3.978,.334,1.486-.68,2.022-2.053,2.125-2.336-.156-.051-3.018-.924-5.219,.992-1.625,1.415-1.762,3.371-1.781,3.75v.5" stroke-linecap="round" stroke-linejoin="round"></path></g></svg>