<svg xmlns="http://www.w3.org/2000/svg" height="18" width="18" viewBox="0 0 18 18"><title>investment 2</title><g fill="none" stroke="currentColor" class="nc-icon-wrapper"><path d="M9,10.75V5.25c0-2.209-1.791-4-4-4h-1.25c-.025,1.512,.727,2.912,1.979,3.65,1.486,.876,3.014,.43,3.271,.35" stroke-linecap="round" stroke-linejoin="round" stroke="currentColor"></path><path d="M9,7.27h0c0-2.209,1.791-4,4-4h1.25c.025,1.512-.727,2.912-1.979,3.65-1.486,.876-3.271,.35-3.271,.35Z" stroke-linecap="round" stroke-linejoin="round" stroke="currentColor"></path><rect x="5.75" y="10.75" width="6.5" height="3" rx="1" ry="1" stroke-linecap="round" stroke-linejoin="round"></rect><rect x="5.75" y="13.75" width="6.5" height="3" rx="1" ry="1" stroke-linecap="round" stroke-linejoin="round"></rect><path d="M3.5,15.75h-.75c-.552,0-1-.448-1-1v-1c0-.552,.448-1,1-1h.75" stroke-linecap="round" stroke-linejoin="round"></path><path d="M14.5,15.75h.75c.552,0,1-.448,1-1v-1c0-.552-.448-1-1-1h-.75" stroke-linecap="round" stroke-linejoin="round"></path></g></svg>