<svg xmlns="http://www.w3.org/2000/svg" height="18" width="18" viewBox="0 0 18 18"><title>investment 3</title><g fill="none" stroke="currentColor" class="nc-icon-wrapper"><line x1="9" y1="16.75" x2="9" y2="10.75" stroke-linecap="round" stroke-linejoin="round" stroke="currentColor"></line><path d="M14.25,12.75h-1.25c-2.209,0-4,1.791-4,4h0s1.25,0,1.25,0c2.209,0,4-1.791,4-4h0Z" stroke-linecap="round" stroke-linejoin="round" stroke="currentColor"></path><circle cx="9" cy="6" r="1.75" stroke-linecap="round" stroke-linejoin="round" stroke="currentColor"></circle><rect x="2.25" y="1.75" width="13.5" height="8.5" rx="1.5" ry="1.5" stroke-linecap="round" stroke-linejoin="round"></rect><path d="M5.25,1.75c0,1.657-1.343,3-3,3" stroke-linecap="round" stroke-linejoin="round"></path><path d="M12.75,1.75c0,1.657,1.343,3,3,3" stroke-linecap="round" stroke-linejoin="round"></path><path d="M5.25,10.25c0-1.657-1.343-3-3-3" stroke-linecap="round" stroke-linejoin="round"></path><path d="M12.75,10.25c0-1.657,1.343-3,3-3" stroke-linecap="round" stroke-linejoin="round"></path></g></svg>