<svg xmlns="http://www.w3.org/2000/svg" height="18" width="18" viewBox="0 0 18 18"><title>invoice dollar</title><g fill="none" stroke="currentColor" class="nc-icon-wrapper"><path d="M14.75,3.75v12.5l-2.75-1.5-3,1.5-3-1.5-2.75,1.5V3.75c0-1.105,.895-2,2-2h7.5c1.105,0,2,.895,2,2Z" stroke-linecap="round" stroke-linejoin="round"></path><path d="M10.724,6.556c-.374-.885-1.122-1.086-1.688-1.086-.526,0-1.907,.28-1.779,1.606,.09,.931,.967,1.277,1.734,1.414s1.88,.429,1.907,1.551c.023,.949-.83,1.597-1.861,1.597-.985,0-1.67-.383-1.934-1.25" stroke-linecap="round" stroke-linejoin="round" stroke="currentColor"></path><line x1="9" y1="4.75" x2="9" y2="5.47" stroke-linecap="round" stroke-linejoin="round" stroke="currentColor"></line><line x1="9" y1="11.638" x2="9" y2="12.25" stroke-linecap="round" stroke-linejoin="round" stroke="currentColor"></line></g></svg>