<svg xmlns="http://www.w3.org/2000/svg" height="18" width="18" viewBox="0 0 18 18"><title>isolated cube</title><g fill="none" stroke="currentColor" class="nc-icon-wrapper"><circle cx="2" cy="2" r="1" stroke="none" fill="currentColor"></circle><circle cx="16" cy="2" r="1" stroke="none" fill="currentColor"></circle><circle cx="2" cy="16" r="1" stroke="none" fill="currentColor"></circle><circle cx="16" cy="16" r="1" stroke="none" fill="currentColor"></circle><path d="M8.157,3.399l-3.57,2.071c-.518,.301-.837,.854-.837,1.453v4.155c0,.599,.319,1.153,.837,1.453l3.57,2.071c.521,.302,1.165,.302,1.686,0l3.57-2.071c.518-.301,.837-.854,.837-1.453V6.923c0-.599-.319-1.153-.837-1.453l-3.57-2.071c-.521-.302-1.165-.302-1.686,0Z" stroke-linecap="round" stroke-linejoin="round"></path><polyline points="14.026 6.085 9 9 3.974 6.085" stroke-linecap="round" stroke-linejoin="round"></polyline><line x1="9" y1="14.828" x2="9" y2="9" stroke-linecap="round" stroke-linejoin="round"></line></g></svg>