<svg xmlns="http://www.w3.org/2000/svg" height="18" width="18" viewBox="0 0 18 18"><title>joystick</title><g fill="none" stroke="currentColor" class="nc-icon-wrapper"><circle cx="9" cy="4" r="2.25" stroke-linecap="round" stroke-linejoin="round" stroke="currentColor"></circle><line x1="9" y1="6.25" x2="9" y2="10.5" stroke-linecap="round" stroke-linejoin="round" stroke="currentColor"></line><path d="M11.628,8.68l2.147,1.057c.633,.311,.633,1.214,0,1.525l-4.338,2.135c-.138,.068-.288,.102-.438,.102h0c-.15,0-.3-.034-.438-.102l-4.338-2.135c-.633-.311-.633-1.214,0-1.525l2.147-1.057" stroke-linecap="round" stroke-linejoin="round"></path><path d="M14.25,10.5v2.75c0,.303-.158,.607-.475,.763l-4.338,2.135c-.276,.136-.6,.136-.876,0l-4.338-2.135c-.316-.156-.475-.459-.475-.763v-2.75" stroke-linecap="round" stroke-linejoin="round"></path></g></svg>