<svg xmlns="http://www.w3.org/2000/svg" height="18" width="18" viewBox="0 0 18 18"><title>keyboard 2 mouse</title><g fill="none" stroke="currentColor" class="nc-icon-wrapper"><line x1="9.008" y1="10.25" x2="6.75" y2="10.25" stroke="currentColor" stroke-linecap="round" stroke-linejoin="round"></line><rect x="6.875" y="7" width="1.5" height="1.5" rx=".5" ry=".5" stroke="none" fill="currentColor"></rect><rect x="4.125" y="7" width="1.5" height="1.5" rx=".5" ry=".5" stroke="none" fill="currentColor"></rect><rect x="9.625" y="7" width="1.5" height="1.5" rx=".5" ry=".5" stroke="none" fill="currentColor"></rect><rect x="12.375" y="7" width="1.5" height="1.5" rx=".5" ry=".5" stroke="none" fill="currentColor"></rect><rect x="5.5" y="5" width="1.5" height="1.5" rx=".5" ry=".5" stroke="none" fill="currentColor"></rect><rect x="8.25" y="5" width="1.5" height="1.5" rx=".5" ry=".5" stroke="none" fill="currentColor"></rect><rect x="11" y="5" width="1.5" height="1.5" rx=".5" ry=".5" stroke="none" fill="currentColor"></rect><path d="M16.25,7.74v-2.99c0-1.104-.895-2-2-2H3.75c-1.105,0-2,.896-2,2v6.5c0,1.104,.895,2,2,2h5" stroke-linecap="round" stroke-linejoin="round"></path><rect x="11.25" y="9.75" width="5" height="7.5" rx="2" ry="2" stroke="currentColor" stroke-linecap="round" stroke-linejoin="round"></rect><line x1="13.75" y1="13.25" x2="13.75" y2="12.25" stroke="currentColor" stroke-linecap="round" stroke-linejoin="round"></line></g></svg>