<svg xmlns="http://www.w3.org/2000/svg" height="18" width="18" viewBox="0 0 18 18"><title>keyboard 3</title><g fill="none" stroke="currentColor" class="nc-icon-wrapper"><rect x="4.5" y="8.5" width="2" height="2" rx=".75" ry=".75" fill="currentColor" stroke="none"></rect><rect x="1" y="8.5" width="2" height="2" rx=".75" ry=".75" fill="currentColor" stroke="none"></rect><rect x="8" y="8.5" width="2" height="2" rx=".75" ry=".75" fill="currentColor" stroke="none"></rect><rect x="11.5" y="8.5" width="2" height="2" rx=".75" ry=".75" fill="currentColor" stroke="none"></rect><rect x="6.25" y="5" width="2" height="2" rx=".75" ry=".75" fill="currentColor" stroke="none"></rect><rect x="2.75" y="5" width="2" height="2" rx=".75" ry=".75" fill="currentColor" stroke="none"></rect><rect x="9.75" y="5" width="2" height="2" rx=".75" ry=".75" fill="currentColor" stroke="none"></rect><rect x="13.25" y="5" width="2" height="2" rx=".75" ry=".75" fill="currentColor" stroke="none"></rect><rect x="15" y="8.5" width="2" height="2" rx=".75" ry=".75" fill="currentColor" stroke="none"></rect><line x1="4.5" y1="12.75" x2="13.5" y2="12.75" stroke="currentColor" stroke-linecap="round" stroke-linejoin="round"></line></g></svg>