<svg xmlns="http://www.w3.org/2000/svg" height="18" width="18" viewBox="0 0 18 18"><title>keyboard hide down</title><g fill="none" stroke="currentColor" class="nc-icon-wrapper"><rect x=".75" y="2.75" width="16.5" height="8.5" rx="2" ry="2" stroke-linecap="round" stroke-linejoin="round"></rect><line x1="11.75" y1="8.25" x2="6.25" y2="8.25" stroke="currentColor" stroke-linecap="round" stroke-linejoin="round"></line><rect x="3" y="5" width="1.5" height="1.5" rx=".5" ry=".5" stroke="none" fill="currentColor"></rect><rect x="3" y="7.5" width="1.5" height="1.5" rx=".5" ry=".5" stroke="none" fill="currentColor"></rect><rect x="5.5" y="5" width="1.5" height="1.5" rx=".5" ry=".5" stroke="none" fill="currentColor"></rect><rect x="8.25" y="5" width="1.5" height="1.5" rx=".5" ry=".5" stroke="none" fill="currentColor"></rect><rect x="13.5" y="5" width="1.5" height="1.5" rx=".5" ry=".5" stroke="none" fill="currentColor"></rect><rect x="13.5" y="7.5" width="1.5" height="1.5" rx=".5" ry=".5" stroke="none" fill="currentColor"></rect><rect x="11" y="5" width="1.5" height="1.5" rx=".5" ry=".5" stroke="none" fill="currentColor"></rect><polyline points="11.5 13.75 9 16.25 6.5 13.75" stroke="currentColor" stroke-linecap="round" stroke-linejoin="round"></polyline></g></svg>