<svg xmlns="http://www.w3.org/2000/svg" height="18" width="18" viewBox="0 0 18 18"><title>keyboard wireless</title><g fill="none" stroke="currentColor" class="nc-icon-wrapper"><rect x=".75" y="6.75" width="16.5" height="8.5" rx="2" ry="2" stroke-linecap="round" stroke-linejoin="round"></rect><line x1="11.75" y1="12.25" x2="6.25" y2="12.25" stroke="currentColor" stroke-linecap="round" stroke-linejoin="round"></line><rect x="3" y="9" width="1.5" height="1.5" rx=".5" ry=".5" stroke="none" fill="currentColor"></rect><rect x="3" y="11.5" width="1.5" height="1.5" rx=".5" ry=".5" stroke="none" fill="currentColor"></rect><rect x="5.5" y="9" width="1.5" height="1.5" rx=".5" ry=".5" stroke="none" fill="currentColor"></rect><rect x="8.25" y="9" width="1.5" height="1.5" rx=".5" ry=".5" stroke="none" fill="currentColor"></rect><rect x="13.5" y="9" width="1.5" height="1.5" rx=".5" ry=".5" stroke="none" fill="currentColor"></rect><rect x="13.5" y="11.5" width="1.5" height="1.5" rx=".5" ry=".5" stroke="none" fill="currentColor"></rect><rect x="11" y="9" width="1.5" height="1.5" rx=".5" ry=".5" stroke="none" fill="currentColor"></rect><path d="M7.939,4.189c.586-.586,1.536-.586,2.121,0" stroke="currentColor" stroke-linecap="round" stroke-linejoin="round"></path><path d="M5.818,2.068c1.757-1.757,4.607-1.757,6.364,0" stroke="currentColor" stroke-linecap="round" stroke-linejoin="round"></path></g></svg>