<svg xmlns="http://www.w3.org/2000/svg" height="18" width="18" viewBox="0 0 18 18"><title>keyboard 4 mouse</title><g fill="none" stroke="currentColor" class="nc-icon-wrapper"><path d="M8.75,12.25H3.75c-1.105,0-2-.895-2-2V5.75c0-1.105,.895-2,2-2H14.25c1.105,0,2,.895,2,2v1" stroke-linecap="round" stroke-linejoin="round"></path><line x1="9" y1="9.25" x2="6.75" y2="9.25" stroke="currentColor" stroke-linecap="round" stroke-linejoin="round"></line><rect x="6.875" y="6" width="1.5" height="1.5" rx=".5" ry=".5" stroke="none" fill="currentColor"></rect><rect x="4.125" y="6" width="1.5" height="1.5" rx=".5" ry=".5" stroke="none" fill="currentColor"></rect><rect x="9.625" y="6" width="1.5" height="1.5" rx=".5" ry=".5" stroke="none" fill="currentColor"></rect><rect x="12.375" y="6" width="1.5" height="1.5" rx=".5" ry=".5" stroke="none" fill="currentColor"></rect><rect x="11.25" y="8.75" width="5" height="7.5" rx="2" ry="2" stroke="currentColor" stroke-linecap="round" stroke-linejoin="round"></rect><line x1="13.75" y1="12.25" x2="13.75" y2="11.25" stroke="currentColor" stroke-linecap="round" stroke-linejoin="round"></line></g></svg>