<svg xmlns="http://www.w3.org/2000/svg" height="18" width="18" viewBox="0 0 18 18"><title>keyboard 2 hide down</title><g fill="none" stroke="currentColor" class="nc-icon-wrapper"><rect x="1.75" y="1.75" width="14.5" height="10.5" rx="2" ry="2" stroke-linecap="round" stroke-linejoin="round"></rect><line x1="11.25" y1="9.25" x2="6.75" y2="9.25" stroke="currentColor" stroke-linecap="round" stroke-linejoin="round"></line><rect x="6.875" y="6" width="1.5" height="1.5" rx=".5" ry=".5" stroke="none" fill="currentColor"></rect><rect x="4.125" y="6" width="1.5" height="1.5" rx=".5" ry=".5" stroke="none" fill="currentColor"></rect><rect x="9.625" y="6" width="1.5" height="1.5" rx=".5" ry=".5" stroke="none" fill="currentColor"></rect><rect x="12.375" y="6" width="1.5" height="1.5" rx=".5" ry=".5" stroke="none" fill="currentColor"></rect><rect x="5.5" y="4" width="1.5" height="1.5" rx=".5" ry=".5" stroke="none" fill="currentColor"></rect><rect x="8.25" y="4" width="1.5" height="1.5" rx=".5" ry=".5" stroke="none" fill="currentColor"></rect><rect x="11" y="4" width="1.5" height="1.5" rx=".5" ry=".5" stroke="none" fill="currentColor"></rect><polyline points="11.5 14.75 9 17.25 6.5 14.75" stroke="currentColor" stroke-linecap="round" stroke-linejoin="round"></polyline></g></svg>