<svg xmlns="http://www.w3.org/2000/svg" height="18" width="18" viewBox="0 0 18 18"><title>keys up down</title><g fill="none" stroke="currentColor" class="nc-icon-wrapper"><rect x="5.5" y=".5" width="7" height="7.5" rx="1.5" ry="1.5" transform="translate(13.25 -4.75) rotate(90)" stroke-linecap="round" stroke-linejoin="round"></rect><path d="M16.75,12.75c-.828,0-1.5-.672-1.5-1.5V6.75c0-.828,.672-1.5,1.5-1.5" stroke-linecap="round" stroke-linejoin="round"></path><path d="M1.25,12.75c.828,0,1.5-.672,1.5-1.5V6.75c0-.828-.672-1.5-1.5-1.5" stroke-linecap="round" stroke-linejoin="round"></path><rect x="5.5" y="10" width="7" height="7.5" rx="1.5" ry="1.5" transform="translate(22.75 4.75) rotate(90)" stroke-linecap="round" stroke-linejoin="round"></rect><polyline points="10.25 4.5 9 3.25 7.75 4.5" stroke-linecap="round" stroke-linejoin="round" stroke="currentColor"></polyline><polyline points="10.25 13.5 9 14.75 7.75 13.5" stroke-linecap="round" stroke-linejoin="round" stroke="currentColor"></polyline></g></svg>