<svg xmlns="http://www.w3.org/2000/svg" height="18" width="18" viewBox="0 0 18 18"><title>layers minus</title><g fill="none" stroke="currentColor" class="nc-icon-wrapper"><path d="M2.665,8.961l5.87-3.091c.292-.154,.64-.154,.932,0l5.87,3.091c.534,.281,.534,1.046,0,1.327l-5.87,3.091c-.292,.154-.64,.154-.932,0l-5.87-3.091c-.534-.281-.534-1.046,0-1.327Z" stroke-linecap="round" stroke-linejoin="round"></path><path d="M15.736,12.875c0,.261-.134,.523-.401,.664l-5.87,3.091c-.292,.154-.64,.154-.932,0l-5.87-3.091c-.267-.141-.401-.402-.401-.664" stroke-linecap="round" stroke-linejoin="round" stroke="currentColor"></path><line x1="17.25" y1="3.25" x2="12.25" y2="3.25" stroke-linecap="round" stroke-linejoin="round" stroke="currentColor"></line></g></svg>