<svg xmlns="http://www.w3.org/2000/svg" height="18" width="18" viewBox="0 0 18 18"><title>layer back</title><g fill="none" stroke="currentColor" class="nc-icon-wrapper"><path d="M6.5,12.059l-3.837-2.02c-.267-.141-.401-.402-.401-.664" stroke-linecap="round" stroke-linejoin="round"></path><path d="M15.736,9.375c0,.261-.134,.523-.401,.664l-3.835,2.02" stroke-linecap="round" stroke-linejoin="round"></path><line x1="9" y1="6" x2="9" y2="17" stroke-linecap="round" stroke-linejoin="round" stroke="currentColor"></line><polyline points="11.25 15 9 17.25 6.75 15" stroke-linecap="round" stroke-linejoin="round" stroke="currentColor"></polyline><path d="M11.5,8.809l3.837-2.021c.534-.281,.534-1.046,0-1.327l-5.87-3.091c-.292-.154-.64-.154-.932,0L2.665,5.461c-.534,.281-.534,1.046,0,1.327l3.835,2.019" stroke-linecap="round" stroke-linejoin="round"></path></g></svg>