<svg xmlns="http://www.w3.org/2000/svg" height="18" width="18" viewBox="0 0 18 18"><title>layer front</title><g fill="none" stroke="currentColor" class="nc-icon-wrapper"><path d="M15.736,11.875c0,.261-.134,.523-.401,.664l-5.87,3.091c-.292,.154-.64,.154-.932,0l-5.87-3.091c-.267-.141-.401-.402-.401-.664" stroke-linecap="round" stroke-linejoin="round"></path><line x1="9" y1="8.25" x2="9" y2="1" stroke-linecap="round" stroke-linejoin="round" stroke="currentColor"></line><polyline points="6.75 3 9 .75 11.25 3" stroke-linecap="round" stroke-linejoin="round" stroke="currentColor"></polyline><path d="M6.5,5.942l-3.835,2.019c-.534,.281-.534,1.046,0,1.327l5.87,3.091c.292,.154,.64,.154,.932,0l5.87-3.091c.534-.281,.534-1.046,0-1.327l-3.837-2.021" stroke-linecap="round" stroke-linejoin="round"></path></g></svg>