<svg xmlns="http://www.w3.org/2000/svg" height="18" width="18" viewBox="0 0 18 18"><title>levels</title><g fill="none" stroke="currentColor" class="nc-icon-wrapper"><line x1="3.25" y1="9.25" x2="3.25" y2="3.75" stroke-linecap="round" stroke-linejoin="round"></line><line x1="15.25" y1="9.25" x2="15.25" y2="1.75" stroke-linecap="round" stroke-linejoin="round"></line><line x1="12.25" y1="9.25" x2="12.25" y2="2.75" stroke-linecap="round" stroke-linejoin="round"></line><line x1="9.25" y1="9.25" x2="9.25" y2="5.75" stroke-linecap="round" stroke-linejoin="round"></line><line x1="6.25" y1="9.25" x2="6.25" y2="1.75" stroke-linecap="round" stroke-linejoin="round"></line><path d="M1.75,13.75l1.75-2,1.75,2v1.5c0,.552-.448,1-1,1h-1.5c-.552,0-1-.448-1-1v-1.5Z" stroke-linecap="round" stroke-linejoin="round" stroke="currentColor"></path><path d="M12.75,13.75l1.75-2,1.75,2v1.5c0,.552-.448,1-1,1h-1.5c-.552,0-1-.448-1-1v-1.5Z" stroke-linecap="round" stroke-linejoin="round" stroke="currentColor"></path></g></svg>