<svg xmlns="http://www.w3.org/2000/svg" height="18" width="18" viewBox="0 0 18 18"><title>light switch</title><g fill="none" stroke="currentColor" class="nc-icon-wrapper"><line x1="5.75" y1="8.75" x2="12.25" y2="8.75" stroke-linecap="round" stroke-linejoin="round"></line><path d="M13.144,14.36l-.289,1.136c-.113,.443-.512,.754-.969,.754h-2.886s-2.886,0-2.886,0c-.457,0-.856-.31-.969-.754l-.289-1.136" stroke-linecap="round" stroke-linejoin="round" stroke="currentColor"></path><path d="M6.25,1.75h5.5c.276,0,.5,.224,.5,.5v6.5l.899,5.418c.051,.305-.184,.582-.493,.582H5.344c-.309,0-.544-.277-.493-.582l.899-5.418V2.25c0-.276,.224-.5,.5-.5Z" stroke-linecap="round" stroke-linejoin="round"></path></g></svg>