<svg xmlns="http://www.w3.org/2000/svg" height="18" width="18" viewBox="0 0 18 18"><title>link 2 slash</title><g fill="none" stroke="currentColor" class="nc-icon-wrapper"><path d="M4.75,13.25h-1.5c-1.105,0-2-.895-2-2V6.75c0-1.105,.895-2,2-2h2.5c1.105,0,2,.895,2,2" stroke-linecap="round" stroke-linejoin="round"></path><path d="M16,5.189c.457,.367,.75,.93,.75,1.561v4.5c0,1.105-.895,2-2,2h-2.5c-1.105,0-2-.895-2-2" stroke-linecap="round" stroke-linejoin="round"></path><path d="M10.25,6.75c0-1.105,.895-2,2-2h1" stroke-linecap="round" stroke-linejoin="round"></path><line x1="11.75" y1="9" x2="13" y2="9" stroke-linecap="round" stroke-linejoin="round" stroke="currentColor"></line><line x1="5" y1="9" x2="9" y2="9" stroke-linecap="round" stroke-linejoin="round" stroke="currentColor"></line><line x1="2" y1="16" x2="16" y2="2" stroke-linecap="round" stroke-linejoin="round" stroke="currentColor"></line></g></svg>