<svg xmlns="http://www.w3.org/2000/svg" height="18" width="18" viewBox="0 0 18 18"><title>link 6</title><g fill="none" stroke="currentColor" class="nc-icon-wrapper"><path d="M8.5,6.827c-.352,.168-.682,.398-.973,.69l-.01,.01c-1.381,1.381-1.381,3.619,0,5l2.175,2.175c1.381,1.381,3.619,1.381,5,0l.01-.01c1.381-1.381,1.381-3.619,0-5l-.931-.931" stroke-linecap="round" stroke-linejoin="round" stroke="currentColor"></path><path d="M9.5,11.173c.352-.168,.682-.398,.973-.69l.01-.01c1.381-1.381,1.381-3.619,0-5l-2.175-2.175c-1.381-1.381-3.619-1.381-5,0l-.01,.01c-1.381,1.381-1.381,3.619,0,5l.931,.931" stroke-linecap="round" stroke-linejoin="round"></path></g></svg>