<svg xmlns="http://www.w3.org/2000/svg" height="18" width="18" viewBox="0 0 18 18"><title>link 5 slash</title><g fill="none" stroke="currentColor" class="nc-icon-wrapper"><line x1="10.768" y1="10.768" x2="11.75" y2="11.75" stroke-linecap="round" stroke-linejoin="round" stroke="currentColor"></line><line x1="6.25" y1="6.25" x2="9" y2="9" stroke-linecap="round" stroke-linejoin="round" stroke="currentColor"></line><path d="M9.518,4.947c-.097-.214-.227-.417-.404-.594l-2.018-2.018c-.781-.781-2.047-.781-2.828,0l-1.932,1.932c-.781,.781-.781,2.047,0,2.828l2.018,2.018c.176,.176,.379,.307,.594,.404" stroke-linecap="round" stroke-linejoin="round"></path><path d="M13.053,8.482c.214,.097,.417,.227,.594,.404l2.018,2.018c.781,.781,.781,2.047,0,2.828l-1.932,1.932c-.781,.781-2.047,.781-2.828,0l-2.018-2.018c-.176-.176-.307-.379-.404-.594" stroke-linecap="round" stroke-linejoin="round"></path><line x1="2" y1="16" x2="16" y2="2" stroke-linecap="round" stroke-linejoin="round" stroke="currentColor"></line></g></svg>