<svg xmlns="http://www.w3.org/2000/svg" height="18" width="18" viewBox="0 0 18 18"><title>link slash</title><g fill="none" stroke="currentColor" class="nc-icon-wrapper"><path d="M9.75,11.423c.352-.168,.682-.398,.973-.69l.01-.01c.426-.426,.721-.934,.884-1.473" stroke-linecap="round" stroke-linejoin="round"></path><path d="M11.384,6.617c-.164-.322-.381-.624-.65-.893l-2.425-2.425c-1.381-1.381-3.619-1.381-5,0l-.01,.01c-1.381,1.381-1.381,3.619,0,5l.931,.931" stroke-linecap="round" stroke-linejoin="round"></path><path d="M9.75,11.423c.352-.168,.682-.398,.973-.69l.01-.01c.492-.492,.808-1.092,.95-1.723" stroke-linecap="round" stroke-linejoin="round"></path><path d="M6.616,11.383c.164,.322,.381,.624,.65,.893l2.425,2.425c1.381,1.381,3.619,1.381,5,0l.01-.01c1.381-1.381,1.381-3.619,0-5l-.931-.931" stroke-linecap="round" stroke-linejoin="round"></path><path d="M8.25,6.577c-.352,.168-.682,.398-.973,.69l-.01,.01c-.492,.492-.808,1.092-.95,1.723" stroke-linecap="round" stroke-linejoin="round"></path><line x1="2" y1="16" x2="16" y2="2" stroke-linecap="round" stroke-linejoin="round" stroke="currentColor"></line></g></svg>