<svg xmlns="http://www.w3.org/2000/svg" height="18" width="18" viewBox="0 0 18 18"><title>link plus</title><g fill="none" stroke="currentColor" class="nc-icon-wrapper"><line x1="14.25" y1="1.25" x2="14.25" y2="6.25" stroke-linecap="round" stroke-linejoin="round" stroke="currentColor"></line><line x1="16.75" y1="3.75" x2="11.75" y2="3.75" stroke-linecap="round" stroke-linejoin="round" stroke="currentColor"></line><path d="M8,7.327c-.352,.168-.682,.398-.973,.69l-.01,.01c-1.381,1.381-1.381,3.619,0,5l2.175,2.175c1.381,1.381,3.619,1.381,5,0l.01-.01c1.381-1.381,1.381-3.619,0-5l-.931-.931" stroke-linecap="round" stroke-linejoin="round"></path><path d="M9,11.673c.352-.168,.682-.398,.973-.69l.01-.01c1.381-1.381,1.381-3.619,0-5l-2.175-2.175c-1.381-1.381-3.619-1.381-5,0l-.01,.01c-1.381,1.381-1.381,3.619,0,5l.931,.931" stroke-linecap="round" stroke-linejoin="round"></path></g></svg>