<svg xmlns="http://www.w3.org/2000/svg" height="18" width="18" viewBox="0 0 18 18"><title>link 2</title><g fill="none" stroke="currentColor" class="nc-icon-wrapper"><path d="M7.75,11.25c0,1.105-.895,2-2,2H3.25c-1.105,0-2-.895-2-2V6.75c0-1.105,.895-2,2-2h2.5c1.105,0,2,.895,2,2" stroke-linecap="round" stroke-linejoin="round"></path><path d="M10.25,6.75c0-1.105,.895-2,2-2h2.5c1.105,0,2,.895,2,2v4.5c0,1.105-.895,2-2,2h-2.5c-1.105,0-2-.895-2-2" stroke-linecap="round" stroke-linejoin="round"></path><line x1="5.75" y1="9" x2="12.25" y2="9" stroke-linecap="round" stroke-linejoin="round" stroke="currentColor"></line></g></svg>