<svg xmlns="http://www.w3.org/2000/svg" height="18" width="18" viewBox="0 0 18 18"><title>magnifier sparkle</title><g fill="none" stroke="currentColor" class="nc-icon-wrapper"><line x1="15.25" y1="15.25" x2="11.285" y2="11.285" stroke-linecap="round" stroke-linejoin="round"></line><circle cx="7.75" cy="7.75" r="5" stroke-linecap="round" stroke-linejoin="round"></circle><path d="M9.908,7.258l-1.263-.421-.421-1.263c-.137-.408-.812-.408-.949,0l-.421,1.263-1.263,.421c-.204,.068-.342,.259-.342,.474s.138,.406,.342,.474l1.263,.421,.421,1.263c.068,.204,.26,.342,.475,.342s.406-.138,.475-.342l.421-1.263,1.263-.421c.204-.068,.342-.259,.342-.474s-.138-.406-.342-.474Z" stroke="none" fill="currentColor"></path></g></svg>