<svg xmlns="http://www.w3.org/2000/svg" height="18" width="18" viewBox="0 0 18 18"><title>magnifier alert</title><g fill="none" stroke="currentColor" class="nc-icon-wrapper"><path d="M11.001,11.384c-.882,1.42-2.456,2.366-4.251,2.366-2.761,0-5-2.239-5-5S3.989,3.75,6.75,3.75c.084,0,.167,.002,.25,.006" stroke-linecap="round" stroke-linejoin="round"></path><line x1="14.25" y1="16.25" x2="10.285" y2="12.285" stroke-linecap="round" stroke-linejoin="round"></line><path d="M14.5,8.25h.433c.788,0,1.267-.869,.845-1.535l-2.933-4.631c-.393-.62-1.297-.62-1.69,0l-2.933,4.631c-.422,.666,.057,1.535,.845,1.535h.433" stroke="currentColor" stroke-linecap="round" stroke-linejoin="round"></path><line x1="12" y1="4.75" x2="12" y2="6.75" stroke="currentColor" stroke-linecap="round" stroke-linejoin="round"></line><circle cx="12" cy="9.25" r=".75" stroke="none" fill="currentColor"></circle></g></svg>