<svg xmlns="http://www.w3.org/2000/svg" height="18" width="18" viewBox="0 0 18 18"><title>magnifier star 2</title><g fill="none" stroke="currentColor" class="nc-icon-wrapper"><line x1="15.25" y1="15.5" x2="11.285" y2="11.535" stroke-linecap="round" stroke-linejoin="round"></line><circle cx="7.75" cy="8" r="5" stroke-linecap="round" stroke-linejoin="round"></circle><path d="M10.473,7.103c-.044-.136-.161-.235-.303-.255l-1.439-.209-.645-1.305c-.125-.256-.547-.256-.672,0l-.645,1.305-1.439,.209c-.142,.021-.259,.12-.303,.255s-.008,.285,.095,.384l1.042,1.016-.245,1.434c-.024,.141,.033,.283,.148,.367,.115,.084,.269,.095,.396,.029l1.287-.677,1.287,.677c.055,.029,.115,.043,.175,.043,.078,0,.155-.024,.221-.072,.115-.084,.173-.226,.148-.367l-.245-1.434,1.042-1.016c.103-.1,.139-.249,.095-.384Z" stroke="none" fill="currentColor"></path></g></svg>