<svg xmlns="http://www.w3.org/2000/svg" height="18" width="18" viewBox="0 0 18 18"><title>magnet bolt</title><g fill="none" stroke="currentColor" class="nc-icon-wrapper"><line x1="2.518" y1="4.838" x2="5.743" y2="5.242" stroke="currentColor" stroke-linecap="round" stroke-linejoin="round"></line><line x1="15.482" y1="4.838" x2="12.257" y2="5.242" stroke="currentColor" stroke-linecap="round" stroke-linejoin="round"></line><path d="M10.615,15.519c-.524,.126-1.066,.191-1.615,.191-2.988,0-5.764-1.934-6.676-5.056-.264-.904-.301-1.861-.184-2.795l.623-4.983c.069-.548,.568-.937,1.116-.868l1.24,.155c.548,.069,.937,.568,.868,1.116l-.632,5.054c-.13,1.044,.194,2.096,.891,2.885s1.7,1.242,2.752,1.242,2.056-.453,2.752-1.242,1.021-1.841,.891-2.885l-.632-5.054c-.069-.548,.32-1.048,.868-1.116l1.24-.155c.548-.069,1.048,.32,1.116,.868l.623,4.983c.016,.13,.029,.26,.04,.39" stroke-linecap="round" stroke-linejoin="round"></path><polygon points="15.917 14.25 13.25 14.25 15.5 10.75 14.583 13.75 17.25 13.75 15 17.25 15.917 14.25" stroke="currentColor" stroke-linecap="round" stroke-linejoin="round"></polygon></g></svg>