<svg xmlns="http://www.w3.org/2000/svg" height="18" width="18" viewBox="0 0 18 18"><title>mailbox</title><g fill="none" stroke="currentColor" class="nc-icon-wrapper"><path d="M14.374,5.149c1.115,.585,1.876,1.754,1.876,3.101v5c0,.552-.448,1-1,1H7.75" stroke-linecap="round" stroke-linejoin="round"></path><line x1="5.25" y1="4.75" x2="11.75" y2="4.75" stroke-linecap="round" stroke-linejoin="round"></line><path d="M5.25,4.75h0c1.932,0,3.5,1.568,3.5,3.5v5c0,.552-.448,1-1,1H2.75c-.552,0-1-.448-1-1v-5c0-1.932,1.568-3.5,3.5-3.5Z" stroke-linecap="round" stroke-linejoin="round"></path><line x1="8.75" y1="14" x2="8.75" y2="16.25" stroke-linecap="round" stroke-linejoin="round"></line><line x1="4.25" y1="11.75" x2="6.25" y2="11.75" stroke="currentColor" stroke-linecap="round" stroke-linejoin="round"></line><rect x="11.75" y=".75" width="2.5" height="1.25" stroke="currentColor" stroke-linecap="round" stroke-linejoin="round"></rect><line x1="11.75" y1="6.25" x2="11.75" y2="2" stroke="currentColor" stroke-linecap="round" stroke-linejoin="round"></line></g></svg>