<svg xmlns="http://www.w3.org/2000/svg" height="18" width="18" viewBox="0 0 18 18"><title>map download</title><g fill="none" stroke="currentColor" class="nc-icon-wrapper"><polyline points="15.75 14.75 13.25 17.25 10.75 14.75" stroke-linecap="round" stroke-linejoin="round" stroke="currentColor"></polyline><path d="M16.25,12.302V4.997c0-.64-.592-1.115-1.217-.976l-2.998,.666c-.186,.041-.38,.029-.559-.036l-4.952-1.801c-.179-.065-.373-.078-.559-.036l-3.432,.763c-.458,.102-.783,.508-.783,.976V13.003c0,.64,.592,1.115,1.217,.976l2.998-.666c.186-.041,.38-.029,.559,.036l1.846,.671" stroke-linecap="round" stroke-linejoin="round"></path><line x1="13.25" y1="17.25" x2="13.25" y2="12.25" stroke-linecap="round" stroke-linejoin="round" stroke="currentColor"></line></g></svg>