<svg xmlns="http://www.w3.org/2000/svg" height="18" width="18" viewBox="0 0 18 18"><title>map pen</title><g fill="none" stroke="currentColor" class="nc-icon-wrapper"><path d="M16.25,8.274v-3.277c0-.64-.592-1.115-1.217-.976l-2.998,.666c-.186,.041-.38,.029-.559-.036l-4.952-1.801c-.179-.065-.373-.078-.559-.036l-3.432,.763c-.458,.102-.783,.508-.783,.976V13.003c0,.64,.592,1.115,1.217,.976l2.998-.666c.186-.041,.38-.029,.559,.036l2.601,.946" stroke-linecap="round" stroke-linejoin="round"></path><path d="M13.207,16.401c.143-.049,.273-.131,.38-.238l3.303-3.303c.483-.483,.478-1.261-.005-1.745h0c-.483-.483-1.261-.489-1.745-.005l-3.303,3.303c-.107,.107-.189,.237-.238,.38l-.849,2.457,2.457-.849Z" stroke-linecap="round" stroke-linejoin="round" stroke="currentColor"></path></g></svg>