<svg xmlns="http://www.w3.org/2000/svg" height="18" width="18" viewBox="0 0 18 18"><title>map clock</title><g fill="none" stroke="currentColor" class="nc-icon-wrapper"><path d="M16.25,8.709v-3.713c0-.64-.592-1.115-1.217-.976l-2.998,.666c-.186,.041-.38,.029-.559-.036l-4.952-1.801c-.179-.065-.373-.078-.559-.036l-3.432,.763c-.458,.102-.783,.508-.783,.976V13.003c0,.64,.592,1.115,1.217,.976l2.998-.666c.186-.041,.38-.029,.559,.036l1.727,.628" stroke-linecap="round" stroke-linejoin="round"></path><circle cx="14" cy="14" r="3.25" stroke-linecap="round" stroke-linejoin="round" stroke="currentColor"></circle><polyline points="15.156 14.476 14 14 14 12.75" stroke-linecap="round" stroke-linejoin="round" stroke="currentColor"></polyline></g></svg>