<svg xmlns="http://www.w3.org/2000/svg" height="18" width="18" viewBox="0 0 18 18"><title>map refresh</title><g fill="none" stroke="currentColor" class="nc-icon-wrapper"><polyline points="14.25 13.25 16.75 13.25 16.75 10.75" stroke-linecap="round" stroke-linejoin="round" stroke="currentColor"></polyline><path d="M16.25,8.305v-3.309c0-.64-.592-1.115-1.217-.976l-2.998,.666c-.186,.041-.38,.029-.559-.036l-4.952-1.801c-.179-.065-.373-.078-.559-.036l-3.432,.763c-.458,.102-.783,.508-.783,.976V13.003c0,.64,.592,1.115,1.217,.976l2.998-.666c.186-.041,.38-.029,.559,.036l2.243,.815" stroke-linecap="round" stroke-linejoin="round"></path><path d="M16,15.887c-.501,.531-1.212,.863-2,.863-1.519,0-2.75-1.231-2.75-2.75s1.231-2.75,2.75-2.75c1.166,0,2.162,.726,2.563,1.75" stroke-linecap="round" stroke-linejoin="round" stroke="currentColor"></path></g></svg>