<svg xmlns="http://www.w3.org/2000/svg" height="18" width="18" viewBox="0 0 18 18"><title>map settings</title><g fill="none" stroke="currentColor" class="nc-icon-wrapper"><line x1="14" y1="10.75" x2="14" y2="12" stroke-linecap="round" stroke-linejoin="round" stroke="currentColor"></line><line x1="16.298" y1="11.702" x2="15.414" y2="12.586" stroke-linecap="round" stroke-linejoin="round" stroke="currentColor"></line><line x1="17.25" y1="14" x2="16" y2="14" stroke-linecap="round" stroke-linejoin="round" stroke="currentColor"></line><line x1="16.298" y1="16.298" x2="15.414" y2="15.414" stroke-linecap="round" stroke-linejoin="round" stroke="currentColor"></line><line x1="14" y1="17.25" x2="14" y2="16" stroke-linecap="round" stroke-linejoin="round" stroke="currentColor"></line><line x1="11.702" y1="16.298" x2="12.586" y2="15.414" stroke-linecap="round" stroke-linejoin="round" stroke="currentColor"></line><line x1="10.75" y1="14" x2="12" y2="14" stroke-linecap="round" stroke-linejoin="round" stroke="currentColor"></line><line x1="11.702" y1="11.702" x2="12.586" y2="12.586" stroke-linecap="round" stroke-linejoin="round" stroke="currentColor"></line><path d="M16.25,9.227V4.997c0-.64-.592-1.115-1.217-.976l-2.998,.666c-.186,.041-.38,.029-.559-.036l-4.952-1.801c-.179-.065-.373-.078-.559-.036l-3.432,.763c-.458,.102-.783,.508-.783,.976V13.003c0,.64,.592,1.115,1.217,.976l2.998-.666c.186-.041,.38-.029,.559,.036l1.729,.629" stroke-linecap="round" stroke-linejoin="round"></path><circle cx="14" cy="14" r="1.75" stroke-linecap="round" stroke-linejoin="round" stroke="currentColor"></circle></g></svg>