<svg xmlns="http://www.w3.org/2000/svg" height="18" width="18" viewBox="0 0 18 18"><title>map pin</title><g fill="none" stroke="currentColor" class="nc-icon-wrapper"><circle cx="14.5" cy="13.5" r=".75" stroke="none" fill="currentColor"></circle><path d="M16.25,8.573v-3.576c0-.64-.592-1.115-1.217-.976l-2.998,.666c-.186,.041-.38,.029-.559-.036l-4.952-1.801c-.179-.065-.373-.078-.559-.036l-3.432,.763c-.458,.102-.783,.508-.783,.976V13.003c0,.64,.592,1.115,1.217,.976l2.998-.666c.186-.041,.38-.029,.559,.036l2.806,1.02" stroke-linecap="round" stroke-linejoin="round"></path><path d="M14.5,17.25s-2.75-1.509-2.75-3.75c0-1.519,1.231-2.75,2.75-2.75s2.75,1.231,2.75,2.75c0,2.241-2.75,3.75-2.75,3.75Z" stroke="currentColor" stroke-linecap="round" stroke-linejoin="round"></path></g></svg>