<svg xmlns="http://www.w3.org/2000/svg" height="18" width="18" viewBox="0 0 18 18"><title>map plus</title><g fill="none" stroke="currentColor" class="nc-icon-wrapper"><line x1="14.75" y1="12.25" x2="14.75" y2="17.25" stroke-linecap="round" stroke-linejoin="round" stroke="currentColor"></line><path d="M16.25,10.261V4.997c0-.64-.592-1.115-1.217-.976l-2.998,.666c-.186,.041-.38,.029-.559-.036l-4.952-1.801c-.179-.065-.373-.078-.559-.036l-3.432,.763c-.458,.102-.783,.508-.783,.976V13.003c0,.64,.592,1.115,1.217,.976l2.998-.666c.186-.041,.38-.029,.559,.036l3.248,1.181" stroke-linecap="round" stroke-linejoin="round"></path><line x1="17.25" y1="14.75" x2="12.25" y2="14.75" stroke-linecap="round" stroke-linejoin="round" stroke="currentColor"></line></g></svg>