<svg xmlns="http://www.w3.org/2000/svg" height="18" width="18" viewBox="0 0 18 18"><title>map star</title><g fill="none" stroke="currentColor" class="nc-icon-wrapper"><path d="M16.25,10.83V4.997c0-.64-.592-1.115-1.217-.976l-2.998,.666c-.186,.041-.38,.029-.559-.036l-4.952-1.801c-.179-.065-.373-.078-.559-.036l-3.432,.763c-.458,.102-.783,.508-.783,.976V13.003c0,.64,.592,1.115,1.217,.976l2.998-.666c.186-.041,.38-.029,.559,.036l1.276,.464" stroke-linecap="round" stroke-linejoin="round"></path><polygon points="13.5 11.068 14.504 13.103 16.75 13.429 15.125 15.013 15.509 17.25 13.5 16.194 11.491 17.25 11.875 15.013 10.25 13.429 12.496 13.103 13.5 11.068" stroke-linecap="round" stroke-linejoin="round" stroke="currentColor"></polygon></g></svg>