<svg xmlns="http://www.w3.org/2000/svg" height="18" width="18" viewBox="0 0 18 18"><title>media skip to start</title><g fill="none" stroke="currentColor" class="nc-icon-wrapper"><path d="M16.5,4.946c-1.446,.872-4.6,2.776-6.011,3.628-.322,.194-.318,.661,.004,.856l6.002,3.623c.332,.2,.754-.04,.754-.429V5.377c0-.389-.418-.632-.75-.432Z" stroke-linecap="round" stroke-linejoin="round"></path><path d="M9.5,4.946c-1.446,.872-4.6,2.776-6.011,3.628-.322,.194-.318,.661,.004,.856l6.002,3.623c.332,.2,.754-.04,.754-.429V5.377c0-.389-.418-.632-.75-.432Z" stroke-linecap="round" stroke-linejoin="round"></path><line x1=".75" y1="13.75" x2=".75" y2="4.25" stroke-linecap="round" stroke-linejoin="round" stroke="currentColor"></line></g></svg>