<svg xmlns="http://www.w3.org/2000/svg" height="18" width="18" viewBox="0 0 18 18"><title>message writing</title><g fill="none" stroke="currentColor" class="nc-icon-wrapper"><path d="M14.25,2.25H3.75c-1.105,0-2,.896-2,2v7c0,1.104,.895,2,2,2h2v3l3.75-3h4.75c1.105,0,2-.896,2-2V4.25c0-1.104-.895-2-2-2Z" stroke-linecap="round" stroke-linejoin="round"></path><path d="M9,8.75c-.552,0-1-.449-1-1s.448-1,1-1,1,.449,1,1-.448,1-1,1Z" opacity=".75" stroke="none" fill="currentColor"></path><path d="M5.5,8.75c-.552,0-1-.449-1-1s.448-1,1-1,1,.449,1,1-.448,1-1,1Z" stroke="none" fill="currentColor"></path><path d="M12.5,8.75c-.552,0-1-.449-1-1s.448-1,1-1,1,.449,1,1-.448,1-1,1Z" opacity=".5" stroke="none" fill="currentColor"></path></g></svg>