<svg xmlns="http://www.w3.org/2000/svg" height="18" width="18" viewBox="0 0 18 18"><title>mobile signal</title><g fill="none" stroke="currentColor" class="nc-icon-wrapper"><path d="M14.018,10.768c.452-.452,.732-1.077,.732-1.768,0-.69-.28-1.315-.732-1.768" stroke="currentColor" stroke-linecap="round" stroke-linejoin="round"></path><path d="M15.786,12.536c.905-.905,1.464-2.155,1.464-3.536,0-1.381-.56-2.631-1.464-3.536" stroke="currentColor" stroke-linecap="round" stroke-linejoin="round"></path><circle cx="12.25" cy="9" r=".75" stroke="none" fill="currentColor"></circle><line x1="6" y1="13.75" x2="10" y2="13.75" stroke-linecap="round" stroke-linejoin="round"></line><path d="M13.25,4.877v-1.127c0-1.104-.895-2-2-2H4.75c-1.105,0-2,.896-2,2V14.25c0,1.104,.895,2,2,2h6.5c1.105,0,2-.896,2-2v-1.127" stroke-linecap="round" stroke-linejoin="round"></path></g></svg>