<svg xmlns="http://www.w3.org/2000/svg" height="18" width="18" viewBox="0 0 18 18"><title>mobile wave</title><g fill="none" stroke="currentColor" class="nc-icon-wrapper"><path d="M14.25,11.25v3c0,1.105-.895,2-2,2H5.75c-1.105,0-2-.895-2-2v-2.5" stroke-linecap="round" stroke-linejoin="round"></path><path d="M3.75,6.75V3.75c0-1.105,.895-2,2-2h6.5c1.105,0,2,.895,2,2v2.5" stroke-linecap="round" stroke-linejoin="round"></path><path d="M1,9.25H5.25c.552,0,1-.448,1-1v-1.625c0-.759,.616-1.375,1.375-1.375h0c.759,0,1.375,.616,1.375,1.375v4.75c0,.759,.616,1.375,1.375,1.375h0c.759,0,1.375-.616,1.375-1.375v-1.625c0-.552,.448-1,1-1h4.25" stroke-linecap="round" stroke-linejoin="round" stroke="currentColor"></path></g></svg>