<svg xmlns="http://www.w3.org/2000/svg" height="18" width="18" viewBox="0 0 18 18"><title>money dollar</title><g fill="none" stroke="currentColor" class="nc-icon-wrapper"><path d="M10.264,7.22c-.321-.519-.835-.644-1.235-.644-.421,0-1.526,.224-1.423,1.285,.072,.745,.774,1.022,1.387,1.131s1.504,.343,1.526,1.241c.019,.759-.664,1.277-1.489,1.277-.684,0-1.186-.23-1.446-.744" stroke-linecap="round" stroke-linejoin="round" stroke="currentColor"></path><line x1="9" y1="6" x2="9" y2="6.576" stroke-linecap="round" stroke-linejoin="round" stroke="currentColor"></line><line x1="9" y1="11.511" x2="9" y2="12" stroke-linecap="round" stroke-linejoin="round" stroke="currentColor"></line><path d="M5,3.75c0,1.795-1.455,3.25-3.25,3.25" stroke-linecap="round" stroke-linejoin="round"></path><path d="M13,3.75c0,1.795,1.455,3.25,3.25,3.25" stroke-linecap="round" stroke-linejoin="round"></path><path d="M5,14.25c0-1.795-1.455-3.25-3.25-3.25" stroke-linecap="round" stroke-linejoin="round"></path><path d="M13,14.25c0-1.795,1.455-3.25,3.25-3.25" stroke-linecap="round" stroke-linejoin="round"></path><rect x="1.75" y="3.75" width="14.5" height="10.5" rx="2" ry="2" stroke-linecap="round" stroke-linejoin="round"></rect></g></svg>