<svg xmlns="http://www.w3.org/2000/svg" height="18" width="18" viewBox="0 0 18 18"><title>moon cloud bolt</title><g fill="none" stroke="currentColor" class="nc-icon-wrapper"><path d="M14.341,7.172c.383-.469,.661-1.027,.801-1.638-.288,.066-.584,.108-.892,.108-2.209,0-4-1.791-4-4,0-.308,.042-.604,.108-.892-1.778,.406-3.108,1.991-3.108,3.892,0,.828,.252,1.598,.683,2.236" stroke="currentColor" stroke-linecap="round" stroke-linejoin="round"></path><path d="M13,14.25h.75c1.381,0,2.5-1.119,2.5-2.5s-1.119-2.5-2.5-2.5c-.413,0-.797,.11-1.14,.287-.427-1.602-1.874-2.787-3.61-2.787s-3.182,1.186-3.61,2.787c-.343-.177-.727-.287-1.14-.287-1.381,0-2.5,1.119-2.5,2.5,0,1.296,.987,2.362,2.25,2.488" stroke-linecap="round" stroke-linejoin="round"></path><path d="M11.585,10.499c.239-.413,.594-.752,1.02-.972" stroke-linecap="round" stroke-linejoin="round"></path><polygon points="9.25 10.75 6.5 14.25 8.905 14.25 7.75 17.25 10.5 13.75 8.095 13.75 9.25 10.75" stroke="currentColor" stroke-linecap="round" stroke-linejoin="round"></polygon></g></svg>