<svg xmlns="http://www.w3.org/2000/svg" height="18" width="18" viewBox="0 0 18 18"><title>moon cloud snow</title><g fill="none" stroke="currentColor" class="nc-icon-wrapper"><path d="M14.341,7.172c.383-.469,.661-1.027,.801-1.638-.288,.066-.584,.108-.892,.108-2.209,0-4-1.791-4-4,0-.308,.042-.604,.108-.892-1.778,.406-3.108,1.991-3.108,3.892,0,.828,.252,1.598,.683,2.236" stroke-linecap="round" stroke-linejoin="round" stroke="currentColor"></path><path d="M13.25,14.25h.5c1.381,0,2.5-1.119,2.5-2.5s-1.119-2.5-2.5-2.5c-.413,0-.797,.11-1.14,.287-.427-1.602-1.874-2.787-3.61-2.787s-3.182,1.186-3.61,2.787c-.343-.177-.727-.287-1.14-.287-1.381,0-2.5,1.119-2.5,2.5s1.119,2.5,2.5,2.5" stroke-linecap="round" stroke-linejoin="round"></path><path d="M11.585,10.499c.239-.413,.594-.752,1.02-.972" stroke-linecap="round" stroke-linejoin="round"></path><line x1="8.75" y1="12.25" x2="8.75" y2="17.25" stroke-linecap="round" stroke-linejoin="round" stroke="currentColor"></line><line x1="6.585" y1="13.5" x2="10.915" y2="16" stroke-linecap="round" stroke-linejoin="round" stroke="currentColor"></line><line x1="6.585" y1="16" x2="10.915" y2="13.5" stroke-linecap="round" stroke-linejoin="round" stroke="currentColor"></line></g></svg>