<svg xmlns="http://www.w3.org/2000/svg" height="18" width="18" viewBox="0 0 18 18"><title>mouse</title><g fill="none" stroke="currentColor" class="nc-icon-wrapper"><path d="M8.25,11.25c0-2.209,1.791-4,4-4" stroke="currentColor" stroke-linecap="round" stroke-linejoin="round"></path><circle cx="5.25" cy="8.25" r=".75" stroke="none" fill="currentColor"></circle><path d="M12.75,16.25h-1.75c-.69,0-1.25-.56-1.25-1.25h0c0-.69,.56-1.25,1.25-1.25h4.5c.69,0,1.25-.56,1.25-1.25h0c0-.69-.56-1.25-1.25-1.25h-1.5" stroke-linecap="round" stroke-linejoin="round"></path><path d="M14.84,5.518c-1.811-2.171-5.16-2.272-7.965-1.046-.849-1.247-2.193-1.472-2.193-1.472l-.555,3.327c-1.182,1.15-1.988,2.489-2.436,3.551-.275,.653,.221,1.372,.93,1.372H14.93c.483,0,.901-.341,.985-.816,.255-1.435,.323-3.239-1.076-4.916Z" stroke-linecap="round" stroke-linejoin="round"></path><path d="M7.437,5.766c-.117-.525-.327-.947-.562-1.294" stroke-linecap="round" stroke-linejoin="round"></path></g></svg>