<svg xmlns="http://www.w3.org/2000/svg" height="18" width="18" viewBox="0 0 18 18"><title>msg plus</title><g fill="none" stroke="currentColor" class="nc-icon-wrapper"><line x1="14.75" y1="12.25" x2="14.75" y2="17.25" stroke-linecap="round" stroke-linejoin="round" stroke="currentColor"></line><path d="M16.146,10.176c.063-.384,.104-.775,.104-1.176,0-4.004-3.246-7.25-7.25-7.25S1.75,4.996,1.75,9c0,1.319,.358,2.552,.973,3.617,.43,.806-.053,2.712-.973,3.633,1.25,.068,2.897-.497,3.633-.973,.489,.282,1.264,.656,2.279,.848,.433,.082,.881,.125,1.338,.125,.401,0,.792-.041,1.176-.104" stroke-linecap="round" stroke-linejoin="round"></path><line x1="17.25" y1="14.75" x2="12.25" y2="14.75" stroke-linecap="round" stroke-linejoin="round" stroke="currentColor"></line></g></svg>