<svg xmlns="http://www.w3.org/2000/svg" height="18" width="18" viewBox="0 0 18 18"><title>msg check</title><g fill="none" stroke="currentColor" class="nc-icon-wrapper"><path d="M16.226,9.482c.011-.16,.024-.32,.024-.482,0-4.004-3.246-7.25-7.25-7.25S1.75,4.996,1.75,9c0,1.319,.358,2.552,.973,3.617,.43,.806-.053,2.712-.973,3.633,1.25,.068,2.897-.497,3.633-.973,.489,.282,1.264,.656,2.279,.848,.433,.082,.881,.125,1.338,.125,.401,0,.792-.041,1.176-.104" stroke-linecap="round" stroke-linejoin="round"></path><polyline points="12.244 14.75 13.853 16.25 17.25 11.75" stroke-linecap="round" stroke-linejoin="round" stroke="currentColor"></polyline></g></svg>