<svg xmlns="http://www.w3.org/2000/svg" height="18" width="18" viewBox="0 0 18 18"><title>msg flag</title><g fill="none" stroke="currentColor" class="nc-icon-wrapper"><line x1="12.75" y1="17.25" x2="12.75" y2="13.25" stroke-linecap="round" stroke-linejoin="round" stroke="currentColor"></line><path d="M16.211,8.25c-.375-3.652-3.46-6.5-7.211-6.5C4.996,1.75,1.75,4.996,1.75,9c0,1.319,.358,2.552,.973,3.617,.43,.806-.053,2.712-.973,3.633,1.25,.068,2.897-.497,3.633-.973,.489,.282,1.264,.656,2.279,.848,.433,.082,.881,.125,1.338,.125,.427,0,.843-.044,1.25-.115" stroke-linecap="round" stroke-linejoin="round"></path><rect x="12.75" y="10.75" width="4.5" height="3" rx=".5" ry=".5" stroke-linecap="round" stroke-linejoin="round" stroke="currentColor"></rect></g></svg>