<svg xmlns="http://www.w3.org/2000/svg" height="18" width="18" viewBox="0 0 18 18"><title>msg lock</title><g fill="none" stroke="currentColor" class="nc-icon-wrapper"><rect x="11.25" y="13.75" width="6" height="3.5" rx="1" ry="1" stroke-linecap="round" stroke-linejoin="round" stroke="currentColor"></rect><path d="M16.24,8.797c-.108-3.91-3.304-7.047-7.24-7.047C4.996,1.75,1.75,4.996,1.75,9c0,1.319,.358,2.552,.973,3.617,.43,.806-.053,2.712-.973,3.633,1.25,.068,2.897-.497,3.633-.973,.489,.282,1.264,.656,2.279,.848,.354,.067,.718,.101,1.088,.113" stroke-linecap="round" stroke-linejoin="round"></path><path d="M12.75,13.75v-1.5c0-.828,.672-1.5,1.5-1.5h0c.828,0,1.5,.672,1.5,1.5v1.5" stroke-linecap="round" stroke-linejoin="round" stroke="currentColor"></path></g></svg>