<svg xmlns="http://www.w3.org/2000/svg" height="18" width="18" viewBox="0 0 18 18"><title>music note 2 sparkle</title><g fill="none" stroke="currentColor" class="nc-icon-wrapper"><path d="M9.75,13.25V1.75s1.75,2.75,4.5,4.25" stroke-linecap="round" stroke-linejoin="round"></path><circle cx="6.75" cy="13.25" r="3" stroke-linecap="round" stroke-linejoin="round"></circle><path d="M4.493,6.242l-.946-.315-.316-.947c-.102-.306-.609-.306-.711,0l-.316,.947-.946,.315c-.153,.051-.257,.194-.257,.356s.104,.305,.257,.356l.946,.315,.316,.947c.051,.153,.194,.256,.355,.256s.305-.104,.355-.256l.316-.947,.946-.315c.153-.051,.257-.194,.257-.356s-.104-.305-.257-.356Z" stroke="none" fill="currentColor"></path><path d="M16.658,10.99l-1.263-.421-.421-1.263c-.137-.408-.812-.408-.949,0l-.421,1.263-1.263,.421c-.204,.068-.342,.259-.342,.474s.138,.406,.342,.474l1.263,.421,.421,1.263c.068,.204,.26,.342,.475,.342s.406-.138,.475-.342l.421-1.263,1.263-.421c.204-.068,.342-.259,.342-.474s-.138-.406-.342-.474Z" stroke="none" fill="currentColor"></path><circle cx="5.25" cy="2.75" r=".75" stroke="none" fill="currentColor"></circle></g></svg>