<svg xmlns="http://www.w3.org/2000/svg" height="18" width="18" viewBox="0 0 18 18"><title>newspaper</title><g fill="none" stroke="currentColor" class="nc-icon-wrapper"><path d="M3.5,16.25h0c-.966,0-1.75-.784-1.75-1.75v-4.25c0-.276,.224-.5,.5-.5h.5" stroke-linecap="round" stroke-linejoin="round"></path><path d="M5.25,14.5c0,.966-.784,1.75-1.75,1.75H14.25c1.105,0,2-.895,2-2V3.75c0-1.105-.895-2-2-2H7.25c-1.105,0-2,.895-2,2V14.5Z" stroke-linecap="round" stroke-linejoin="round"></path><rect x="8.25" y="4.75" width="5" height="2.5" stroke-linecap="round" stroke-linejoin="round" stroke="currentColor"></rect><line x1="13.25" y1="10.25" x2="8.25" y2="10.25" stroke-linecap="round" stroke-linejoin="round" stroke="currentColor"></line><line x1="13.25" y1="13.25" x2="8.25" y2="13.25" stroke-linecap="round" stroke-linejoin="round" stroke="currentColor"></line></g></svg>