<svg xmlns="http://www.w3.org/2000/svg" height="18" width="18" viewBox="0 0 18 18"><title>octagon info</title><g fill="none" stroke="currentColor" class="nc-icon-wrapper"><line x1="9" y1="12.819" x2="9" y2="8.25" stroke="currentColor" stroke-linecap="round" stroke-linejoin="round"></line><path d="M9,4.75c-.551,0-1,.449-1,1s.449,1,1,1,1-.449,1-1-.449-1-1-1Z" stroke="none" fill="currentColor"></path><path d="M10.968,2.25h-3.935c-.53,0-1.039,.211-1.414,.586l-2.782,2.782c-.375,.375-.586,.884-.586,1.414v3.935c0,.53,.211,1.039,.586,1.414l2.782,2.782c.375,.375,.884,.586,1.414,.586h3.935c.53,0,1.039-.211,1.414-.586l2.782-2.782c.375-.375,.586-.884,.586-1.414v-3.935c0-.53-.211-1.039-.586-1.414l-2.782-2.782c-.375-.375-.884-.586-1.414-.586Z" stroke-linecap="round" stroke-linejoin="round"></path></g></svg>