<svg xmlns="http://www.w3.org/2000/svg" height="18" width="18" viewBox="0 0 18 18"><title>octagon user</title><g fill="none" stroke="currentColor" class="nc-icon-wrapper"><circle cx="9" cy="7.75" r="2" stroke-linecap="round" stroke-linejoin="round" stroke="currentColor"></circle><path d="M5.266,14.812c.578-1.499,2.031-2.562,3.734-2.562s3.156,1.063,3.734,2.562" stroke-linecap="round" stroke-linejoin="round" stroke="currentColor"></path><path d="M10.968,2.25h-3.935c-.53,0-1.039,.211-1.414,.586l-2.782,2.782c-.375,.375-.586,.884-.586,1.414v3.935c0,.53,.211,1.039,.586,1.414l2.782,2.782c.375,.375,.884,.586,1.414,.586h3.935c.53,0,1.039-.211,1.414-.586l2.782-2.782c.375-.375,.586-.884,.586-1.414v-3.935c0-.53-.211-1.039-.586-1.414l-2.782-2.782c-.375-.375-.884-.586-1.414-.586Z" stroke-linecap="round" stroke-linejoin="round"></path></g></svg>