<svg xmlns="http://www.w3.org/2000/svg" height="18" width="18" viewBox="0 0 18 18"><title>office 4</title><g fill="none" stroke="currentColor" class="nc-icon-wrapper"><path d="M11.25,6.25h4c.552,0,1,.448,1,1V15.25c0,.552-.448,1-1,1h-5V7.25c0-.552,.448-1,1-1Z" stroke-linecap="round" stroke-linejoin="round"></path><line x1="12.75" y1="8.75" x2="13.75" y2="8.75" stroke-linecap="round" stroke-linejoin="round" stroke="currentColor"></line><line x1="12.75" y1="11.25" x2="13.75" y2="11.25" stroke-linecap="round" stroke-linejoin="round" stroke="currentColor"></line><line x1="12.75" y1="13.75" x2="13.75" y2="13.75" stroke-linecap="round" stroke-linejoin="round" stroke="currentColor"></line><path d="M2.75,8.75H6.75c.552,0,1,.448,1,1v6.5H2.75c-.552,0-1-.448-1-1v-5.5c0-.552,.448-1,1-1Z" stroke-linecap="round" stroke-linejoin="round"></path><line x1="4.25" y1="11.25" x2="5.25" y2="11.25" stroke-linecap="round" stroke-linejoin="round" stroke="currentColor"></line><line x1="4.25" y1="13.75" x2="5.25" y2="13.75" stroke-linecap="round" stroke-linejoin="round" stroke="currentColor"></line><path d="M5.25,6.25v-1.802c0-.42,.262-.794,.656-.939L11.406,1.493c.653-.239,1.344,.244,1.344,.939v1.318" stroke-linecap="round" stroke-linejoin="round" stroke="currentColor"></path><line x1="7.75" y1="16.25" x2="10.25" y2="16.25" stroke-linecap="round" stroke-linejoin="round"></line></g></svg>