<svg xmlns="http://www.w3.org/2000/svg" height="18" width="18" viewBox="0 0 18 18"><title>pallet package</title><g fill="none" stroke="currentColor" class="nc-icon-wrapper"><rect x="6.25" y="1.75" width="5.5" height="5.5" rx="1" ry="1" stroke-linecap="round" stroke-linejoin="round" stroke="currentColor"></rect><line x1="9" y1="1.75" x2="9" y2="3.75" stroke-linecap="round" stroke-linejoin="round" stroke="currentColor"></line><line x1="5.105" y1="11.25" x2="5.285" y2="10" stroke-linecap="round" stroke-linejoin="round"></line><line x1="12.895" y1="11.25" x2="12.715" y2="10" stroke-linecap="round" stroke-linejoin="round"></line><line x1="9" y1="11.25" x2="9" y2="10" stroke-linecap="round" stroke-linejoin="round"></line><polyline points="7.5 13.5 7.5 14.25 10.75 14.25 10.75 13.5" stroke-linecap="round" stroke-linejoin="round"></polyline><line x1="1.25" y1="11.25" x2="16.75" y2="11.25" stroke-linecap="round" stroke-linejoin="round"></line><path d="M14.541,4c.141,.124,.248,.289,.301,.479l1.908,6.771v3h-3v-.75" stroke-linecap="round" stroke-linejoin="round"></path><path d="M4,13.5v.75H1.25v-3l1.908-6.771c.054-.19,.16-.355,.301-.479" stroke-linecap="round" stroke-linejoin="round"></path></g></svg>