<svg xmlns="http://www.w3.org/2000/svg" height="18" width="18" viewBox="0 0 18 18"><title>panorama image</title><g fill="none" stroke="currentColor" class="nc-icon-wrapper"><path d="M15.271,14.293l-4.19-5.697c-.4-.543-1.212-.543-1.611,0l-3.623,4.927" stroke="currentColor" stroke-linecap="round" stroke-linejoin="round"></path><path d="M16.25,13.294c0,.687-.669,1.168-1.32,.945-1.468-.504-3.501-.993-5.942-.991-2.43,.002-4.455,.489-5.918,.991-.65,.223-1.32-.257-1.32-.945V4.706c0-.687,.67-1.168,1.32-.945,1.464,.503,3.488,.99,5.918,.991,2.441,.002,4.474-.487,5.942-.991,.65-.223,1.32,.257,1.32,.945V13.294Z" stroke-linecap="round" stroke-linejoin="round"></path><path d="M5.75,6.5c-.689,0-1.25,.561-1.25,1.25s.561,1.25,1.25,1.25,1.25-.561,1.25-1.25-.561-1.25-1.25-1.25Z" stroke="none" fill="currentColor"></path></g></svg>