<svg xmlns="http://www.w3.org/2000/svg" height="18" width="18" viewBox="0 0 18 18"><title>paper plane 4 link</title><g fill="none" stroke="currentColor" class="nc-icon-wrapper"><line x1="8.386" y1="9" x2="3.993" y2="9" stroke-linecap="round" stroke-linejoin="round" stroke="currentColor"></line><path d="M11.75,15.75h-.5c-.828,0-1.5-.672-1.5-1.5v-1c0-.828,.672-1.5,1.5-1.5h.5" stroke-linecap="round" stroke-linejoin="round" stroke="currentColor"></path><path d="M14.683,9.25c.132-.239,.063-.566-.212-.708L3.005,2.588c-.404-.21-.862,.168-.733,.605l1.721,5.807-1.721,5.807c-.129,.437,.329,.815,.733,.605l4.249-2.206" stroke-linecap="round" stroke-linejoin="round"></path><path d="M14.25,15.75h.5c.828,0,1.5-.672,1.5-1.5v-1c0-.828-.672-1.5-1.5-1.5h-.5" stroke-linecap="round" stroke-linejoin="round" stroke="currentColor"></path><line x1="12.25" y1="13.75" x2="13.75" y2="13.75" stroke-linecap="round" stroke-linejoin="round" stroke="currentColor"></line></g></svg>