<svg xmlns="http://www.w3.org/2000/svg" height="18" width="18" viewBox="0 0 18 18"><title>pencil 2</title><g fill="none" stroke="currentColor" class="nc-icon-wrapper"><line x1="6.514" y1="5.75" x2="11.486" y2="5.75" stroke-linecap="round" stroke-linejoin="round" stroke="currentColor"></line><line x1="6.25" y1="13.75" x2="6.25" y2="16.25" stroke-linecap="round" stroke-linejoin="round"></line><line x1="11.75" y1="13.75" x2="11.75" y2="16.25" stroke-linecap="round" stroke-linejoin="round"></line><path d="M6.25,13.75c0-1.519,1.231-2.75,2.75-2.75s2.75,1.231,2.75,2.75" stroke-linecap="round" stroke-linejoin="round"></path><path d="M3.25,11.011c.082-.007,.166-.011,.25-.011,1.519,0,2.75,1.231,2.75,2.75" stroke-linecap="round" stroke-linejoin="round"></path><path d="M14.75,11.011c-.082-.007-.166-.011-.25-.011-1.519,0-2.75,1.231-2.75,2.75" stroke-linecap="round" stroke-linejoin="round"></path><polyline points="3.25 16.25 3.25 11 9 1.75 14.75 11 14.75 16.25" stroke-linecap="round" stroke-linejoin="round"></polyline></g></svg>