<svg xmlns="http://www.w3.org/2000/svg" height="18" width="18" viewBox="0 0 18 18"><title>person delivery</title><g fill="none" stroke="currentColor" class="nc-icon-wrapper"><line x1="6.75" y1="11.75" x2="6.75" y2="16.25" stroke-linecap="round" stroke-linejoin="round"></line><path d="M1.75,16.25v-4.624c0-1.055,.819-1.928,1.872-1.996l6.378-.41" stroke-linecap="round" stroke-linejoin="round"></path><circle cx="5" cy="4.5" r="2.75" stroke-linecap="round" stroke-linejoin="round"></circle><path d="M12.25,10c0-.69,.56-1.25,1.25-1.25h0c.69,0,1.25,.56,1.25,1.25v1.75h-2.5v-1.75" stroke-linecap="round" stroke-linejoin="round" stroke="currentColor"></path><path d="M11.473,11.75h4.054c.265,0,.485,.207,.499,.472l.194,3.5c.016,.287-.212,.528-.499,.528h-4.443c-.287,0-.515-.241-.499-.528l.194-3.5c.015-.265,.234-.472,.499-.472Z" stroke-linecap="round" stroke-linejoin="round" stroke="currentColor"></path><line x1="2.3" y1="4.25" x2="9.5" y2="3.75" stroke-linecap="round" stroke-linejoin="round"></line></g></svg>