<svg xmlns="http://www.w3.org/2000/svg" height="18" width="18" viewBox="0 0 18 18"><title>person dress arrow up</title><g fill="none" stroke="currentColor" class="nc-icon-wrapper"><circle cx="6.001" cy="2.5" r="1.75" stroke-linecap="round" stroke-linejoin="round" stroke="currentColor"></circle><path d="M10.076,13.617l-1.659-6.014c-.105-.382-.421-.664-.812-.726-.469-.073-1.008-.125-1.604-.125-.45,0-.99,.029-1.594,.123-.392,.061-.717,.344-.822,.726l-1.659,6.014c-.088,.318,.152,.633,.482,.633h1.593s.174,2.083,.174,2.083c.043,.518,.476,.917,.997,.917h1.66c.52,0,.953-.399,.997-.917l.174-2.083h1.593c.33,0,.57-.315,.482-.633Z" stroke-linecap="round" stroke-linejoin="round"></path><line x1="14.25" y1="13" x2="14.25" y2="5" stroke-linecap="round" stroke-linejoin="round" stroke="currentColor"></line><polyline points="12 7.25 14.25 5 16.5 7.25" stroke-linecap="round" stroke-linejoin="round" stroke="currentColor"></polyline></g></svg>