<svg xmlns="http://www.w3.org/2000/svg" height="18" width="18" viewBox="0 0 18 18"><title>phone office</title><g fill="none" stroke="currentColor" class="nc-icon-wrapper"><path d="M6.25,3.25H15.25c.552,0,1,.448,1,1V13.25c0,.552-.448,1-1,1H6.25" stroke-linecap="round" stroke-linejoin="round"></path><rect x="1.75" y="1.75" width="4.5" height="13.5" rx="1" ry="1" stroke-linecap="round" stroke-linejoin="round"></rect><rect x="8.75" y="5.75" width="5" height="1" stroke="currentColor" stroke-linecap="round" stroke-linejoin="round"></rect><circle cx="8.75" cy="9.25" r=".75" stroke="none" fill="currentColor"></circle><circle cx="11.25" cy="9.25" r=".75" stroke="none" fill="currentColor"></circle><circle cx="13.75" cy="9.25" r=".75" stroke="none" fill="currentColor"></circle><circle cx="8.75" cy="11.75" r=".75" stroke="none" fill="currentColor"></circle><circle cx="11.25" cy="11.75" r=".75" stroke="none" fill="currentColor"></circle><circle cx="13.75" cy="11.75" r=".75" stroke="none" fill="currentColor"></circle><path d="M8.75,14.25v1c0,1.105-.895,2-2,2h0c-1.105,0-2-.895-2-2" stroke-linecap="round" stroke-linejoin="round"></path></g></svg>