<svg xmlns="http://www.w3.org/2000/svg" height="18" width="18" viewBox="0 0 18 18"><title>phone rotary</title><g fill="none" stroke="currentColor" class="nc-icon-wrapper"><path d="M11.799,7.169l3.265,4.57c.121,.17,.186,.373,.186,.581v1.93c0,.552-.448,1-1,1H3.75c-.552,0-1-.448-1-1v-1.93c0-.208,.065-.412,.186-.581l3.265-4.57c.188-.263,.491-.419,.814-.419h3.971c.323,0,.626,.156,.814,.419Z" stroke-linecap="round" stroke-linejoin="round"></path><circle cx="9" cy="11" r="1.75" stroke-linecap="round" stroke-linejoin="round" stroke="currentColor"></circle><path d="M15.25,8.25c.552,0,1-.448,1-1v-.962c0-.685-.344-1.321-.923-1.688-1.244-.787-3.439-1.85-6.327-1.85-2.887,0-5.083,1.063-6.327,1.85-.579,.366-.923,1.002-.923,1.688v.962c0,.552,.448,1,1,1" stroke-linecap="round" stroke-linejoin="round" stroke="currentColor"></path><line x1="6.75" y1="5.25" x2="6.75" y2="6.75" stroke-linecap="round" stroke-linejoin="round"></line><line x1="11.25" y1="5.25" x2="11.25" y2="6.75" stroke-linecap="round" stroke-linejoin="round"></line></g></svg>