<svg xmlns="http://www.w3.org/2000/svg" height="18" width="18" viewBox="0 0 18 18"><title>phone old 2</title><g fill="none" stroke="currentColor" class="nc-icon-wrapper"><path d="M12.407,15.207c-.096,.346-.372,.614-.72,.704-.71,.182-1.622,.339-2.687,.339-.684,0-1.629-.065-2.713-.346-.335-.087-.599-.354-.691-.687-.434-1.566-.846-3.69-.846-6.217,0-1.56,.157-3.727,.843-6.207,.096-.346,.372-.614,.72-.704,.71-.182,1.622-.339,2.687-.339,.684,0,1.629,.065,2.713,.346,.335,.087,.599,.354,.691,.687,.434,1.566,.846,3.69,.846,6.217,0,1.56-.157,3.727-.843,6.207Z" stroke-linecap="round" stroke-linejoin="round"></path><circle cx="7.75" cy="13.25" r=".75" stroke="none" fill="currentColor"></circle><circle cx="10.25" cy="13.25" r=".75" stroke="none" fill="currentColor"></circle><rect x="7.25" y="5.75" width="3.5" height="2.5" stroke="currentColor" stroke-linecap="round" stroke-linejoin="round"></rect><path d="M4.75,9c.199,.24,1.706,2,4.25,2,.312,0,2.629-.04,4.25-2" stroke-linecap="round" stroke-linejoin="round"></path></g></svg>