<svg xmlns="http://www.w3.org/2000/svg" height="18" width="18" viewBox="0 0 18 18"><title>pin slash</title><g fill="none" stroke="currentColor" class="nc-icon-wrapper"><path d="M5.526,12.474c-1.226-1.765-2.305-3.736-2.305-5.208C3.221,3.776,6.207,1.75,9,1.75c1.819,0,3.721,.86,4.826,2.424" stroke-linecap="round" stroke-linejoin="round"></path><path d="M14.759,6.776c.013,.16,.02,.323,.02,.49,0,2.622-3.428,6.833-5.004,8.631-.413,.471-1.139,.471-1.551,0-.329-.375-.739-.856-1.181-1.405" stroke-linecap="round" stroke-linejoin="round"></path><path d="M8.752,9.233c-.849-.12-1.502-.85-1.502-1.733,0-.966,.784-1.75,1.75-1.75,.887,0,1.62,.66,1.735,1.516" stroke-linecap="round" stroke-linejoin="round"></path><line x1="2" y1="16" x2="16" y2="2" stroke-linecap="round" stroke-linejoin="round" stroke="currentColor"></line></g></svg>