<svg xmlns="http://www.w3.org/2000/svg" height="18" width="18" viewBox="0 0 18 18"><title>pin link</title><g fill="none" stroke="currentColor" class="nc-icon-wrapper"><circle cx="8" cy="7.5" r="1.75" stroke-linecap="round" stroke-linejoin="round"></circle><path d="M13.086,9.75c.42-.893,.693-1.751,.693-2.484,0-3.491-2.987-5.516-5.779-5.516S2.221,3.776,2.221,7.266c0,2.623,3.428,6.833,5.004,8.631,.334,.38,.864,.438,1.276,.203" stroke-linecap="round" stroke-linejoin="round"></path><path d="M12.75,16.25h-.5c-.828,0-1.5-.672-1.5-1.5v-1c0-.828,.672-1.5,1.5-1.5h.5" stroke-linecap="round" stroke-linejoin="round" stroke="currentColor"></path><path d="M15.25,16.25h.5c.828,0,1.5-.672,1.5-1.5v-1c0-.828-.672-1.5-1.5-1.5h-.5" stroke-linecap="round" stroke-linejoin="round" stroke="currentColor"></path><line x1="13.25" y1="14.25" x2="14.75" y2="14.25" stroke-linecap="round" stroke-linejoin="round" stroke="currentColor"></line></g></svg>