<svg xmlns="http://www.w3.org/2000/svg" height="18" width="18" viewBox="0 0 18 18"><title>pin star</title><g fill="none" stroke="currentColor" class="nc-icon-wrapper"><circle cx="8" cy="7.5" r="1.75" stroke-linecap="round" stroke-linejoin="round"></circle><path d="M13.754,7.603c.011-.113,.026-.228,.026-.337,0-3.491-2.987-5.516-5.779-5.516S2.221,3.776,2.221,7.266c0,2.623,3.428,6.833,5.004,8.631,.413,.471,1.139,.471,1.551,0,.253-.288,.557-.644,.883-1.041" stroke-linecap="round" stroke-linejoin="round"></path><polygon points="14 10.068 15.004 12.103 17.25 12.429 15.625 14.013 16.009 16.25 14 15.194 11.991 16.25 12.375 14.013 10.75 12.429 12.996 12.103 14 10.068" stroke-linecap="round" stroke-linejoin="round" stroke="currentColor"></polygon></g></svg>