<svg xmlns="http://www.w3.org/2000/svg" height="18" width="18" viewBox="0 0 18 18"><title>pin settings</title><g fill="none" stroke="currentColor" class="nc-icon-wrapper"><circle cx="8" cy="7.5" r="1.75" stroke-linecap="round" stroke-linejoin="round"></circle><line x1="13.75" y1="10" x2="13.75" y2="11.25" stroke-linecap="round" stroke-linejoin="round" stroke="currentColor"></line><line x1="16.048" y1="10.952" x2="15.164" y2="11.836" stroke-linecap="round" stroke-linejoin="round" stroke="currentColor"></line><line x1="17" y1="13.25" x2="15.75" y2="13.25" stroke-linecap="round" stroke-linejoin="round" stroke="currentColor"></line><line x1="16.048" y1="15.548" x2="15.164" y2="14.664" stroke-linecap="round" stroke-linejoin="round" stroke="currentColor"></line><line x1="13.75" y1="16.5" x2="13.75" y2="15.25" stroke-linecap="round" stroke-linejoin="round" stroke="currentColor"></line><line x1="11.452" y1="15.548" x2="12.336" y2="14.664" stroke-linecap="round" stroke-linejoin="round" stroke="currentColor"></line><line x1="10.5" y1="13.25" x2="11.75" y2="13.25" stroke-linecap="round" stroke-linejoin="round" stroke="currentColor"></line><line x1="11.452" y1="10.952" x2="12.336" y2="11.836" stroke-linecap="round" stroke-linejoin="round" stroke="currentColor"></line><path d="M13.779,7.266c0-3.491-2.987-5.516-5.779-5.516S2.221,3.776,2.221,7.266c0,2.623,3.428,6.833,5.004,8.631,.413,.471,1.139,.471,1.551,0,.062-.07,.131-.151,.198-.229" stroke-linecap="round" stroke-linejoin="round"></path><circle cx="13.75" cy="13.25" r="1.75" stroke-linecap="round" stroke-linejoin="round" stroke="currentColor"></circle></g></svg>