<svg xmlns="http://www.w3.org/2000/svg" height="18" width="18" viewBox="0 0 18 18"><title>pin pen</title><g fill="none" stroke="currentColor" class="nc-icon-wrapper"><circle cx="8" cy="7.5" r="1.75" stroke-linecap="round" stroke-linejoin="round"></circle><path d="M13.558,8.544c.137-.452,.221-.884,.221-1.278,0-3.491-2.987-5.516-5.779-5.516S2.221,3.776,2.221,7.266c0,2.623,3.428,6.833,5.004,8.631,.08,.091,.179,.149,.277,.205" stroke-linecap="round" stroke-linejoin="round"></path><path d="M12.207,16.401c.143-.049,.273-.131,.38-.238l3.303-3.303c.483-.483,.478-1.261-.005-1.745h0c-.483-.483-1.261-.489-1.745-.005l-3.303,3.303c-.107,.107-.189,.237-.238,.38l-.849,2.457,2.457-.849Z" stroke-linecap="round" stroke-linejoin="round" stroke="currentColor"></path></g></svg>