<svg xmlns="http://www.w3.org/2000/svg" height="18" width="18" viewBox="0 0 18 18"><title>playlist 2</title><g fill="none" stroke="currentColor" class="nc-icon-wrapper"><path d="M10.715,8.482l-2.308-1.385c-.403-.242-.916,.048-.916,.518v2.771c0,.47,.513,.76,.916,.518l2.308-1.385c.391-.235,.391-.802,0-1.037Z" stroke="none" fill="currentColor"></path><path d="M3,13.75h-.25c-.828,0-1.5-.672-1.5-1.5V5.75c0-.828,.672-1.5,1.5-1.5h.25" stroke="currentColor" stroke-linecap="round" stroke-linejoin="round"></path><path d="M15,13.75h.25c.828,0,1.5-.672,1.5-1.5V5.75c0-.828-.672-1.5-1.5-1.5h-.25" stroke="currentColor" stroke-linecap="round" stroke-linejoin="round"></path><rect x="5.25" y="2.75" width="7.5" height="12.5" rx="2" ry="2" transform="translate(18 18) rotate(180)" stroke-linecap="round" stroke-linejoin="round"></rect></g></svg>