<svg xmlns="http://www.w3.org/2000/svg" height="18" width="18" viewBox="0 0 18 18"><title>pos</title><g fill="none" stroke="currentColor" class="nc-icon-wrapper"><path d="M5.75,14.25h-.5c-1.105,0-2-.895-2-2V2.75c0-1.105,.895-2,2-2h7.5c1.105,0,2,.895,2,2V12.25c0,1.105-.895,2-2,2h-.5" stroke-linecap="round" stroke-linejoin="round"></path><rect x="5.75" y="3.25" width="6.5" height="1" stroke-linecap="round" stroke-linejoin="round"></rect><circle cx="6.5" cy="6.75" r=".75" fill="currentColor" stroke="none"></circle><circle cx="9" cy="6.75" r=".75" fill="currentColor" stroke="none"></circle><circle cx="11.5" cy="6.75" r=".75" fill="currentColor" stroke="none"></circle><circle cx="6.5" cy="9.25" r=".75" fill="currentColor" stroke="none"></circle><circle cx="9" cy="9.25" r=".75" fill="currentColor" stroke="none"></circle><circle cx="11.5" cy="9.25" r=".75" fill="currentColor" stroke="none"></circle><path d="M11.25,17.25H6.75c-.552,0-1-.448-1-1v-4.5h6.5v4.5c0,.552-.448,1-1,1Z" stroke="currentColor" stroke-linecap="round" stroke-linejoin="round"></path><line x1="9.75" y1="11.75" x2="9.75" y2="17.25" stroke="currentColor" stroke-linecap="round" stroke-linejoin="round"></line></g></svg>