<svg xmlns="http://www.w3.org/2000/svg" height="18" width="18" viewBox="0 0 18 18"><title>position top right</title><g fill="none" stroke="currentColor" class="nc-icon-wrapper"><rect x="9.75" y="2.75" width="5.5" height="5.5" rx="1" ry="1" transform="translate(18 -7) rotate(90)" stroke="currentColor" stroke-linecap="round" stroke-linejoin="round"></rect><path d="M2.75,3.5c.414,0,.75-.336,.75-.75s-.336-.75-.75-.75-.75,.336-.75,.75,.336,.75,.75,.75Z" fill="currentColor" stroke="none"></path><path d="M2.75,6.625c.414,0,.75-.336,.75-.75s-.336-.75-.75-.75-.75,.336-.75,.75c0,.414,.336,.75,.75,.75Z" fill="currentColor" stroke="none"></path><path d="M2.75,9.75c.414,0,.75-.336,.75-.75s-.336-.75-.75-.75-.75,.336-.75,.75c0,.414,.336,.75,.75,.75Z" fill="currentColor" stroke="none"></path><path d="M2.75,12.875c.414,0,.75-.336,.75-.75s-.336-.75-.75-.75-.75,.336-.75,.75,.336,.75,.75,.75Z" fill="currentColor" stroke="none"></path><path d="M15.25,12.875c.414,0,.75-.336,.75-.75s-.336-.75-.75-.75-.75,.336-.75,.75,.336,.75,.75,.75Z" fill="currentColor" stroke="none"></path><path d="M2.75,16c.414,0,.75-.336,.75-.75s-.336-.75-.75-.75-.75,.336-.75,.75,.336,.75,.75,.75Z" fill="currentColor" stroke="none"></path><path d="M5.875,16c.414,0,.75-.336,.75-.75s-.336-.75-.75-.75-.75,.336-.75,.75,.336,.75,.75,.75Z" fill="currentColor" stroke="none"></path><path d="M5.875,3.5c.414,0,.75-.336,.75-.75s-.336-.75-.75-.75-.75,.336-.75,.75,.336,.75,.75,.75Z" fill="currentColor" stroke="none"></path><path d="M9,16c.414,0,.75-.336,.75-.75s-.336-.75-.75-.75-.75,.336-.75,.75,.336,.75,.75,.75Z" fill="currentColor" stroke="none"></path><circle cx="12.125" cy="15.25" r=".75" fill="currentColor" stroke="none"></circle><path d="M15.25,16c.414,0,.75-.336,.75-.75s-.336-.75-.75-.75-.75,.336-.75,.75,.336,.75,.75,.75Z" fill="currentColor" stroke="none"></path></g></svg>