<svg xmlns="http://www.w3.org/2000/svg" height="18" width="18" viewBox="0 0 18 18"><title>print 2</title><g fill="none" stroke="currentColor" class="nc-icon-wrapper"><path d="M5.25,5.25V2.75c0-.552,.448-1,1-1h5.5c.552,0,1,.448,1,1v2.5" stroke-linecap="round" stroke-linejoin="round" stroke="currentColor"></path><path d="M5.25,13.25h-1c-1.105,0-2-.895-2-2V7.25c0-1.105,.895-2,2-2H13.75c1.105,0,2,.895,2,2v4c0,1.105-.895,2-2,2h-1" stroke-linecap="round" stroke-linejoin="round"></path><path d="M12.75,8.75v6.5c0,.552-.448,1-1,1H6.25c-.552,0-1-.448-1-1v-6.5h7.5Z" stroke-linecap="round" stroke-linejoin="round" stroke="currentColor"></path><line x1="7.75" y1="13.75" x2="10.25" y2="13.75" stroke-linecap="round" stroke-linejoin="round" stroke="currentColor"></line><line x1="7.75" y1="11.25" x2="10.25" y2="11.25" stroke-linecap="round" stroke-linejoin="round" stroke="currentColor"></line></g></svg>