<svg xmlns="http://www.w3.org/2000/svg" width="24" height="24" fill="none" viewBox="0 0 24 24">
  <path stroke="currentColor" stroke-linecap="round" stroke-linejoin="round" d="M4.75 5.75a1 1 0 0 1 1-1h3.5a1 1 0 0 1 1 1v3.5a1 1 0 0 1-1 1h-3.5a1 1 0 0 1-1-1v-3.5Zm0 9a1 1 0 0 1 1-1h3.5a1 1 0 0 1 1 1v3.5a1 1 0 0 1-1 1h-3.5a1 1 0 0 1-1-1v-3.5Zm9-9a1 1 0 0 1 1-1h3.5a1 1 0 0 1 1 1v3.5a1 1 0 0 1-1 1h-3.5a1 1 0 0 1-1-1v-3.5Zm0 8h1.5v1.5h-1.5v-1.5Zm0 4h1.5v1.5h-1.5v-1.5Zm4 0h1.5v1.5h-1.5v-1.5Zm0-4h1.5v1.5h-1.5v-1.5Z"/>
</svg>
