<svg xmlns="http://www.w3.org/2000/svg" height="18" width="18" viewBox="0 0 18 18"><title>radar</title><g fill="none" stroke="currentColor" class="nc-icon-wrapper"><circle cx="9" cy="9" r="1" stroke="currentColor" stroke-linecap="round" stroke-linejoin="round"></circle><path d="M15.581,5.954c.429,.926,.669,1.958,.669,3.046,0,4.004-3.246,7.25-7.25,7.25S1.75,13.004,1.75,9,4.996,1.75,9,1.75c2.002,0,3.815,.811,5.127,2.123" stroke-linecap="round" stroke-linejoin="round"></path><path d="M13.088,8.447c.024,.181,.037,.365,.037,.553,0,2.278-1.847,4.125-4.125,4.125s-4.125-1.847-4.125-4.125,1.847-4.125,4.125-4.125c1.139,0,2.17,.462,2.917,1.208" stroke-linecap="round" stroke-linejoin="round"></path><line x1="9.707" y1="8.293" x2="14.869" y2="3.131" stroke="currentColor" stroke-linecap="round" stroke-linejoin="round"></line><line x1="9" y1="2.75" x2="9" y2="1" stroke-linecap="round" stroke-linejoin="round"></line><line x1="15.25" y1="9" x2="17" y2="9" stroke-linecap="round" stroke-linejoin="round"></line><line x1="9" y1="15.25" x2="9" y2="17" stroke-linecap="round" stroke-linejoin="round"></line><line x1="2.75" y1="9" x2="1" y2="9" stroke-linecap="round" stroke-linejoin="round"></line></g></svg>