<svg xmlns="http://www.w3.org/2000/svg" height="18" width="18" viewBox="0 0 18 18"><title>rotate cube</title><g fill="none" stroke="currentColor" class="nc-icon-wrapper"><path d="M8.398,4.999l-2.55,1.479c-.37,.215-.598,.61-.598,1.038v2.968c0,.428,.228,.823,.598,1.038l2.55,1.479c.372,.216,.832,.216,1.204,0l2.55-1.479c.37-.215,.598-.61,.598-1.038v-2.968c0-.428-.228-.823-.598-1.038l-2.55-1.479c-.372-.216-.832-.216-1.204,0Z" stroke-linecap="round" stroke-linejoin="round" stroke="currentColor"></path><polyline points="12.59 6.918 9 9 5.41 6.918" stroke-linecap="round" stroke-linejoin="round" stroke="currentColor"></polyline><line x1="9" y1="13.163" x2="9" y2="9" stroke-linecap="round" stroke-linejoin="round" stroke="currentColor"></line><path d="M1.88,3.305l.408,2.945h.002C3.373,3.61,5.969,1.75,9,1.75c4.004,0,7.25,3.246,7.25,7.25" stroke-linecap="round" stroke-linejoin="round"></path><path d="M16.12,14.695l-.408-2.945h-.002c-1.083,2.64-3.68,4.5-6.71,4.5-4.004,0-7.25-3.246-7.25-7.25" stroke-linecap="round" stroke-linejoin="round"></path></g></svg>