<svg xmlns="http://www.w3.org/2000/svg" height="18" width="18" viewBox="0 0 18 18"><title>ruler triangle</title><g fill="none" stroke="currentColor" class="nc-icon-wrapper"><path d="M14.586,15.25H3.75c-.552,0-1-.448-1-1V3.414c0-.891,1.077-1.337,1.707-.707L15.293,13.543c.63,.63,.184,1.707-.707,1.707Z" stroke-linecap="round" stroke-linejoin="round"></path><path d="M6,11.5v-1.925c0-.445,.539-.669,.854-.354l1.926,1.925c.315,.315,.092,.854-.354,.854h-1.926c-.276,0-.5-.224-.5-.5Z" stroke="none" fill="currentColor"></path><line x1="6.25" y1="15.25" x2="6.25" y2="13.75" stroke-linecap="round" stroke-linejoin="round"></line><line x1="8.75" y1="15.25" x2="8.75" y2="13.75" stroke-linecap="round" stroke-linejoin="round"></line><line x1="11.25" y1="15.25" x2="11.25" y2="13.75" stroke-linecap="round" stroke-linejoin="round"></line><line x1="2.75" y1="6.75" x2="4.25" y2="6.75" stroke-linecap="round" stroke-linejoin="round"></line><line x1="2.75" y1="9.25" x2="4.25" y2="9.25" stroke-linecap="round" stroke-linejoin="round"></line><line x1="2.75" y1="11.75" x2="4.25" y2="11.75" stroke-linecap="round" stroke-linejoin="round"></line></g></svg>