<svg xmlns="http://www.w3.org/2000/svg" height="18" width="18" viewBox="0 0 18 18"><title>scale unbalanced 2</title><g fill="none" stroke="currentColor" class="nc-icon-wrapper"><line x1="10.72" y1="4.064" x2="14.475" y2="4.75" stroke-linecap="round" stroke-linejoin="round" stroke="currentColor"></line><path d="M17.225,10.25c.008,.083,.025,.164,.025,.25,0,1.519-1.231,2.75-2.75,2.75s-2.75-1.231-2.75-2.75c0-.086,.018-.167,.025-.25h5.45Z" stroke-linecap="round" stroke-linejoin="round" stroke="currentColor"></path><path d="M.775,8.25c-.008,.083-.025,.164-.025,.25,0,1.519,1.231,2.75,2.75,2.75s2.75-1.231,2.75-2.75c0-.086-.018-.167-.025-.25H.775Z" stroke-linecap="round" stroke-linejoin="round" stroke="currentColor"></path><line x1="7.279" y1="3.436" x2="3.525" y2="2.75" stroke-linecap="round" stroke-linejoin="round" stroke="currentColor"></line><polyline points="6.225 8.25 3.525 2.75 .775 8.25" stroke-linecap="round" stroke-linejoin="round" stroke="currentColor"></polyline><polyline points="11.775 10.25 14.475 4.75 17.225 10.25" stroke-linecap="round" stroke-linejoin="round" stroke="currentColor"></polyline><circle cx="9" cy="3.75" r="1.75" stroke-linecap="round" stroke-linejoin="round"></circle><line x1="9" y1="5.5" x2="9" y2="15.75" stroke-linecap="round" stroke-linejoin="round"></line><line x1="4.75" y1="15.75" x2="13.25" y2="15.75" stroke-linecap="round" stroke-linejoin="round"></line></g></svg>