<svg xmlns="http://www.w3.org/2000/svg" height="18" width="18" viewBox="0 0 18 18"><title>scan cube</title><g fill="none" stroke="currentColor" class="nc-icon-wrapper"><path d="M8.398,4.999l-2.55,1.479c-.37,.215-.598,.61-.598,1.038v2.968c0,.428,.228,.823,.598,1.038l2.55,1.479c.372,.216,.832,.216,1.204,0l2.55-1.479c.37-.215,.598-.61,.598-1.038v-2.968c0-.428-.228-.823-.598-1.038l-2.55-1.479c-.372-.216-.832-.216-1.204,0Z" stroke-linecap="round" stroke-linejoin="round" stroke="currentColor"></path><polyline points="12.59 6.918 9 9 5.41 6.918" stroke-linecap="round" stroke-linejoin="round" stroke="currentColor"></polyline><line x1="9" y1="13.163" x2="9" y2="9" stroke-linecap="round" stroke-linejoin="round" stroke="currentColor"></line><path d="M15.75,11.75v2c0,1.105-.895,2-2,2h-2" stroke-linecap="round" stroke-linejoin="round"></path><path d="M6.25,15.75h-2c-1.105,0-2-.895-2-2v-2" stroke-linecap="round" stroke-linejoin="round"></path><path d="M2.25,6.25v-2c0-1.105,.895-2,2-2h2" stroke-linecap="round" stroke-linejoin="round"></path><path d="M11.75,2.25h2c1.105,0,2,.895,2,2v2" stroke-linecap="round" stroke-linejoin="round"></path></g></svg>