<svg xmlns="http://www.w3.org/2000/svg" height="18" width="18" viewBox="0 0 18 18"><title>school</title><g fill="none" stroke="currentColor" class="nc-icon-wrapper"><path d="M9,3.25V.75s1,.25,2.25,.25v.5c-1.25,0-2.25-.25-2.25-.25" stroke-linecap="round" stroke-linejoin="round" stroke="currentColor"></path><line x1="9" y1="16.25" x2="9" y2="13.75" stroke-linecap="round" stroke-linejoin="round" stroke="currentColor"></line><line x1="10.25" y1="8.25" x2="10.25" y2="7.75" stroke-linecap="round" stroke-linejoin="round" stroke="currentColor"></line><line x1="7.75" y1="8.25" x2="7.75" y2="7.75" stroke-linecap="round" stroke-linejoin="round" stroke="currentColor"></line><line x1="10.25" y1="11.25" x2="10.25" y2="10.75" stroke-linecap="round" stroke-linejoin="round" stroke="currentColor"></line><line x1="7.75" y1="11.25" x2="7.75" y2="10.75" stroke-linecap="round" stroke-linejoin="round" stroke="currentColor"></line><path d="M15.75,9.25h.5c.552,0,1,.448,1,1v5c0,.552-.448,1-1,1h-7.25s-7.25,0-7.25,0c-.552,0-1-.448-1-1v-5c0-.552,.448-1,1-1h.5" stroke-linecap="round" stroke-linejoin="round"></path><line x1="13.25" y1="5.75" x2="13.25" y2="16.25" stroke-linecap="round" stroke-linejoin="round"></line><polyline points="3.25 6 9 3.25 14.75 6" stroke-linecap="round" stroke-linejoin="round"></polyline><line x1="4.75" y1="16.25" x2="4.75" y2="5.75" stroke-linecap="round" stroke-linejoin="round"></line></g></svg>