<svg xmlns="http://www.w3.org/2000/svg" height="18" width="18" viewBox="0 0 18 18"><title>scooter delivery</title><g fill="none" stroke="currentColor" class="nc-icon-wrapper"><path d="M7,13c0,1.243-1.007,2.25-2.25,2.25s-2.25-1.007-2.25-2.25" stroke-linecap="round" stroke-linejoin="round"></path><path d="M11.25,13c0,1.243,1.007,2.25,2.25,2.25s2.25-1.007,2.25-2.25" stroke-linecap="round" stroke-linejoin="round"></path><path d="M16.25,6.75h-1c-.828,0-1.5-.672-1.5-1.5h0c0-.828,.672-1.5,1.5-1.5h1v3Z" stroke-linecap="round" stroke-linejoin="round"></path><path d="M11.25,3.75h.672c.48,0,.893,.341,.982,.813l.845,4.437" stroke-linecap="round" stroke-linejoin="round"></path><path d="M11.763,9.503c.503-.318,1.098-.503,1.737-.503,1.795,0,3.25,1.455,3.25,3.25H1.25v-.5c0-2.209,1.791-4,4-4h2.5c.552,0,1,.448,1,1v3.5" stroke-linecap="round" stroke-linejoin="round"></path><rect x="1.25" y="2.75" width="5" height="5" rx="1" ry="1" stroke-linecap="round" stroke-linejoin="round" stroke="currentColor"></rect><line x1="3.75" y1="2.75" x2="3.75" y2="4.25" stroke-linecap="round" stroke-linejoin="round" stroke="currentColor"></line></g></svg>