<svg xmlns="http://www.w3.org/2000/svg" height="18" width="18" viewBox="0 0 18 18"><title>screen reader 2</title><g fill="none" stroke="currentColor" class="nc-icon-wrapper"><path d="M6.75,11.25h2.5l3-2.25v8l-3-2.25h-2.5c-.552,0-1-.448-1-1v-1.5c0-.552,.448-1,1-1Z" stroke-linecap="round" stroke-linejoin="round" stroke="currentColor"></path><path d="M14.75,10.563c.757,.545,1.25,1.433,1.25,2.437s-.493,1.892-1.25,2.437" stroke-linecap="round" stroke-linejoin="round" stroke="currentColor"></path><path d="M4.083,10.398c-.899-.756-1.559-1.605-1.995-2.266-.45-.683-.45-1.582,0-2.265,1.018-1.543,3.262-4.118,6.912-4.118s5.895,2.574,6.912,4.118c.45,.683,.45,1.582,0,2.265-.067,.101-.139,.207-.217,.317" stroke-linecap="round" stroke-linejoin="round"></path><path d="M11.709,6.593c-.198-1.324-1.33-2.343-2.709-2.343-1.519,0-2.75,1.231-2.75,2.75,0,.791,.338,1.498,.873,2" stroke-linecap="round" stroke-linejoin="round"></path></g></svg>