<svg xmlns="http://www.w3.org/2000/svg" height="18" width="18" viewBox="0 0 18 18"><title>screen reader</title><g fill="none" stroke="currentColor" class="nc-icon-wrapper"><path d="M16.25,8v-3.25c0-1.105-.895-2-2-2H3.75c-1.105,0-2,.895-2,2V13.25c0,1.105,.895,2,2,2h.75" stroke-linecap="round" stroke-linejoin="round"></path><path d="M7.75,11.25h2.5l3-2.25v8l-3-2.25h-2.5c-.552,0-1-.448-1-1v-1.5c0-.552,.448-1,1-1Z" stroke-linecap="round" stroke-linejoin="round" stroke="currentColor"></path><path d="M15.75,10.563c.757,.545,1.25,1.433,1.25,2.437s-.493,1.892-1.25,2.437" stroke-linecap="round" stroke-linejoin="round" stroke="currentColor"></path><line x1="5" y1="5.75" x2="11.25" y2="5.75" stroke-linecap="round" stroke-linejoin="round"></line><line x1="5" y1="8.75" x2="8.75" y2="8.75" stroke-linecap="round" stroke-linejoin="round"></line></g></svg>