<svg xmlns="http://www.w3.org/2000/svg" height="18" width="18" viewBox="0 0 18 18"><title>scroll text</title><g fill="none" stroke="currentColor" class="nc-icon-wrapper"><path d="M14.75,15.75c.828,0,1.5-.672,1.5-1.5v-1c0-.276-.224-.5-.5-.5h-7.5c-.276,0-.5,.224-.5,.5v1c0,.828-.672,1.5-1.5,1.5h0c-.828,0-1.5-.672-1.5-1.5V3.75c0-.828-.672-1.5-1.5-1.5h0c-.828,0-1.5,.672-1.5,1.5v2c0,.552,.448,1,1,1h2" stroke-linecap="round" stroke-linejoin="round"></path><line x1="14.75" y1="15.75" x2="6.25" y2="15.75" stroke-linecap="round" stroke-linejoin="round"></line><path d="M3.25,2.25H12.75c.828,0,1.5,.672,1.5,1.5v6.5" stroke-linecap="round" stroke-linejoin="round"></path><line x1="7.5" y1="5.75" x2="11.5" y2="5.75" stroke-linecap="round" stroke-linejoin="round" stroke="currentColor"></line><line x1="7.5" y1="8.75" x2="11.5" y2="8.75" stroke-linecap="round" stroke-linejoin="round" stroke="currentColor"></line></g></svg>