<svg xmlns="http://www.w3.org/2000/svg" height="18" width="18" viewBox="0 0 18 18"><title>select area</title><g fill="none" stroke="currentColor" class="nc-icon-wrapper"><path d="M2.75,4.75c0-1.105,.895-2,2-2" stroke-linecap="round" stroke-linejoin="round"></path><path d="M13.25,2.75c1.105,0,2,.895,2,2" stroke-linecap="round" stroke-linejoin="round"></path><path d="M4.75,15.25c-1.105,0-2-.895-2-2" stroke-linecap="round" stroke-linejoin="round"></path><line x1="7.75" y1="2.75" x2="10.25" y2="2.75" stroke-linecap="round" stroke-linejoin="round"></line><line x1="7.75" y1="15.25" x2="8.75" y2="15.25" stroke-linecap="round" stroke-linejoin="round"></line><line x1="15.25" y1="7.75" x2="15.25" y2="8.75" stroke-linecap="round" stroke-linejoin="round"></line><line x1="2.75" y1="7.75" x2="2.75" y2="10.25" stroke-linecap="round" stroke-linejoin="round"></line><path d="M10.184,9.77l6.854,2.504c.289,.106,.28,.517-.012,.611l-3.137,1.004-1.004,3.137c-.094,.293-.505,.301-.611,.012l-2.504-6.854c-.094-.258,.156-.508,.414-.414Z" stroke-linecap="round" stroke-linejoin="round" stroke="currentColor"></path></g></svg>