<svg xmlns="http://www.w3.org/2000/svg" height="18" width="18" viewBox="0 0 18 18"><title>select obj</title><g fill="none" stroke="currentColor" class="nc-icon-wrapper"><rect x="1.75" y="12.25" width="4" height="4" rx="1" ry="1" stroke-linecap="round" stroke-linejoin="round"></rect><rect x="1.75" y="1.75" width="4" height="4" rx="1" ry="1" stroke-linecap="round" stroke-linejoin="round"></rect><rect x="12.25" y="1.75" width="4" height="4" rx="1" ry="1" stroke-linecap="round" stroke-linejoin="round"></rect><line x1="3.75" y1="5.75" x2="3.75" y2="12.25" stroke-linecap="round" stroke-linejoin="round"></line><line x1="5.75" y1="14.25" x2="8.594" y2="14.25" stroke-linecap="round" stroke-linejoin="round"></line><line x1="14.25" y1="8.594" x2="14.25" y2="5.75" stroke-linecap="round" stroke-linejoin="round"></line><line x1="12.25" y1="3.75" x2="5.75" y2="3.75" stroke-linecap="round" stroke-linejoin="round"></line><path d="M10.184,9.77l6.854,2.504c.289,.106,.28,.517-.012,.611l-3.137,1.004-1.004,3.137c-.094,.293-.505,.301-.611,.012l-2.504-6.854c-.094-.258,.156-.508,.414-.414Z" stroke-linecap="round" stroke-linejoin="round" stroke="currentColor"></path></g></svg>