<svg xmlns="http://www.w3.org/2000/svg" height="18" width="18" viewBox="0 0 18 18"><title>ship</title><g fill="none" stroke="currentColor" class="nc-icon-wrapper"><path d="M1.75,15.75c1.401,.007,2.731-.613,3.625-1.692,1.678,2.002,4.661,2.265,6.663,.587,.212-.178,.409-.374,.587-.587,.894,1.078,2.224,1.699,3.625,1.692" stroke="currentColor" stroke-linecap="round" stroke-linejoin="round"></path><path d="M3.204,12.715l-.453-1.585c-.142-.498,.119-1.022,.603-1.208l5.646-2.172,5.646,2.172c.483,.186,.745,.71,.603,1.208l-.453,1.585" stroke-linecap="round" stroke-linejoin="round"></path><path d="M4.25,9.279V5.25c0-.552,.448-1,1-1h7.5c.552,0,1,.448,1,1v4.029" stroke-linecap="round" stroke-linejoin="round"></path><rect x="7.75" y="1.75" width="2.5" height="2.5" stroke-linecap="round" stroke-linejoin="round"></rect><line x1="9" y1="7.75" x2="9" y2="12.715" stroke-linecap="round" stroke-linejoin="round"></line></g></svg>