<svg xmlns="http://www.w3.org/2000/svg" height="18" width="18" viewBox="0 0 18 18"><title>shirt</title><g fill="none" stroke="currentColor" class="nc-icon-wrapper"><path d="M12.75,2.75h1.5c1.105,0,2,.895,2,2V13.25c0,1.105-.895,2-2,2H3.75c-1.105,0-2-.895-2-2V4.75c0-1.105,.895-2,2-2h1.5" stroke-linecap="round" stroke-linejoin="round"></path><line x1="9" y1="5.011" x2="9" y2="15.25" stroke-linecap="round" stroke-linejoin="round"></line><line x1="11.75" y1="11.25" x2="13.75" y2="11.25" stroke-linecap="round" stroke-linejoin="round" stroke="currentColor"></line><path d="M12.446,2.033l-7.196,6.217V2.75c0-.552,.448-1,1-1h5.5c.552,0,1,.448,1,1v5.5L5.553,2.033" stroke-linecap="round" stroke-linejoin="round" stroke="currentColor"></path></g></svg>