<svg xmlns="http://www.w3.org/2000/svg" height="18" width="18" viewBox="0 0 18 18"><title>size</title><g fill="none" stroke="currentColor" class="nc-icon-wrapper"><path d="M15.25,13.25c0,1.105-.895,2-2,2" stroke-linecap="round" stroke-linejoin="round" stroke="currentColor"></path><line x1="9.25" y1="15.25" x2="10.75" y2="15.25" stroke-linecap="round" stroke-linejoin="round" stroke="currentColor"></line><line x1="15.25" y1="9.25" x2="15.25" y2="10.75" stroke-linecap="round" stroke-linejoin="round" stroke="currentColor"></line><path d="M2.75,6.75H15.25v-2c0-1.105-.895-2-2-2H4.75c-1.105,0-2,.895-2,2V13.25c0,1.105,.895,2,2,2h2V2.75" stroke-linecap="round" stroke-linejoin="round"></path><line x1="12.75" y1="6.75" x2="12.75" y2="5.25" stroke-linecap="round" stroke-linejoin="round"></line><line x1="9.75" y1="6.75" x2="9.75" y2="5.25" stroke-linecap="round" stroke-linejoin="round"></line><line x1="6.75" y1="9.75" x2="5.25" y2="9.75" stroke-linecap="round" stroke-linejoin="round"></line><line x1="6.75" y1="12.75" x2="5.25" y2="12.75" stroke-linecap="round" stroke-linejoin="round"></line></g></svg>