<svg xmlns="http://www.w3.org/2000/svg" height="18" width="18" viewBox="0 0 18 18"><title>skateboarding</title><g fill="none" stroke="currentColor" class="nc-icon-wrapper"><circle cx="12.5" cy="2.75" r="1.5" stroke-linecap="round" stroke-linejoin="round"></circle><circle cx="8.75" cy="16.75" r=".75" stroke="none" fill="currentColor"></circle><circle cx="12.75" cy="16.75" r=".75" stroke="none" fill="currentColor"></circle><path d="M4.25,5.25h4.932c1.243,0,1.946,1.425,1.191,2.411l-1.703,2.223" stroke-linecap="round" stroke-linejoin="round"></path><path d="M5.899,11.23l-.388,.61c-.165,.259-.439,.428-.744,.458l-2.017,.202" stroke-linecap="round" stroke-linejoin="round"></path><path d="M9.119,5.25l-1.656,2.164c-.607,.793-.283,1.947,.648,2.309l2.002,.778c.384,.149,.638,.52,.638,.932v2.816" stroke-linecap="round" stroke-linejoin="round"></path><path d="M7.235,13.894c.183,.218,.458,.356,.765,.356h6.25" stroke="currentColor" stroke-linecap="round" stroke-linejoin="round"></path></g></svg>