<svg xmlns="http://www.w3.org/2000/svg" height="18" width="18" viewBox="0 0 18 18"><title>spaceship</title><g fill="none" stroke="currentColor" class="nc-icon-wrapper"><path d="M5.071,10.556l-1.233,.746c-.664,.401-1.036,1.149-.956,1.92l.368,3.528,3.151-2" stroke="currentColor" stroke-linecap="round" stroke-linejoin="round"></path><path d="M12.929,10.556l1.233,.746c.664,.401,1.036,1.149,.956,1.92l-.368,3.528-3.151-2" stroke="currentColor" stroke-linecap="round" stroke-linejoin="round"></path><path d="M9,14.75h2.599c.371-.672,2.328-4.368,.866-8.651-.892-2.612-2.625-4.183-3.465-4.849-.839,.666-2.573,2.237-3.465,4.849-1.462,4.283,.495,7.979,.866,8.651,0,0,2.599,0,2.599,0Z" stroke-linecap="round" stroke-linejoin="round"></path><line x1="9" y1="16.75" x2="9" y2="11.25" stroke-linecap="round" stroke-linejoin="round"></line><circle cx="9" cy="7.75" r="1.25" stroke="none" fill="currentColor"></circle></g></svg>