<svg xmlns="http://www.w3.org/2000/svg" height="18" width="18" viewBox="0 0 18 18"><title>space 3d</title><g fill="none" stroke="currentColor" class="nc-icon-wrapper"><polyline points="3.017 12.47 9 9 14.983 12.47" stroke-linecap="round" stroke-linejoin="round" stroke="currentColor"></polyline><line x1="9" y1="2.062" x2="9" y2="9" stroke-linecap="round" stroke-linejoin="round" stroke="currentColor"></line><path d="M15.25,11.473V6.527c0-.713-.38-1.372-.997-1.73l-4.25-2.465c-.621-.36-1.386-.36-2.007,0L3.747,4.797c-.617,.358-.997,1.017-.997,1.73v4.946c0,.713,.38,1.372,.997,1.73l4.25,2.465c.621,.36,1.386,.36,2.007,0l4.25-2.465c.617-.358,.997-1.017,.997-1.73Z" stroke-linecap="round" stroke-linejoin="round"></path></g></svg>