<svg xmlns="http://www.w3.org/2000/svg" height="18" width="18" viewBox="0 0 18 18"><title>sparkle</title><g fill="none" stroke="currentColor" class="nc-icon-wrapper"><path d="M6.658,4.026l-1.263-.421-.421-1.263c-.137-.408-.812-.408-.949,0l-.421,1.263-1.263,.421c-.204,.068-.342,.259-.342,.474s.138,.406,.342,.474l1.263,.421,.421,1.263c.068,.204,.26,.342,.475,.342s.406-.138,.475-.342l.421-1.263,1.263-.421c.204-.068,.342-.259,.342-.474s-.138-.406-.342-.474Z" stroke="none" fill="currentColor"></path><path d="M15.658,13.026l-1.263-.421-.421-1.263c-.137-.408-.812-.408-.949,0l-.421,1.263-1.263,.421c-.204,.068-.342,.259-.342,.474s.138,.406,.342,.474l1.263,.421,.421,1.263c.068,.204,.26,.342,.475,.342s.406-.138,.475-.342l.421-1.263,1.263-.421c.204-.068,.342-.259,.342-.474s-.138-.406-.342-.474Z" stroke="none" fill="currentColor"></path><polygon points="6 8.75 6.921 11.079 9.25 12 6.921 12.921 6 15.25 5.079 12.921 2.75 12 5.079 11.079 6 8.75" stroke-linecap="round" stroke-linejoin="round"></polygon><polygon points="12 2.75 12.921 5.079 15.25 6 12.921 6.921 12 9.25 11.079 6.921 8.75 6 11.079 5.079 12 2.75" stroke-linecap="round" stroke-linejoin="round"></polygon></g></svg>