<svg xmlns="http://www.w3.org/2000/svg" height="18" width="18" viewBox="0 0 18 18"><title>spider web</title><g fill="none" stroke="currentColor" class="nc-icon-wrapper"><path d="M3.338,5.743c.327,.841,.614,1.947,.614,3.257,0,.598-.06,1.833-.613,3.256l.009,.019c.892,.137,1.993,.441,3.128,1.096,.518,.299,1.557,.968,2.514,2.159l.021,.002c.564-.704,1.379-1.506,2.514-2.161,.518-.299,1.617-.865,3.127-1.097l.012-.017c-.327-.841-.614-1.947-.614-3.257,0-.598,.06-1.833,.613-3.256l-.009-.019c-.892-.137-1.993-.441-3.128-1.096-.518-.299-1.557-.968-2.514-2.159l-.021-.002c-.564,.704-1.379,1.506-2.514,2.161-.518,.299-1.617,.865-3.127,1.097l-.012,.017Z" stroke-linecap="round" stroke-linejoin="round" stroke="currentColor"></path><line x1="9" y1="1.25" x2="9" y2="16.75" stroke-linecap="round" stroke-linejoin="round"></line><line x1="15.712" y1="5.125" x2="2.288" y2="12.875" stroke-linecap="round" stroke-linejoin="round"></line><line x1="15.712" y1="12.875" x2="2.288" y2="5.125" stroke-linecap="round" stroke-linejoin="round"></line></g></svg>