<svg xmlns="http://www.w3.org/2000/svg" height="18" width="18" viewBox="0 0 18 18"><title>split video</title><g fill="none" stroke="currentColor" class="nc-icon-wrapper"><path d="M9,13.25H2.75c-.552,0-1-.448-1-1v-2.5c0-.552,.448-1,1-1h6.25" stroke-linecap="round" stroke-linejoin="round"></path><path d="M11.75,8.75h3.5c.552,0,1,.448,1,1v2.5c0,.552-.448,1-1,1h-3.5" stroke-linecap="round" stroke-linejoin="round" stroke="currentColor"></path><path d="M10.75,4.25l-1.75,2-1.75-2v-1.5c0-.552,.448-1,1-1h1.5c.552,0,1,.448,1,1v1.5Z" stroke-linecap="round" stroke-linejoin="round"></path><line x1="9" y1="6.25" x2="9" y2="16.25" stroke-linecap="round" stroke-linejoin="round"></line></g></svg>