<svg xmlns="http://www.w3.org/2000/svg" height="18" width="18" viewBox="0 0 18 18"><title>spray can</title><g fill="none" stroke="currentColor" class="nc-icon-wrapper"><polyline points="13.25 13.25 8.75 13.25 8.75 8.75 13.25 8.75" stroke="currentColor" stroke-linecap="round" stroke-linejoin="round"></polyline><circle cx="13.25" cy="2.75" r=".75" stroke="none" fill="currentColor"></circle><circle cx="15.75" cy="1.25" r=".75" stroke="none" fill="currentColor"></circle><circle cx="15.75" cy="4.25" r=".75" stroke="none" fill="currentColor"></circle><path d="M6.75,4.75h3.5c1.656,0,3,1.344,3,3v7.5c0,.552-.448,1-1,1H4.75c-.552,0-1-.448-1-1V7.75c0-1.656,1.344-3,3-3Z" stroke-linecap="round" stroke-linejoin="round"></path><path d="M6.75,4.75V1.75c0-.552,.448-1,1-1h1.5c.552,0,1,.448,1,1v3" stroke-linecap="round" stroke-linejoin="round"></path></g></svg>