<svg xmlns="http://www.w3.org/2000/svg" height="18" width="18" viewBox="0 0 18 18"><title>square user sparkle</title><g fill="none" stroke="currentColor" class="nc-icon-wrapper"><path d="M5.126,15.25c.444-1.725,2.01-3,3.874-3s3.43,1.275,3.874,3" stroke="currentColor" stroke-linecap="round" stroke-linejoin="round"></path><rect x="2.75" y="2.75" width="12.5" height="12.5" rx="2" ry="2" stroke-linecap="round" stroke-linejoin="round"></rect><path d="M11.59,7.16l-1.515-.506-.505-1.515c-.164-.49-.975-.49-1.139,0l-.505,1.515-1.515,.506c-.245,.081-.41,.311-.41,.569s.165,.488,.41,.569l1.515,.506,.505,1.515c.082,.245,.312,.41,.57,.41s.487-.165,.57-.41l.505-1.515,1.515-.506c.245-.081,.41-.311,.41-.569s-.165-.487-.41-.569Z" stroke="none" fill="currentColor"></path></g></svg>