<svg xmlns="http://www.w3.org/2000/svg" height="18" width="18" viewBox="0 0 18 18"><title>square circle group</title><g fill="none" stroke="currentColor" class="nc-icon-wrapper"><path d="M8.127,9.75c-.075,.238-.127,.487-.127,.75,0,1.381,1.119,2.5,2.5,2.5s2.5-1.119,2.5-2.5-1.119-2.5-2.5-2.5c-.263,0-.512,.052-.75,.127" stroke-linecap="round" stroke-linejoin="round" stroke="currentColor"></path><path d="M2.75,6.25v-1.5c0-1.105,.895-2,2-2h2" stroke-linecap="round" stroke-linejoin="round"></path><path d="M11.25,2.75h2c1.105,0,2,.895,2,2v1.5" stroke-linecap="round" stroke-linejoin="round"></path><path d="M15.25,11.75v1.5c0,1.105-.895,2-2,2h-2" stroke-linecap="round" stroke-linejoin="round"></path><path d="M6.75,15.25h-2c-1.105,0-2-.895-2-2v-1.5" stroke-linecap="round" stroke-linejoin="round"></path><rect x="5.25" y="5.25" width="4.5" height="4.5" stroke-linecap="round" stroke-linejoin="round"></rect></g></svg>