<svg xmlns="http://www.w3.org/2000/svg" height="18" width="18" viewBox="0 0 18 18"><title>square brackets curly</title><g fill="none" stroke="currentColor" class="nc-icon-wrapper"><rect x="2.75" y="2.75" width="12.5" height="12.5" rx="2" ry="2" stroke-linecap="round" stroke-linejoin="round"></rect><path d="M7.25,12.75c-.552,0-1-.448-1-1v-.789c0-.608-.276-1.182-.751-1.562l-.499-.4,.499-.4c.474-.38,.751-.954,.751-1.562v-.789c0-.552,.448-1,1-1" stroke-linecap="round" stroke-linejoin="round" stroke="currentColor"></path><path d="M10.75,12.75c.552,0,1-.448,1-1v-.789c0-.608,.276-1.182,.751-1.562l.499-.4-.499-.4c-.474-.38-.751-.954-.751-1.562v-.789c0-.552-.448-1-1-1" stroke-linecap="round" stroke-linejoin="round" stroke="currentColor"></path></g></svg>