<svg xmlns="http://www.w3.org/2000/svg" height="18" width="18" viewBox="0 0 18 18"><title>square command</title><g fill="none" stroke="currentColor" class="nc-icon-wrapper"><rect x="2.75" y="2.75" width="12.5" height="12.5" rx="2" ry="2" stroke-linecap="round" stroke-linejoin="round"></rect><rect x="7.75" y="7.75" width="2.5" height="2.5" stroke-linecap="round" stroke-linejoin="round" stroke="currentColor"></rect><path d="M6.5,5.25c-.69,0-1.25,.56-1.25,1.25s.56,1.25,1.25,1.25h1.25v-1.25c0-.69-.56-1.25-1.25-1.25Z" stroke-linecap="round" stroke-linejoin="round" stroke="currentColor"></path><path d="M12.75,6.5c0-.69-.56-1.25-1.25-1.25s-1.25,.56-1.25,1.25v1.25h1.25c.69,0,1.25-.56,1.25-1.25Z" stroke-linecap="round" stroke-linejoin="round" stroke="currentColor"></path><path d="M11.5,12.75c.69,0,1.25-.56,1.25-1.25s-.56-1.25-1.25-1.25h-1.25v1.25c0,.69,.56,1.25,1.25,1.25Z" stroke-linecap="round" stroke-linejoin="round" stroke="currentColor"></path><path d="M5.25,11.5c0,.69,.56,1.25,1.25,1.25s1.25-.56,1.25-1.25v-1.25h-1.25c-.69,0-1.25,.56-1.25,1.25Z" stroke-linecap="round" stroke-linejoin="round" stroke="currentColor"></path></g></svg>