<svg xmlns="http://www.w3.org/2000/svg" height="18" width="18" viewBox="0 0 18 18"><title>square chart pen</title><g fill="none" stroke="currentColor" class="nc-icon-wrapper"><line x1="4.75" y1="8.5" x2="4.75" y2="12.75" stroke-linecap="round" stroke-linejoin="round"></line><line x1="11.25" y1="10.75" x2="11.25" y2="12.75" stroke-linecap="round" stroke-linejoin="round"></line><line x1="8" y1="6.25" x2="8" y2="12.75" stroke-linecap="round" stroke-linejoin="round"></line><path d="M14.25,8.75v5c0,1.105-.895,2-2,2H3.75c-1.105,0-2-.895-2-2V5.25c0-1.105,.895-2,2-2h5.5" stroke-linecap="round" stroke-linejoin="round"></path><path d="M13.207,6.401c.143-.049,.273-.131,.38-.238l3.303-3.303c.483-.483,.478-1.261-.005-1.745h0c-.483-.483-1.261-.489-1.745-.005l-3.303,3.303c-.107,.107-.189,.237-.238,.38l-.849,2.457,2.457-.849Z" stroke-linecap="round" stroke-linejoin="round" stroke="currentColor"></path></g></svg>