<svg xmlns="http://www.w3.org/2000/svg" height="18" width="18" viewBox="0 0 18 18"><title>square chart lock</title><g fill="none" stroke="currentColor" class="nc-icon-wrapper"><line x1="3.75" y1="8.5" x2="3.75" y2="12.75" stroke-linecap="round" stroke-linejoin="round"></line><line x1="10.25" y1="10.75" x2="10.25" y2="12.75" stroke-linecap="round" stroke-linejoin="round"></line><line x1="7" y1="6.25" x2="7" y2="12.75" stroke-linecap="round" stroke-linejoin="round"></line><path d="M13.25,9.75v4c0,1.105-.895,2-2,2H2.75c-1.105,0-2-.895-2-2V5.25c0-1.105,.895-2,2-2h6" stroke-linecap="round" stroke-linejoin="round"></path><rect x="11.25" y="3.75" width="6" height="3.5" rx="1" ry="1" stroke-linecap="round" stroke-linejoin="round" stroke="currentColor"></rect><path d="M12.75,3.75v-1.5c0-.828,.672-1.5,1.5-1.5h0c.828,0,1.5,.672,1.5,1.5v1.5" stroke-linecap="round" stroke-linejoin="round" stroke="currentColor"></path></g></svg>