<svg xmlns="http://www.w3.org/2000/svg" height="18" width="18" viewBox="0 0 18 18"><title>square dots</title><g fill="none" stroke="currentColor" class="nc-icon-wrapper"><rect x="2.75" y="2.75" width="12.5" height="12.5" rx="2" ry="2" stroke-linecap="round" stroke-linejoin="round"></rect><path d="M9,8c.551,0,1,.449,1,1s-.449,1-1,1-1-.449-1-1,.449-1,1-1Z" stroke="none" fill="currentColor"></path><path d="M12.5,8c.551,0,1,.449,1,1s-.449,1-1,1-1-.449-1-1,.449-1,1-1Z" stroke="none" fill="currentColor"></path><path d="M5.5,8c.551,0,1,.449,1,1s-.449,1-1,1-1-.449-1-1,.449-1,1-1Z" stroke="none" fill="currentColor"></path></g></svg>