<svg xmlns="http://www.w3.org/2000/svg" height="18" width="18" viewBox="0 0 18 18"><title>square chart settings</title><g fill="none" stroke="currentColor" class="nc-icon-wrapper"><line x1="4.25" y1="8.5" x2="4.25" y2="12.75" stroke-linecap="round" stroke-linejoin="round"></line><line x1="10.75" y1="10.75" x2="10.75" y2="12.75" stroke-linecap="round" stroke-linejoin="round"></line><line x1="7.5" y1="6.25" x2="7.5" y2="12.75" stroke-linecap="round" stroke-linejoin="round"></line><path d="M13.75,10v3.75c0,1.105-.895,2-2,2H3.25c-1.105,0-2-.895-2-2V5.25c0-1.105,.895-2,2-2h4.879" stroke-linecap="round" stroke-linejoin="round"></path><line x1="13.75" y1="1" x2="13.75" y2="2.25" stroke-linecap="round" stroke-linejoin="round" stroke="currentColor"></line><line x1="16.048" y1="1.952" x2="15.164" y2="2.836" stroke-linecap="round" stroke-linejoin="round" stroke="currentColor"></line><line x1="17" y1="4.25" x2="15.75" y2="4.25" stroke-linecap="round" stroke-linejoin="round" stroke="currentColor"></line><line x1="16.048" y1="6.548" x2="15.164" y2="5.664" stroke-linecap="round" stroke-linejoin="round" stroke="currentColor"></line><line x1="13.75" y1="7.5" x2="13.75" y2="6.25" stroke-linecap="round" stroke-linejoin="round" stroke="currentColor"></line><line x1="11.452" y1="6.548" x2="12.336" y2="5.664" stroke-linecap="round" stroke-linejoin="round" stroke="currentColor"></line><line x1="10.5" y1="4.25" x2="11.75" y2="4.25" stroke-linecap="round" stroke-linejoin="round" stroke="currentColor"></line><line x1="11.452" y1="1.952" x2="12.336" y2="2.836" stroke-linecap="round" stroke-linejoin="round" stroke="currentColor"></line><circle cx="13.75" cy="4.25" r="1.75" stroke-linecap="round" stroke-linejoin="round" stroke="currentColor"></circle></g></svg>