<svg xmlns="http://www.w3.org/2000/svg" height="18" width="18" viewBox="0 0 18 18"><title>square grid 3</title><g fill="none" stroke="currentColor" class="nc-icon-wrapper"><rect x="2.75" y="2.75" width="12.5" height="12.5" rx="2" ry="2" stroke-linecap="round" stroke-linejoin="round"></rect><rect x="8" y="5" width="2" height="2" rx=".4" ry=".4" stroke="none" fill="currentColor"></rect><rect x="8" y="8" width="2" height="2" rx=".4" ry=".4" stroke="none" fill="currentColor"></rect><rect x="8" y="11" width="2" height="2" rx=".4" ry=".4" stroke="none" fill="currentColor"></rect><rect x="5" y="5" width="2" height="2" rx=".4" ry=".4" stroke="none" fill="currentColor"></rect><rect x="5" y="8" width="2" height="2" rx=".4" ry=".4" stroke="none" fill="currentColor"></rect><rect x="5" y="11" width="2" height="2" rx=".4" ry=".4" stroke="none" fill="currentColor"></rect><rect x="11" y="5" width="2" height="2" rx=".4" ry=".4" stroke="none" fill="currentColor"></rect><rect x="11" y="8" width="2" height="2" rx=".4" ry=".4" stroke="none" fill="currentColor"></rect><rect x="11" y="11" width="2" height="2" rx=".4" ry=".4" stroke="none" fill="currentColor"></rect></g></svg>