<svg xmlns="http://www.w3.org/2000/svg" height="18" width="18" viewBox="0 0 18 18"><title>square chart heart</title><g fill="none" stroke="currentColor" class="nc-icon-wrapper"><line x1="4.75" y1="8.5" x2="4.75" y2="12.75" stroke-linecap="round" stroke-linejoin="round"></line><line x1="11.25" y1="10.75" x2="11.25" y2="12.75" stroke-linecap="round" stroke-linejoin="round"></line><line x1="8" y1="6.25" x2="8" y2="12.75" stroke-linecap="round" stroke-linejoin="round"></line><path d="M14.25,9v4.75c0,1.105-.895,2-2,2H3.75c-1.105,0-2-.895-2-2V5.25c0-1.105,.895-2,2-2h4.5" stroke-linecap="round" stroke-linejoin="round"></path><path d="M13.781,6.447c.138,.071,.299,.071,.437,0,.729-.374,3.031-1.73,3.031-3.934,.004-.968-.791-1.757-1.777-1.763-.593,.007-1.144,.301-1.473,.786-.329-.484-.881-.778-1.473-.786-.985,.006-1.78,.794-1.777,1.763,0,2.205,2.303,3.56,3.031,3.934Z" stroke-linecap="round" stroke-linejoin="round" stroke="currentColor"></path></g></svg>