<svg xmlns="http://www.w3.org/2000/svg" height="18" width="18" viewBox="0 0 18 18"><title>suitcase star</title><g fill="none" stroke="currentColor" class="nc-icon-wrapper"><path d="M6.25,4.75V2.25c0-.552,.448-1,1-1h3.5c.552,0,1,.448,1,1v2.5" stroke-linecap="round" stroke-linejoin="round"></path><path d="M16.25,10.83V6.75c0-1.104-.895-2-2-2H3.75c-1.105,0-2,.896-2,2v6.5c0,1.104,.895,2,2,2h4.786" stroke-linecap="round" stroke-linejoin="round"></path><polygon points="13.5 11.068 14.504 13.103 16.75 13.429 15.125 15.013 15.509 17.25 13.5 16.194 11.491 17.25 11.875 15.013 10.25 13.429 12.496 13.103 13.5 11.068" stroke-linecap="round" stroke-linejoin="round" stroke="currentColor"></polygon></g></svg>