<svg xmlns="http://www.w3.org/2000/svg" height="18" width="18" viewBox="0 0 18 18"><title>suitcase music</title><g fill="none" stroke="currentColor" class="nc-icon-wrapper"><path d="M6.25,4.75V2.25c0-.552,.448-1,1-1h3.5c.552,0,1,.448,1,1v2.5" stroke-linecap="round" stroke-linejoin="round"></path><circle cx="13.25" cy="15.75" r="1.5" stroke-linecap="round" stroke-linejoin="round" stroke="currentColor"></circle><path d="M16.25,8.75v-2c0-1.104-.895-2-2-2H3.75c-1.105,0-2,.896-2,2v6.5c0,1.104,.895,2,2,2h5.543" stroke-linecap="round" stroke-linejoin="round"></path><path d="M14.75,15.75v-5c.317,.323,.73,.692,1.25,1.047,.45,.307,.879,.535,1.25,.703" stroke-linecap="round" stroke-linejoin="round" stroke="currentColor"></path></g></svg>