<svg xmlns="http://www.w3.org/2000/svg" height="18" width="18" viewBox="0 0 18 18"><title>suitcase cloud</title><g fill="none" stroke="currentColor" class="nc-icon-wrapper"><path d="M6.25,4.75V2.25c0-.552,.448-1,1-1h3.5c.552,0,1,.448,1,1v2.5" stroke-linecap="round" stroke-linejoin="round"></path><path d="M16.25,9.438v-2.688c0-1.104-.895-2-2-2H3.75c-1.105,0-2,.896-2,2v6.5c0,1.104,.895,2,2,2h4.538" stroke-linecap="round" stroke-linejoin="round"></path><path d="M15,11.75c-1.131,0-2.058,.837-2.217,1.925-.196-.108-.418-.175-.658-.175-.759,0-1.375,.616-1.375,1.375s.616,1.375,1.375,1.375h2.875c1.243,0,2.25-1.007,2.25-2.25s-1.007-2.25-2.25-2.25Z" stroke-linecap="round" stroke-linejoin="round" stroke="currentColor"></path></g></svg>