<svg xmlns="http://www.w3.org/2000/svg" height="18" width="18" viewBox="0 0 18 18"><title>suitcase bookmark</title><g fill="none" stroke="currentColor" class="nc-icon-wrapper"><path d="M6.25,4.75V2.25c0-.552,.448-1,1-1h3.5c.552,0,1,.448,1,1v2.5" stroke-linecap="round" stroke-linejoin="round"></path><path d="M16.25,8.25v-1.5c0-1.104-.895-2-2-2H3.75c-1.105,0-2,.896-2,2v6.5c0,1.104,.895,2,2,2h6.5" stroke-linecap="round" stroke-linejoin="round"></path><path d="M17.25,17.25l-2.25-2.25-2.25,2.25v-5.5c0-.552,.448-1,1-1h2.5c.552,0,1,.448,1,1v5.5Z" stroke-linecap="round" stroke-linejoin="round" stroke="currentColor"></path></g></svg>