<svg xmlns="http://www.w3.org/2000/svg" height="18" width="18" viewBox="0 0 18 18"><title>suitcase link</title><g fill="none" stroke="currentColor" class="nc-icon-wrapper"><path d="M6.25,4.75V2.25c0-.552,.448-1,1-1h3.5c.552,0,1,.448,1,1v2.5" stroke-linecap="round" stroke-linejoin="round"></path><path d="M12.75,17.25h-.5c-.828,0-1.5-.672-1.5-1.5v-1c0-.828,.672-1.5,1.5-1.5h.5" stroke-linecap="round" stroke-linejoin="round" stroke="currentColor"></path><path d="M16.25,10.801V6.75c0-1.104-.895-2-2-2H3.75c-1.105,0-2,.896-2,2v6.5c0,1.104,.895,2,2,2h4.5" stroke-linecap="round" stroke-linejoin="round"></path><path d="M15.25,17.25h.5c.828,0,1.5-.672,1.5-1.5v-1c0-.828-.672-1.5-1.5-1.5h-.5" stroke-linecap="round" stroke-linejoin="round" stroke="currentColor"></path><line x1="13.25" y1="15.25" x2="14.75" y2="15.25" stroke-linecap="round" stroke-linejoin="round" stroke="currentColor"></line></g></svg>