<svg xmlns="http://www.w3.org/2000/svg" height="18" width="18" viewBox="0 0 18 18"><title>suitcase lock</title><g fill="none" stroke="currentColor" class="nc-icon-wrapper"><path d="M6.25,4.75V2.25c0-.552,.448-1,1-1h3.5c.552,0,1,.448,1,1v2.5" stroke-linecap="round" stroke-linejoin="round"></path><rect x="11.25" y="13.75" width="6" height="3.5" rx="1" ry="1" stroke-linecap="round" stroke-linejoin="round" stroke="currentColor"></rect><path d="M16.25,8.802v-2.052c0-1.104-.895-2-2-2H3.75c-1.105,0-2,.896-2,2v6.5c0,1.104,.895,2,2,2h5" stroke-linecap="round" stroke-linejoin="round"></path><path d="M12.75,13.75v-1.5c0-.828,.672-1.5,1.5-1.5h0c.828,0,1.5,.672,1.5,1.5v1.5" stroke-linecap="round" stroke-linejoin="round" stroke="currentColor"></path></g></svg>