<svg xmlns="http://www.w3.org/2000/svg" height="18" width="18" viewBox="0 0 18 18"><title>sun cloud bolt</title><g fill="none" stroke="currentColor" class="nc-icon-wrapper"><path d="M8.251,6.826c0-.025,0-.05,0-.076,0-1.657,1.343-3,3-3s3,1.343,3,3c0,.084-.003,.168-.01,.25" stroke="currentColor" stroke-linecap="round" stroke-linejoin="round"></path><line x1="11.25" y1=".75" x2="11.25" y2="1.25" stroke="currentColor" stroke-linecap="round" stroke-linejoin="round"></line><line x1="15.493" y1="2.507" x2="15.139" y2="2.861" stroke="currentColor" stroke-linecap="round" stroke-linejoin="round"></line><line x1="7.007" y1="2.507" x2="7.361" y2="2.861" stroke="currentColor" stroke-linecap="round" stroke-linejoin="round"></line><line x1="17.25" y1="6.75" x2="16.75" y2="6.75" stroke="currentColor" stroke-linecap="round" stroke-linejoin="round"></line><path d="M13,14.25h.75c1.381,0,2.5-1.119,2.5-2.5s-1.119-2.5-2.5-2.5c-.413,0-.797,.11-1.14,.287-.427-1.602-1.874-2.787-3.61-2.787s-3.182,1.186-3.61,2.787c-.343-.177-.727-.287-1.14-.287-1.381,0-2.5,1.119-2.5,2.5,0,1.296,.987,2.362,2.25,2.488" stroke-linecap="round" stroke-linejoin="round"></path><path d="M11.585,10.499c.239-.413,.594-.752,1.02-.972" stroke-linecap="round" stroke-linejoin="round"></path><polygon points="9.25 10.75 6.5 14.25 8.905 14.25 7.75 17.25 10.5 13.75 8.095 13.75 9.25 10.75" stroke="currentColor" stroke-linecap="round" stroke-linejoin="round"></polygon></g></svg>