<svg xmlns="http://www.w3.org/2000/svg" height="18" width="18" viewBox="0 0 18 18"><title>sun cloud snow</title><g fill="none" stroke="currentColor" class="nc-icon-wrapper"><path d="M8.251,6.826c0-.025,0-.05,0-.076,0-1.657,1.343-3,3-3s3,1.343,3,3c0,.084-.003,.168-.01,.25" stroke-linecap="round" stroke-linejoin="round" stroke="currentColor"></path><line x1="11.25" y1=".75" x2="11.25" y2="1.25" stroke-linecap="round" stroke-linejoin="round" stroke="currentColor"></line><line x1="15.493" y1="2.507" x2="15.139" y2="2.861" stroke-linecap="round" stroke-linejoin="round" stroke="currentColor"></line><line x1="7.007" y1="2.507" x2="7.361" y2="2.861" stroke-linecap="round" stroke-linejoin="round" stroke="currentColor"></line><line x1="17.25" y1="6.75" x2="16.75" y2="6.75" stroke-linecap="round" stroke-linejoin="round" stroke="currentColor"></line><path d="M13.25,14.25h.5c1.381,0,2.5-1.119,2.5-2.5s-1.119-2.5-2.5-2.5c-.413,0-.797,.11-1.14,.287-.427-1.602-1.874-2.787-3.61-2.787s-3.182,1.186-3.61,2.787c-.343-.177-.727-.287-1.14-.287-1.381,0-2.5,1.119-2.5,2.5s1.119,2.5,2.5,2.5" stroke-linecap="round" stroke-linejoin="round"></path><path d="M11.585,10.499c.239-.413,.594-.752,1.02-.972" stroke-linecap="round" stroke-linejoin="round"></path><line x1="8.75" y1="12.25" x2="8.75" y2="17.25" stroke-linecap="round" stroke-linejoin="round" stroke="currentColor"></line><line x1="6.585" y1="13.5" x2="10.915" y2="16" stroke-linecap="round" stroke-linejoin="round" stroke="currentColor"></line><line x1="6.585" y1="16" x2="10.915" y2="13.5" stroke-linecap="round" stroke-linejoin="round" stroke="currentColor"></line></g></svg>