<svg xmlns="http://www.w3.org/2000/svg" height="18" width="18" viewBox="0 0 18 18"><title>sun cloud droplet</title><g fill="none" stroke="currentColor" class="nc-icon-wrapper"><line x1="17.25" y1="6.75" x2="16.75" y2="6.75" stroke-linecap="round" stroke-linejoin="round" stroke="currentColor"></line><path d="M8.251,6.826c0-.025,0-.05,0-.076,0-1.657,1.343-3,3-3s3,1.343,3,3c0,.084-.003,.168-.01,.25" stroke-linecap="round" stroke-linejoin="round" stroke="currentColor"></path><line x1="11.25" y1=".75" x2="11.25" y2="1.25" stroke-linecap="round" stroke-linejoin="round" stroke="currentColor"></line><line x1="15.493" y1="2.507" x2="15.139" y2="2.861" stroke-linecap="round" stroke-linejoin="round" stroke="currentColor"></line><line x1="7.007" y1="2.507" x2="7.361" y2="2.861" stroke-linecap="round" stroke-linejoin="round" stroke="currentColor"></line><path d="M4.75,14.25h-.5c-1.381,0-2.5-1.119-2.5-2.5s1.119-2.5,2.5-2.5c.413,0,.797,.11,1.14,.287,.427-1.602,1.874-2.787,3.61-2.787,1.736,0,3.182,1.186,3.61,2.787,.343-.177,.727-.287,1.14-.287,1.381,0,2.5,1.119,2.5,2.5s-1.119,2.5-2.5,2.5h-.5" stroke-linecap="round" stroke-linejoin="round"></path><path d="M11.585,10.499c.239-.413,.594-.752,1.02-.972" stroke-linecap="round" stroke-linejoin="round"></path><path d="M9,17.25c1.036,0,1.875-.852,1.875-1.903,0-1.445-1.051-2.063-1.875-3.097-.824,1.034-1.875,1.652-1.875,3.097,0,1.051,.839,1.903,1.875,1.903Z" stroke-linecap="round" stroke-linejoin="round" stroke="currentColor"></path></g></svg>