<svg xmlns="http://www.w3.org/2000/svg" height="18" width="18" viewBox="0 0 18 18"><title>taxi</title><g fill="none" stroke="currentColor" class="nc-icon-wrapper"><polyline points="7.75 2.75 7.75 1.75 10.25 1.75 10.25 2.75" stroke="currentColor" stroke-linecap="round" stroke-linejoin="round"></polyline><path d="M1.75,13.25v1.5c0,.276,.224,.5,.5,.5h1c.276,0,.5-.224,.5-.5v-1.5H1.75Z" stroke-linecap="round" stroke-linejoin="round"></path><path d="M14.25,13.25v1.5c0,.276,.224,.5,.5,.5h1c.276,0,.5-.224,.5-.5v-1.5h-2Z" stroke-linecap="round" stroke-linejoin="round"></path><circle cx="4.25" cy="10.25" r=".75" stroke="none" fill="currentColor"></circle><circle cx="13.75" cy="10.25" r=".75" stroke="none" fill="currentColor"></circle><path d="M12.012,2.75H5.988c-.883,0-1.662,.579-1.916,1.425l-1.072,3.575-.664,.664c-.375,.375-.586,.884-.586,1.414v3.422h14.5v-3.422c0-.53-.211-1.039-.586-1.414l-.664-.664-1.072-3.575c-.254-.846-1.032-1.425-1.916-1.425Z" stroke-linecap="round" stroke-linejoin="round"></path><line x1="1.5" y1="7.75" x2="16.5" y2="7.75" stroke-linecap="round" stroke-linejoin="round"></line><line x1="7.5" y1="10.75" x2="10.5" y2="10.75" stroke="currentColor" stroke-linecap="round" stroke-linejoin="round"></line></g></svg>