<svg xmlns="http://www.w3.org/2000/svg" height="18" width="18" viewBox="0 0 18 18"><title>text to image</title><g fill="none" stroke="currentColor" class="nc-icon-wrapper"><path d="M15,5.75h.25c1.105,0,2,.895,2,2v6.5c0,1.105-.895,2-2,2h-6.5c-1.105,0-2-.895-2-2V7.75c0-1.105,.895-2,2-2h1.25" stroke-linecap="round" stroke-linejoin="round"></path><path d="M10,10c-.551,0-1-.449-1-1s.449-1,1-1,1,.449,1,1-.449,1-1,1Z" fill="currentColor" stroke="none"></path><path d="M8.101,16.142l5.105-5.099c.391-.391,1.024-.391,1.414,0l2.63,2.63" stroke-linecap="round" stroke-linejoin="round"></path><line x1="3.25" y1="1.25" x2="3.25" y2="7.25" stroke-linecap="round" stroke-linejoin="round"></line><line x1="5.75" y1="1.25" x2=".75" y2="1.25" stroke-linecap="round" stroke-linejoin="round"></line><path d="M4.743,13.769l-.946-.315-.316-.947c-.102-.306-.609-.306-.711,0l-.316,.947-.946,.315c-.153,.051-.257,.194-.257,.356s.104,.305,.257,.356l.946,.315,.316,.947c.051,.153,.194,.256,.355,.256s.305-.104,.355-.256l.316-.947,.946-.315c.153-.051,.257-.194,.257-.356s-.104-.305-.257-.356Z" stroke="none" fill="currentColor"></path><path d="M14.658,3.026l-1.263-.421-.421-1.263c-.137-.408-.812-.408-.949,0l-.421,1.263-1.263,.421c-.204,.068-.342,.259-.342,.474s.138,.406,.342,.474l1.263,.421,.421,1.263c.068,.204,.26,.342,.475,.342s.406-.138,.475-.342l.421-1.263,1.263-.421c.204-.068,.342-.259,.342-.474s-.138-.406-.342-.474Z" stroke="none" fill="currentColor"></path><circle cx="1.75" cy="10.25" r=".75" stroke="none" fill="currentColor"></circle></g></svg>