<svg xmlns="http://www.w3.org/2000/svg" height="18" width="18" viewBox="0 0 18 18"><title>text lowercase</title><g fill="none" stroke="currentColor" class="nc-icon-wrapper"><rect x="10.355" y="6.75" width="4.395" height="5" rx="2.095" ry="2.095" stroke-linecap="round" stroke-linejoin="round" stroke="currentColor"></rect><path d="M14.75,6.75v6.303c0,1.214-.984,2.197-2.197,2.197h0c-.728,0-1.373-.354-1.773-.899" stroke-linecap="round" stroke-linejoin="round" stroke="currentColor"></path><path d="M3.234,7.234c.486-.523,1.178-.734,1.881-.734h0c1.179,0,2.134,.956,2.134,2.134v3.616" stroke-linecap="round" stroke-linejoin="round"></path><path d="M4.5,9.25h2.75v.25c0,1.518-1.232,2.75-2.75,2.75h0c-.828,0-1.5-.672-1.5-1.5h0c0-.828,.672-1.5,1.5-1.5Z" stroke-linecap="round" stroke-linejoin="round"></path></g></svg>