<svg xmlns="http://www.w3.org/2000/svg" height="18" width="18" viewBox="0 0 18 18"><title>text a sparkle</title><g fill="none" stroke="currentColor" class="nc-icon-wrapper"><line x1="5.108" y1="11.75" x2="12.892" y2="11.75" stroke-linecap="round" stroke-linejoin="round"></line><polyline points="14.25 15.25 9.401 2.75 8.599 2.75 5.108 11.75" stroke-linecap="round" stroke-linejoin="round"></polyline><path d="M15.493,1.492l-.946-.315-.316-.947c-.102-.306-.609-.306-.711,0l-.316,.947-.946,.315c-.153,.051-.257,.194-.257,.356s.104,.305,.257,.356l.946,.315,.316,.947c.051,.153,.194,.256,.355,.256s.305-.104,.355-.256l.316-.947,.946-.315c.153-.051,.257-.194,.257-.356s-.104-.305-.257-.356Z" stroke="none" fill="currentColor"></path><path d="M4.658,13.526l-1.263-.421-.421-1.263c-.137-.408-.812-.408-.949,0l-.421,1.263-1.263,.421c-.204,.068-.342,.259-.342,.474s.138,.406,.342,.474l1.263,.421,.421,1.263c.068,.204,.26,.342,.475,.342s.406-.138,.475-.342l.421-1.263,1.263-.421c.204-.068,.342-.259,.342-.474s-.138-.406-.342-.474Z" stroke="none" fill="currentColor"></path><circle cx="2.75" cy="5.25" r=".75" stroke="none" fill="currentColor"></circle></g></svg>