<svg xmlns="http://www.w3.org/2000/svg" height="18" width="18" viewBox="0 0 18 18"><title>thread</title><g fill="none" stroke="currentColor" class="nc-icon-wrapper"><path d="M16.933,7.567c.316,1.344-.517,2.69-1.861,3.006l-1.822,.429" stroke-linecap="round" stroke-linejoin="round" stroke="currentColor"></path><line x1="13.25" y1="11" x2="4.75" y2="13" stroke-linecap="round" stroke-linejoin="round" stroke="currentColor"></line><line x1="13.25" y1="8" x2="4.75" y2="10" stroke-linecap="round" stroke-linejoin="round" stroke="currentColor"></line><line x1="13.25" y1="5" x2="4.75" y2="7" stroke-linecap="round" stroke-linejoin="round" stroke="currentColor"></line><path d="M13.556,13.496l.991,1.61c.308,.5-.052,1.143-.639,1.143H4.092c-.587,0-.946-.643-.639-1.143l1.297-2.107V7" stroke-linecap="round" stroke-linejoin="round"></path><path d="M4.444,4.504l-.991-1.61c-.308-.5,.052-1.143,.639-1.143H13.908c.587,0,.946,.643,.639,1.143l-1.297,2.107v6" stroke-linecap="round" stroke-linejoin="round"></path></g></svg>