<svg xmlns="http://www.w3.org/2000/svg" height="18" width="18" viewBox="0 0 18 18"><title>ticket 2</title><g fill="none" stroke="currentColor" class="nc-icon-wrapper"><path d="M14.5,9c0-.967,.784-1.75,1.75-1.75v-1.5c0-1.104-.895-2-2-2H3.75c-1.105,0-2,.896-2,2v1.5c.966,0,1.75,.783,1.75,1.75s-.784,1.75-1.75,1.75v1.5c0,1.104,.895,2,2,2H14.25c1.105,0,2-.896,2-2v-1.5c-.966,0-1.75-.783-1.75-1.75Z" stroke-linecap="round" stroke-linejoin="round"></path><circle cx="11.25" cy="8.875" r=".75" stroke="none" fill="currentColor"></circle><circle cx="11.25" cy="6.25" r=".75" stroke="none" fill="currentColor"></circle><circle cx="11.25" cy="11.75" r=".75" stroke="none" fill="currentColor"></circle></g></svg>