<svg xmlns="http://www.w3.org/2000/svg" height="18" width="18" viewBox="0 0 18 18"><title>top hat</title><g fill="none" stroke="currentColor" class="nc-icon-wrapper"><path d="M14.25,14.75c-.271-1.725-.472-3.767-.469-6.062,.003-1.769,.127-3.386,.31-4.821,.076-.595-.391-1.116-.991-1.116h-4.1s-4.1,0-4.1,0c-.6,0-1.067,.521-.991,1.116,.183,1.436,.307,3.053,.31,4.821,.004,2.295-.198,4.338-.469,6.062" stroke-linecap="round" stroke-linejoin="round"></path><line x1="4.167" y1="10.75" x2="13.833" y2="10.75" stroke-linecap="round" stroke-linejoin="round"></line><path d="M16.75,12.75c0,1.105-.895,2-2,2h-5.75s-5.75,0-5.75,0c-1.105,0-2-.895-2-2" stroke-linecap="round" stroke-linejoin="round" stroke="currentColor"></path></g></svg>