<svg xmlns="http://www.w3.org/2000/svg" height="18" width="18" viewBox="0 0 18 18"><title>tree 2</title><g fill="none" stroke="currentColor" class="nc-icon-wrapper"><line x1="9" y1="16.25" x2="9" y2="6.75" stroke-linecap="round" stroke-linejoin="round" stroke="currentColor"></line><path d="M11.75,13.25h.75c2.071,0,3.75-1.679,3.75-3.75,0-1.902-1.42-3.456-3.255-3.7,0-.017,.005-.033,.005-.05,0-2.209-1.791-4-4-4s-4,1.791-4,4c0,.017,.005,.033,.005,.05-1.835,.245-3.255,1.799-3.255,3.7,0,2.071,1.679,3.75,3.75,3.75h.75" stroke-linecap="round" stroke-linejoin="round"></path><line x1="9" y1="12.25" x2="6.5" y2="9.75" stroke-linecap="round" stroke-linejoin="round" stroke="currentColor"></line><line x1="9" y1="10.5" x2="11" y2="8.5" stroke-linecap="round" stroke-linejoin="round" stroke="currentColor"></line></g></svg>