<svg xmlns="http://www.w3.org/2000/svg" height="18" width="18" viewBox="0 0 18 18"><title>truck search</title><g fill="none" stroke="currentColor" class="nc-icon-wrapper"><circle cx="4.5" cy="14.5" r="1.75" stroke-linecap="round" stroke-linejoin="round"></circle><circle cx="12.25" cy="14.5" r="1.75" stroke-linecap="round" stroke-linejoin="round"></circle><line x1="10.519" y1="14.25" x2="6.25" y2="14.25" stroke-linecap="round" stroke-linejoin="round"></line><path d="M7.75,3.25h2.5c1.105,0,2,.895,2,2v7.5" stroke-linecap="round" stroke-linejoin="round"></path><path d="M2.768,14.25h-.018c-1.105,0-2-.895-2-2V7.25" stroke-linecap="round" stroke-linejoin="round"></path><path d="M12.25,6.25h2.204c.34,0,.657,.173,.841,.459l1.796,2.794c.104,.161,.159,.349,.159,.541v2.206c0,1.105-.895,2-2,2h-1.25" stroke-linecap="round" stroke-linejoin="round"></path><line x1="12.25" y1="9.75" x2="17.153" y2="9.75" stroke-linecap="round" stroke-linejoin="round"></line><circle cx="3" cy="3" r="2.25" stroke-linecap="round" stroke-linejoin="round" stroke="currentColor"></circle><line x1="4.59" y1="4.59" x2="6.25" y2="6.25" stroke-linecap="round" stroke-linejoin="round" stroke="currentColor"></line></g></svg>