<svg xmlns="http://www.w3.org/2000/svg" height="18" width="18" viewBox="0 0 18 18"><title>truck heart</title><g fill="none" stroke="currentColor" class="nc-icon-wrapper"><circle cx="4.5" cy="14" r="1.75" stroke-linecap="round" stroke-linejoin="round"></circle><circle cx="12.25" cy="14" r="1.75" stroke-linecap="round" stroke-linejoin="round"></circle><line x1="10.519" y1="13.75" x2="6.25" y2="13.75" stroke-linecap="round" stroke-linejoin="round"></line><path d="M9.75,2.75h.5c1.105,0,2,.895,2,2v7.5" stroke-linecap="round" stroke-linejoin="round"></path><path d="M2.768,13.75h-.018c-1.105,0-2-.895-2-2V7.42" stroke-linecap="round" stroke-linejoin="round"></path><path d="M12.25,5.75h2.204c.34,0,.657,.173,.841,.459l1.796,2.794c.104,.161,.159,.349,.159,.541v2.206c0,1.105-.895,2-2,2h-1.25" stroke-linecap="round" stroke-linejoin="round"></path><line x1="12.25" y1="9.25" x2="17.153" y2="9.25" stroke-linecap="round" stroke-linejoin="round"></line><path d="M3.781,6.447c.138,.071,.299,.071,.437,0,.729-.374,3.031-1.73,3.031-3.934,.004-.968-.791-1.757-1.777-1.763-.593,.007-1.144,.301-1.473,.786-.329-.484-.881-.778-1.473-.786-.985,.006-1.78,.794-1.777,1.763,0,2.205,2.303,3.56,3.031,3.934Z" stroke-linecap="round" stroke-linejoin="round" stroke="currentColor"></path></g></svg>