<svg xmlns="http://www.w3.org/2000/svg" height="18" width="18" viewBox="0 0 18 18"><title>truck pen</title><g fill="none" stroke="currentColor" class="nc-icon-wrapper"><circle cx="4.5" cy="14.5" r="1.75" stroke-linecap="round" stroke-linejoin="round"></circle><circle cx="12.25" cy="14.5" r="1.75" stroke-linecap="round" stroke-linejoin="round"></circle><line x1="10.519" y1="14.25" x2="6.25" y2="14.25" stroke-linecap="round" stroke-linejoin="round"></line><path d="M9.53,3.25h.72c1.105,0,2,.895,2,2v7.5" stroke-linecap="round" stroke-linejoin="round"></path><path d="M2.768,14.25h-.018c-1.105,0-2-.895-2-2v-2.5" stroke-linecap="round" stroke-linejoin="round"></path><path d="M12.25,6.25h2.204c.34,0,.657,.173,.841,.459l1.796,2.794c.104,.161,.159,.349,.159,.541v2.206c0,1.105-.895,2-2,2h-1.25" stroke-linecap="round" stroke-linejoin="round"></path><line x1="12.25" y1="9.75" x2="17.153" y2="9.75" stroke-linecap="round" stroke-linejoin="round"></line><path d="M3.207,6.401c.143-.049,.273-.131,.38-.238l3.303-3.303c.483-.483,.478-1.261-.005-1.745h0c-.483-.483-1.261-.489-1.745-.005L1.837,4.413c-.107,.107-.189,.237-.238,.38l-.849,2.457,2.457-.849Z" stroke-linecap="round" stroke-linejoin="round" stroke="currentColor"></path></g></svg>