<svg xmlns="http://www.w3.org/2000/svg" height="18" width="18" viewBox="0 0 18 18"><title>truck alert</title><g fill="none" stroke="currentColor" class="nc-icon-wrapper"><circle cx="4.5" cy="14" r="1.75" stroke-linecap="round" stroke-linejoin="round"></circle><circle cx="12.25" cy="14" r="1.75" stroke-linecap="round" stroke-linejoin="round"></circle><line x1="10.519" y1="13.75" x2="6.25" y2="13.75" stroke-linecap="round" stroke-linejoin="round"></line><path d="M6.75,2.75h3.5c1.105,0,2,.895,2,2v7.5" stroke-linecap="round" stroke-linejoin="round"></path><path d="M2.768,13.75h-.018c-1.105,0-2-.895-2-2V4.75c0-.74,.402-1.386,.999-1.732" stroke-linecap="round" stroke-linejoin="round"></path><path d="M12.25,5.75h2.204c.34,0,.657,.173,.841,.459l1.796,2.794c.104,.161,.159,.349,.159,.541v2.206c0,1.105-.895,2-2,2h-1.25" stroke-linecap="round" stroke-linejoin="round"></path><line x1="12.25" y1="9.25" x2="17.153" y2="9.25" stroke-linecap="round" stroke-linejoin="round"></line><line x1="4.25" y1="3.5" x2="4.25" y2=".75" stroke="currentColor" stroke-linecap="round" stroke-linejoin="round"></line><circle cx="4.25" cy="5.75" r=".75" stroke="none" fill="currentColor"></circle></g></svg>