<svg xmlns="http://www.w3.org/2000/svg" height="18" width="18" viewBox="0 0 18 18"><title>truck refresh</title><g fill="none" stroke="currentColor" class="nc-icon-wrapper"><circle cx="4.5" cy="14" r="1.75" stroke-linecap="round" stroke-linejoin="round"></circle><circle cx="12.25" cy="14" r="1.75" stroke-linecap="round" stroke-linejoin="round"></circle><line x1="10.519" y1="13.75" x2="6.25" y2="13.75" stroke-linecap="round" stroke-linejoin="round"></line><path d="M9.25,2.75h1c1.105,0,2,.895,2,2v7.5" stroke-linecap="round" stroke-linejoin="round"></path><path d="M2.768,13.75h-.018c-1.105,0-2-.895-2-2v-3.63" stroke-linecap="round" stroke-linejoin="round"></path><path d="M12.25,5.75h2.204c.34,0,.657,.173,.841,.459l1.796,2.794c.104,.161,.159,.349,.159,.541v2.206c0,1.105-.895,2-2,2h-1.25" stroke-linecap="round" stroke-linejoin="round"></path><line x1="12.25" y1="9.25" x2="17.153" y2="9.25" stroke-linecap="round" stroke-linejoin="round"></line><polyline points="4.25 3.25 6.75 3.25 6.75 .75" stroke-linecap="round" stroke-linejoin="round" stroke="currentColor"></polyline><path d="M6,5.887c-.501,.531-1.212,.863-2,.863-1.519,0-2.75-1.231-2.75-2.75S2.481,1.25,4,1.25c1.166,0,2.162,.726,2.563,1.75" stroke-linecap="round" stroke-linejoin="round" stroke="currentColor"></path></g></svg>