<svg xmlns="http://www.w3.org/2000/svg" height="18" width="18" viewBox="0 0 18 18"><title>umbrella</title><g fill="none" stroke="currentColor" class="nc-icon-wrapper"><path d="M9,7.75c1.486,0,2.306,1.15,2.375,1.25,.077-.106,.96-1.282,2.5-1.25,1.463,.03,2.285,1.126,2.375,1.25,0-4.004-3.246-7.25-7.25-7.25C4.996,1.75,1.75,4.996,1.75,9c.09-.124,.912-1.22,2.375-1.25,1.54-.032,2.423,1.144,2.5,1.25,.069-.1,.889-1.25,2.375-1.25Z" stroke-linecap="round" stroke-linejoin="round"></path><path d="M5.75,14.625c0,.897,.728,1.625,1.625,1.625s1.625-.728,1.625-1.625v-4.125" stroke-linecap="round" stroke-linejoin="round" stroke="currentColor"></path><path d="M6.625,9c0-4.004,1.063-7.25,2.375-7.25s2.375,3.246,2.375,7.25" stroke-linecap="round" stroke-linejoin="round"></path><line x1="9" y1=".75" x2="9" y2="1.75" stroke-linecap="round" stroke-linejoin="round"></line></g></svg>