<svg xmlns="http://www.w3.org/2000/svg" height="18" width="18" viewBox="0 0 18 18"><title>umbrella beach</title><g fill="none" stroke="currentColor" class="nc-icon-wrapper"><path d="M7.722,6.907c1.242-.263,2.13,.553,2.205,.625,.045-.102,.576-1.241,1.868-1.486,1.228-.233,2.108,.537,2.205,.625-.707-3.345-3.993-5.484-7.338-4.777C3.316,2.601,1.178,5.887,1.885,9.232c.053-.12,.546-1.18,1.764-1.464,1.281-.299,2.227,.528,2.31,.603,.04-.096,.522-1.201,1.764-1.464Z" stroke-linecap="round" stroke-linejoin="round"></path><path d="M5.958,8.371c-.707-3.345-.392-6.245,.704-6.477s2.558,2.292,3.265,5.638" stroke-linecap="round" stroke-linejoin="round"></path><path d="M3.75,15.75c1.109-.426,2.938-.974,5.25-.974s4.141,.548,5.25,.974" stroke-linecap="round" stroke-linejoin="round" stroke="currentColor"></path><line x1="8.207" y1="9.346" x2="9.25" y2="14.776" stroke-linecap="round" stroke-linejoin="round" stroke="currentColor"></line></g></svg>