<svg xmlns="http://www.w3.org/2000/svg" height="18" width="18" viewBox="0 0 18 18"><title>users minus</title><g fill="none" stroke="currentColor" class="nc-icon-wrapper"><circle cx="7" cy="4.75" r="2.25" stroke-linecap="round" stroke-linejoin="round"></circle><path d="M11.233,6.86c.24,.087,.497,.14,.767,.14,1.243,0,2.25-1.007,2.25-2.25s-1.007-2.25-2.25-2.25c-.27,0-.527,.052-.767,.14" stroke-linecap="round" stroke-linejoin="round"></path><path d="M10.618,10.87c-.967-.85-2.229-1.37-3.618-1.37-2.145,0-4,1.229-4.906,3.02-.4,.791,.028,1.757,.866,2.048,1.031,.358,2.408,.683,4.04,.683,1.456,0,2.692-.261,3.678-.571" stroke-linecap="round" stroke-linejoin="round"></path><line x1="17.25" y1="12.75" x2="12.25" y2="12.75" stroke-linecap="round" stroke-linejoin="round" stroke="currentColor"></line></g></svg>