<svg xmlns="http://www.w3.org/2000/svg" height="18" width="18" viewBox="0 0 18 18"><title>users shield</title><g fill="none" stroke="currentColor" class="nc-icon-wrapper"><circle cx="7" cy="4.75" r="2.25" stroke-linecap="round" stroke-linejoin="round"></circle><path d="M11.233,6.86c.24,.087,.497,.14,.767,.14,1.243,0,2.25-1.007,2.25-2.25s-1.007-2.25-2.25-2.25c-.27,0-.527,.052-.767,.14" stroke-linecap="round" stroke-linejoin="round"></path><path d="M8.903,9.853c-.594-.22-1.232-.353-1.903-.353-2.145,0-4,1.229-4.906,3.02-.4,.791,.028,1.757,.866,2.048,1.031,.358,2.408,.683,4.04,.683,.469,0,.911-.032,1.336-.079" stroke-linecap="round" stroke-linejoin="round"></path><path d="M13.5,10.25l2.75,1.25v2.94c0,1.54-2.75,2.31-2.75,2.31,0,0-2.75-.77-2.75-2.31v-2.94l2.75-1.25Z" stroke-linecap="round" stroke-linejoin="round" stroke="currentColor"></path></g></svg>