<svg xmlns="http://www.w3.org/2000/svg" height="18" width="18" viewBox="0 0 18 18"><title>user alien</title><g fill="none" stroke="currentColor" class="nc-icon-wrapper"><path d="M11.583,5h0c.23,0,.417,.187,.417,.417h0c0,1.15-.934,2.083-2.083,2.083h0c-.23,0-.417-.187-.417-.417h0c0-1.15,.934-2.083,2.083-2.083Z" transform="translate(21.5 12.5) rotate(-180)" stroke="none" fill="currentColor"></path><path d="M6.417,5h0c1.15,0,2.083,.934,2.083,2.083h0c0,.23-.187,.417-.417,.417h0c-1.15,0-2.083-.934-2.083-2.083h0c0-.23,.187-.417,.417-.417Z" stroke="none" fill="currentColor"></path><path d="M4.75,6c0-2.347,1.903-4.25,4.25-4.25s4.25,1.903,4.25,4.25-2.844,4.75-4.25,4.75-4.25-2.403-4.25-4.75Z" stroke-linecap="round" stroke-linejoin="round"></path><path d="M2.953,16c1.298-1.958,3.522-3.25,6.047-3.25s4.749,1.291,6.047,3.25" stroke="currentColor" stroke-linecap="round" stroke-linejoin="round"></path></g></svg>