<svg xmlns="http://www.w3.org/2000/svg" height="18" width="18" viewBox="0 0 18 18"><title>user link</title><g fill="none" stroke="currentColor" class="nc-icon-wrapper"><circle cx="9" cy="4.5" r="2.75" stroke-linecap="round" stroke-linejoin="round"></circle><path d="M12.25,16.75h-.5c-.828,0-1.5-.672-1.5-1.5v-1c0-.828,.672-1.5,1.5-1.5h.5" stroke-linecap="round" stroke-linejoin="round" stroke="currentColor"></path><path d="M11.485,10.277c-.762-.333-1.599-.527-2.484-.527-2.551,0-4.739,1.53-5.709,3.72-.365,.825,.087,1.774,.947,2.045,.975,.308,2.211,.583,3.638,.685" stroke-linecap="round" stroke-linejoin="round"></path><path d="M14.75,16.75h.5c.828,0,1.5-.672,1.5-1.5v-1c0-.828-.672-1.5-1.5-1.5h-.5" stroke-linecap="round" stroke-linejoin="round" stroke="currentColor"></path><line x1="12.75" y1="14.75" x2="14.25" y2="14.75" stroke-linecap="round" stroke-linejoin="round" stroke="currentColor"></line></g></svg>