<svg xmlns="http://www.w3.org/2000/svg" height="18" width="18" viewBox="0 0 18 18"><title>users key</title><g fill="none" stroke="currentColor" class="nc-icon-wrapper"><circle cx="7" cy="4.75" r="2.25" stroke-linecap="round" stroke-linejoin="round"></circle><path d="M11.233,6.86c.24,.087,.497,.14,.767,.14,1.243,0,2.25-1.007,2.25-2.25s-1.007-2.25-2.25-2.25c-.27,0-.527,.052-.767,.14" stroke-linecap="round" stroke-linejoin="round"></path><circle cx="11.75" cy="13.75" r="1.5" stroke-linecap="round" stroke-linejoin="round" stroke="currentColor"></circle><line x1="13.25" y1="13.75" x2="16.75" y2="13.75" stroke-linecap="round" stroke-linejoin="round" stroke="currentColor"></line><path d="M9.804,10.277c-.821-.49-1.778-.777-2.804-.777-2.145,0-4,1.229-4.906,3.02-.4,.791,.028,1.757,.866,2.048,1.031,.358,2.408,.683,4.04,.683,.359,0,.699-.021,1.032-.05" stroke-linecap="round" stroke-linejoin="round"></path><line x1="15.75" y1="13.75" x2="15.75" y2="15" stroke-linecap="round" stroke-linejoin="round" stroke="currentColor"></line></g></svg>