<svg xmlns="http://www.w3.org/2000/svg" height="18" width="18" viewBox="0 0 18 18"><title>user developer</title><g fill="none" stroke="currentColor" class="nc-icon-wrapper"><path d="M1.953,14c1.298-1.958,3.522-3.25,6.047-3.25" stroke-linecap="round" stroke-linejoin="round"></path><path d="M9.833,7.684c-.522,.357-1.153,.566-1.833,.566-1.795,0-3.25-1.455-3.25-3.25s1.455-3.25,3.25-3.25,3.25,1.455,3.25,3.25" stroke-linecap="round" stroke-linejoin="round"></path><circle cx="14.25" cy="2.25" r=".75" fill="currentColor" stroke="none"></circle><path d="M14.925,16.25h-6.175l1.868-4.203c.08-.181,.259-.297,.457-.297h5.406c.362,0,.604,.372,.457,.703l-1.556,3.5c-.08,.181-.259,.297-.457,.297Z" stroke-linecap="round" stroke-linejoin="round"></path><line x1="8.75" y1="16.25" x2="5.75" y2="16.25" stroke-linecap="round" stroke-linejoin="round"></line><path d="M8.5,5l-3.961-.755c-.738-.141-1.466,.286-1.704,.999" stroke-linecap="round" stroke-linejoin="round"></path><rect x="7" y="3.5" width="3" height="3" rx="1" ry="1" fill="currentColor" stroke="none"></rect><rect x="10.5" y="3.5" width="3" height="3" rx="1" ry="1" fill="currentColor" stroke="none"></rect><polyline points="2 8 .75 9 2 10" stroke="currentColor" stroke-linecap="round" stroke-linejoin="round"></polyline><polyline points="15.5 9 17.25 7.5 15.5 6" stroke="currentColor" stroke-linecap="round" stroke-linejoin="round"></polyline></g></svg>