<svg xmlns="http://www.w3.org/2000/svg" height="18" width="18" viewBox="0 0 18 18"><title>user short hair 5</title><g fill="none" stroke="currentColor" class="nc-icon-wrapper"><path d="M12.75,6.5c0,2.071-1.679,3.75-3.75,3.75s-3.75-1.679-3.75-3.75" stroke-linecap="round" stroke-linejoin="round"></path><path d="M2.953,16c1.298-1.958,3.522-3.25,6.047-3.25s4.749,1.291,6.047,3.25" stroke="currentColor" stroke-linecap="round" stroke-linejoin="round"></path><path d="M12.75,6.5v-.75c0-1.105-.895-2-2-2h-3.5c-1.105,0-2,.895-2,2v.75" stroke-linecap="round" stroke-linejoin="round"></path><path d="M6,3.75h3.75c1.381,0,2.5-1.119,2.5-2.5h0s-3,0-3,0c-2.209,0-4,1.791-4,4v.75" stroke-linecap="round" stroke-linejoin="round"></path></g></svg>