<svg xmlns="http://www.w3.org/2000/svg" height="18" width="18" viewBox="0 0 18 18"><title>users coin</title><g fill="none" stroke="currentColor" class="nc-icon-wrapper"><circle cx="5.25" cy="3.25" r="2" stroke-linecap="round" stroke-linejoin="round"></circle><path d="M3.642,12.382c-.604-.089-1.138-.219-1.591-.356-.489-.148-.818-.635-.709-1.135,.393-1.797,1.993-3.142,3.908-3.142,.818,0,1.579,.246,2.213,.667" stroke-linecap="round" stroke-linejoin="round"></path><path d="M14.358,12.382c.604-.089,1.138-.219,1.591-.356,.489-.148,.818-.635,.709-1.135-.393-1.797-1.993-3.142-3.908-3.142-.818,0-1.579,.246-2.213,.667" stroke-linecap="round" stroke-linejoin="round"></path><circle cx="12.75" cy="3.25" r="2" stroke-linecap="round" stroke-linejoin="round"></circle><circle cx="9" cy="13.75" r="3" stroke-linecap="round" stroke-linejoin="round" stroke="currentColor"></circle><line x1="9" y1="13" x2="9" y2="14.5" stroke-linecap="round" stroke-linejoin="round" stroke="currentColor"></line></g></svg>