<svg xmlns="http://www.w3.org/2000/svg" height="18" width="18" viewBox="0 0 18 18"><title>user pin</title><g fill="none" stroke="currentColor" class="nc-icon-wrapper"><circle cx="9" cy="4.5" r="2.75" stroke-linecap="round" stroke-linejoin="round"></circle><circle cx="14.25" cy="13.25" r=".75" stroke="none" fill="currentColor"></circle><path d="M10.249,9.891c-.405-.083-.819-.141-1.249-.141-2.551,0-4.739,1.53-5.709,3.72-.365,.825,.087,1.774,.947,2.045,1.225,.386,2.846,.734,4.762,.734,.303,0,.585-.022,.873-.038" stroke-linecap="round" stroke-linejoin="round"></path><path d="M14.25,17s-2.75-1.509-2.75-3.75c0-1.519,1.231-2.75,2.75-2.75s2.75,1.231,2.75,2.75c0,2.241-2.75,3.75-2.75,3.75Z" stroke="currentColor" stroke-linecap="round" stroke-linejoin="round"></path></g></svg>