<svg xmlns="http://www.w3.org/2000/svg" height="18" width="18" viewBox="0 0 18 18"><title>user mandalorian</title><g fill="none" stroke="currentColor" class="nc-icon-wrapper"><line x1="5.25" y1="6.549" x2="5.25" y2="1.75" stroke-linecap="round" stroke-linejoin="round" stroke="currentColor"></line><path d="M2.953,16c1.298-1.958,3.522-3.25,6.047-3.25s4.749,1.291,6.047,3.25" stroke-linecap="round" stroke-linejoin="round" stroke="currentColor"></path><path d="M8.798,2.755c-2.028,.106-3.548,1.926-3.548,3.957v1.739c0,.342,.175,.66,.463,.844l2.041,1.299c.16,.102,.347,.156,.537,.156h1.418c.19,0,.376-.054,.537-.156l2.041-1.299c.288-.184,.463-.502,.463-.844v-1.951c0-2.138-1.789-3.858-3.952-3.745Z" stroke-linecap="round" stroke-linejoin="round"></path><path d="M5.297,6.093c.908,.272,2.177,.542,3.703,.542,1.539,0,2.817-.275,3.727-.55" stroke-linecap="round" stroke-linejoin="round"></path><line x1="9" y1="10.75" x2="9" y2="6.635" stroke-linecap="round" stroke-linejoin="round"></line></g></svg>