<svg xmlns="http://www.w3.org/2000/svg" height="18" width="18" viewBox="0 0 18 18"><title>users 5</title><g fill="none" stroke="currentColor" class="nc-icon-wrapper"><circle cx="5" cy="7.5" r="1.75" stroke-linecap="round" stroke-linejoin="round" stroke="currentColor"></circle><circle cx="12.5" cy="4" r="2.25" stroke-linecap="round" stroke-linejoin="round"></circle><path d="M9.217,10.686c.639-1.155,1.87-1.936,3.283-1.936h0c2.071,0,3.75,1.679,3.75,3.75v2.75c0,.552-.448,1-1,1h-4.5" stroke-linecap="round" stroke-linejoin="round"></path><path d="M5,11.75h0c1.794,0,3.25,1.456,3.25,3.25v.25c0,.552-.448,1-1,1H2.75c-.552,0-1-.448-1-1v-.25c0-1.794,1.456-3.25,3.25-3.25Z" stroke-linecap="round" stroke-linejoin="round" stroke="currentColor"></path></g></svg>