<svg xmlns="http://www.w3.org/2000/svg" height="18" width="18" viewBox="0 0 18 18"><title>user settings</title><g fill="none" stroke="currentColor" class="nc-icon-wrapper"><circle cx="9" cy="4.5" r="2.75" stroke-linecap="round" stroke-linejoin="round"></circle><line x1="13.75" y1="10.5" x2="13.75" y2="11.75" stroke-linecap="round" stroke-linejoin="round" stroke="currentColor"></line><line x1="16.048" y1="11.452" x2="15.164" y2="12.336" stroke-linecap="round" stroke-linejoin="round" stroke="currentColor"></line><line x1="17" y1="13.75" x2="15.75" y2="13.75" stroke-linecap="round" stroke-linejoin="round" stroke="currentColor"></line><line x1="16.048" y1="16.048" x2="15.164" y2="15.164" stroke-linecap="round" stroke-linejoin="round" stroke="currentColor"></line><line x1="13.75" y1="17" x2="13.75" y2="15.75" stroke-linecap="round" stroke-linejoin="round" stroke="currentColor"></line><line x1="11.452" y1="16.048" x2="12.336" y2="15.164" stroke-linecap="round" stroke-linejoin="round" stroke="currentColor"></line><line x1="10.5" y1="13.75" x2="11.75" y2="13.75" stroke-linecap="round" stroke-linejoin="round" stroke="currentColor"></line><line x1="11.452" y1="11.452" x2="12.336" y2="12.336" stroke-linecap="round" stroke-linejoin="round" stroke="currentColor"></line><path d="M9.597,9.794c-.198-.019-.394-.044-.597-.044-2.551,0-4.739,1.53-5.709,3.72-.365,.825,.087,1.774,.947,2.045,1.218,.385,2.831,.729,4.734,.733" stroke-linecap="round" stroke-linejoin="round"></path><circle cx="13.75" cy="13.75" r="1.75" stroke-linecap="round" stroke-linejoin="round" stroke="currentColor"></circle></g></svg>