<svg xmlns="http://www.w3.org/2000/svg" height="18" width="18" viewBox="0 0 18 18"><title>user group</title><g fill="none" stroke="currentColor" class="nc-icon-wrapper"><circle cx="9" cy="4.25" r="1.5" stroke-linecap="round" stroke-linejoin="round" stroke="currentColor"></circle><path d="M12.323,11.499l-.852-2.413c-.282-.8-1.036-1.335-1.885-1.334-.381,0-.793,0-1.174,0-.848,0-1.602,.535-1.884,1.334l-.851,2.413c-.096,.272,.057,.568,.334,.647l1.239,.354,.195,3.309c.031,.529,.469,.941,.998,.941h1.114c.529,0,.967-.413,.998-.941l.195-3.309,1.239-.354c.277-.079,.43-.375,.334-.647Z" stroke-linecap="round" stroke-linejoin="round" stroke="currentColor"></path><circle cx="13.75" cy="2.75" r="1.5" stroke-linecap="round" stroke-linejoin="round"></circle><path d="M13.193,15.25h1.114c.529,0,.967-.413,.998-.941l.195-3.309,1.239-.354c.277-.079,.43-.375,.334-.647l-.852-2.413c-.282-.8-1.036-1.335-1.885-1.334-.381,0-.793,0-1.174,0" stroke-linecap="round" stroke-linejoin="round"></path><circle cx="4.25" cy="2.75" r="1.5" stroke-linecap="round" stroke-linejoin="round"></circle><path d="M4.807,15.25h-1.114c-.529,0-.967-.413-.998-.941l-.195-3.309-1.239-.354c-.277-.079-.43-.375-.334-.647l.852-2.413c.282-.8,1.036-1.335,1.885-1.334,.381,0,.793,0,1.174,0" stroke-linecap="round" stroke-linejoin="round"></path></g></svg>