<svg xmlns="http://www.w3.org/2000/svg" height="18" width="18" viewBox="0 0 18 18"><title>users search</title><g fill="none" stroke="currentColor" class="nc-icon-wrapper"><circle cx="7" cy="4.75" r="2.25" stroke-linecap="round" stroke-linejoin="round"></circle><path d="M11.233,6.86c.24,.087,.497,.14,.767,.14,1.243,0,2.25-1.007,2.25-2.25s-1.007-2.25-2.25-2.25c-.27,0-.527,.052-.767,.14" stroke-linecap="round" stroke-linejoin="round"></path><path d="M9.676,10.208c-.793-.445-1.701-.708-2.676-.708-2.145,0-4,1.229-4.906,3.02-.4,.791,.028,1.757,.866,2.048,1.031,.358,2.408,.683,4.04,.683,.811,0,1.558-.081,2.231-.205" stroke-linecap="round" stroke-linejoin="round"></path><circle cx="13.5" cy="13" r="2.25" stroke-linecap="round" stroke-linejoin="round" stroke="currentColor"></circle><line x1="15.09" y1="14.59" x2="16.75" y2="16.25" stroke-linecap="round" stroke-linejoin="round" stroke="currentColor"></line></g></svg>