<svg xmlns="http://www.w3.org/2000/svg" height="18" width="18" viewBox="0 0 18 18"><title>user refresh</title><g fill="none" stroke="currentColor" class="nc-icon-wrapper"><circle cx="9" cy="4.5" r="2.75" stroke-linecap="round" stroke-linejoin="round"></circle><polyline points="13.75 13.25 16.25 13.25 16.25 10.75" stroke-linecap="round" stroke-linejoin="round" stroke="currentColor"></polyline><path d="M10.267,9.895c-.411-.085-.831-.145-1.267-.145-2.551,0-4.739,1.53-5.709,3.72-.365,.825,.087,1.774,.947,2.045,1.174,.37,2.721,.697,4.533,.724" stroke-linecap="round" stroke-linejoin="round"></path><path d="M15.5,15.887c-.501,.531-1.212,.863-2,.863-1.519,0-2.75-1.231-2.75-2.75s1.231-2.75,2.75-2.75c1.166,0,2.162,.726,2.563,1.75" stroke-linecap="round" stroke-linejoin="round" stroke="currentColor"></path></g></svg>