<svg xmlns="http://www.w3.org/2000/svg" height="18" width="18" viewBox="0 0 18 18"><title>user pen</title><g fill="none" stroke="currentColor" class="nc-icon-wrapper"><circle cx="9" cy="4.5" r="2.75" stroke-linecap="round" stroke-linejoin="round"></circle><path d="M11.451,10.264c-.754-.323-1.578-.514-2.451-.514-2.551,0-4.739,1.53-5.709,3.72-.365,.825,.087,1.774,.947,2.045,.966,.305,2.187,.578,3.597,.683" stroke-linecap="round" stroke-linejoin="round"></path><path d="M12.707,15.901c.143-.049,.273-.131,.38-.238l3.303-3.303c.483-.483,.478-1.261-.005-1.745h0c-.483-.483-1.261-.489-1.745-.005l-3.303,3.303c-.107,.107-.189,.237-.238,.38l-.849,2.457,2.457-.849Z" stroke-linecap="round" stroke-linejoin="round" stroke="currentColor"></path></g></svg>