<svg xmlns="http://www.w3.org/2000/svg" height="18" width="18" viewBox="0 0 18 18"><title>users settings</title><g fill="none" stroke="currentColor" class="nc-icon-wrapper"><circle cx="7" cy="4.75" r="2.25" stroke-linecap="round" stroke-linejoin="round"></circle><path d="M11.233,6.86c.24,.087,.497,.14,.767,.14,1.243,0,2.25-1.007,2.25-2.25s-1.007-2.25-2.25-2.25c-.27,0-.527,.052-.767,.14" stroke-linecap="round" stroke-linejoin="round"></path><line x1="14" y1="10" x2="14" y2="11.25" stroke-linecap="round" stroke-linejoin="round" stroke="currentColor"></line><line x1="16.298" y1="10.952" x2="15.414" y2="11.836" stroke-linecap="round" stroke-linejoin="round" stroke="currentColor"></line><line x1="17.25" y1="13.25" x2="16" y2="13.25" stroke-linecap="round" stroke-linejoin="round" stroke="currentColor"></line><line x1="16.298" y1="15.548" x2="15.414" y2="14.664" stroke-linecap="round" stroke-linejoin="round" stroke="currentColor"></line><line x1="14" y1="16.5" x2="14" y2="15.25" stroke-linecap="round" stroke-linejoin="round" stroke="currentColor"></line><line x1="11.702" y1="15.548" x2="12.586" y2="14.664" stroke-linecap="round" stroke-linejoin="round" stroke="currentColor"></line><line x1="10.75" y1="13.25" x2="12" y2="13.25" stroke-linecap="round" stroke-linejoin="round" stroke="currentColor"></line><line x1="11.702" y1="10.952" x2="12.586" y2="11.836" stroke-linecap="round" stroke-linejoin="round" stroke="currentColor"></line><circle cx="14" cy="13.25" r="1.75" stroke-linecap="round" stroke-linejoin="round" stroke="currentColor"></circle><path d="M9.385,10.052c-.722-.349-1.528-.552-2.385-.552-2.145,0-4,1.229-4.906,3.02-.4,.791,.028,1.757,.866,2.048,1.031,.358,2.408,.683,4.04,.683,.749,0,1.437-.074,2.069-.182" stroke-linecap="round" stroke-linejoin="round"></path></g></svg>