<svg xmlns="http://www.w3.org/2000/svg" height="18" width="18" viewBox="0 0 18 18"><title>users star</title><g fill="none" stroke="currentColor" class="nc-icon-wrapper"><circle cx="7" cy="4.75" r="2.25" stroke-linecap="round" stroke-linejoin="round"></circle><path d="M11.233,6.86c.24,.087,.497,.14,.767,.14,1.243,0,2.25-1.007,2.25-2.25s-1.007-2.25-2.25-2.25c-.27,0-.527,.052-.767,.14" stroke-linecap="round" stroke-linejoin="round"></path><path d="M9.436,10.08c-.735-.366-1.559-.58-2.436-.58-2.145,0-4,1.229-4.906,3.02-.4,.791,.028,1.757,.866,2.048,1.031,.358,2.408,.683,4.04,.683,.982,0,1.857-.124,2.634-.295" stroke-linecap="round" stroke-linejoin="round"></path><polygon points="14 9.818 15.004 11.853 17.25 12.179 15.625 13.763 16.009 16 14 14.944 11.991 16 12.375 13.763 10.75 12.179 12.996 11.853 14 9.818" stroke-linecap="round" stroke-linejoin="round" stroke="currentColor"></polygon></g></svg>