<svg xmlns="http://www.w3.org/2000/svg" height="18" width="18" viewBox="0 0 18 18"><title>users 4</title><g fill="none" stroke="currentColor" class="nc-icon-wrapper"><circle cx="5.25" cy="5" r="2" stroke-linecap="round" stroke-linejoin="round"></circle><path d="M2.051,13.776c-.489-.148-.818-.635-.709-1.135,.393-1.797,1.993-3.142,3.908-3.142s3.515,1.345,3.908,3.142c.109,.499-.219,.987-.709,1.135-.821,.248-1.911,.474-3.199,.474s-2.378-.225-3.199-.474Z" stroke-linecap="round" stroke-linejoin="round"></path><circle cx="12.75" cy="5" r="2" stroke-linecap="round" stroke-linejoin="round" stroke="currentColor"></circle><path d="M10.967,9.918c.537-.268,1.142-.418,1.783-.418,1.915,0,3.515,1.345,3.908,3.142,.109,.499-.219,.987-.709,1.135-.821,.248-1.911,.474-3.199,.474-.446,0-.869-.027-1.264-.073" stroke-linecap="round" stroke-linejoin="round" stroke="currentColor"></path></g></svg>