<svg xmlns="http://www.w3.org/2000/svg" height="18" width="18" viewBox="0 0 18 18"><title>users pin</title><g fill="none" stroke="currentColor" class="nc-icon-wrapper"><circle cx="7" cy="4.75" r="2.25" stroke-linecap="round" stroke-linejoin="round"></circle><path d="M11.233,6.86c.24,.087,.497,.14,.767,.14,1.243,0,2.25-1.007,2.25-2.25s-1.007-2.25-2.25-2.25c-.27,0-.527,.052-.767,.14" stroke-linecap="round" stroke-linejoin="round"></path><circle cx="14" cy="12.75" r=".75" stroke="none" fill="currentColor"></circle><path d="M9.489,10.108c-.749-.383-1.59-.608-2.489-.608-2.145,0-4,1.229-4.906,3.02-.4,.791,.028,1.757,.866,2.048,1.031,.358,2.408,.683,4.04,.683,.825,0,1.584-.083,2.267-.212" stroke-linecap="round" stroke-linejoin="round"></path><path d="M14,16.5s-2.75-1.509-2.75-3.75c0-1.519,1.231-2.75,2.75-2.75s2.75,1.231,2.75,2.75c0,2.241-2.75,3.75-2.75,3.75Z" stroke="currentColor" stroke-linecap="round" stroke-linejoin="round"></path></g></svg>