<svg xmlns="http://www.w3.org/2000/svg" height="18" width="18" viewBox="0 0 18 18"><title>users separation</title><g fill="none" stroke="currentColor" class="nc-icon-wrapper"><line x1="9" y1="2" x2="9" y2="16" stroke-linecap="round" stroke-linejoin="round" stroke="currentColor"></line><circle cx="4" cy="5.25" r="1.5" stroke-linecap="round" stroke-linejoin="round"></circle><path d="M4,9.25h0c1.243,0,2.25,1.007,2.25,2.25v2.25c0,.552-.448,1-1,1H2.75c-.552,0-1-.448-1-1v-2.25c0-1.243,1.007-2.25,2.25-2.25Z" stroke-linecap="round" stroke-linejoin="round"></path><circle cx="14" cy="5.25" r="1.5" stroke-linecap="round" stroke-linejoin="round"></circle><path d="M14,9.25h0c-1.243,0-2.25,1.007-2.25,2.25v2.25c0,.552,.448,1,1,1h2.5c.552,0,1-.448,1-1v-2.25c0-1.243-1.007-2.25-2.25-2.25Z" stroke-linecap="round" stroke-linejoin="round"></path></g></svg>