<svg xmlns="http://www.w3.org/2000/svg" height="18" width="18" viewBox="0 0 18 18"><title>users lock</title><g fill="none" stroke="currentColor" class="nc-icon-wrapper"><circle cx="7" cy="4.75" r="2.25" stroke-linecap="round" stroke-linejoin="round"></circle><path d="M11.233,6.86c.24,.087,.497,.14,.767,.14,1.243,0,2.25-1.007,2.25-2.25s-1.007-2.25-2.25-2.25c-.27,0-.527,.052-.767,.14" stroke-linecap="round" stroke-linejoin="round"></path><rect x="11.25" y="12.75" width="6" height="3.5" rx="1" ry="1" stroke-linecap="round" stroke-linejoin="round" stroke="currentColor"></rect><path d="M10.332,10.639c-.925-.709-2.075-1.139-3.332-1.139-2.145,0-4,1.229-4.906,3.02-.4,.791,.028,1.757,.866,2.048,1.031,.358,2.408,.683,4.04,.683,.627,0,1.203-.058,1.75-.137" stroke-linecap="round" stroke-linejoin="round"></path><path d="M12.75,12.75v-1.5c0-.828,.672-1.5,1.5-1.5h0c.828,0,1.5,.672,1.5,1.5v1.5" stroke-linecap="round" stroke-linejoin="round" stroke="currentColor"></path></g></svg>