<svg xmlns="http://www.w3.org/2000/svg" height="18" width="18" viewBox="0 0 18 18"><title>user alert</title><g fill="none" stroke="currentColor" class="nc-icon-wrapper"><circle cx="9" cy="4.5" r="2.75" stroke-linecap="round" stroke-linejoin="round"></circle><path d="M9.389,9.779c-.13-.008-.257-.029-.389-.029-2.551,0-4.739,1.53-5.709,3.72-.365,.825,.087,1.774,.947,2.045,.686,.217,1.509,.413,2.426,.551" stroke-linecap="round" stroke-linejoin="round"></path><path d="M15.5,16.25h.433c.788,0,1.267-.869,.845-1.535l-2.933-4.631c-.393-.62-1.297-.62-1.69,0l-2.933,4.631c-.422,.666,.057,1.535,.845,1.535h.433" stroke="currentColor" stroke-linecap="round" stroke-linejoin="round"></path><line x1="13" y1="12.75" x2="13" y2="14.75" stroke="currentColor" stroke-linecap="round" stroke-linejoin="round"></line><circle cx="13" cy="17.25" r=".75" stroke="none" fill="currentColor"></circle></g></svg>