<svg xmlns="http://www.w3.org/2000/svg" height="18" width="18" viewBox="0 0 18 18"><title>users bookmark</title><g fill="none" stroke="currentColor" class="nc-icon-wrapper"><circle cx="7" cy="4.75" r="2.25" stroke-linecap="round" stroke-linejoin="round"></circle><path d="M11.233,6.86c.24,.087,.497,.14,.767,.14,1.243,0,2.25-1.007,2.25-2.25s-1.007-2.25-2.25-2.25c-.27,0-.527,.052-.767,.14" stroke-linecap="round" stroke-linejoin="round"></path><path d="M9.635,10.187c-.784-.431-1.677-.687-2.635-.687-2.145,0-4,1.229-4.906,3.02-.4,.791,.028,1.757,.866,2.048,1.031,.358,2.408,.683,4.04,.683,.818,0,1.572-.082,2.25-.208" stroke-linecap="round" stroke-linejoin="round"></path><path d="M16.25,17.25l-2.25-2.25-2.25,2.25v-5.5c0-.552,.448-1,1-1h2.5c.552,0,1,.448,1,1v5.5Z" stroke-linecap="round" stroke-linejoin="round" stroke="currentColor"></path></g></svg>