<svg xmlns="http://www.w3.org/2000/svg" height="18" width="18" viewBox="0 0 18 18"><title>user change</title><g fill="none" stroke="currentColor" class="nc-icon-wrapper"><circle cx="4.5" cy="10.25" r="1.75" stroke-linecap="round" stroke-linejoin="round"></circle><path d="M1.145,16.75c.43-1.446,1.77-2.5,3.355-2.5,1.585,0,2.925,1.054,3.355,2.5" stroke-linecap="round" stroke-linejoin="round"></path><circle cx="13.5" cy="3.005" r="1.75" stroke-linecap="round" stroke-linejoin="round"></circle><path d="M10.145,9.505c.43-1.446,1.77-2.5,3.355-2.5,1.585,0,2.925,1.054,3.355,2.5" stroke-linecap="round" stroke-linejoin="round"></path><path d="M7.25,2.75h-2c-1.381,0-2.5,1.119-2.5,2.5v.75" stroke-linecap="round" stroke-linejoin="round" stroke="currentColor"></path><polyline points="5.75 .75 7.75 2.75 5.75 4.75" stroke-linecap="round" stroke-linejoin="round" stroke="currentColor"></polyline><path d="M10.75,15.25h2c1.381,0,2.5-1.119,2.5-2.5v-.75" stroke-linecap="round" stroke-linejoin="round" stroke="currentColor"></path><polyline points="12.25 17.25 10.25 15.25 12.25 13.25" stroke-linecap="round" stroke-linejoin="round" stroke="currentColor"></polyline></g></svg>