<svg xmlns="http://www.w3.org/2000/svg" height="18" width="18" viewBox="0 0 18 18"><title>users link</title><g fill="none" stroke="currentColor" class="nc-icon-wrapper"><circle cx="7" cy="4.75" r="2.25" stroke-linecap="round" stroke-linejoin="round"></circle><path d="M11.233,6.86c.24,.087,.497,.14,.767,.14,1.243,0,2.25-1.007,2.25-2.25s-1.007-2.25-2.25-2.25c-.27,0-.527,.052-.767,.14" stroke-linecap="round" stroke-linejoin="round"></path><path d="M12.75,15.25h-.5c-.828,0-1.5-.672-1.5-1.5v-1c0-.828,.672-1.5,1.5-1.5h.5" stroke-linecap="round" stroke-linejoin="round" stroke="currentColor"></path><path d="M15.25,15.25h.5c.828,0,1.5-.672,1.5-1.5v-1c0-.828-.672-1.5-1.5-1.5h-.5" stroke-linecap="round" stroke-linejoin="round" stroke="currentColor"></path><path d="M9.337,10.027c-.71-.335-1.5-.527-2.337-.527-2.145,0-4,1.229-4.906,3.02-.4,.791,.028,1.757,.866,2.048,1.031,.358,2.408,.683,4.04,.683,.538,0,1.036-.044,1.515-.104" stroke-linecap="round" stroke-linejoin="round"></path><line x1="13.25" y1="13.25" x2="14.75" y2="13.25" stroke-linecap="round" stroke-linejoin="round" stroke="currentColor"></line></g></svg>