<svg xmlns="http://www.w3.org/2000/svg" height="18" width="18" viewBox="0 0 18 18"><title>user dots</title><g fill="none" stroke="currentColor" class="nc-icon-wrapper"><circle cx="9" cy="4.5" r="2.75" stroke-linecap="round" stroke-linejoin="round"></circle><path d="M13,16c-.551,0-1-.448-1-1s.449-1,1-1,1,.448,1,1-.449,1-1,1Z" stroke="none" fill="currentColor"></path><path d="M10,16c-.551,0-1-.448-1-1s.449-1,1-1,1,.448,1,1-.449,1-1,1Z" stroke="none" fill="currentColor"></path><path d="M14.168,12.514c-1.121-1.663-3.01-2.764-5.168-2.764-2.551,0-4.739,1.53-5.709,3.72-.365,.825,.087,1.774,.947,2.045,.895,.282,2.007,.541,3.287,.662" stroke-linecap="round" stroke-linejoin="round"></path><path d="M16,16c-.551,0-1-.448-1-1s.449-1,1-1,1,.448,1,1-.449,1-1,1Z" stroke="none" fill="currentColor"></path></g></svg>