<svg xmlns="http://www.w3.org/2000/svg" height="18" width="18" viewBox="0 0 18 18"><title>vr controller</title><g fill="none" stroke="currentColor" class="nc-icon-wrapper"><circle cx="9" cy="5" r="1" fill="currentColor" stroke="none"></circle><path d="M12.25,5c0-1.795-1.455-3.25-3.25-3.25s-3.25,1.455-3.25,3.25c0,1.149,.6,2.153,1.5,2.731v6.769c0,.967,.784,1.75,1.75,1.75s1.75-.783,1.75-1.75V7.731c.9-.578,1.5-1.582,1.5-2.731Z" stroke-linecap="round" stroke-linejoin="round"></path><path d="M4,8.371c-1.386,.41-2.25,.988-2.25,1.629,0,1.243,3.246,2.25,7.25,2.25,4.004,0,7.25-1.007,7.25-2.25,0-.641-.864-1.219-2.25-1.629" stroke="currentColor" stroke-linecap="round" stroke-linejoin="round"></path></g></svg>