<svg xmlns="http://www.w3.org/2000/svg" height="18" width="18" viewBox="0 0 18 18"><title>vr headset 2</title><g fill="none" stroke="currentColor" class="nc-icon-wrapper"><path d="M15.457,6.594l-1.753-2.77c-.325-.513-.865-.86-1.469-.918-.99-.096-2.072-.156-3.235-.156-.98,0-2.062,.043-3.227,.155-.607,.059-1.153,.407-1.479,.923l-1.67,2.644" stroke-linecap="round" stroke-linejoin="round" stroke="currentColor"></path><path d="M9,5.481c1.837,0,3.541,.103,5.091,.264,.947,.098,1.659,.902,1.659,1.854v2.304s0,2.304,0,2.304c0,.952-.712,1.755-1.659,1.854-1.012,.105-1.838,.175-2.976,.218-.604,.023-1.074-1.817-2.115-1.817-1.041,0-1.511,1.84-2.115,1.817-1.138-.043-1.964-.113-2.976-.218-.947-.098-1.659-.902-1.659-1.854V7.598c0-.952,.712-1.755,1.659-1.854,1.55-.161,3.254-.264,5.091-.264Z" stroke-linecap="round" stroke-linejoin="round"></path><path d="M6,8.077c.999-.064,2.003-.096,3-.096s2.001,.032,3,.096" stroke-linecap="round" stroke-linejoin="round" stroke="currentColor"></path><polyline points="2.25 8.75 1.25 8.75 1.25 11.25 2.25 11.25" stroke-linecap="round" stroke-linejoin="round"></polyline><polyline points="15.75 8.75 16.75 8.75 16.75 11.25 15.75 11.25" stroke-linecap="round" stroke-linejoin="round"></polyline></g></svg>