<svg xmlns="http://www.w3.org/2000/svg" height="18" width="18" viewBox="0 0 18 18"><title>wallet 2 circuit</title><g fill="none" stroke="currentColor" class="nc-icon-wrapper"><path d="M2.25,5.5h0c0-1.733,1.249-3.213,2.957-3.505L11.769,.875c.434-.074,.866,.145,1.063,.539l.053,.106" stroke-linecap="round" stroke-linejoin="round" stroke="currentColor"></path><circle cx="7.75" cy="14.25" r="1.5" stroke-linecap="round" stroke-linejoin="round" stroke="currentColor"></circle><line x1="1.75" y1="14.25" x2="6.25" y2="14.25" stroke-linecap="round" stroke-linejoin="round" stroke="currentColor"></line><circle cx="6.25" cy="9" r="1.5" stroke-linecap="round" stroke-linejoin="round" stroke="currentColor"></circle><path d="M5.19,10.06l-1.397,1.397c-.188,.188-.442,.293-.707,.293H1.75" stroke-linecap="round" stroke-linejoin="round" stroke="currentColor"></path><path d="M15.75,11.25v2c0,1.105-.895,2-2,2h-2.127" stroke-linecap="round" stroke-linejoin="round"></path><path d="M2.25,9v-3.25c0-1.105,.895-2,2-2H13.75c1.105,0,2,.895,2,2v2" stroke-linecap="round" stroke-linejoin="round"></path><path d="M15.75,11.25h-2.75c-.966,0-1.75-.784-1.75-1.75h0c0-.967,.784-1.75,1.75-1.75h2.75c.552,0,1,.448,1,1v1.5c0,.552-.448,1-1,1Z" stroke-linecap="round" stroke-linejoin="round"></path></g></svg>