<svg xmlns="http://www.w3.org/2000/svg" height="18" width="18" viewBox="0 0 18 18"><title>workstation 2</title><g fill="none" stroke="currentColor" class="nc-icon-wrapper"><line x1="11.75" y1="11.75" x2="11.75" y2="14.75" stroke-linecap="round" stroke-linejoin="round"></line><path d="M4.75,14.75L.95,10.95c-.23-.23-.253-.595-.053-.852l.854-1.098" stroke-linecap="round" stroke-linejoin="round" stroke="currentColor"></path><line x1="6.75" y1="14.75" x2="2.25" y2="14.75" stroke-linecap="round" stroke-linejoin="round" stroke="currentColor"></line><line x1="14.25" y1="14.75" x2="9.25" y2="14.75" stroke-linecap="round" stroke-linejoin="round"></line><path d="M7.502,11.602c.231,.094,.483,.148,.748,.148h7c1.105,0,2-.896,2-2V5.25c0-1.104-.895-2-2-2h-6.17" stroke-linecap="round" stroke-linejoin="round"></path><path d="M4.293,5.18l-.974-.67c-.323-.222-.764-.14-.986,.183l-.457,.665c-.222,.323-.14,.764,.183,.986l.974,.67c.779,.536,.475,2.622,2.046,3.702l3.404-4.951c-1.546-1.063-3.409-.049-4.189-.585Z" stroke-linecap="round" stroke-linejoin="round" stroke="currentColor"></path></g></svg>